$MeshFormat
2.2 0 8
$EndMeshFormat
$PhysicalNames
4
1 1 "inlet"
1 2 "outlet"
1 3 "walls"
2 10 "fluid"
$EndPhysicalNames
$Nodes
1267
1 0 0.018 0
2 0.002 0.018 0
3 0.004 0.018 0
4 0.006 0.018 0
5 0.008 0.018 0
6 0.01 0.018 0
7 0.012 0.018 0
8 0.014 0.018 0
9 0.016 0.018 0
10 0.018 0.018 0
11 0.02 0.018 0
12 0.022 0.018 0
13 0.024 0.018 0
14 0.026 0.018 0
15 0.028 0.018 0
16 0.03 0.018 0
17 0.032 0.018 0
18 0.034 0.018 0
19 0.036 0.018 0
20 0.038 0.018 0
21 0.04 0.018 0
22 0.042 0.018 0
23 0.044 0.018 0
24 0.046 0.018 0
25 0.048 0.018 0
26 0.05 0.018 0
27 0.052 0.018 0
28 0.054 0.018 0
29 0.056 0.018 0
30 0.07200000000000001 0.018 0
31 0.074 0.018 0
32 0.076 0.018 0
33 0.078 0.018 0
34 0.08 0.018 0
35 0.082 0.018 0
36 0.08400000000000001 0.018 0
37 0.08600000000000001 0.018 0
38 0.08799999999999999 0.018 0
39 0.09 0.018 0
40 0.092 0.018 0
41 0.094 0.018 0
42 0.096 0.018 0
43 0.098 0.018 0
44 0.1 0.018 0
45 0.102 0.018 0
46 0.104 0.018 0
47 0.106 0.018 0
48 0.108 0.018 0
49 0.11 0.018 0
50 0.112 0.018 0
51 0.114 0.018 0
52 0.116 0.018 0
53 0.118 0.018 0
54 0.12 0.018 0
55 0.122 0.018 0
56 0.124 0.018 0
57 0.126 0.018 0
58 0.128 0.018 0
59 0 0.02 0
60 0.002 0.02 0
61 0.004 0.02 0
62 0.006 0.02 0
63 0.008 0.02 0
64 0.01 0.02 0
65 0.012 0.02 0
66 0.014 0.02 0
67 0.016 0.02 0
68 0.018 0.02 0
69 0.02 0.02 0
70 0.022 0.02 0
71 0.024 0.02 0
72 0.026 0.02 0
73 0.028 0.02 0
74 0.03 0.02 0
75 0.032 0.02 0
76 0.034 0.02 0
77 0.036 0.02 0
78 0.038 0.02 0
79 0.04 0.02 0
80 0.042 0.02 0
81 0.044 0.02 0
82 0.046 0.02 0
83 0.048 0.02 0
84 0.05 0.02 0
85 0.052 0.02 0
86 0.054 0.02 0
87 0.056 0.02 0
88 0.058 0.02 0
89 0.07000000000000001 0.02 0
90 0.07200000000000001 0.02 0
91 0.074 0.02 0
92 0.076 0.02 0
93 0.078 0.02 0
94 0.08 0.02 0
95 0.082 0.02 0
96 0.08400000000000001 0.02 0
97 0.08600000000000001 0.02 0
98 0.08799999999999999 0.02 0
99 0.09 0.02 0
100 0.092 0.02 0
101 0.094 0.02 0
102 0.096 0.02 0
103 0.098 0.02 0
104 0.1 0.02 0
105 0.102 0.02 0
106 0.104 0.02 0
107 0.106 0.02 0
108 0.108 0.02 0
109 0.11 0.02 0
110 0.112 0.02 0
111 0.114 0.02 0
112 0.116 0.02 0
113 0.118 0.02 0
114 0.12 0.02 0
115 0.122 0.02 0
116 0.124 0.02 0
117 0.126 0.02 0
118 0.128 0.02 0
119 0 0.022 0
120 0.002 0.022 0
121 0.004 0.022 0
122 0.006 0.022 0
123 0.008 0.022 0
124 0.01 0.022 0
125 0.012 0.022 0
126 0.014 0.022 0
127 0.016 0.022 0
128 0.018 0.022 0
129 0.02 0.022 0
130 0.022 0.022 0
131 0.024 0.022 0
132 0.026 0.022 0
133 0.028 0.022 0
134 0.03 0.022 0
135 0.032 0.022 0
136 0.034 0.022 0
137 0.036 0.022 0
138 0.038 0.022 0
139 0.04 0.022 0
140 0.042 0.022 0
141 0.044 0.022 0
142 0.046 0.022 0
143 0.048 0.022 0
144 0.05 0.022 0
145 0.052 0.022 0
146 0.054 0.022 0
147 0.056 0.022 0
148 0.058 0.022 0
149 0.07000000000000001 0.022 0
150 0.07200000000000001 0.022 0
151 0.074 0.022 0
152 0.076 0.022 0
153 0.078 0.022 0
154 0.08 0.022 0
155 0.082 0.022 0
156 0.08400000000000001 0.022 0
157 0.08600000000000001 0.022 0
158 0.08799999999999999 0.022 0
159 0.09 0.022 0
160 0.092 0.022 0
161 0.094 0.022 0
162 0.096 0.022 0
163 0.098 0.022 0
164 0.1 0.022 0
165 0.102 0.022 0
166 0.104 0.022 0
167 0.106 0.022 0
168 0.108 0.022 0
169 0.11 0.022 0
170 0.112 0.022 0
171 0.114 0.022 0
172 0.116 0.022 0
173 0.118 0.022 0
174 0.12 0.022 0
175 0.122 0.022 0
176 0.124 0.022 0
177 0.126 0.022 0
178 0.128 0.022 0
179 0 0.024 0
180 0.002 0.024 0
181 0.004 0.024 0
182 0.006 0.024 0
183 0.008 0.024 0
184 0.01 0.024 0
185 0.012 0.024 0
186 0.014 0.024 0
187 0.016 0.024 0
188 0.018 0.024 0
189 0.02 0.024 0
190 0.022 0.024 0
191 0.024 0.024 0
192 0.026 0.024 0
193 0.028 0.024 0
194 0.03 0.024 0
195 0.032 0.024 0
196 0.034 0.024 0
197 0.036 0.024 0
198 0.038 0.024 0
199 0.04 0.024 0
200 0.042 0.024 0
201 0.044 0.024 0
202 0.046 0.024 0
203 0.048 0.024 0
204 0.05 0.024 0
205 0.052 0.024 0
206 0.054 0.024 0
207 0.056 0.024 0
208 0.058 0.024 0
209 0.07000000000000001 0.024 0
210 0.07200000000000001 0.024 0
211 0.074 0.024 0
212 0.076 0.024 0
213 0.078 0.024 0
214 0.08 0.024 0
215 0.082 0.024 0
216 0.08400000000000001 0.024 0
217 0.08600000000000001 0.024 0
218 0.08799999999999999 0.024 0
219 0.09 0.024 0
220 0.092 0.024 0
221 0.094 0.024 0
222 0.096 0.024 0
223 0.098 0.024 0
224 0.1 0.024 0
225 0.102 0.024 0
226 0.104 0.024 0
227 0.106 0.024 0
228 0.108 0.024 0
229 0.11 0.024 0
230 0.112 0.024 0
231 0.114 0.024 0
232 0.116 0.024 0
233 0.118 0.024 0
234 0.12 0.024 0
235 0.122 0.024 0
236 0.124 0.024 0
237 0.126 0.024 0
238 0.128 0.024 0
239 0 0.026 0
240 0.002 0.026 0
241 0.004 0.026 0
242 0.006 0.026 0
243 0.008 0.026 0
244 0.01 0.026 0
245 0.012 0.026 0
246 0.014 0.026 0
247 0.016 0.026 0
248 0.018 0.026 0
249 0.02 0.026 0
250 0.022 0.026 0
251 0.024 0.026 0
252 0.026 0.026 0
253 0.028 0.026 0
254 0.03 0.026 0
255 0.032 0.026 0
256 0.034 0.026 0
257 0.036 0.026 0
258 0.038 0.026 0
259 0.04 0.026 0
260 0.042 0.026 0
261 0.044 0.026 0
262 0.046 0.026 0
263 0.048 0.026 0
264 0.05 0.026 0
265 0.052 0.026 0
266 0.054 0.026 0
267 0.056 0.026 0
268 0.058 0.026 0
269 0.06 0.026 0
270 0.068 0.026 0
271 0.07000000000000001 0.026 0
272 0.07200000000000001 0.026 0
273 0.074 0.026 0
274 0.076 0.026 0
275 0.078 0.026 0
276 0.08 0.026 0
277 0.082 0.026 0
278 0.08400000000000001 0.026 0
279 0.08600000000000001 0.026 0
280 0.08799999999999999 0.026 0
281 0.09 0.026 0
282 0.092 0.026 0
283 0.094 0.026 0
284 0.096 0.026 0
285 0.098 0.026 0
286 0.1 0.026 0
287 0.102 0.026 0
288 0.104 0.026 0
289 0.106 0.026 0
290 0.108 0.026 0
291 0.11 0.026 0
292 0.112 0.026 0
293 0.114 0.026 0
294 0.116 0.026 0
295 0.118 0.026 0
296 0.12 0.026 0
297 0.122 0.026 0
298 0.124 0.026 0
299 0.126 0.026 0
300 0.128 0.026 0
301 0 0.028 0
302 0.002 0.028 0
303 0.004 0.028 0
304 0.006 0.028 0
305 0.008 0.028 0
306 0.01 0.028 0
307 0.012 0.028 0
308 0.014 0.028 0
309 0.016 0.028 0
310 0.018 0.028 0
311 0.02 0.028 0
312 0.022 0.028 0
313 0.024 0.028 0
314 0.026 0.028 0
315 0.028 0.028 0
316 0.03 0.028 0
317 0.032 0.028 0
318 0.034 0.028 0
319 0.036 0.028 0
320 0.038 0.028 0
321 0.04 0.028 0
322 0.042 0.028 0
323 0.044 0.028 0
324 0.046 0.028 0
325 0.048 0.028 0
326 0.05 0.028 0
327 0.052 0.028 0
328 0.054 0.028 0
329 0.056 0.028 0
330 0.058 0.028 0
331 0.06 0.028 0
332 0.068 0.028 0
333 0.07000000000000001 0.028 0
334 0.07200000000000001 0.028 0
335 0.074 0.028 0
336 0.076 0.028 0
337 0.078 0.028 0
338 0.08 0.028 0
339 0.082 0.028 0
340 0.08400000000000001 0.028 0
341 0.08600000000000001 0.028 0
342 0.08799999999999999 0.028 0
343 0.09 0.028 0
344 0.092 0.028 0
345 0.094 0.028 0
346 0.096 0.028 0
347 0.098 0.028 0
348 0.1 0.028 0
349 0.102 0.028 0
350 0.104 0.028 0
351 0.106 0.028 0
352 0.108 0.028 0
353 0.11 0.028 0
354 0.112 0.028 0
355 0.114 0.028 0
356 0.116 0.028 0
357 0.118 0.028 0
358 0.12 0.028 0
359 0.122 0.028 0
360 0.124 0.028 0
361 0.126 0.028 0
362 0.128 0.028 0
363 0 0.03 0
364 0.002 0.03 0
365 0.004 0.03 0
366 0.006 0.03 0
367 0.008 0.03 0
368 0.01 0.03 0
369 0.012 0.03 0
370 0.014 0.03 0
371 0.016 0.03 0
372 0.018 0.03 0
373 0.02 0.03 0
374 0.022 0.03 0
375 0.024 0.03 0
376 0.026 0.03 0
377 0.028 0.03 0
378 0.03 0.03 0
379 0.032 0.03 0
380 0.034 0.03 0
381 0.036 0.03 0
382 0.038 0.03 0
383 0.04 0.03 0
384 0.042 0.03 0
385 0.044 0.03 0
386 0.046 0.03 0
387 0.048 0.03 0
388 0.05 0.03 0
389 0.052 0.03 0
390 0.054 0.03 0
391 0.056 0.03 0
392 0.058 0.03 0
393 0.06 0.03 0
394 0.068 0.03 0
395 0.07000000000000001 0.03 0
396 0.07200000000000001 0.03 0
397 0.074 0.03 0
398 0.076 0.03 0
399 0.078 0.03 0
400 0.08 0.03 0
401 0.082 0.03 0
402 0.08400000000000001 0.03 0
403 0.08600000000000001 0.03 0
404 0.08799999999999999 0.03 0
405 0.09 0.03 0
406 0.092 0.03 0
407 0.094 0.03 0
408 0.096 0.03 0
409 0.098 0.03 0
410 0.1 0.03 0
411 0.102 0.03 0
412 0.104 0.03 0
413 0.106 0.03 0
414 0.108 0.03 0
415 0.11 0.03 0
416 0.112 0.03 0
417 0.114 0.03 0
418 0.116 0.03 0
419 0.118 0.03 0
420 0.12 0.03 0
421 0.122 0.03 0
422 0.124 0.03 0
423 0.126 0.03 0
424 0.128 0.03 0
425 0.048 0.032 0
426 0.05 0.032 0
427 0.052 0.032 0
428 0.054 0.032 0
429 0.056 0.032 0
430 0.058 0.032 0
431 0.06 0.032 0
432 0.068 0.032 0
433 0.07000000000000001 0.032 0
434 0.07200000000000001 0.032 0
435 0.074 0.032 0
436 0.076 0.032 0
437 0.078 0.032 0
438 0.08 0.032 0
439 0.048 0.034 0
440 0.05 0.034 0
441 0.052 0.034 0
442 0.054 0.034 0
443 0.056 0.034 0
444 0.058 0.034 0
445 0.06 0.034 0
446 0.062 0.034 0
447 0.066 0.034 0
448 0.068 0.034 0
449 0.07000000000000001 0.034 0
450 0.07200000000000001 0.034 0
451 0.074 0.034 0
452 0.076 0.034 0
453 0.078 0.034 0
454 0.08 0.034 0
455 0.05 0.036 0
456 0.052 0.036 0
457 0.054 0.036 0
458 0.056 0.036 0
459 0.058 0.036 0
460 0.06 0.036 0
461 0.062 0.036 0
462 0.066 0.036 0
463 0.068 0.036 0
464 0.07000000000000001 0.036 0
465 0.07200000000000001 0.036 0
466 0.074 0.036 0
467 0.076 0.036 0
468 0.078 0.036 0
469 0.05 0.038 0
470 0.052 0.038 0
471 0.054 0.038 0
472 0.056 0.038 0
473 0.058 0.038 0
474 0.06 0.038 0
475 0.062 0.038 0
476 0.066 0.038 0
477 0.068 0.038 0
478 0.07000000000000001 0.038 0
479 0.07200000000000001 0.038 0
480 0.074 0.038 0
481 0.076 0.038 0
482 0.078 0.038 0
483 0.05 0.04 0
484 0.052 0.04 0
485 0.054 0.04 0
486 0.056 0.04 0
487 0.058 0.04 0
488 0.06 0.04 0
489 0.062 0.04 0
490 0.064 0.04 0
491 0.066 0.04 0
492 0.068 0.04 0
493 0.07000000000000001 0.04 0
494 0.07200000000000001 0.04 0
495 0.074 0.04 0
496 0.076 0.04 0
497 0.078 0.04 0
498 0.05 0.042 0
499 0.052 0.042 0
500 0.054 0.042 0
501 0.056 0.042 0
502 0.058 0.042 0
503 0.06 0.042 0
504 0.062 0.042 0
505 0.064 0.042 0
506 0.066 0.042 0
507 0.068 0.042 0
508 0.07000000000000001 0.042 0
509 0.07200000000000001 0.042 0
510 0.074 0.042 0
511 0.076 0.042 0
512 0.078 0.042 0
513 0.052 0.044 0
514 0.054 0.044 0
515 0.056 0.044 0
516 0.058 0.044 0
517 0.06 0.044 0
518 0.062 0.044 0
519 0.064 0.044 0
520 0.066 0.044 0
521 0.068 0.044 0
522 0.07000000000000001 0.044 0
523 0.07200000000000001 0.044 0
524 0.074 0.044 0
525 0.076 0.044 0
526 0.052 0.046 0
527 0.054 0.046 0
528 0.056 0.046 0
529 0.058 0.046 0
530 0.06 0.046 0
531 0.062 0.046 0
532 0.064 0.046 0
533 0.066 0.046 0
534 0.068 0.046 0
535 0.07000000000000001 0.046 0
536 0.07200000000000001 0.046 0
537 0.074 0.046 0
538 0.076 0.046 0
539 0.052 0.048 0
540 0.054 0.048 0
541 0.056 0.048 0
542 0.058 0.048 0
543 0.06 0.048 0
544 0.062 0.048 0
545 0.064 0.048 0
546 0.066 0.048 0
547 0.068 0.048 0
548 0.07000000000000001 0.048 0
549 0.07200000000000001 0.048 0
550 0.074 0.048 0
551 0.076 0.048 0
552 0.054 0.05 0
553 0.056 0.05 0
554 0.058 0.05 0
555 0.06 0.05 0
556 0.062 0.05 0
557 0.064 0.05 0
558 0.066 0.05 0
559 0.068 0.05 0
560 0.07000000000000001 0.05 0
561 0.07200000000000001 0.05 0
562 0.074 0.05 0
563 0.054 0.052 0
564 0.056 0.052 0
565 0.058 0.052 0
566 0.06 0.052 0
567 0.062 0.052 0
568 0.064 0.052 0
569 0.066 0.052 0
570 0.068 0.052 0
571 0.07000000000000001 0.052 0
572 0.07200000000000001 0.052 0
573 0.074 0.052 0
574 0.054 0.054 0
575 0.056 0.054 0
576 0.058 0.054 0
577 0.06 0.054 0
578 0.062 0.054 0
579 0.064 0.054 0
580 0.066 0.054 0
581 0.068 0.054 0
582 0.07000000000000001 0.054 0
583 0.07200000000000001 0.054 0
584 0.074 0.054 0
585 0.054 0.056 0
586 0.056 0.056 0
587 0.058 0.056 0
588 0.06 0.056 0
589 0.062 0.056 0
590 0.064 0.056 0
591 0.066 0.056 0
592 0.068 0.056 0
593 0.07000000000000001 0.056 0
594 0.07200000000000001 0.056 0
595 0.074 0.056 0
596 0.054 0.058 0
597 0.056 0.058 0
598 0.058 0.058 0
599 0.06 0.058 0
600 0.062 0.058 0
601 0.064 0.058 0
602 0.066 0.058 0
603 0.068 0.058 0
604 0.07000000000000001 0.058 0
605 0.07200000000000001 0.058 0
606 0.074 0.058 0
607 0.054 0.06 0
608 0.056 0.06 0
609 0.058 0.06 0
610 0.06 0.06 0
611 0.062 0.06 0
612 0.064 0.06 0
613 0.066 0.06 0
614 0.068 0.06 0
615 0.07000000000000001 0.06 0
616 0.07200000000000001 0.06 0
617 0.074 0.06 0
618 0.054 0.062 0
619 0.056 0.062 0
620 0.058 0.062 0
621 0.06 0.062 0
622 0.062 0.062 0
623 0.064 0.062 0
624 0.066 0.062 0
625 0.068 0.062 0
626 0.07000000000000001 0.062 0
627 0.07200000000000001 0.062 0
628 0.074 0.062 0
629 0.054 0.064 0
630 0.056 0.064 0
631 0.058 0.064 0
632 0.06 0.064 0
633 0.062 0.064 0
634 0.064 0.064 0
635 0.066 0.064 0
636 0.068 0.064 0
637 0.07000000000000001 0.064 0
638 0.07200000000000001 0.064 0
639 0.074 0.064 0
640 0.054 0.066 0
641 0.056 0.066 0
642 0.058 0.066 0
643 0.06 0.066 0
644 0.062 0.066 0
645 0.064 0.066 0
646 0.066 0.066 0
647 0.068 0.066 0
648 0.07000000000000001 0.066 0
649 0.07200000000000001 0.066 0
650 0.074 0.066 0
651 0.054 0.068 0
652 0.056 0.068 0
653 0.058 0.068 0
654 0.06 0.068 0
655 0.062 0.068 0
656 0.064 0.068 0
657 0.066 0.068 0
658 0.068 0.068 0
659 0.07000000000000001 0.068 0
660 0.07200000000000001 0.068 0
661 0.074 0.068 0
662 0.054 0.07000000000000001 0
663 0.056 0.07000000000000001 0
664 0.058 0.07000000000000001 0
665 0.06 0.07000000000000001 0
666 0.062 0.07000000000000001 0
667 0.064 0.07000000000000001 0
668 0.066 0.07000000000000001 0
669 0.068 0.07000000000000001 0
670 0.07000000000000001 0.07000000000000001 0
671 0.07200000000000001 0.07000000000000001 0
672 0.074 0.07000000000000001 0
673 0.054 0.07200000000000001 0
674 0.056 0.07200000000000001 0
675 0.058 0.07200000000000001 0
676 0.06 0.07200000000000001 0
677 0.062 0.07200000000000001 0
678 0.064 0.07200000000000001 0
679 0.066 0.07200000000000001 0
680 0.068 0.07200000000000001 0
681 0.07000000000000001 0.07200000000000001 0
682 0.07200000000000001 0.07200000000000001 0
683 0.074 0.07200000000000001 0
684 0.054 0.074 0
685 0.056 0.074 0
686 0.058 0.074 0
687 0.06 0.074 0
688 0.062 0.074 0
689 0.064 0.074 0
690 0.066 0.074 0
691 0.068 0.074 0
692 0.07000000000000001 0.074 0
693 0.07200000000000001 0.074 0
694 0.074 0.074 0
695 0.054 0.076 0
696 0.056 0.076 0
697 0.058 0.076 0
698 0.06 0.076 0
699 0.062 0.076 0
700 0.064 0.076 0
701 0.066 0.076 0
702 0.068 0.076 0
703 0.07000000000000001 0.076 0
704 0.07200000000000001 0.076 0
705 0.074 0.076 0
706 0.054 0.078 0
707 0.056 0.078 0
708 0.058 0.078 0
709 0.06 0.078 0
710 0.062 0.078 0
711 0.064 0.078 0
712 0.066 0.078 0
713 0.068 0.078 0
714 0.07000000000000001 0.078 0
715 0.07200000000000001 0.078 0
716 0.074 0.078 0
717 0.052 0.08 0
718 0.054 0.08 0
719 0.056 0.08 0
720 0.058 0.08 0
721 0.06 0.08 0
722 0.062 0.08 0
723 0.064 0.08 0
724 0.066 0.08 0
725 0.068 0.08 0
726 0.07000000000000001 0.08 0
727 0.07200000000000001 0.08 0
728 0.074 0.08 0
729 0.076 0.08 0
730 0.052 0.082 0
731 0.054 0.082 0
732 0.056 0.082 0
733 0.058 0.082 0
734 0.06 0.082 0
735 0.062 0.082 0
736 0.064 0.082 0
737 0.066 0.082 0
738 0.068 0.082 0
739 0.07000000000000001 0.082 0
740 0.07200000000000001 0.082 0
741 0.074 0.082 0
742 0.076 0.082 0
743 0.052 0.08400000000000001 0
744 0.054 0.08400000000000001 0
745 0.056 0.08400000000000001 0
746 0.058 0.08400000000000001 0
747 0.06 0.08400000000000001 0
748 0.062 0.08400000000000001 0
749 0.064 0.08400000000000001 0
750 0.066 0.08400000000000001 0
751 0.068 0.08400000000000001 0
752 0.07000000000000001 0.08400000000000001 0
753 0.07200000000000001 0.08400000000000001 0
754 0.074 0.08400000000000001 0
755 0.076 0.08400000000000001 0
756 0.05 0.08600000000000001 0
757 0.052 0.08600000000000001 0
758 0.054 0.08600000000000001 0
759 0.056 0.08600000000000001 0
760 0.058 0.08600000000000001 0
761 0.06 0.08600000000000001 0
762 0.062 0.08600000000000001 0
763 0.064 0.08600000000000001 0
764 0.066 0.08600000000000001 0
765 0.068 0.08600000000000001 0
766 0.07000000000000001 0.08600000000000001 0
767 0.07200000000000001 0.08600000000000001 0
768 0.074 0.08600000000000001 0
769 0.076 0.08600000000000001 0
770 0.078 0.08600000000000001 0
771 0.05 0.08799999999999999 0
772 0.052 0.08799999999999999 0
773 0.054 0.08799999999999999 0
774 0.056 0.08799999999999999 0
775 0.058 0.08799999999999999 0
776 0.06 0.08799999999999999 0
777 0.062 0.08799999999999999 0
778 0.064 0.08799999999999999 0
779 0.066 0.08799999999999999 0
780 0.068 0.08799999999999999 0
781 0.07000000000000001 0.08799999999999999 0
782 0.07200000000000001 0.08799999999999999 0
783 0.074 0.08799999999999999 0
784 0.076 0.08799999999999999 0
785 0.078 0.08799999999999999 0
786 0.05 0.09 0
787 0.052 0.09 0
788 0.054 0.09 0
789 0.056 0.09 0
790 0.058 0.09 0
791 0.06 0.09 0
792 0.062 0.09 0
793 0.066 0.09 0
794 0.068 0.09 0
795 0.07000000000000001 0.09 0
796 0.07200000000000001 0.09 0
797 0.074 0.09 0
798 0.076 0.09 0
799 0.078 0.09 0
800 0.05 0.092 0
801 0.052 0.092 0
802 0.054 0.092 0
803 0.056 0.092 0
804 0.058 0.092 0
805 0.06 0.092 0
806 0.062 0.092 0
807 0.066 0.092 0
808 0.068 0.092 0
809 0.07000000000000001 0.092 0
810 0.07200000000000001 0.092 0
811 0.074 0.092 0
812 0.076 0.092 0
813 0.078 0.092 0
814 0.048 0.094 0
815 0.05 0.094 0
816 0.052 0.094 0
817 0.054 0.094 0
818 0.056 0.094 0
819 0.058 0.094 0
820 0.06 0.094 0
821 0.062 0.094 0
822 0.066 0.094 0
823 0.068 0.094 0
824 0.07000000000000001 0.094 0
825 0.07200000000000001 0.094 0
826 0.074 0.094 0
827 0.076 0.094 0
828 0.078 0.094 0
829 0.08 0.094 0
830 0.048 0.096 0
831 0.05 0.096 0
832 0.052 0.096 0
833 0.054 0.096 0
834 0.056 0.096 0
835 0.058 0.096 0
836 0.06 0.096 0
837 0.068 0.096 0
838 0.07000000000000001 0.096 0
839 0.07200000000000001 0.096 0
840 0.074 0.096 0
841 0.076 0.096 0
842 0.078 0.096 0
843 0.08 0.096 0
844 0 0.098 0
845 0.002 0.098 0
846 0.004 0.098 0
847 0.006 0.098 0
848 0.008 0.098 0
849 0.01 0.098 0
850 0.012 0.098 0
851 0.014 0.098 0
852 0.016 0.098 0
853 0.018 0.098 0
854 0.02 0.098 0
855 0.022 0.098 0
856 0.024 0.098 0
857 0.026 0.098 0
858 0.028 0.098 0
859 0.03 0.098 0
860 0.032 0.098 0
861 0.034 0.098 0
862 0.036 0.098 0
863 0.038 0.098 0
864 0.04 0.098 0
865 0.042 0.098 0
866 0.044 0.098 0
867 0.046 0.098 0
868 0.048 0.098 0
869 0.05 0.098 0
870 0.052 0.098 0
871 0.054 0.098 0
872 0.056 0.098 0
873 0.058 0.098 0
874 0.06 0.098 0
875 0.068 0.098 0
876 0.07000000000000001 0.098 0
877 0.07200000000000001 0.098 0
878 0.074 0.098 0
879 0.076 0.098 0
880 0.078 0.098 0
881 0.08 0.098 0
882 0.082 0.098 0
883 0.08400000000000001 0.098 0
884 0.08600000000000001 0.098 0
885 0.08799999999999999 0.098 0
886 0.09 0.098 0
887 0.092 0.098 0
888 0.094 0.098 0
889 0.096 0.098 0
890 0.098 0.098 0
891 0.1 0.098 0
892 0.102 0.098 0
893 0.104 0.098 0
894 0.106 0.098 0
895 0.108 0.098 0
896 0.11 0.098 0
897 0.112 0.098 0
898 0.114 0.098 0
899 0.116 0.098 0
900 0.118 0.098 0
901 0.12 0.098 0
902 0.122 0.098 0
903 0.124 0.098 0
904 0.126 0.098 0
905 0.128 0.098 0
906 0 0.1 0
907 0.002 0.1 0
908 0.004 0.1 0
909 0.006 0.1 0
910 0.008 0.1 0
911 0.01 0.1 0
912 0.012 0.1 0
913 0.014 0.1 0
914 0.016 0.1 0
915 0.018 0.1 0
916 0.02 0.1 0
917 0.022 0.1 0
918 0.024 0.1 0
919 0.026 0.1 0
920 0.028 0.1 0
921 0.03 0.1 0
922 0.032 0.1 0
923 0.034 0.1 0
924 0.036 0.1 0
925 0.038 0.1 0
926 0.04 0.1 0
927 0.042 0.1 0
928 0.044 0.1 0
929 0.046 0.1 0
930 0.048 0.1 0
931 0.05 0.1 0
932 0.052 0.1 0
933 0.054 0.1 0
934 0.056 0.1 0
935 0.058 0.1 0
936 0.06 0.1 0
937 0.068 0.1 0
938 0.07000000000000001 0.1 0
939 0.07200000000000001 0.1 0
940 0.074 0.1 0
941 0.076 0.1 0
942 0.078 0.1 0
943 0.08 0.1 0
944 0.082 0.1 0
945 0.08400000000000001 0.1 0
946 0.08600000000000001 0.1 0
947 0.08799999999999999 0.1 0
948 0.09 0.1 0
949 0.092 0.1 0
950 0.094 0.1 0
951 0.096 0.1 0
952 0.098 0.1 0
953 0.1 0.1 0
954 0.102 0.1 0
955 0.104 0.1 0
956 0.106 0.1 0
957 0.108 0.1 0
958 0.11 0.1 0
959 0.112 0.1 0
960 0.114 0.1 0
961 0.116 0.1 0
962 0.118 0.1 0
963 0.12 0.1 0
964 0.122 0.1 0
965 0.124 0.1 0
966 0.126 0.1 0
967 0.128 0.1 0
968 0 0.102 0
969 0.002 0.102 0
970 0.004 0.102 0
971 0.006 0.102 0
972 0.008 0.102 0
973 0.01 0.102 0
974 0.012 0.102 0
975 0.014 0.102 0
976 0.016 0.102 0
977 0.018 0.102 0
978 0.02 0.102 0
979 0.022 0.102 0
980 0.024 0.102 0
981 0.026 0.102 0
982 0.028 0.102 0
983 0.03 0.102 0
984 0.032 0.102 0
985 0.034 0.102 0
986 0.036 0.102 0
987 0.038 0.102 0
988 0.04 0.102 0
989 0.042 0.102 0
990 0.044 0.102 0
991 0.046 0.102 0
992 0.048 0.102 0
993 0.05 0.102 0
994 0.052 0.102 0
995 0.054 0.102 0
996 0.056 0.102 0
997 0.058 0.102 0
998 0.06 0.102 0
999 0.068 0.102 0
1000 0.07000000000000001 0.102 0
1001 0.07200000000000001 0.102 0
1002 0.074 0.102 0
1003 0.076 0.102 0
1004 0.078 0.102 0
1005 0.08 0.102 0
1006 0.082 0.102 0
1007 0.08400000000000001 0.102 0
1008 0.08600000000000001 0.102 0
1009 0.08799999999999999 0.102 0
1010 0.09 0.102 0
1011 0.092 0.102 0
1012 0.094 0.102 0
1013 0.096 0.102 0
1014 0.098 0.102 0
1015 0.1 0.102 0
1016 0.102 0.102 0
1017 0.104 0.102 0
1018 0.106 0.102 0
1019 0.108 0.102 0
1020 0.11 0.102 0
1021 0.112 0.102 0
1022 0.114 0.102 0
1023 0.116 0.102 0
1024 0.118 0.102 0
1025 0.12 0.102 0
1026 0.122 0.102 0
1027 0.124 0.102 0
1028 0.126 0.102 0
1029 0.128 0.102 0
1030 0 0.104 0
1031 0.002 0.104 0
1032 0.004 0.104 0
1033 0.006 0.104 0
1034 0.008 0.104 0
1035 0.01 0.104 0
1036 0.012 0.104 0
1037 0.014 0.104 0
1038 0.016 0.104 0
1039 0.018 0.104 0
1040 0.02 0.104 0
1041 0.022 0.104 0
1042 0.024 0.104 0
1043 0.026 0.104 0
1044 0.028 0.104 0
1045 0.03 0.104 0
1046 0.032 0.104 0
1047 0.034 0.104 0
1048 0.036 0.104 0
1049 0.038 0.104 0
1050 0.04 0.104 0
1051 0.042 0.104 0
1052 0.044 0.104 0
1053 0.046 0.104 0
1054 0.048 0.104 0
1055 0.05 0.104 0
1056 0.052 0.104 0
1057 0.054 0.104 0
1058 0.056 0.104 0
1059 0.058 0.104 0
1060 0.07000000000000001 0.104 0
1061 0.07200000000000001 0.104 0
1062 0.074 0.104 0
1063 0.076 0.104 0
1064 0.078 0.104 0
1065 0.08 0.104 0
1066 0.082 0.104 0
1067 0.08400000000000001 0.104 0
1068 0.08600000000000001 0.104 0
1069 0.08799999999999999 0.104 0
1070 0.09 0.104 0
1071 0.092 0.104 0
1072 0.094 0.104 0
1073 0.096 0.104 0
1074 0.098 0.104 0
1075 0.1 0.104 0
1076 0.102 0.104 0
1077 0.104 0.104 0
1078 0.106 0.104 0
1079 0.108 0.104 0
1080 0.11 0.104 0
1081 0.112 0.104 0
1082 0.114 0.104 0
1083 0.116 0.104 0
1084 0.118 0.104 0
1085 0.12 0.104 0
1086 0.122 0.104 0
1087 0.124 0.104 0
1088 0.126 0.104 0
1089 0.128 0.104 0
1090 0 0.106 0
1091 0.002 0.106 0
1092 0.004 0.106 0
1093 0.006 0.106 0
1094 0.008 0.106 0
1095 0.01 0.106 0
1096 0.012 0.106 0
1097 0.014 0.106 0
1098 0.016 0.106 0
1099 0.018 0.106 0
1100 0.02 0.106 0
1101 0.022 0.106 0
1102 0.024 0.106 0
1103 0.026 0.106 0
1104 0.028 0.106 0
1105 0.03 0.106 0
1106 0.032 0.106 0
1107 0.034 0.106 0
1108 0.036 0.106 0
1109 0.038 0.106 0
1110 0.04 0.106 0
1111 0.042 0.106 0
1112 0.044 0.106 0
1113 0.046 0.106 0
1114 0.048 0.106 0
1115 0.05 0.106 0
1116 0.052 0.106 0
1117 0.054 0.106 0
1118 0.056 0.106 0
1119 0.058 0.106 0
1120 0.07000000000000001 0.106 0
1121 0.07200000000000001 0.106 0
1122 0.074 0.106 0
1123 0.076 0.106 0
1124 0.078 0.106 0
1125 0.08 0.106 0
1126 0.082 0.106 0
1127 0.08400000000000001 0.106 0
1128 0.08600000000000001 0.106 0
1129 0.08799999999999999 0.106 0
1130 0.09 0.106 0
1131 0.092 0.106 0
1132 0.094 0.106 0
1133 0.096 0.106 0
1134 0.098 0.106 0
1135 0.1 0.106 0
1136 0.102 0.106 0
1137 0.104 0.106 0
1138 0.106 0.106 0
1139 0.108 0.106 0
1140 0.11 0.106 0
1141 0.112 0.106 0
1142 0.114 0.106 0
1143 0.116 0.106 0
1144 0.118 0.106 0
1145 0.12 0.106 0
1146 0.122 0.106 0
1147 0.124 0.106 0
1148 0.126 0.106 0
1149 0.128 0.106 0
1150 0 0.108 0
1151 0.002 0.108 0
1152 0.004 0.108 0
1153 0.006 0.108 0
1154 0.008 0.108 0
1155 0.01 0.108 0
1156 0.012 0.108 0
1157 0.014 0.108 0
1158 0.016 0.108 0
1159 0.018 0.108 0
1160 0.02 0.108 0
1161 0.022 0.108 0
1162 0.024 0.108 0
1163 0.026 0.108 0
1164 0.028 0.108 0
1165 0.03 0.108 0
1166 0.032 0.108 0
1167 0.034 0.108 0
1168 0.036 0.108 0
1169 0.038 0.108 0
1170 0.04 0.108 0
1171 0.042 0.108 0
1172 0.044 0.108 0
1173 0.046 0.108 0
1174 0.048 0.108 0
1175 0.05 0.108 0
1176 0.052 0.108 0
1177 0.054 0.108 0
1178 0.056 0.108 0
1179 0.058 0.108 0
1180 0.07000000000000001 0.108 0
1181 0.07200000000000001 0.108 0
1182 0.074 0.108 0
1183 0.076 0.108 0
1184 0.078 0.108 0
1185 0.08 0.108 0
1186 0.082 0.108 0
1187 0.08400000000000001 0.108 0
1188 0.08600000000000001 0.108 0
1189 0.08799999999999999 0.108 0
1190 0.09 0.108 0
1191 0.092 0.108 0
1192 0.094 0.108 0
1193 0.096 0.108 0
1194 0.098 0.108 0
1195 0.1 0.108 0
1196 0.102 0.108 0
1197 0.104 0.108 0
1198 0.106 0.108 0
1199 0.108 0.108 0
1200 0.11 0.108 0
1201 0.112 0.108 0
1202 0.114 0.108 0
1203 0.116 0.108 0
1204 0.118 0.108 0
1205 0.12 0.108 0
1206 0.122 0.108 0
1207 0.124 0.108 0
1208 0.126 0.108 0
1209 0.128 0.108 0
1210 0 0.11 0
1211 0.002 0.11 0
1212 0.004 0.11 0
1213 0.006 0.11 0
1214 0.008 0.11 0
1215 0.01 0.11 0
1216 0.012 0.11 0
1217 0.014 0.11 0
1218 0.016 0.11 0
1219 0.018 0.11 0
1220 0.02 0.11 0
1221 0.022 0.11 0
1222 0.024 0.11 0
1223 0.026 0.11 0
1224 0.028 0.11 0
1225 0.03 0.11 0
1226 0.032 0.11 0
1227 0.034 0.11 0
1228 0.036 0.11 0
1229 0.038 0.11 0
1230 0.04 0.11 0
1231 0.042 0.11 0
1232 0.044 0.11 0
1233 0.046 0.11 0
1234 0.048 0.11 0
1235 0.05 0.11 0
1236 0.052 0.11 0
1237 0.054 0.11 0
1238 0.056 0.11 0
1239 0.07200000000000001 0.11 0
1240 0.074 0.11 0
1241 0.076 0.11 0
1242 0.078 0.11 0
1243 0.08 0.11 0
1244 0.082 0.11 0
1245 0.08400000000000001 0.11 0
1246 0.08600000000000001 0.11 0
1247 0.08799999999999999 0.11 0
1248 0.09 0.11 0
1249 0.092 0.11 0
1250 0.094 0.11 0
1251 0.096 0.11 0
1252 0.098 0.11 0
1253 0.1 0.11 0
1254 0.102 0.11 0
1255 0.104 0.11 0
1256 0.106 0.11 0
1257 0.108 0.11 0
1258 0.11 0.11 0
1259 0.112 0.11 0
1260 0.114 0.11 0
1261 0.116 0.11 0
1262 0.118 0.11 0
1263 0.12 0.11 0
1264 0.122 0.11 0
1265 0.124 0.11 0
1266 0.126 0.11 0
1267 0.128 0.11 0
$EndNodes
$Elements
2532
1 1 2 3 3 1 2
2 1 2 1 1 1 59
3 1 2 3 3 2 3
4 1 2 3 3 3 4
5 1 2 3 3 4 5
6 1 2 3 3 5 6
7 1 2 3 3 6 7
8 1 2 3 3 7 8
9 1 2 3 3 8 9
10 1 2 3 3 9 10
11 1 2 3 3 10 11
12 1 2 3 3 11 12
13 1 2 3 3 12 13
14 1 2 3 3 13 14
15 1 2 3 3 14 15
16 1 2 3 3 15 16
17 1 2 3 3 16 17
18 1 2 3 3 17 18
19 1 2 3 3 18 19
20 1 2 3 3 19 20
21 1 2 3 3 20 21
22 1 2 3 3 21 22
23 1 2 3 3 22 23
24 1 2 3 3 23 24
25 1 2 3 3 24 25
26 1 2 3 3 25 26
27 1 2 3 3 26 27
28 1 2 3 3 27 28
29 1 2 3 3 28 29
30 1 2 3 3 29 87
31 1 2 3 3 30 31
32 1 2 3 3 30 90
33 1 2 3 3 31 32
34 1 2 3 3 32 33
35 1 2 3 3 33 34
36 1 2 3 3 34 35
37 1 2 3 3 35 36
38 1 2 3 3 36 37
39 1 2 3 3 37 38
40 1 2 3 3 38 39
41 1 2 3 3 39 40
42 1 2 3 3 40 41
43 1 2 3 3 41 42
44 1 2 3 3 42 43
45 1 2 3 3 43 44
46 1 2 3 3 44 45
47 1 2 3 3 45 46
48 1 2 3 3 46 47
49 1 2 3 3 47 48
50 1 2 3 3 48 49
51 1 2 3 3 49 50
52 1 2 3 3 50 51
53 1 2 3 3 51 52
54 1 2 3 3 52 53
55 1 2 3 3 53 54
56 1 2 3 3 54 55
57 1 2 3 3 55 56
58 1 2 3 3 56 57
59 1 2 3 3 57 58
60 1 2 2 2 58 118
61 1 2 1 1 59 119
62 1 2 3 3 87 88
63 1 2 3 3 88 148
64 1 2 3 3 89 90
65 1 2 3 3 89 149
66 1 2 2 2 118 178
67 1 2 1 1 119 179
68 1 2 3 3 148 208
69 1 2 3 3 149 209
70 1 2 2 2 178 238
71 1 2 1 1 179 239
72 1 2 3 3 208 268
73 1 2 3 3 209 271
74 1 2 2 2 238 300
75 1 2 1 1 239 301
76 1 2 3 3 268 269
77 1 2 3 3 269 331
78 1 2 3 3 270 271
79 1 2 3 3 270 332
80 1 2 2 2 300 362
81 1 2 3 3 363 364
82 1 2 1 1 301 363
83 1 2 3 3 364 365
84 1 2 3 3 365 366
85 1 2 3 3 366 367
86 1 2 3 3 367 368
87 1 2 3 3 368 369
88 1 2 3 3 369 370
89 1 2 3 3 370 371
90 1 2 3 3 371 372
91 1 2 3 3 372 373
92 1 2 3 3 373 374
93 1 2 3 3 374 375
94 1 2 3 3 375 376
95 1 2 3 3 376 377
96 1 2 3 3 377 378
97 1 2 3 3 378 379
98 1 2 3 3 379 380
99 1 2 3 3 380 381
100 1 2 3 3 381 382
101 1 2 3 3 382 383
102 1 2 3 3 383 384
103 1 2 3 3 384 385
104 1 2 3 3 385 386
105 1 2 3 3 386 387
106 1 2 3 3 331 393
107 1 2 3 3 332 394
108 1 2 3 3 400 401
109 1 2 3 3 401 402
110 1 2 3 3 402 403
111 1 2 3 3 403 404
112 1 2 3 3 404 405
113 1 2 3 3 405 406
114 1 2 3 3 406 407
115 1 2 3 3 407 408
116 1 2 3 3 408 409
117 1 2 3 3 409 410
118 1 2 3 3 410 411
119 1 2 3 3 411 412
120 1 2 3 3 412 413
121 1 2 3 3 413 414
122 1 2 3 3 414 415
123 1 2 3 3 415 416
124 1 2 3 3 416 417
125 1 2 3 3 417 418
126 1 2 3 3 418 419
127 1 2 3 3 419 420
128 1 2 3 3 420 421
129 1 2 3 3 421 422
130 1 2 3 3 422 423
131 1 2 2 2 362 424
132 1 2 3 3 423 424
133 1 2 3 3 387 425
134 1 2 3 3 393 431
135 1 2 3 3 394 432
136 1 2 3 3 400 438
137 1 2 3 3 439 440
138 1 2 3 3 425 439
139 1 2 3 3 431 445
140 1 2 3 3 432 448
141 1 2 3 3 438 454
142 1 2 3 3 453 454
143 1 2 3 3 440 455
144 1 2 3 3 445 446
145 1 2 3 3 446 461
146 1 2 3 3 447 448
147 1 2 3 3 447 462
148 1 2 3 3 453 468
149 1 2 3 3 455 469
150 1 2 3 3 461 475
151 1 2 3 3 462 476
152 1 2 3 3 468 482
153 1 2 3 3 469 483
154 1 2 3 3 475 489
155 1 2 3 3 476 491
156 1 2 3 3 482 497
157 1 2 3 3 498 499
158 1 2 3 3 483 498
159 1 2 3 3 489 490
160 1 2 3 3 490 491
161 1 2 3 3 497 512
162 1 2 3 3 511 512
163 1 2 3 3 499 513
164 1 2 3 3 511 525
165 1 2 3 3 513 526
166 1 2 3 3 525 538
167 1 2 3 3 539 540
168 1 2 3 3 526 539
169 1 2 3 3 538 551
170 1 2 3 3 550 551
171 1 2 3 3 540 552
172 1 2 3 3 550 562
173 1 2 3 3 552 563
174 1 2 3 3 562 573
175 1 2 3 3 563 574
176 1 2 3 3 573 584
177 1 2 3 3 574 585
178 1 2 3 3 584 595
179 1 2 3 3 585 596
180 1 2 3 3 595 606
181 1 2 3 3 596 607
182 1 2 3 3 606 617
183 1 2 3 3 607 618
184 1 2 3 3 617 628
185 1 2 3 3 618 629
186 1 2 3 3 628 639
187 1 2 3 3 629 640
188 1 2 3 3 639 650
189 1 2 3 3 640 651
190 1 2 3 3 650 661
191 1 2 3 3 651 662
192 1 2 3 3 661 672
193 1 2 3 3 662 673
194 1 2 3 3 672 683
195 1 2 3 3 673 684
196 1 2 3 3 683 694
197 1 2 3 3 684 695
198 1 2 3 3 694 705
199 1 2 3 3 695 706
200 1 2 3 3 705 716
201 1 2 3 3 706 718
202 1 2 3 3 716 728
203 1 2 3 3 717 718
204 1 2 3 3 717 730
205 1 2 3 3 728 729
206 1 2 3 3 729 742
207 1 2 3 3 730 743
208 1 2 3 3 742 755
209 1 2 3 3 743 757
210 1 2 3 3 755 769
211 1 2 3 3 756 757
212 1 2 3 3 756 771
213 1 2 3 3 777 778
214 1 2 3 3 778 779
215 1 2 3 3 769 770
216 1 2 3 3 770 785
217 1 2 3 3 771 786
218 1 2 3 3 777 792
219 1 2 3 3 779 793
220 1 2 3 3 785 799
221 1 2 3 3 786 800
222 1 2 3 3 792 806
223 1 2 3 3 793 807
224 1 2 3 3 799 813
225 1 2 3 3 800 815
226 1 2 3 3 806 821
227 1 2 3 3 820 821
228 1 2 3 3 822 823
229 1 2 3 3 807 822
230 1 2 3 3 813 828
231 1 2 3 3 814 815
232 1 2 3 3 814 830
233 1 2 3 3 820 836
234 1 2 3 3 823 837
235 1 2 3 3 828 829
236 1 2 3 3 829 843
237 1 2 3 3 830 868
238 1 2 3 3 836 874
239 1 2 3 3 837 875
240 1 2 3 3 843 881
241 1 2 3 3 844 845
242 1 2 1 1 844 906
243 1 2 3 3 845 846
244 1 2 3 3 846 847
245 1 2 3 3 847 848
246 1 2 3 3 848 849
247 1 2 3 3 849 850
248 1 2 3 3 850 851
249 1 2 3 3 851 852
250 1 2 3 3 852 853
251 1 2 3 3 853 854
252 1 2 3 3 854 855
253 1 2 3 3 855 856
254 1 2 3 3 856 857
255 1 2 3 3 857 858
256 1 2 3 3 858 859
257 1 2 3 3 859 860
258 1 2 3 3 860 861
259 1 2 3 3 861 862
260 1 2 3 3 862 863
261 1 2 3 3 863 864
262 1 2 3 3 864 865
263 1 2 3 3 865 866
264 1 2 3 3 866 867
265 1 2 3 3 867 868
266 1 2 3 3 874 936
267 1 2 3 3 875 937
268 1 2 3 3 881 882
269 1 2 3 3 882 883
270 1 2 3 3 883 884
271 1 2 3 3 884 885
272 1 2 3 3 885 886
273 1 2 3 3 886 887
274 1 2 3 3 887 888
275 1 2 3 3 888 889
276 1 2 3 3 889 890
277 1 2 3 3 890 891
278 1 2 3 3 891 892
279 1 2 3 3 892 893
280 1 2 3 3 893 894
281 1 2 3 3 894 895
282 1 2 3 3 895 896
283 1 2 3 3 896 897
284 1 2 3 3 897 898
285 1 2 3 3 898 899
286 1 2 3 3 899 900
287 1 2 3 3 900 901
288 1 2 3 3 901 902
289 1 2 3 3 902 903
290 1 2 3 3 903 904
291 1 2 3 3 904 905
292 1 2 2 2 905 967
293 1 2 1 1 906 968
294 1 2 3 3 936 998
295 1 2 3 3 997 998
296 1 2 3 3 999 1000
297 1 2 3 3 937 999
298 1 2 2 2 967 1029
299 1 2 1 1 968 1030
300 1 2 3 3 997 1059
301 1 2 3 3 1000 1060
302 1 2 2 2 1029 1089
303 1 2 1 1 1030 1090
304 1 2 3 3 1059 1119
305 1 2 3 3 1060 1120
306 1 2 2 2 1089 1149
307 1 2 1 1 1090 1150
308 1 2 3 3 1119 1179
309 1 2 3 3 1178 1179
310 1 2 3 3 1180 1181
311 1 2 3 3 1120 1180
312 1 2 2 2 1149 1209
313 1 2 3 3 1210 1211
314 1 2 1 1 1150 1210
315 1 2 3 3 1211 1212
316 1 2 3 3 1212 1213
317 1 2 3 3 1213 1214
318 1 2 3 3 1214 1215
319 1 2 3 3 1215 1216
320 1 2 3 3 1216 1217
321 1 2 3 3 1217 1218
322 1 2 3 3 1218 1219
323 1 2 3 3 1219 1220
324 1 2 3 3 1220 1221
325 1 2 3 3 1221 1222
326 1 2 3 3 1222 1223
327 1 2 3 3 1223 1224
328 1 2 3 3 1224 1225
329 1 2 3 3 1225 1226
330 1 2 3 3 1226 1227
331 1 2 3 3 1227 1228
332 1 2 3 3 1228 1229
333 1 2 3 3 1229 1230
334 1 2 3 3 1230 1231
335 1 2 3 3 1231 1232
336 1 2 3 3 1232 1233
337 1 2 3 3 1233 1234
338 1 2 3 3 1234 1235
339 1 2 3 3 1235 1236
340 1 2 3 3 1236 1237
341 1 2 3 3 1178 1238
342 1 2 3 3 1237 1238
343 1 2 3 3 1239 1240
344 1 2 3 3 1181 1239
345 1 2 3 3 1240 1241
346 1 2 3 3 1241 1242
347 1 2 3 3 1242 1243
348 1 2 3 3 1243 1244
349 1 2 3 3 1244 1245
350 1 2 3 3 1245 1246
351 1 2 3 3 1246 1247
352 1 2 3 3 1247 1248
353 1 2 3 3 1248 1249
354 1 2 3 3 1249 1250
355 1 2 3 3 1250 1251
356 1 2 3 3 1251 1252
357 1 2 3 3 1252 1253
358 1 2 3 3 1253 1254
359 1 2 3 3 1254 1255
360 1 2 3 3 1255 1256
361 1 2 3 3 1256 1257
362 1 2 3 3 1257 1258
363 1 2 3 3 1258 1259
364 1 2 3 3 1259 1260
365 1 2 3 3 1260 1261
366 1 2 3 3 1261 1262
367 1 2 3 3 1262 1263
368 1 2 3 3 1263 1264
369 1 2 3 3 1264 1265
370 1 2 3 3 1265 1266
371 1 2 2 2 1209 1267
372 1 2 3 3 1266 1267
373 2 2 10 10 1 2 60
374 2 2 10 10 1 60 59
375 2 2 10 10 2 3 61
376 2 2 10 10 2 61 60
377 2 2 10 10 3 4 62
378 2 2 10 10 3 62 61
379 2 2 10 10 4 5 63
380 2 2 10 10 4 63 62
381 2 2 10 10 5 6 64
382 2 2 10 10 5 64 63
383 2 2 10 10 6 7 65
384 2 2 10 10 6 65 64
385 2 2 10 10 7 8 66
386 2 2 10 10 7 66 65
387 2 2 10 10 8 9 67
388 2 2 10 10 8 67 66
389 2 2 10 10 9 10 68
390 2 2 10 10 9 68 67
391 2 2 10 10 10 11 69
392 2 2 10 10 10 69 68
393 2 2 10 10 11 12 70
394 2 2 10 10 11 70 69
395 2 2 10 10 12 13 71
396 2 2 10 10 12 71 70
397 2 2 10 10 13 14 72
398 2 2 10 10 13 72 71
399 2 2 10 10 14 15 73
400 2 2 10 10 14 73 72
401 2 2 10 10 15 16 74
402 2 2 10 10 15 74 73
403 2 2 10 10 16 17 75
404 2 2 10 10 16 75 74
405 2 2 10 10 17 18 76
406 2 2 10 10 17 76 75
407 2 2 10 10 18 19 77
408 2 2 10 10 18 77 76
409 2 2 10 10 19 20 78
410 2 2 10 10 19 78 77
411 2 2 10 10 20 21 79
412 2 2 10 10 20 79 78
413 2 2 10 10 21 22 80
414 2 2 10 10 21 80 79
415 2 2 10 10 22 23 81
416 2 2 10 10 22 81 80
417 2 2 10 10 23 24 82
418 2 2 10 10 23 82 81
419 2 2 10 10 24 25 83
420 2 2 10 10 24 83 82
421 2 2 10 10 25 26 84
422 2 2 10 10 25 84 83
423 2 2 10 10 26 27 85
424 2 2 10 10 26 85 84
425 2 2 10 10 27 28 86
426 2 2 10 10 27 86 85
427 2 2 10 10 28 29 87
428 2 2 10 10 28 87 86
429 2 2 10 10 30 31 91
430 2 2 10 10 30 91 90
431 2 2 10 10 31 32 92
432 2 2 10 10 31 92 91
433 2 2 10 10 32 33 93
434 2 2 10 10 32 93 92
435 2 2 10 10 33 34 94
436 2 2 10 10 33 94 93
437 2 2 10 10 34 35 95
438 2 2 10 10 34 95 94
439 2 2 10 10 35 36 96
440 2 2 10 10 35 96 95
441 2 2 10 10 36 37 97
442 2 2 10 10 36 97 96
443 2 2 10 10 37 38 98
444 2 2 10 10 37 98 97
445 2 2 10 10 38 39 99
446 2 2 10 10 38 99 98
447 2 2 10 10 39 40 100
448 2 2 10 10 39 100 99
449 2 2 10 10 40 41 101
450 2 2 10 10 40 101 100
451 2 2 10 10 41 42 102
452 2 2 10 10 41 102 101
453 2 2 10 10 42 43 103
454 2 2 10 10 42 103 102
455 2 2 10 10 43 44 104
456 2 2 10 10 43 104 103
457 2 2 10 10 44 45 105
458 2 2 10 10 44 105 104
459 2 2 10 10 45 46 106
460 2 2 10 10 45 106 105
461 2 2 10 10 46 47 107
462 2 2 10 10 46 107 106
463 2 2 10 10 47 48 108
464 2 2 10 10 47 108 107
465 2 2 10 10 48 49 109
466 2 2 10 10 48 109 108
467 2 2 10 10 49 50 110
468 2 2 10 10 49 110 109
469 2 2 10 10 50 51 111
470 2 2 10 10 50 111 110
471 2 2 10 10 51 52 112
472 2 2 10 10 51 112 111
473 2 2 10 10 52 53 113
474 2 2 10 10 52 113 112
475 2 2 10 10 53 54 114
476 2 2 10 10 53 114 113
477 2 2 10 10 54 55 115
478 2 2 10 10 54 115 114
479 2 2 10 10 55 56 116
480 2 2 10 10 55 116 115
481 2 2 10 10 56 57 117
482 2 2 10 10 56 117 116
483 2 2 10 10 57 58 118
484 2 2 10 10 57 118 117
485 2 2 10 10 59 60 120
486 2 2 10 10 59 120 119
487 2 2 10 10 60 61 121
488 2 2 10 10 60 121 120
489 2 2 10 10 61 62 122
490 2 2 10 10 61 122 121
491 2 2 10 10 62 63 123
492 2 2 10 10 62 123 122
493 2 2 10 10 63 64 124
494 2 2 10 10 63 124 123
495 2 2 10 10 64 65 125
496 2 2 10 10 64 125 124
497 2 2 10 10 65 66 126
498 2 2 10 10 65 126 125
499 2 2 10 10 66 67 127
500 2 2 10 10 66 127 126
501 2 2 10 10 67 68 128
502 2 2 10 10 67 128 127
503 2 2 10 10 68 69 129
504 2 2 10 10 68 129 128
505 2 2 10 10 69 70 130
506 2 2 10 10 69 130 129
507 2 2 10 10 70 71 131
508 2 2 10 10 70 131 130
509 2 2 10 10 71 72 132
510 2 2 10 10 71 132 131
511 2 2 10 10 72 73 133
512 2 2 10 10 72 133 132
513 2 2 10 10 73 74 134
514 2 2 10 10 73 134 133
515 2 2 10 10 74 75 135
516 2 2 10 10 74 135 134
517 2 2 10 10 75 76 136
518 2 2 10 10 75 136 135
519 2 2 10 10 76 77 137
520 2 2 10 10 76 137 136
521 2 2 10 10 77 78 138
522 2 2 10 10 77 138 137
523 2 2 10 10 78 79 139
524 2 2 10 10 78 139 138
525 2 2 10 10 79 80 140
526 2 2 10 10 79 140 139
527 2 2 10 10 80 81 141
528 2 2 10 10 80 141 140
529 2 2 10 10 81 82 142
530 2 2 10 10 81 142 141
531 2 2 10 10 82 83 143
532 2 2 10 10 82 143 142
533 2 2 10 10 83 84 144
534 2 2 10 10 83 144 143
535 2 2 10 10 84 85 145
536 2 2 10 10 84 145 144
537 2 2 10 10 85 86 146
538 2 2 10 10 85 146 145
539 2 2 10 10 86 87 147
540 2 2 10 10 86 147 146
541 2 2 10 10 87 88 148
542 2 2 10 10 87 148 147
543 2 2 10 10 89 90 150
544 2 2 10 10 89 150 149
545 2 2 10 10 90 91 151
546 2 2 10 10 90 151 150
547 2 2 10 10 91 92 152
548 2 2 10 10 91 152 151
549 2 2 10 10 92 93 153
550 2 2 10 10 92 153 152
551 2 2 10 10 93 94 154
552 2 2 10 10 93 154 153
553 2 2 10 10 94 95 155
554 2 2 10 10 94 155 154
555 2 2 10 10 95 96 156
556 2 2 10 10 95 156 155
557 2 2 10 10 96 97 157
558 2 2 10 10 96 157 156
559 2 2 10 10 97 98 158
560 2 2 10 10 97 158 157
561 2 2 10 10 98 99 159
562 2 2 10 10 98 159 158
563 2 2 10 10 99 100 160
564 2 2 10 10 99 160 159
565 2 2 10 10 100 101 161
566 2 2 10 10 100 161 160
567 2 2 10 10 101 102 162
568 2 2 10 10 101 162 161
569 2 2 10 10 102 103 163
570 2 2 10 10 102 163 162
571 2 2 10 10 103 104 164
572 2 2 10 10 103 164 163
573 2 2 10 10 104 105 165
574 2 2 10 10 104 165 164
575 2 2 10 10 105 106 166
576 2 2 10 10 105 166 165
577 2 2 10 10 106 107 167
578 2 2 10 10 106 167 166
579 2 2 10 10 107 108 168
580 2 2 10 10 107 168 167
581 2 2 10 10 108 109 169
582 2 2 10 10 108 169 168
583 2 2 10 10 109 110 170
584 2 2 10 10 109 170 169
585 2 2 10 10 110 111 171
586 2 2 10 10 110 171 170
587 2 2 10 10 111 112 172
588 2 2 10 10 111 172 171
589 2 2 10 10 112 113 173
590 2 2 10 10 112 173 172
591 2 2 10 10 113 114 174
592 2 2 10 10 113 174 173
593 2 2 10 10 114 115 175
594 2 2 10 10 114 175 174
595 2 2 10 10 115 116 176
596 2 2 10 10 115 176 175
597 2 2 10 10 116 117 177
598 2 2 10 10 116 177 176
599 2 2 10 10 117 118 178
600 2 2 10 10 117 178 177
601 2 2 10 10 119 120 180
602 2 2 10 10 119 180 179
603 2 2 10 10 120 121 181
604 2 2 10 10 120 181 180
605 2 2 10 10 121 122 182
606 2 2 10 10 121 182 181
607 2 2 10 10 122 123 183
608 2 2 10 10 122 183 182
609 2 2 10 10 123 124 184
610 2 2 10 10 123 184 183
611 2 2 10 10 124 125 185
612 2 2 10 10 124 185 184
613 2 2 10 10 125 126 186
614 2 2 10 10 125 186 185
615 2 2 10 10 126 127 187
616 2 2 10 10 126 187 186
617 2 2 10 10 127 128 188
618 2 2 10 10 127 188 187
619 2 2 10 10 128 129 189
620 2 2 10 10 128 189 188
621 2 2 10 10 129 130 190
622 2 2 10 10 129 190 189
623 2 2 10 10 130 131 191
624 2 2 10 10 130 191 190
625 2 2 10 10 131 132 192
626 2 2 10 10 131 192 191
627 2 2 10 10 132 133 193
628 2 2 10 10 132 193 192
629 2 2 10 10 133 134 194
630 2 2 10 10 133 194 193
631 2 2 10 10 134 135 195
632 2 2 10 10 134 195 194
633 2 2 10 10 135 136 196
634 2 2 10 10 135 196 195
635 2 2 10 10 136 137 197
636 2 2 10 10 136 197 196
637 2 2 10 10 137 138 198
638 2 2 10 10 137 198 197
639 2 2 10 10 138 139 199
640 2 2 10 10 138 199 198
641 2 2 10 10 139 140 200
642 2 2 10 10 139 200 199
643 2 2 10 10 140 141 201
644 2 2 10 10 140 201 200
645 2 2 10 10 141 142 202
646 2 2 10 10 141 202 201
647 2 2 10 10 142 143 203
648 2 2 10 10 142 203 202
649 2 2 10 10 143 144 204
650 2 2 10 10 143 204 203
651 2 2 10 10 144 145 205
652 2 2 10 10 144 205 204
653 2 2 10 10 145 146 206
654 2 2 10 10 145 206 205
655 2 2 10 10 146 147 207
656 2 2 10 10 146 207 206
657 2 2 10 10 147 148 208
658 2 2 10 10 147 208 207
659 2 2 10 10 149 150 210
660 2 2 10 10 149 210 209
661 2 2 10 10 150 151 211
662 2 2 10 10 150 211 210
663 2 2 10 10 151 152 212
664 2 2 10 10 151 212 211
665 2 2 10 10 152 153 213
666 2 2 10 10 152 213 212
667 2 2 10 10 153 154 214
668 2 2 10 10 153 214 213
669 2 2 10 10 154 155 215
670 2 2 10 10 154 215 214
671 2 2 10 10 155 156 216
672 2 2 10 10 155 216 215
673 2 2 10 10 156 157 217
674 2 2 10 10 156 217 216
675 2 2 10 10 157 158 218
676 2 2 10 10 157 218 217
677 2 2 10 10 158 159 219
678 2 2 10 10 158 219 218
679 2 2 10 10 159 160 220
680 2 2 10 10 159 220 219
681 2 2 10 10 160 161 221
682 2 2 10 10 160 221 220
683 2 2 10 10 161 162 222
684 2 2 10 10 161 222 221
685 2 2 10 10 162 163 223
686 2 2 10 10 162 223 222
687 2 2 10 10 163 164 224
688 2 2 10 10 163 224 223
689 2 2 10 10 164 165 225
690 2 2 10 10 164 225 224
691 2 2 10 10 165 166 226
692 2 2 10 10 165 226 225
693 2 2 10 10 166 167 227
694 2 2 10 10 166 227 226
695 2 2 10 10 167 168 228
696 2 2 10 10 167 228 227
697 2 2 10 10 168 169 229
698 2 2 10 10 168 229 228
699 2 2 10 10 169 170 230
700 2 2 10 10 169 230 229
701 2 2 10 10 170 171 231
702 2 2 10 10 170 231 230
703 2 2 10 10 171 172 232
704 2 2 10 10 171 232 231
705 2 2 10 10 172 173 233
706 2 2 10 10 172 233 232
707 2 2 10 10 173 174 234
708 2 2 10 10 173 234 233
709 2 2 10 10 174 175 235
710 2 2 10 10 174 235 234
711 2 2 10 10 175 176 236
712 2 2 10 10 175 236 235
713 2 2 10 10 176 177 237
714 2 2 10 10 176 237 236
715 2 2 10 10 177 178 238
716 2 2 10 10 177 238 237
717 2 2 10 10 179 180 240
718 2 2 10 10 179 240 239
719 2 2 10 10 180 181 241
720 2 2 10 10 180 241 240
721 2 2 10 10 181 182 242
722 2 2 10 10 181 242 241
723 2 2 10 10 182 183 243
724 2 2 10 10 182 243 242
725 2 2 10 10 183 184 244
726 2 2 10 10 183 244 243
727 2 2 10 10 184 185 245
728 2 2 10 10 184 245 244
729 2 2 10 10 185 186 246
730 2 2 10 10 185 246 245
731 2 2 10 10 186 187 247
732 2 2 10 10 186 247 246
733 2 2 10 10 187 188 248
734 2 2 10 10 187 248 247
735 2 2 10 10 188 189 249
736 2 2 10 10 188 249 248
737 2 2 10 10 189 190 250
738 2 2 10 10 189 250 249
739 2 2 10 10 190 191 251
740 2 2 10 10 190 251 250
741 2 2 10 10 191 192 252
742 2 2 10 10 191 252 251
743 2 2 10 10 192 193 253
744 2 2 10 10 192 253 252
745 2 2 10 10 193 194 254
746 2 2 10 10 193 254 253
747 2 2 10 10 194 195 255
748 2 2 10 10 194 255 254
749 2 2 10 10 195 196 256
750 2 2 10 10 195 256 255
751 2 2 10 10 196 197 257
752 2 2 10 10 196 257 256
753 2 2 10 10 197 198 258
754 2 2 10 10 197 258 257
755 2 2 10 10 198 199 259
756 2 2 10 10 198 259 258
757 2 2 10 10 199 200 260
758 2 2 10 10 199 260 259
759 2 2 10 10 200 201 261
760 2 2 10 10 200 261 260
761 2 2 10 10 201 202 262
762 2 2 10 10 201 262 261
763 2 2 10 10 202 203 263
764 2 2 10 10 202 263 262
765 2 2 10 10 203 204 264
766 2 2 10 10 203 264 263
767 2 2 10 10 204 205 265
768 2 2 10 10 204 265 264
769 2 2 10 10 205 206 266
770 2 2 10 10 205 266 265
771 2 2 10 10 206 207 267
772 2 2 10 10 206 267 266
773 2 2 10 10 207 208 268
774 2 2 10 10 207 268 267
775 2 2 10 10 209 210 272
776 2 2 10 10 209 272 271
777 2 2 10 10 210 211 273
778 2 2 10 10 210 273 272
779 2 2 10 10 211 212 274
780 2 2 10 10 211 274 273
781 2 2 10 10 212 213 275
782 2 2 10 10 212 275 274
783 2 2 10 10 213 214 276
784 2 2 10 10 213 276 275
785 2 2 10 10 214 215 277
786 2 2 10 10 214 277 276
787 2 2 10 10 215 216 278
788 2 2 10 10 215 278 277
789 2 2 10 10 216 217 279
790 2 2 10 10 216 279 278
791 2 2 10 10 217 218 280
792 2 2 10 10 217 280 279
793 2 2 10 10 218 219 281
794 2 2 10 10 218 281 280
795 2 2 10 10 219 220 282
796 2 2 10 10 219 282 281
797 2 2 10 10 220 221 283
798 2 2 10 10 220 283 282
799 2 2 10 10 221 222 284
800 2 2 10 10 221 284 283
801 2 2 10 10 222 223 285
802 2 2 10 10 222 285 284
803 2 2 10 10 223 224 286
804 2 2 10 10 223 286 285
805 2 2 10 10 224 225 287
806 2 2 10 10 224 287 286
807 2 2 10 10 225 226 288
808 2 2 10 10 225 288 287
809 2 2 10 10 226 227 289
810 2 2 10 10 226 289 288
811 2 2 10 10 227 228 290
812 2 2 10 10 227 290 289
813 2 2 10 10 228 229 291
814 2 2 10 10 228 291 290
815 2 2 10 10 229 230 292
816 2 2 10 10 229 292 291
817 2 2 10 10 230 231 293
818 2 2 10 10 230 293 292
819 2 2 10 10 231 232 294
820 2 2 10 10 231 294 293
821 2 2 10 10 232 233 295
822 2 2 10 10 232 295 294
823 2 2 10 10 233 234 296
824 2 2 10 10 233 296 295
825 2 2 10 10 234 235 297
826 2 2 10 10 234 297 296
827 2 2 10 10 235 236 298
828 2 2 10 10 235 298 297
829 2 2 10 10 236 237 299
830 2 2 10 10 236 299 298
831 2 2 10 10 237 238 300
832 2 2 10 10 237 300 299
833 2 2 10 10 239 240 302
834 2 2 10 10 239 302 301
835 2 2 10 10 240 241 303
836 2 2 10 10 240 303 302
837 2 2 10 10 241 242 304
838 2 2 10 10 241 304 303
839 2 2 10 10 242 243 305
840 2 2 10 10 242 305 304
841 2 2 10 10 243 244 306
842 2 2 10 10 243 306 305
843 2 2 10 10 244 245 307
844 2 2 10 10 244 307 306
845 2 2 10 10 245 246 308
846 2 2 10 10 245 308 307
847 2 2 10 10 246 247 309
848 2 2 10 10 246 309 308
849 2 2 10 10 247 248 310
850 2 2 10 10 247 310 309
851 2 2 10 10 248 249 311
852 2 2 10 10 248 311 310
853 2 2 10 10 249 250 312
854 2 2 10 10 249 312 311
855 2 2 10 10 250 251 313
856 2 2 10 10 250 313 312
857 2 2 10 10 251 252 314
858 2 2 10 10 251 314 313
859 2 2 10 10 252 253 315
860 2 2 10 10 252 315 314
861 2 2 10 10 253 254 316
862 2 2 10 10 253 316 315
863 2 2 10 10 254 255 317
864 2 2 10 10 254 317 316
865 2 2 10 10 255 256 318
866 2 2 10 10 255 318 317
867 2 2 10 10 256 257 319
868 2 2 10 10 256 319 318
869 2 2 10 10 257 258 320
870 2 2 10 10 257 320 319
871 2 2 10 10 258 259 321
872 2 2 10 10 258 321 320
873 2 2 10 10 259 260 322
874 2 2 10 10 259 322 321
875 2 2 10 10 260 261 323
876 2 2 10 10 260 323 322
877 2 2 10 10 261 262 324
878 2 2 10 10 261 324 323
879 2 2 10 10 262 263 325
880 2 2 10 10 262 325 324
881 2 2 10 10 263 264 326
882 2 2 10 10 263 326 325
883 2 2 10 10 264 265 327
884 2 2 10 10 264 327 326
885 2 2 10 10 265 266 328
886 2 2 10 10 265 328 327
887 2 2 10 10 266 267 329
888 2 2 10 10 266 329 328
889 2 2 10 10 267 268 330
890 2 2 10 10 267 330 329
891 2 2 10 10 268 269 331
892 2 2 10 10 268 331 330
893 2 2 10 10 270 271 333
894 2 2 10 10 270 333 332
895 2 2 10 10 271 272 334
896 2 2 10 10 271 334 333
897 2 2 10 10 272 273 335
898 2 2 10 10 272 335 334
899 2 2 10 10 273 274 336
900 2 2 10 10 273 336 335
901 2 2 10 10 274 275 337
902 2 2 10 10 274 337 336
903 2 2 10 10 275 276 338
904 2 2 10 10 275 338 337
905 2 2 10 10 276 277 339
906 2 2 10 10 276 339 338
907 2 2 10 10 277 278 340
908 2 2 10 10 277 340 339
909 2 2 10 10 278 279 341
910 2 2 10 10 278 341 340
911 2 2 10 10 279 280 342
912 2 2 10 10 279 342 341
913 2 2 10 10 280 281 343
914 2 2 10 10 280 343 342
915 2 2 10 10 281 282 344
916 2 2 10 10 281 344 343
917 2 2 10 10 282 283 345
918 2 2 10 10 282 345 344
919 2 2 10 10 283 284 346
920 2 2 10 10 283 346 345
921 2 2 10 10 284 285 347
922 2 2 10 10 284 347 346
923 2 2 10 10 285 286 348
924 2 2 10 10 285 348 347
925 2 2 10 10 286 287 349
926 2 2 10 10 286 349 348
927 2 2 10 10 287 288 350
928 2 2 10 10 287 350 349
929 2 2 10 10 288 289 351
930 2 2 10 10 288 351 350
931 2 2 10 10 289 290 352
932 2 2 10 10 289 352 351
933 2 2 10 10 290 291 353
934 2 2 10 10 290 353 352
935 2 2 10 10 291 292 354
936 2 2 10 10 291 354 353
937 2 2 10 10 292 293 355
938 2 2 10 10 292 355 354
939 2 2 10 10 293 294 356
940 2 2 10 10 293 356 355
941 2 2 10 10 294 295 357
942 2 2 10 10 294 357 356
943 2 2 10 10 295 296 358
944 2 2 10 10 295 358 357
945 2 2 10 10 296 297 359
946 2 2 10 10 296 359 358
947 2 2 10 10 297 298 360
948 2 2 10 10 297 360 359
949 2 2 10 10 298 299 361
950 2 2 10 10 298 361 360
951 2 2 10 10 299 300 362
952 2 2 10 10 299 362 361
953 2 2 10 10 301 302 364
954 2 2 10 10 301 364 363
955 2 2 10 10 302 303 365
956 2 2 10 10 302 365 364
957 2 2 10 10 303 304 366
958 2 2 10 10 303 366 365
959 2 2 10 10 304 305 367
960 2 2 10 10 304 367 366
961 2 2 10 10 305 306 368
962 2 2 10 10 305 368 367
963 2 2 10 10 306 307 369
964 2 2 10 10 306 369 368
965 2 2 10 10 307 308 370
966 2 2 10 10 307 370 369
967 2 2 10 10 308 309 371
968 2 2 10 10 308 371 370
969 2 2 10 10 309 310 372
970 2 2 10 10 309 372 371
971 2 2 10 10 310 311 373
972 2 2 10 10 310 373 372
973 2 2 10 10 311 312 374
974 2 2 10 10 311 374 373
975 2 2 10 10 312 313 375
976 2 2 10 10 312 375 374
977 2 2 10 10 313 314 376
978 2 2 10 10 313 376 375
979 2 2 10 10 314 315 377
980 2 2 10 10 314 377 376
981 2 2 10 10 315 316 378
982 2 2 10 10 315 378 377
983 2 2 10 10 316 317 379
984 2 2 10 10 316 379 378
985 2 2 10 10 317 318 380
986 2 2 10 10 317 380 379
987 2 2 10 10 318 319 381
988 2 2 10 10 318 381 380
989 2 2 10 10 319 320 382
990 2 2 10 10 319 382 381
991 2 2 10 10 320 321 383
992 2 2 10 10 320 383 382
993 2 2 10 10 321 322 384
994 2 2 10 10 321 384 383
995 2 2 10 10 322 323 385
996 2 2 10 10 322 385 384
997 2 2 10 10 323 324 386
998 2 2 10 10 323 386 385
999 2 2 10 10 324 325 387
1000 2 2 10 10 324 387 386
1001 2 2 10 10 325 326 388
1002 2 2 10 10 325 388 387
1003 2 2 10 10 326 327 389
1004 2 2 10 10 326 389 388
1005 2 2 10 10 327 328 390
1006 2 2 10 10 327 390 389
1007 2 2 10 10 328 329 391
1008 2 2 10 10 328 391 390
1009 2 2 10 10 329 330 392
1010 2 2 10 10 329 392 391
1011 2 2 10 10 330 331 393
1012 2 2 10 10 330 393 392
1013 2 2 10 10 332 333 395
1014 2 2 10 10 332 395 394
1015 2 2 10 10 333 334 396
1016 2 2 10 10 333 396 395
1017 2 2 10 10 334 335 397
1018 2 2 10 10 334 397 396
1019 2 2 10 10 335 336 398
1020 2 2 10 10 335 398 397
1021 2 2 10 10 336 337 399
1022 2 2 10 10 336 399 398
1023 2 2 10 10 337 338 400
1024 2 2 10 10 337 400 399
1025 2 2 10 10 338 339 401
1026 2 2 10 10 338 401 400
1027 2 2 10 10 339 340 402
1028 2 2 10 10 339 402 401
1029 2 2 10 10 340 341 403
1030 2 2 10 10 340 403 402
1031 2 2 10 10 341 342 404
1032 2 2 10 10 341 404 403
1033 2 2 10 10 342 343 405
1034 2 2 10 10 342 405 404
1035 2 2 10 10 343 344 406
1036 2 2 10 10 343 406 405
1037 2 2 10 10 344 345 407
1038 2 2 10 10 344 407 406
1039 2 2 10 10 345 346 408
1040 2 2 10 10 345 408 407
1041 2 2 10 10 346 347 409
1042 2 2 10 10 346 409 408
1043 2 2 10 10 347 348 410
1044 2 2 10 10 347 410 409
1045 2 2 10 10 348 349 411
1046 2 2 10 10 348 411 410
1047 2 2 10 10 349 350 412
1048 2 2 10 10 349 412 411
1049 2 2 10 10 350 351 413
1050 2 2 10 10 350 413 412
1051 2 2 10 10 351 352 414
1052 2 2 10 10 351 414 413
1053 2 2 10 10 352 353 415
1054 2 2 10 10 352 415 414
1055 2 2 10 10 353 354 416
1056 2 2 10 10 353 416 415
1057 2 2 10 10 354 355 417
1058 2 2 10 10 354 417 416
1059 2 2 10 10 355 356 418
1060 2 2 10 10 355 418 417
1061 2 2 10 10 356 357 419
1062 2 2 10 10 356 419 418
1063 2 2 10 10 357 358 420
1064 2 2 10 10 357 420 419
1065 2 2 10 10 358 359 421
1066 2 2 10 10 358 421 420
1067 2 2 10 10 359 360 422
1068 2 2 10 10 359 422 421
1069 2 2 10 10 360 361 423
1070 2 2 10 10 360 423 422
1071 2 2 10 10 361 362 424
1072 2 2 10 10 361 424 423
1073 2 2 10 10 387 388 426
1074 2 2 10 10 387 426 425
1075 2 2 10 10 388 389 427
1076 2 2 10 10 388 427 426
1077 2 2 10 10 389 390 428
1078 2 2 10 10 389 428 427
1079 2 2 10 10 390 391 429
1080 2 2 10 10 390 429 428
1081 2 2 10 10 391 392 430
1082 2 2 10 10 391 430 429
1083 2 2 10 10 392 393 431
1084 2 2 10 10 392 431 430
1085 2 2 10 10 394 395 433
1086 2 2 10 10 394 433 432
1087 2 2 10 10 395 396 434
1088 2 2 10 10 395 434 433
1089 2 2 10 10 396 397 435
1090 2 2 10 10 396 435 434
1091 2 2 10 10 397 398 436
1092 2 2 10 10 397 436 435
1093 2 2 10 10 398 399 437
1094 2 2 10 10 398 437 436
1095 2 2 10 10 399 400 438
1096 2 2 10 10 399 438 437
1097 2 2 10 10 425 426 440
1098 2 2 10 10 425 440 439
1099 2 2 10 10 426 427 441
1100 2 2 10 10 426 441 440
1101 2 2 10 10 427 428 442
1102 2 2 10 10 427 442 441
1103 2 2 10 10 428 429 443
1104 2 2 10 10 428 443 442
1105 2 2 10 10 429 430 444
1106 2 2 10 10 429 444 443
1107 2 2 10 10 430 431 445
1108 2 2 10 10 430 445 444
1109 2 2 10 10 432 433 449
1110 2 2 10 10 432 449 448
1111 2 2 10 10 433 434 450
1112 2 2 10 10 433 450 449
1113 2 2 10 10 434 435 451
1114 2 2 10 10 434 451 450
1115 2 2 10 10 435 436 452
1116 2 2 10 10 435 452 451
1117 2 2 10 10 436 437 453
1118 2 2 10 10 436 453 452
1119 2 2 10 10 437 438 454
1120 2 2 10 10 437 454 453
1121 2 2 10 10 440 441 456
1122 2 2 10 10 440 456 455
1123 2 2 10 10 441 442 457
1124 2 2 10 10 441 457 456
1125 2 2 10 10 442 443 458
1126 2 2 10 10 442 458 457
1127 2 2 10 10 443 444 459
1128 2 2 10 10 443 459 458
1129 2 2 10 10 444 445 460
1130 2 2 10 10 444 460 459
1131 2 2 10 10 445 446 461
1132 2 2 10 10 445 461 460
1133 2 2 10 10 447 448 463
1134 2 2 10 10 447 463 462
1135 2 2 10 10 448 449 464
1136 2 2 10 10 448 464 463
1137 2 2 10 10 449 450 465
1138 2 2 10 10 449 465 464
1139 2 2 10 10 450 451 466
1140 2 2 10 10 450 466 465
1141 2 2 10 10 451 452 467
1142 2 2 10 10 451 467 466
1143 2 2 10 10 452 453 468
1144 2 2 10 10 452 468 467
1145 2 2 10 10 455 456 470
1146 2 2 10 10 455 470 469
1147 2 2 10 10 456 457 471
1148 2 2 10 10 456 471 470
1149 2 2 10 10 457 458 472
1150 2 2 10 10 457 472 471
1151 2 2 10 10 458 459 473
1152 2 2 10 10 458 473 472
1153 2 2 10 10 459 460 474
1154 2 2 10 10 459 474 473
1155 2 2 10 10 460 461 475
1156 2 2 10 10 460 475 474
1157 2 2 10 10 462 463 477
1158 2 2 10 10 462 477 476
1159 2 2 10 10 463 464 478
1160 2 2 10 10 463 478 477
1161 2 2 10 10 464 465 479
1162 2 2 10 10 464 479 478
1163 2 2 10 10 465 466 480
1164 2 2 10 10 465 480 479
1165 2 2 10 10 466 467 481
1166 2 2 10 10 466 481 480
1167 2 2 10 10 467 468 482
1168 2 2 10 10 467 482 481
1169 2 2 10 10 469 470 484
1170 2 2 10 10 469 484 483
1171 2 2 10 10 470 471 485
1172 2 2 10 10 470 485 484
1173 2 2 10 10 471 472 486
1174 2 2 10 10 471 486 485
1175 2 2 10 10 472 473 487
1176 2 2 10 10 472 487 486
1177 2 2 10 10 473 474 488
1178 2 2 10 10 473 488 487
1179 2 2 10 10 474 475 489
1180 2 2 10 10 474 489 488
1181 2 2 10 10 476 477 492
1182 2 2 10 10 476 492 491
1183 2 2 10 10 477 478 493
1184 2 2 10 10 477 493 492
1185 2 2 10 10 478 479 494
1186 2 2 10 10 478 494 493
1187 2 2 10 10 479 480 495
1188 2 2 10 10 479 495 494
1189 2 2 10 10 480 481 496
1190 2 2 10 10 480 496 495
1191 2 2 10 10 481 482 497
1192 2 2 10 10 481 497 496
1193 2 2 10 10 483 484 499
1194 2 2 10 10 483 499 498
1195 2 2 10 10 484 485 500
1196 2 2 10 10 484 500 499
1197 2 2 10 10 485 486 501
1198 2 2 10 10 485 501 500
1199 2 2 10 10 486 487 502
1200 2 2 10 10 486 502 501
1201 2 2 10 10 487 488 503
1202 2 2 10 10 487 503 502
1203 2 2 10 10 488 489 504
1204 2 2 10 10 488 504 503
1205 2 2 10 10 489 490 505
1206 2 2 10 10 489 505 504
1207 2 2 10 10 490 491 506
1208 2 2 10 10 490 506 505
1209 2 2 10 10 491 492 507
1210 2 2 10 10 491 507 506
1211 2 2 10 10 492 493 508
1212 2 2 10 10 492 508 507
1213 2 2 10 10 493 494 509
1214 2 2 10 10 493 509 508
1215 2 2 10 10 494 495 510
1216 2 2 10 10 494 510 509
1217 2 2 10 10 495 496 511
1218 2 2 10 10 495 511 510
1219 2 2 10 10 496 497 512
1220 2 2 10 10 496 512 511
1221 2 2 10 10 499 500 514
1222 2 2 10 10 499 514 513
1223 2 2 10 10 500 501 515
1224 2 2 10 10 500 515 514
1225 2 2 10 10 501 502 516
1226 2 2 10 10 501 516 515
1227 2 2 10 10 502 503 517
1228 2 2 10 10 502 517 516
1229 2 2 10 10 503 504 518
1230 2 2 10 10 503 518 517
1231 2 2 10 10 504 505 519
1232 2 2 10 10 504 519 518
1233 2 2 10 10 505 506 520
1234 2 2 10 10 505 520 519
1235 2 2 10 10 506 507 521
1236 2 2 10 10 506 521 520
1237 2 2 10 10 507 508 522
1238 2 2 10 10 507 522 521
1239 2 2 10 10 508 509 523
1240 2 2 10 10 508 523 522
1241 2 2 10 10 509 510 524
1242 2 2 10 10 509 524 523
1243 2 2 10 10 510 511 525
1244 2 2 10 10 510 525 524
1245 2 2 10 10 513 514 527
1246 2 2 10 10 513 527 526
1247 2 2 10 10 514 515 528
1248 2 2 10 10 514 528 527
1249 2 2 10 10 515 516 529
1250 2 2 10 10 515 529 528
1251 2 2 10 10 516 517 530
1252 2 2 10 10 516 530 529
1253 2 2 10 10 517 518 531
1254 2 2 10 10 517 531 530
1255 2 2 10 10 518 519 532
1256 2 2 10 10 518 532 531
1257 2 2 10 10 519 520 533
1258 2 2 10 10 519 533 532
1259 2 2 10 10 520 521 534
1260 2 2 10 10 520 534 533
1261 2 2 10 10 521 522 535
1262 2 2 10 10 521 535 534
1263 2 2 10 10 522 523 536
1264 2 2 10 10 522 536 535
1265 2 2 10 10 523 524 537
1266 2 2 10 10 523 537 536
1267 2 2 10 10 524 525 538
1268 2 2 10 10 524 538 537
1269 2 2 10 10 526 527 540
1270 2 2 10 10 526 540 539
1271 2 2 10 10 527 528 541
1272 2 2 10 10 527 541 540
1273 2 2 10 10 528 529 542
1274 2 2 10 10 528 542 541
1275 2 2 10 10 529 530 543
1276 2 2 10 10 529 543 542
1277 2 2 10 10 530 531 544
1278 2 2 10 10 530 544 543
1279 2 2 10 10 531 532 545
1280 2 2 10 10 531 545 544
1281 2 2 10 10 532 533 546
1282 2 2 10 10 532 546 545
1283 2 2 10 10 533 534 547
1284 2 2 10 10 533 547 546
1285 2 2 10 10 534 535 548
1286 2 2 10 10 534 548 547
1287 2 2 10 10 535 536 549
1288 2 2 10 10 535 549 548
1289 2 2 10 10 536 537 550
1290 2 2 10 10 536 550 549
1291 2 2 10 10 537 538 551
1292 2 2 10 10 537 551 550
1293 2 2 10 10 540 541 553
1294 2 2 10 10 540 553 552
1295 2 2 10 10 541 542 554
1296 2 2 10 10 541 554 553
1297 2 2 10 10 542 543 555
1298 2 2 10 10 542 555 554
1299 2 2 10 10 543 544 556
1300 2 2 10 10 543 556 555
1301 2 2 10 10 544 545 557
1302 2 2 10 10 544 557 556
1303 2 2 10 10 545 546 558
1304 2 2 10 10 545 558 557
1305 2 2 10 10 546 547 559
1306 2 2 10 10 546 559 558
1307 2 2 10 10 547 548 560
1308 2 2 10 10 547 560 559
1309 2 2 10 10 548 549 561
1310 2 2 10 10 548 561 560
1311 2 2 10 10 549 550 562
1312 2 2 10 10 549 562 561
1313 2 2 10 10 552 553 564
1314 2 2 10 10 552 564 563
1315 2 2 10 10 553 554 565
1316 2 2 10 10 553 565 564
1317 2 2 10 10 554 555 566
1318 2 2 10 10 554 566 565
1319 2 2 10 10 555 556 567
1320 2 2 10 10 555 567 566
1321 2 2 10 10 556 557 568
1322 2 2 10 10 556 568 567
1323 2 2 10 10 557 558 569
1324 2 2 10 10 557 569 568
1325 2 2 10 10 558 559 570
1326 2 2 10 10 558 570 569
1327 2 2 10 10 559 560 571
1328 2 2 10 10 559 571 570
1329 2 2 10 10 560 561 572
1330 2 2 10 10 560 572 571
1331 2 2 10 10 561 562 573
1332 2 2 10 10 561 573 572
1333 2 2 10 10 563 564 575
1334 2 2 10 10 563 575 574
1335 2 2 10 10 564 565 576
1336 2 2 10 10 564 576 575
1337 2 2 10 10 565 566 577
1338 2 2 10 10 565 577 576
1339 2 2 10 10 566 567 578
1340 2 2 10 10 566 578 577
1341 2 2 10 10 567 568 579
1342 2 2 10 10 567 579 578
1343 2 2 10 10 568 569 580
1344 2 2 10 10 568 580 579
1345 2 2 10 10 569 570 581
1346 2 2 10 10 569 581 580
1347 2 2 10 10 570 571 582
1348 2 2 10 10 570 582 581
1349 2 2 10 10 571 572 583
1350 2 2 10 10 571 583 582
1351 2 2 10 10 572 573 584
1352 2 2 10 10 572 584 583
1353 2 2 10 10 574 575 586
1354 2 2 10 10 574 586 585
1355 2 2 10 10 575 576 587
1356 2 2 10 10 575 587 586
1357 2 2 10 10 576 577 588
1358 2 2 10 10 576 588 587
1359 2 2 10 10 577 578 589
1360 2 2 10 10 577 589 588
1361 2 2 10 10 578 579 590
1362 2 2 10 10 578 590 589
1363 2 2 10 10 579 580 591
1364 2 2 10 10 579 591 590
1365 2 2 10 10 580 581 592
1366 2 2 10 10 580 592 591
1367 2 2 10 10 581 582 593
1368 2 2 10 10 581 593 592
1369 2 2 10 10 582 583 594
1370 2 2 10 10 582 594 593
1371 2 2 10 10 583 584 595
1372 2 2 10 10 583 595 594
1373 2 2 10 10 585 586 597
1374 2 2 10 10 585 597 596
1375 2 2 10 10 586 587 598
1376 2 2 10 10 586 598 597
1377 2 2 10 10 587 588 599
1378 2 2 10 10 587 599 598
1379 2 2 10 10 588 589 600
1380 2 2 10 10 588 600 599
1381 2 2 10 10 589 590 601
1382 2 2 10 10 589 601 600
1383 2 2 10 10 590 591 602
1384 2 2 10 10 590 602 601
1385 2 2 10 10 591 592 603
1386 2 2 10 10 591 603 602
1387 2 2 10 10 592 593 604
1388 2 2 10 10 592 604 603
1389 2 2 10 10 593 594 605
1390 2 2 10 10 593 605 604
1391 2 2 10 10 594 595 606
1392 2 2 10 10 594 606 605
1393 2 2 10 10 596 597 608
1394 2 2 10 10 596 608 607
1395 2 2 10 10 597 598 609
1396 2 2 10 10 597 609 608
1397 2 2 10 10 598 599 610
1398 2 2 10 10 598 610 609
1399 2 2 10 10 599 600 611
1400 2 2 10 10 599 611 610
1401 2 2 10 10 600 601 612
1402 2 2 10 10 600 612 611
1403 2 2 10 10 601 602 613
1404 2 2 10 10 601 613 612
1405 2 2 10 10 602 603 614
1406 2 2 10 10 602 614 613
1407 2 2 10 10 603 604 615
1408 2 2 10 10 603 615 614
1409 2 2 10 10 604 605 616
1410 2 2 10 10 604 616 615
1411 2 2 10 10 605 606 617
1412 2 2 10 10 605 617 616
1413 2 2 10 10 607 608 619
1414 2 2 10 10 607 619 618
1415 2 2 10 10 608 609 620
1416 2 2 10 10 608 620 619
1417 2 2 10 10 609 610 621
1418 2 2 10 10 609 621 620
1419 2 2 10 10 610 611 622
1420 2 2 10 10 610 622 621
1421 2 2 10 10 611 612 623
1422 2 2 10 10 611 623 622
1423 2 2 10 10 612 613 624
1424 2 2 10 10 612 624 623
1425 2 2 10 10 613 614 625
1426 2 2 10 10 613 625 624
1427 2 2 10 10 614 615 626
1428 2 2 10 10 614 626 625
1429 2 2 10 10 615 616 627
1430 2 2 10 10 615 627 626
1431 2 2 10 10 616 617 628
1432 2 2 10 10 616 628 627
1433 2 2 10 10 618 619 630
1434 2 2 10 10 618 630 629
1435 2 2 10 10 619 620 631
1436 2 2 10 10 619 631 630
1437 2 2 10 10 620 621 632
1438 2 2 10 10 620 632 631
1439 2 2 10 10 621 622 633
1440 2 2 10 10 621 633 632
1441 2 2 10 10 622 623 634
1442 2 2 10 10 622 634 633
1443 2 2 10 10 623 624 635
1444 2 2 10 10 623 635 634
1445 2 2 10 10 624 625 636
1446 2 2 10 10 624 636 635
1447 2 2 10 10 625 626 637
1448 2 2 10 10 625 637 636
1449 2 2 10 10 626 627 638
1450 2 2 10 10 626 638 637
1451 2 2 10 10 627 628 639
1452 2 2 10 10 627 639 638
1453 2 2 10 10 629 630 641
1454 2 2 10 10 629 641 640
1455 2 2 10 10 630 631 642
1456 2 2 10 10 630 642 641
1457 2 2 10 10 631 632 643
1458 2 2 10 10 631 643 642
1459 2 2 10 10 632 633 644
1460 2 2 10 10 632 644 643
1461 2 2 10 10 633 634 645
1462 2 2 10 10 633 645 644
1463 2 2 10 10 634 635 646
1464 2 2 10 10 634 646 645
1465 2 2 10 10 635 636 647
1466 2 2 10 10 635 647 646
1467 2 2 10 10 636 637 648
1468 2 2 10 10 636 648 647
1469 2 2 10 10 637 638 649
1470 2 2 10 10 637 649 648
1471 2 2 10 10 638 639 650
1472 2 2 10 10 638 650 649
1473 2 2 10 10 640 641 652
1474 2 2 10 10 640 652 651
1475 2 2 10 10 641 642 653
1476 2 2 10 10 641 653 652
1477 2 2 10 10 642 643 654
1478 2 2 10 10 642 654 653
1479 2 2 10 10 643 644 655
1480 2 2 10 10 643 655 654
1481 2 2 10 10 644 645 656
1482 2 2 10 10 644 656 655
1483 2 2 10 10 645 646 657
1484 2 2 10 10 645 657 656
1485 2 2 10 10 646 647 658
1486 2 2 10 10 646 658 657
1487 2 2 10 10 647 648 659
1488 2 2 10 10 647 659 658
1489 2 2 10 10 648 649 660
1490 2 2 10 10 648 660 659
1491 2 2 10 10 649 650 661
1492 2 2 10 10 649 661 660
1493 2 2 10 10 651 652 663
1494 2 2 10 10 651 663 662
1495 2 2 10 10 652 653 664
1496 2 2 10 10 652 664 663
1497 2 2 10 10 653 654 665
1498 2 2 10 10 653 665 664
1499 2 2 10 10 654 655 666
1500 2 2 10 10 654 666 665
1501 2 2 10 10 655 656 667
1502 2 2 10 10 655 667 666
1503 2 2 10 10 656 657 668
1504 2 2 10 10 656 668 667
1505 2 2 10 10 657 658 669
1506 2 2 10 10 657 669 668
1507 2 2 10 10 658 659 670
1508 2 2 10 10 658 670 669
1509 2 2 10 10 659 660 671
1510 2 2 10 10 659 671 670
1511 2 2 10 10 660 661 672
1512 2 2 10 10 660 672 671
1513 2 2 10 10 662 663 674
1514 2 2 10 10 662 674 673
1515 2 2 10 10 663 664 675
1516 2 2 10 10 663 675 674
1517 2 2 10 10 664 665 676
1518 2 2 10 10 664 676 675
1519 2 2 10 10 665 666 677
1520 2 2 10 10 665 677 676
1521 2 2 10 10 666 667 678
1522 2 2 10 10 666 678 677
1523 2 2 10 10 667 668 679
1524 2 2 10 10 667 679 678
1525 2 2 10 10 668 669 680
1526 2 2 10 10 668 680 679
1527 2 2 10 10 669 670 681
1528 2 2 10 10 669 681 680
1529 2 2 10 10 670 671 682
1530 2 2 10 10 670 682 681
1531 2 2 10 10 671 672 683
1532 2 2 10 10 671 683 682
1533 2 2 10 10 673 674 685
1534 2 2 10 10 673 685 684
1535 2 2 10 10 674 675 686
1536 2 2 10 10 674 686 685
1537 2 2 10 10 675 676 687
1538 2 2 10 10 675 687 686
1539 2 2 10 10 676 677 688
1540 2 2 10 10 676 688 687
1541 2 2 10 10 677 678 689
1542 2 2 10 10 677 689 688
1543 2 2 10 10 678 679 690
1544 2 2 10 10 678 690 689
1545 2 2 10 10 679 680 691
1546 2 2 10 10 679 691 690
1547 2 2 10 10 680 681 692
1548 2 2 10 10 680 692 691
1549 2 2 10 10 681 682 693
1550 2 2 10 10 681 693 692
1551 2 2 10 10 682 683 694
1552 2 2 10 10 682 694 693
1553 2 2 10 10 684 685 696
1554 2 2 10 10 684 696 695
1555 2 2 10 10 685 686 697
1556 2 2 10 10 685 697 696
1557 2 2 10 10 686 687 698
1558 2 2 10 10 686 698 697
1559 2 2 10 10 687 688 699
1560 2 2 10 10 687 699 698
1561 2 2 10 10 688 689 700
1562 2 2 10 10 688 700 699
1563 2 2 10 10 689 690 701
1564 2 2 10 10 689 701 700
1565 2 2 10 10 690 691 702
1566 2 2 10 10 690 702 701
1567 2 2 10 10 691 692 703
1568 2 2 10 10 691 703 702
1569 2 2 10 10 692 693 704
1570 2 2 10 10 692 704 703
1571 2 2 10 10 693 694 705
1572 2 2 10 10 693 705 704
1573 2 2 10 10 695 696 707
1574 2 2 10 10 695 707 706
1575 2 2 10 10 696 697 708
1576 2 2 10 10 696 708 707
1577 2 2 10 10 697 698 709
1578 2 2 10 10 697 709 708
1579 2 2 10 10 698 699 710
1580 2 2 10 10 698 710 709
1581 2 2 10 10 699 700 711
1582 2 2 10 10 699 711 710
1583 2 2 10 10 700 701 712
1584 2 2 10 10 700 712 711
1585 2 2 10 10 701 702 713
1586 2 2 10 10 701 713 712
1587 2 2 10 10 702 703 714
1588 2 2 10 10 702 714 713
1589 2 2 10 10 703 704 715
1590 2 2 10 10 703 715 714
1591 2 2 10 10 704 705 716
1592 2 2 10 10 704 716 715
1593 2 2 10 10 706 707 719
1594 2 2 10 10 706 719 718
1595 2 2 10 10 707 708 720
1596 2 2 10 10 707 720 719
1597 2 2 10 10 708 709 721
1598 2 2 10 10 708 721 720
1599 2 2 10 10 709 710 722
1600 2 2 10 10 709 722 721
1601 2 2 10 10 710 711 723
1602 2 2 10 10 710 723 722
1603 2 2 10 10 711 712 724
1604 2 2 10 10 711 724 723
1605 2 2 10 10 712 713 725
1606 2 2 10 10 712 725 724
1607 2 2 10 10 713 714 726
1608 2 2 10 10 713 726 725
1609 2 2 10 10 714 715 727
1610 2 2 10 10 714 727 726
1611 2 2 10 10 715 716 728
1612 2 2 10 10 715 728 727
1613 2 2 10 10 717 718 731
1614 2 2 10 10 717 731 730
1615 2 2 10 10 718 719 732
1616 2 2 10 10 718 732 731
1617 2 2 10 10 719 720 733
1618 2 2 10 10 719 733 732
1619 2 2 10 10 720 721 734
1620 2 2 10 10 720 734 733
1621 2 2 10 10 721 722 735
1622 2 2 10 10 721 735 734
1623 2 2 10 10 722 723 736
1624 2 2 10 10 722 736 735
1625 2 2 10 10 723 724 737
1626 2 2 10 10 723 737 736
1627 2 2 10 10 724 725 738
1628 2 2 10 10 724 738 737
1629 2 2 10 10 725 726 739
1630 2 2 10 10 725 739 738
1631 2 2 10 10 726 727 740
1632 2 2 10 10 726 740 739
1633 2 2 10 10 727 728 741
1634 2 2 10 10 727 741 740
1635 2 2 10 10 728 729 742
1636 2 2 10 10 728 742 741
1637 2 2 10 10 730 731 744
1638 2 2 10 10 730 744 743
1639 2 2 10 10 731 732 745
1640 2 2 10 10 731 745 744
1641 2 2 10 10 732 733 746
1642 2 2 10 10 732 746 745
1643 2 2 10 10 733 734 747
1644 2 2 10 10 733 747 746
1645 2 2 10 10 734 735 748
1646 2 2 10 10 734 748 747
1647 2 2 10 10 735 736 749
1648 2 2 10 10 735 749 748
1649 2 2 10 10 736 737 750
1650 2 2 10 10 736 750 749
1651 2 2 10 10 737 738 751
1652 2 2 10 10 737 751 750
1653 2 2 10 10 738 739 752
1654 2 2 10 10 738 752 751
1655 2 2 10 10 739 740 753
1656 2 2 10 10 739 753 752
1657 2 2 10 10 740 741 754
1658 2 2 10 10 740 754 753
1659 2 2 10 10 741 742 755
1660 2 2 10 10 741 755 754
1661 2 2 10 10 743 744 758
1662 2 2 10 10 743 758 757
1663 2 2 10 10 744 745 759
1664 2 2 10 10 744 759 758
1665 2 2 10 10 745 746 760
1666 2 2 10 10 745 760 759
1667 2 2 10 10 746 747 761
1668 2 2 10 10 746 761 760
1669 2 2 10 10 747 748 762
1670 2 2 10 10 747 762 761
1671 2 2 10 10 748 749 763
1672 2 2 10 10 748 763 762
1673 2 2 10 10 749 750 764
1674 2 2 10 10 749 764 763
1675 2 2 10 10 750 751 765
1676 2 2 10 10 750 765 764
1677 2 2 10 10 751 752 766
1678 2 2 10 10 751 766 765
1679 2 2 10 10 752 753 767
1680 2 2 10 10 752 767 766
1681 2 2 10 10 753 754 768
1682 2 2 10 10 753 768 767
1683 2 2 10 10 754 755 769
1684 2 2 10 10 754 769 768
1685 2 2 10 10 756 757 772
1686 2 2 10 10 756 772 771
1687 2 2 10 10 757 758 773
1688 2 2 10 10 757 773 772
1689 2 2 10 10 758 759 774
1690 2 2 10 10 758 774 773
1691 2 2 10 10 759 760 775
1692 2 2 10 10 759 775 774
1693 2 2 10 10 760 761 776
1694 2 2 10 10 760 776 775
1695 2 2 10 10 761 762 777
1696 2 2 10 10 761 777 776
1697 2 2 10 10 762 763 778
1698 2 2 10 10 762 778 777
1699 2 2 10 10 763 764 779
1700 2 2 10 10 763 779 778
1701 2 2 10 10 764 765 780
1702 2 2 10 10 764 780 779
1703 2 2 10 10 765 766 781
1704 2 2 10 10 765 781 780
1705 2 2 10 10 766 767 782
1706 2 2 10 10 766 782 781
1707 2 2 10 10 767 768 783
1708 2 2 10 10 767 783 782
1709 2 2 10 10 768 769 784
1710 2 2 10 10 768 784 783
1711 2 2 10 10 769 770 785
1712 2 2 10 10 769 785 784
1713 2 2 10 10 771 772 787
1714 2 2 10 10 771 787 786
1715 2 2 10 10 772 773 788
1716 2 2 10 10 772 788 787
1717 2 2 10 10 773 774 789
1718 2 2 10 10 773 789 788
1719 2 2 10 10 774 775 790
1720 2 2 10 10 774 790 789
1721 2 2 10 10 775 776 791
1722 2 2 10 10 775 791 790
1723 2 2 10 10 776 777 792
1724 2 2 10 10 776 792 791
1725 2 2 10 10 779 780 794
1726 2 2 10 10 779 794 793
1727 2 2 10 10 780 781 795
1728 2 2 10 10 780 795 794
1729 2 2 10 10 781 782 796
1730 2 2 10 10 781 796 795
1731 2 2 10 10 782 783 797
1732 2 2 10 10 782 797 796
1733 2 2 10 10 783 784 798
1734 2 2 10 10 783 798 797
1735 2 2 10 10 784 785 799
1736 2 2 10 10 784 799 798
1737 2 2 10 10 786 787 801
1738 2 2 10 10 786 801 800
1739 2 2 10 10 787 788 802
1740 2 2 10 10 787 802 801
1741 2 2 10 10 788 789 803
1742 2 2 10 10 788 803 802
1743 2 2 10 10 789 790 804
1744 2 2 10 10 789 804 803
1745 2 2 10 10 790 791 805
1746 2 2 10 10 790 805 804
1747 2 2 10 10 791 792 806
1748 2 2 10 10 791 806 805
1749 2 2 10 10 793 794 808
1750 2 2 10 10 793 808 807
1751 2 2 10 10 794 795 809
1752 2 2 10 10 794 809 808
1753 2 2 10 10 795 796 810
1754 2 2 10 10 795 810 809
1755 2 2 10 10 796 797 811
1756 2 2 10 10 796 811 810
1757 2 2 10 10 797 798 812
1758 2 2 10 10 797 812 811
1759 2 2 10 10 798 799 813
1760 2 2 10 10 798 813 812
1761 2 2 10 10 800 801 816
1762 2 2 10 10 800 816 815
1763 2 2 10 10 801 802 817
1764 2 2 10 10 801 817 816
1765 2 2 10 10 802 803 818
1766 2 2 10 10 802 818 817
1767 2 2 10 10 803 804 819
1768 2 2 10 10 803 819 818
1769 2 2 10 10 804 805 820
1770 2 2 10 10 804 820 819
1771 2 2 10 10 805 806 821
1772 2 2 10 10 805 821 820
1773 2 2 10 10 807 808 823
1774 2 2 10 10 807 823 822
1775 2 2 10 10 808 809 824
1776 2 2 10 10 808 824 823
1777 2 2 10 10 809 810 825
1778 2 2 10 10 809 825 824
1779 2 2 10 10 810 811 826
1780 2 2 10 10 810 826 825
1781 2 2 10 10 811 812 827
1782 2 2 10 10 811 827 826
1783 2 2 10 10 812 813 828
1784 2 2 10 10 812 828 827
1785 2 2 10 10 814 815 831
1786 2 2 10 10 814 831 830
1787 2 2 10 10 815 816 832
1788 2 2 10 10 815 832 831
1789 2 2 10 10 816 817 833
1790 2 2 10 10 816 833 832
1791 2 2 10 10 817 818 834
1792 2 2 10 10 817 834 833
1793 2 2 10 10 818 819 835
1794 2 2 10 10 818 835 834
1795 2 2 10 10 819 820 836
1796 2 2 10 10 819 836 835
1797 2 2 10 10 823 824 838
1798 2 2 10 10 823 838 837
1799 2 2 10 10 824 825 839
1800 2 2 10 10 824 839 838
1801 2 2 10 10 825 826 840
1802 2 2 10 10 825 840 839
1803 2 2 10 10 826 827 841
1804 2 2 10 10 826 841 840
1805 2 2 10 10 827 828 842
1806 2 2 10 10 827 842 841
1807 2 2 10 10 828 829 843
1808 2 2 10 10 828 843 842
1809 2 2 10 10 830 831 869
1810 2 2 10 10 830 869 868
1811 2 2 10 10 831 832 870
1812 2 2 10 10 831 870 869
1813 2 2 10 10 832 833 871
1814 2 2 10 10 832 871 870
1815 2 2 10 10 833 834 872
1816 2 2 10 10 833 872 871
1817 2 2 10 10 834 835 873
1818 2 2 10 10 834 873 872
1819 2 2 10 10 835 836 874
1820 2 2 10 10 835 874 873
1821 2 2 10 10 837 838 876
1822 2 2 10 10 837 876 875
1823 2 2 10 10 838 839 877
1824 2 2 10 10 838 877 876
1825 2 2 10 10 839 840 878
1826 2 2 10 10 839 878 877
1827 2 2 10 10 840 841 879
1828 2 2 10 10 840 879 878
1829 2 2 10 10 841 842 880
1830 2 2 10 10 841 880 879
1831 2 2 10 10 842 843 881
1832 2 2 10 10 842 881 880
1833 2 2 10 10 844 845 907
1834 2 2 10 10 844 907 906
1835 2 2 10 10 845 846 908
1836 2 2 10 10 845 908 907
1837 2 2 10 10 846 847 909
1838 2 2 10 10 846 909 908
1839 2 2 10 10 847 848 910
1840 2 2 10 10 847 910 909
1841 2 2 10 10 848 849 911
1842 2 2 10 10 848 911 910
1843 2 2 10 10 849 850 912
1844 2 2 10 10 849 912 911
1845 2 2 10 10 850 851 913
1846 2 2 10 10 850 913 912
1847 2 2 10 10 851 852 914
1848 2 2 10 10 851 914 913
1849 2 2 10 10 852 853 915
1850 2 2 10 10 852 915 914
1851 2 2 10 10 853 854 916
1852 2 2 10 10 853 916 915
1853 2 2 10 10 854 855 917
1854 2 2 10 10 854 917 916
1855 2 2 10 10 855 856 918
1856 2 2 10 10 855 918 917
1857 2 2 10 10 856 857 919
1858 2 2 10 10 856 919 918
1859 2 2 10 10 857 858 920
1860 2 2 10 10 857 920 919
1861 2 2 10 10 858 859 921
1862 2 2 10 10 858 921 920
1863 2 2 10 10 859 860 922
1864 2 2 10 10 859 922 921
1865 2 2 10 10 860 861 923
1866 2 2 10 10 860 923 922
1867 2 2 10 10 861 862 924
1868 2 2 10 10 861 924 923
1869 2 2 10 10 862 863 925
1870 2 2 10 10 862 925 924
1871 2 2 10 10 863 864 926
1872 2 2 10 10 863 926 925
1873 2 2 10 10 864 865 927
1874 2 2 10 10 864 927 926
1875 2 2 10 10 865 866 928
1876 2 2 10 10 865 928 927
1877 2 2 10 10 866 867 929
1878 2 2 10 10 866 929 928
1879 2 2 10 10 867 868 930
1880 2 2 10 10 867 930 929
1881 2 2 10 10 868 869 931
1882 2 2 10 10 868 931 930
1883 2 2 10 10 869 870 932
1884 2 2 10 10 869 932 931
1885 2 2 10 10 870 871 933
1886 2 2 10 10 870 933 932
1887 2 2 10 10 871 872 934
1888 2 2 10 10 871 934 933
1889 2 2 10 10 872 873 935
1890 2 2 10 10 872 935 934
1891 2 2 10 10 873 874 936
1892 2 2 10 10 873 936 935
1893 2 2 10 10 875 876 938
1894 2 2 10 10 875 938 937
1895 2 2 10 10 876 877 939
1896 2 2 10 10 876 939 938
1897 2 2 10 10 877 878 940
1898 2 2 10 10 877 940 939
1899 2 2 10 10 878 879 941
1900 2 2 10 10 878 941 940
1901 2 2 10 10 879 880 942
1902 2 2 10 10 879 942 941
1903 2 2 10 10 880 881 943
1904 2 2 10 10 880 943 942
1905 2 2 10 10 881 882 944
1906 2 2 10 10 881 944 943
1907 2 2 10 10 882 883 945
1908 2 2 10 10 882 945 944
1909 2 2 10 10 883 884 946
1910 2 2 10 10 883 946 945
1911 2 2 10 10 884 885 947
1912 2 2 10 10 884 947 946
1913 2 2 10 10 885 886 948
1914 2 2 10 10 885 948 947
1915 2 2 10 10 886 887 949
1916 2 2 10 10 886 949 948
1917 2 2 10 10 887 888 950
1918 2 2 10 10 887 950 949
1919 2 2 10 10 888 889 951
1920 2 2 10 10 888 951 950
1921 2 2 10 10 889 890 952
1922 2 2 10 10 889 952 951
1923 2 2 10 10 890 891 953
1924 2 2 10 10 890 953 952
1925 2 2 10 10 891 892 954
1926 2 2 10 10 891 954 953
1927 2 2 10 10 892 893 955
1928 2 2 10 10 892 955 954
1929 2 2 10 10 893 894 956
1930 2 2 10 10 893 956 955
1931 2 2 10 10 894 895 957
1932 2 2 10 10 894 957 956
1933 2 2 10 10 895 896 958
1934 2 2 10 10 895 958 957
1935 2 2 10 10 896 897 959
1936 2 2 10 10 896 959 958
1937 2 2 10 10 897 898 960
1938 2 2 10 10 897 960 959
1939 2 2 10 10 898 899 961
1940 2 2 10 10 898 961 960
1941 2 2 10 10 899 900 962
1942 2 2 10 10 899 962 961
1943 2 2 10 10 900 901 963
1944 2 2 10 10 900 963 962
1945 2 2 10 10 901 902 964
1946 2 2 10 10 901 964 963
1947 2 2 10 10 902 903 965
1948 2 2 10 10 902 965 964
1949 2 2 10 10 903 904 966
1950 2 2 10 10 903 966 965
1951 2 2 10 10 904 905 967
1952 2 2 10 10 904 967 966
1953 2 2 10 10 906 907 969
1954 2 2 10 10 906 969 968
1955 2 2 10 10 907 908 970
1956 2 2 10 10 907 970 969
1957 2 2 10 10 908 909 971
1958 2 2 10 10 908 971 970
1959 2 2 10 10 909 910 972
1960 2 2 10 10 909 972 971
1961 2 2 10 10 910 911 973
1962 2 2 10 10 910 973 972
1963 2 2 10 10 911 912 974
1964 2 2 10 10 911 974 973
1965 2 2 10 10 912 913 975
1966 2 2 10 10 912 975 974
1967 2 2 10 10 913 914 976
1968 2 2 10 10 913 976 975
1969 2 2 10 10 914 915 977
1970 2 2 10 10 914 977 976
1971 2 2 10 10 915 916 978
1972 2 2 10 10 915 978 977
1973 2 2 10 10 916 917 979
1974 2 2 10 10 916 979 978
1975 2 2 10 10 917 918 980
1976 2 2 10 10 917 980 979
1977 2 2 10 10 918 919 981
1978 2 2 10 10 918 981 980
1979 2 2 10 10 919 920 982
1980 2 2 10 10 919 982 981
1981 2 2 10 10 920 921 983
1982 2 2 10 10 920 983 982
1983 2 2 10 10 921 922 984
1984 2 2 10 10 921 984 983
1985 2 2 10 10 922 923 985
1986 2 2 10 10 922 985 984
1987 2 2 10 10 923 924 986
1988 2 2 10 10 923 986 985
1989 2 2 10 10 924 925 987
1990 2 2 10 10 924 987 986
1991 2 2 10 10 925 926 988
1992 2 2 10 10 925 988 987
1993 2 2 10 10 926 927 989
1994 2 2 10 10 926 989 988
1995 2 2 10 10 927 928 990
1996 2 2 10 10 927 990 989
1997 2 2 10 10 928 929 991
1998 2 2 10 10 928 991 990
1999 2 2 10 10 929 930 992
2000 2 2 10 10 929 992 991
2001 2 2 10 10 930 931 993
2002 2 2 10 10 930 993 992
2003 2 2 10 10 931 932 994
2004 2 2 10 10 931 994 993
2005 2 2 10 10 932 933 995
2006 2 2 10 10 932 995 994
2007 2 2 10 10 933 934 996
2008 2 2 10 10 933 996 995
2009 2 2 10 10 934 935 997
2010 2 2 10 10 934 997 996
2011 2 2 10 10 935 936 998
2012 2 2 10 10 935 998 997
2013 2 2 10 10 937 938 1000
2014 2 2 10 10 937 1000 999
2015 2 2 10 10 938 939 1001
2016 2 2 10 10 938 1001 1000
2017 2 2 10 10 939 940 1002
2018 2 2 10 10 939 1002 1001
2019 2 2 10 10 940 941 1003
2020 2 2 10 10 940 1003 1002
2021 2 2 10 10 941 942 1004
2022 2 2 10 10 941 1004 1003
2023 2 2 10 10 942 943 1005
2024 2 2 10 10 942 1005 1004
2025 2 2 10 10 943 944 1006
2026 2 2 10 10 943 1006 1005
2027 2 2 10 10 944 945 1007
2028 2 2 10 10 944 1007 1006
2029 2 2 10 10 945 946 1008
2030 2 2 10 10 945 1008 1007
2031 2 2 10 10 946 947 1009
2032 2 2 10 10 946 1009 1008
2033 2 2 10 10 947 948 1010
2034 2 2 10 10 947 1010 1009
2035 2 2 10 10 948 949 1011
2036 2 2 10 10 948 1011 1010
2037 2 2 10 10 949 950 1012
2038 2 2 10 10 949 1012 1011
2039 2 2 10 10 950 951 1013
2040 2 2 10 10 950 1013 1012
2041 2 2 10 10 951 952 1014
2042 2 2 10 10 951 1014 1013
2043 2 2 10 10 952 953 1015
2044 2 2 10 10 952 1015 1014
2045 2 2 10 10 953 954 1016
2046 2 2 10 10 953 1016 1015
2047 2 2 10 10 954 955 1017
2048 2 2 10 10 954 1017 1016
2049 2 2 10 10 955 956 1018
2050 2 2 10 10 955 1018 1017
2051 2 2 10 10 956 957 1019
2052 2 2 10 10 956 1019 1018
2053 2 2 10 10 957 958 1020
2054 2 2 10 10 957 1020 1019
2055 2 2 10 10 958 959 1021
2056 2 2 10 10 958 1021 1020
2057 2 2 10 10 959 960 1022
2058 2 2 10 10 959 1022 1021
2059 2 2 10 10 960 961 1023
2060 2 2 10 10 960 1023 1022
2061 2 2 10 10 961 962 1024
2062 2 2 10 10 961 1024 1023
2063 2 2 10 10 962 963 1025
2064 2 2 10 10 962 1025 1024
2065 2 2 10 10 963 964 1026
2066 2 2 10 10 963 1026 1025
2067 2 2 10 10 964 965 1027
2068 2 2 10 10 964 1027 1026
2069 2 2 10 10 965 966 1028
2070 2 2 10 10 965 1028 1027
2071 2 2 10 10 966 967 1029
2072 2 2 10 10 966 1029 1028
2073 2 2 10 10 968 969 1031
2074 2 2 10 10 968 1031 1030
2075 2 2 10 10 969 970 1032
2076 2 2 10 10 969 1032 1031
2077 2 2 10 10 970 971 1033
2078 2 2 10 10 970 1033 1032
2079 2 2 10 10 971 972 1034
2080 2 2 10 10 971 1034 1033
2081 2 2 10 10 972 973 1035
2082 2 2 10 10 972 1035 1034
2083 2 2 10 10 973 974 1036
2084 2 2 10 10 973 1036 1035
2085 2 2 10 10 974 975 1037
2086 2 2 10 10 974 1037 1036
2087 2 2 10 10 975 976 1038
2088 2 2 10 10 975 1038 1037
2089 2 2 10 10 976 977 1039
2090 2 2 10 10 976 1039 1038
2091 2 2 10 10 977 978 1040
2092 2 2 10 10 977 1040 1039
2093 2 2 10 10 978 979 1041
2094 2 2 10 10 978 1041 1040
2095 2 2 10 10 979 980 1042
2096 2 2 10 10 979 1042 1041
2097 2 2 10 10 980 981 1043
2098 2 2 10 10 980 1043 1042
2099 2 2 10 10 981 982 1044
2100 2 2 10 10 981 1044 1043
2101 2 2 10 10 982 983 1045
2102 2 2 10 10 982 1045 1044
2103 2 2 10 10 983 984 1046
2104 2 2 10 10 983 1046 1045
2105 2 2 10 10 984 985 1047
2106 2 2 10 10 984 1047 1046
2107 2 2 10 10 985 986 1048
2108 2 2 10 10 985 1048 1047
2109 2 2 10 10 986 987 1049
2110 2 2 10 10 986 1049 1048
2111 2 2 10 10 987 988 1050
2112 2 2 10 10 987 1050 1049
2113 2 2 10 10 988 989 1051
2114 2 2 10 10 988 1051 1050
2115 2 2 10 10 989 990 1052
2116 2 2 10 10 989 1052 1051
2117 2 2 10 10 990 991 1053
2118 2 2 10 10 990 1053 1052
2119 2 2 10 10 991 992 1054
2120 2 2 10 10 991 1054 1053
2121 2 2 10 10 992 993 1055
2122 2 2 10 10 992 1055 1054
2123 2 2 10 10 993 994 1056
2124 2 2 10 10 993 1056 1055
2125 2 2 10 10 994 995 1057
2126 2 2 10 10 994 1057 1056
2127 2 2 10 10 995 996 1058
2128 2 2 10 10 995 1058 1057
2129 2 2 10 10 996 997 1059
2130 2 2 10 10 996 1059 1058
2131 2 2 10 10 1000 1001 1061
2132 2 2 10 10 1000 1061 1060
2133 2 2 10 10 1001 1002 1062
2134 2 2 10 10 1001 1062 1061
2135 2 2 10 10 1002 1003 1063
2136 2 2 10 10 1002 1063 1062
2137 2 2 10 10 1003 1004 1064
2138 2 2 10 10 1003 1064 1063
2139 2 2 10 10 1004 1005 1065
2140 2 2 10 10 1004 1065 1064
2141 2 2 10 10 1005 1006 1066
2142 2 2 10 10 1005 1066 1065
2143 2 2 10 10 1006 1007 1067
2144 2 2 10 10 1006 1067 1066
2145 2 2 10 10 1007 1008 1068
2146 2 2 10 10 1007 1068 1067
2147 2 2 10 10 1008 1009 1069
2148 2 2 10 10 1008 1069 1068
2149 2 2 10 10 1009 1010 1070
2150 2 2 10 10 1009 1070 1069
2151 2 2 10 10 1010 1011 1071
2152 2 2 10 10 1010 1071 1070
2153 2 2 10 10 1011 1012 1072
2154 2 2 10 10 1011 1072 1071
2155 2 2 10 10 1012 1013 1073
2156 2 2 10 10 1012 1073 1072
2157 2 2 10 10 1013 1014 1074
2158 2 2 10 10 1013 1074 1073
2159 2 2 10 10 1014 1015 1075
2160 2 2 10 10 1014 1075 1074
2161 2 2 10 10 1015 1016 1076
2162 2 2 10 10 1015 1076 1075
2163 2 2 10 10 1016 1017 1077
2164 2 2 10 10 1016 1077 1076
2165 2 2 10 10 1017 1018 1078
2166 2 2 10 10 1017 1078 1077
2167 2 2 10 10 1018 1019 1079
2168 2 2 10 10 1018 1079 1078
2169 2 2 10 10 1019 1020 1080
2170 2 2 10 10 1019 1080 1079
2171 2 2 10 10 1020 1021 1081
2172 2 2 10 10 1020 1081 1080
2173 2 2 10 10 1021 1022 1082
2174 2 2 10 10 1021 1082 1081
2175 2 2 10 10 1022 1023 1083
2176 2 2 10 10 1022 1083 1082
2177 2 2 10 10 1023 1024 1084
2178 2 2 10 10 1023 1084 1083
2179 2 2 10 10 1024 1025 1085
2180 2 2 10 10 1024 1085 1084
2181 2 2 10 10 1025 1026 1086
2182 2 2 10 10 1025 1086 1085
2183 2 2 10 10 1026 1027 1087
2184 2 2 10 10 1026 1087 1086
2185 2 2 10 10 1027 1028 1088
2186 2 2 10 10 1027 1088 1087
2187 2 2 10 10 1028 1029 1089
2188 2 2 10 10 1028 1089 1088
2189 2 2 10 10 1030 1031 1091
2190 2 2 10 10 1030 1091 1090
2191 2 2 10 10 1031 1032 1092
2192 2 2 10 10 1031 1092 1091
2193 2 2 10 10 1032 1033 1093
2194 2 2 10 10 1032 1093 1092
2195 2 2 10 10 1033 1034 1094
2196 2 2 10 10 1033 1094 1093
2197 2 2 10 10 1034 1035 1095
2198 2 2 10 10 1034 1095 1094
2199 2 2 10 10 1035 1036 1096
2200 2 2 10 10 1035 1096 1095
2201 2 2 10 10 1036 1037 1097
2202 2 2 10 10 1036 1097 1096
2203 2 2 10 10 1037 1038 1098
2204 2 2 10 10 1037 1098 1097
2205 2 2 10 10 1038 1039 1099
2206 2 2 10 10 1038 1099 1098
2207 2 2 10 10 1039 1040 1100
2208 2 2 10 10 1039 1100 1099
2209 2 2 10 10 1040 1041 1101
2210 2 2 10 10 1040 1101 1100
2211 2 2 10 10 1041 1042 1102
2212 2 2 10 10 1041 1102 1101
2213 2 2 10 10 1042 1043 1103
2214 2 2 10 10 1042 1103 1102
2215 2 2 10 10 1043 1044 1104
2216 2 2 10 10 1043 1104 1103
2217 2 2 10 10 1044 1045 1105
2218 2 2 10 10 1044 1105 1104
2219 2 2 10 10 1045 1046 1106
2220 2 2 10 10 1045 1106 1105
2221 2 2 10 10 1046 1047 1107
2222 2 2 10 10 1046 1107 1106
2223 2 2 10 10 1047 1048 1108
2224 2 2 10 10 1047 1108 1107
2225 2 2 10 10 1048 1049 1109
2226 2 2 10 10 1048 1109 1108
2227 2 2 10 10 1049 1050 1110
2228 2 2 10 10 1049 1110 1109
2229 2 2 10 10 1050 1051 1111
2230 2 2 10 10 1050 1111 1110
2231 2 2 10 10 1051 1052 1112
2232 2 2 10 10 1051 1112 1111
2233 2 2 10 10 1052 1053 1113
2234 2 2 10 10 1052 1113 1112
2235 2 2 10 10 1053 1054 1114
2236 2 2 10 10 1053 1114 1113
2237 2 2 10 10 1054 1055 1115
2238 2 2 10 10 1054 1115 1114
2239 2 2 10 10 1055 1056 1116
2240 2 2 10 10 1055 1116 1115
2241 2 2 10 10 1056 1057 1117
2242 2 2 10 10 1056 1117 1116
2243 2 2 10 10 1057 1058 1118
2244 2 2 10 10 1057 1118 1117
2245 2 2 10 10 1058 1059 1119
2246 2 2 10 10 1058 1119 1118
2247 2 2 10 10 1060 1061 1121
2248 2 2 10 10 1060 1121 1120
2249 2 2 10 10 1061 1062 1122
2250 2 2 10 10 1061 1122 1121
2251 2 2 10 10 1062 1063 1123
2252 2 2 10 10 1062 1123 1122
2253 2 2 10 10 1063 1064 1124
2254 2 2 10 10 1063 1124 1123
2255 2 2 10 10 1064 1065 1125
2256 2 2 10 10 1064 1125 1124
2257 2 2 10 10 1065 1066 1126
2258 2 2 10 10 1065 1126 1125
2259 2 2 10 10 1066 1067 1127
2260 2 2 10 10 1066 1127 1126
2261 2 2 10 10 1067 1068 1128
2262 2 2 10 10 1067 1128 1127
2263 2 2 10 10 1068 1069 1129
2264 2 2 10 10 1068 1129 1128
2265 2 2 10 10 1069 1070 1130
2266 2 2 10 10 1069 1130 1129
2267 2 2 10 10 1070 1071 1131
2268 2 2 10 10 1070 1131 1130
2269 2 2 10 10 1071 1072 1132
2270 2 2 10 10 1071 1132 1131
2271 2 2 10 10 1072 1073 1133
2272 2 2 10 10 1072 1133 1132
2273 2 2 10 10 1073 1074 1134
2274 2 2 10 10 1073 1134 1133
2275 2 2 10 10 1074 1075 1135
2276 2 2 10 10 1074 1135 1134
2277 2 2 10 10 1075 1076 1136
2278 2 2 10 10 1075 1136 1135
2279 2 2 10 10 1076 1077 1137
2280 2 2 10 10 1076 1137 1136
2281 2 2 10 10 1077 1078 1138
2282 2 2 10 10 1077 1138 1137
2283 2 2 10 10 1078 1079 1139
2284 2 2 10 10 1078 1139 1138
2285 2 2 10 10 1079 1080 1140
2286 2 2 10 10 1079 1140 1139
2287 2 2 10 10 1080 1081 1141
2288 2 2 10 10 1080 1141 1140
2289 2 2 10 10 1081 1082 1142
2290 2 2 10 10 1081 1142 1141
2291 2 2 10 10 1082 1083 1143
2292 2 2 10 10 1082 1143 1142
2293 2 2 10 10 1083 1084 1144
2294 2 2 10 10 1083 1144 1143
2295 2 2 10 10 1084 1085 1145
2296 2 2 10 10 1084 1145 1144
2297 2 2 10 10 1085 1086 1146
2298 2 2 10 10 1085 1146 1145
2299 2 2 10 10 1086 1087 1147
2300 2 2 10 10 1086 1147 1146
2301 2 2 10 10 1087 1088 1148
2302 2 2 10 10 1087 1148 1147
2303 2 2 10 10 1088 1089 1149
2304 2 2 10 10 1088 1149 1148
2305 2 2 10 10 1090 1091 1151
2306 2 2 10 10 1090 1151 1150
2307 2 2 10 10 1091 1092 1152
2308 2 2 10 10 1091 1152 1151
2309 2 2 10 10 1092 1093 1153
2310 2 2 10 10 1092 1153 1152
2311 2 2 10 10 1093 1094 1154
2312 2 2 10 10 1093 1154 1153
2313 2 2 10 10 1094 1095 1155
2314 2 2 10 10 1094 1155 1154
2315 2 2 10 10 1095 1096 1156
2316 2 2 10 10 1095 1156 1155
2317 2 2 10 10 1096 1097 1157
2318 2 2 10 10 1096 1157 1156
2319 2 2 10 10 1097 1098 1158
2320 2 2 10 10 1097 1158 1157
2321 2 2 10 10 1098 1099 1159
2322 2 2 10 10 1098 1159 1158
2323 2 2 10 10 1099 1100 1160
2324 2 2 10 10 1099 1160 1159
2325 2 2 10 10 1100 1101 1161
2326 2 2 10 10 1100 1161 1160
2327 2 2 10 10 1101 1102 1162
2328 2 2 10 10 1101 1162 1161
2329 2 2 10 10 1102 1103 1163
2330 2 2 10 10 1102 1163 1162
2331 2 2 10 10 1103 1104 1164
2332 2 2 10 10 1103 1164 1163
2333 2 2 10 10 1104 1105 1165
2334 2 2 10 10 1104 1165 1164
2335 2 2 10 10 1105 1106 1166
2336 2 2 10 10 1105 1166 1165
2337 2 2 10 10 1106 1107 1167
2338 2 2 10 10 1106 1167 1166
2339 2 2 10 10 1107 1108 1168
2340 2 2 10 10 1107 1168 1167
2341 2 2 10 10 1108 1109 1169
2342 2 2 10 10 1108 1169 1168
2343 2 2 10 10 1109 1110 1170
2344 2 2 10 10 1109 1170 1169
2345 2 2 10 10 1110 1111 1171
2346 2 2 10 10 1110 1171 1170
2347 2 2 10 10 1111 1112 1172
2348 2 2 10 10 1111 1172 1171
2349 2 2 10 10 1112 1113 1173
2350 2 2 10 10 1112 1173 1172
2351 2 2 10 10 1113 1114 1174
2352 2 2 10 10 1113 1174 1173
2353 2 2 10 10 1114 1115 1175
2354 2 2 10 10 1114 1175 1174
2355 2 2 10 10 1115 1116 1176
2356 2 2 10 10 1115 1176 1175
2357 2 2 10 10 1116 1117 1177
2358 2 2 10 10 1116 1177 1176
2359 2 2 10 10 1117 1118 1178
2360 2 2 10 10 1117 1178 1177
2361 2 2 10 10 1118 1119 1179
2362 2 2 10 10 1118 1179 1178
2363 2 2 10 10 1120 1121 1181
2364 2 2 10 10 1120 1181 1180
2365 2 2 10 10 1121 1122 1182
2366 2 2 10 10 1121 1182 1181
2367 2 2 10 10 1122 1123 1183
2368 2 2 10 10 1122 1183 1182
2369 2 2 10 10 1123 1124 1184
2370 2 2 10 10 1123 1184 1183
2371 2 2 10 10 1124 1125 1185
2372 2 2 10 10 1124 1185 1184
2373 2 2 10 10 1125 1126 1186
2374 2 2 10 10 1125 1186 1185
2375 2 2 10 10 1126 1127 1187
2376 2 2 10 10 1126 1187 1186
2377 2 2 10 10 1127 1128 1188
2378 2 2 10 10 1127 1188 1187
2379 2 2 10 10 1128 1129 1189
2380 2 2 10 10 1128 1189 1188
2381 2 2 10 10 1129 1130 1190
2382 2 2 10 10 1129 1190 1189
2383 2 2 10 10 1130 1131 1191
2384 2 2 10 10 1130 1191 1190
2385 2 2 10 10 1131 1132 1192
2386 2 2 10 10 1131 1192 1191
2387 2 2 10 10 1132 1133 1193
2388 2 2 10 10 1132 1193 1192
2389 2 2 10 10 1133 1134 1194
2390 2 2 10 10 1133 1194 1193
2391 2 2 10 10 1134 1135 1195
2392 2 2 10 10 1134 1195 1194
2393 2 2 10 10 1135 1136 1196
2394 2 2 10 10 1135 1196 1195
2395 2 2 10 10 1136 1137 1197
2396 2 2 10 10 1136 1197 1196
2397 2 2 10 10 1137 1138 1198
2398 2 2 10 10 1137 1198 1197
2399 2 2 10 10 1138 1139 1199
2400 2 2 10 10 1138 1199 1198
2401 2 2 10 10 1139 1140 1200
2402 2 2 10 10 1139 1200 1199
2403 2 2 10 10 1140 1141 1201
2404 2 2 10 10 1140 1201 1200
2405 2 2 10 10 1141 1142 1202
2406 2 2 10 10 1141 1202 1201
2407 2 2 10 10 1142 1143 1203
2408 2 2 10 10 1142 1203 1202
2409 2 2 10 10 1143 1144 1204
2410 2 2 10 10 1143 1204 1203
2411 2 2 10 10 1144 1145 1205
2412 2 2 10 10 1144 1205 1204
2413 2 2 10 10 1145 1146 1206
2414 2 2 10 10 1145 1206 1205
2415 2 2 10 10 1146 1147 1207
2416 2 2 10 10 1146 1207 1206
2417 2 2 10 10 1147 1148 1208
2418 2 2 10 10 1147 1208 1207
2419 2 2 10 10 1148 1149 1209
2420 2 2 10 10 1148 1209 1208
2421 2 2 10 10 1150 1151 1211
2422 2 2 10 10 1150 1211 1210
2423 2 2 10 10 1151 1152 1212
2424 2 2 10 10 1151 1212 1211
2425 2 2 10 10 1152 1153 1213
2426 2 2 10 10 1152 1213 1212
2427 2 2 10 10 1153 1154 1214
2428 2 2 10 10 1153 1214 1213
2429 2 2 10 10 1154 1155 1215
2430 2 2 10 10 1154 1215 1214
2431 2 2 10 10 1155 1156 1216
2432 2 2 10 10 1155 1216 1215
2433 2 2 10 10 1156 1157 1217
2434 2 2 10 10 1156 1217 1216
2435 2 2 10 10 1157 1158 1218
2436 2 2 10 10 1157 1218 1217
2437 2 2 10 10 1158 1159 1219
2438 2 2 10 10 1158 1219 1218
2439 2 2 10 10 1159 1160 1220
2440 2 2 10 10 1159 1220 1219
2441 2 2 10 10 1160 1161 1221
2442 2 2 10 10 1160 1221 1220
2443 2 2 10 10 1161 1162 1222
2444 2 2 10 10 1161 1222 1221
2445 2 2 10 10 1162 1163 1223
2446 2 2 10 10 1162 1223 1222
2447 2 2 10 10 1163 1164 1224
2448 2 2 10 10 1163 1224 1223
2449 2 2 10 10 1164 1165 1225
2450 2 2 10 10 1164 1225 1224
2451 2 2 10 10 1165 1166 1226
2452 2 2 10 10 1165 1226 1225
2453 2 2 10 10 1166 1167 1227
2454 2 2 10 10 1166 1227 1226
2455 2 2 10 10 1167 1168 1228
2456 2 2 10 10 1167 1228 1227
2457 2 2 10 10 1168 1169 1229
2458 2 2 10 10 1168 1229 1228
2459 2 2 10 10 1169 1170 1230
2460 2 2 10 10 1169 1230 1229
2461 2 2 10 10 1170 1171 1231
2462 2 2 10 10 1170 1231 1230
2463 2 2 10 10 1171 1172 1232
2464 2 2 10 10 1171 1232 1231
2465 2 2 10 10 1172 1173 1233
2466 2 2 10 10 1172 1233 1232
2467 2 2 10 10 1173 1174 1234
2468 2 2 10 10 1173 1234 1233
2469 2 2 10 10 1174 1175 1235
2470 2 2 10 10 1174 1235 1234
2471 2 2 10 10 1175 1176 1236
2472 2 2 10 10 1175 1236 1235
2473 2 2 10 10 1176 1177 1237
2474 2 2 10 10 1176 1237 1236
2475 2 2 10 10 1177 1178 1238
2476 2 2 10 10 1177 1238 1237
2477 2 2 10 10 1181 1182 1240
2478 2 2 10 10 1181 1240 1239
2479 2 2 10 10 1182 1183 1241
2480 2 2 10 10 1182 1241 1240
2481 2 2 10 10 1183 1184 1242
2482 2 2 10 10 1183 1242 1241
2483 2 2 10 10 1184 1185 1243
2484 2 2 10 10 1184 1243 1242
2485 2 2 10 10 1185 1186 1244
2486 2 2 10 10 1185 1244 1243
2487 2 2 10 10 1186 1187 1245
2488 2 2 10 10 1186 1245 1244
2489 2 2 10 10 1187 1188 1246
2490 2 2 10 10 1187 1246 1245
2491 2 2 10 10 1188 1189 1247
2492 2 2 10 10 1188 1247 1246
2493 2 2 10 10 1189 1190 1248
2494 2 2 10 10 1189 1248 1247
2495 2 2 10 10 1190 1191 1249
2496 2 2 10 10 1190 1249 1248
2497 2 2 10 10 1191 1192 1250
2498 2 2 10 10 1191 1250 1249
2499 2 2 10 10 1192 1193 1251
2500 2 2 10 10 1192 1251 1250
2501 2 2 10 10 1193 1194 1252
2502 2 2 10 10 1193 1252 1251
2503 2 2 10 10 1194 1195 1253
2504 2 2 10 10 1194 1253 1252
2505 2 2 10 10 1195 1196 1254
2506 2 2 10 10 1195 1254 1253
2507 2 2 10 10 1196 1197 1255
2508 2 2 10 10 1196 1255 1254
2509 2 2 10 10 1197 1198 1256
2510 2 2 10 10 1197 1256 1255
2511 2 2 10 10 1198 1199 1257
2512 2 2 10 10 1198 1257 1256
2513 2 2 10 10 1199 1200 1258
2514 2 2 10 10 1199 1258 1257
2515 2 2 10 10 1200 1201 1259
2516 2 2 10 10 1200 1259 1258
2517 2 2 10 10 1201 1202 1260
2518 2 2 10 10 1201 1260 1259
2519 2 2 10 10 1202 1203 1261
2520 2 2 10 10 1202 1261 1260
2521 2 2 10 10 1203 1204 1262
2522 2 2 10 10 1203 1262 1261
2523 2 2 10 10 1204 1205 1263
2524 2 2 10 10 1204 1263 1262
2525 2 2 10 10 1205 1206 1264
2526 2 2 10 10 1205 1264 1263
2527 2 2 10 10 1206 1207 1265
2528 2 2 10 10 1206 1265 1264
2529 2 2 10 10 1207 1208 1266
2530 2 2 10 10 1207 1266 1265
2531 2 2 10 10 1208 1209 1267
2532 2 2 10 10 1208 1267 1266
$EndElements
