$MeshFormat
2.2 0 8
$EndMeshFormat
$PhysicalNames
4
1 1 "inlet"
1 2 "outlet"
1 3 "walls"
2 10 "fluid"
$EndPhysicalNames
$Nodes
825
1 0 0.02 0
2 0.002 0.02 0
3 0.004 0.02 0
4 0.006 0.02 0
5 0.008 0.02 0
6 0.01 0.02 0
7 0.012 0.02 0
8 0.014 0.02 0
9 0.016 0.02 0
10 0.018 0.02 0
11 0.02 0.02 0
12 0.022 0.02 0
13 0.024 0.02 0
14 0.026 0.02 0
15 0.028 0.02 0
16 0.03 0.02 0
17 0.032 0.02 0
18 0.034 0.02 0
19 0.036 0.02 0
20 0.038 0.02 0
21 0.04 0.02 0
22 0.042 0.02 0
23 0.044 0.02 0
24 0.046 0.02 0
25 0.048 0.02 0
26 0.05 0.02 0
27 0.052 0.02 0
28 0.054 0.02 0
29 0.056 0.02 0
30 0.058 0.02 0
31 0.06 0.02 0
32 0.062 0.02 0
33 0.064 0.02 0
34 0.066 0.02 0
35 0.068 0.02 0
36 0.07000000000000001 0.02 0
37 0.07200000000000001 0.02 0
38 0.074 0.02 0
39 0.076 0.02 0
40 0.078 0.02 0
41 0.08 0.02 0
42 0.082 0.02 0
43 0.08400000000000001 0.02 0
44 0.08600000000000001 0.02 0
45 0.08799999999999999 0.02 0
46 0.09 0.02 0
47 0.092 0.02 0
48 0.094 0.02 0
49 0.096 0.02 0
50 0.098 0.02 0
51 0.1 0.02 0
52 0.102 0.02 0
53 0.104 0.02 0
54 0.106 0.02 0
55 0.108 0.02 0
56 0.11 0.02 0
57 0.112 0.02 0
58 0.114 0.02 0
59 0.116 0.02 0
60 0.118 0.02 0
61 0.12 0.02 0
62 0.122 0.02 0
63 0.124 0.02 0
64 0.126 0.02 0
65 0.128 0.02 0
66 0 0.022 0
67 0.002 0.022 0
68 0.004 0.022 0
69 0.006 0.022 0
70 0.008 0.022 0
71 0.01 0.022 0
72 0.012 0.022 0
73 0.014 0.022 0
74 0.016 0.022 0
75 0.018 0.022 0
76 0.02 0.022 0
77 0.022 0.022 0
78 0.024 0.022 0
79 0.026 0.022 0
80 0.028 0.022 0
81 0.03 0.022 0
82 0.032 0.022 0
83 0.034 0.022 0
84 0.036 0.022 0
85 0.038 0.022 0
86 0.04 0.022 0
87 0.042 0.022 0
88 0.044 0.022 0
89 0.046 0.022 0
90 0.048 0.022 0
91 0.05 0.022 0
92 0.052 0.022 0
93 0.054 0.022 0
94 0.056 0.022 0
95 0.058 0.022 0
96 0.06 0.022 0
97 0.062 0.022 0
98 0.064 0.022 0
99 0.066 0.022 0
100 0.068 0.022 0
101 0.07000000000000001 0.022 0
102 0.07200000000000001 0.022 0
103 0.074 0.022 0
104 0.076 0.022 0
105 0.078 0.022 0
106 0.08 0.022 0
107 0.082 0.022 0
108 0.08400000000000001 0.022 0
109 0.08600000000000001 0.022 0
110 0.08799999999999999 0.022 0
111 0.09 0.022 0
112 0.092 0.022 0
113 0.094 0.022 0
114 0.096 0.022 0
115 0.098 0.022 0
116 0.1 0.022 0
117 0.102 0.022 0
118 0.104 0.022 0
119 0.106 0.022 0
120 0.108 0.022 0
121 0.11 0.022 0
122 0.112 0.022 0
123 0.114 0.022 0
124 0.116 0.022 0
125 0.118 0.022 0
126 0.12 0.022 0
127 0.122 0.022 0
128 0.124 0.022 0
129 0.126 0.022 0
130 0.128 0.022 0
131 0 0.024 0
132 0.002 0.024 0
133 0.004 0.024 0
134 0.006 0.024 0
135 0.008 0.024 0
136 0.01 0.024 0
137 0.012 0.024 0
138 0.014 0.024 0
139 0.016 0.024 0
140 0.018 0.024 0
141 0.02 0.024 0
142 0.022 0.024 0
143 0.024 0.024 0
144 0.026 0.024 0
145 0.028 0.024 0
146 0.03 0.024 0
147 0.032 0.024 0
148 0.034 0.024 0
149 0.036 0.024 0
150 0.038 0.024 0
151 0.04 0.024 0
152 0.042 0.024 0
153 0.044 0.024 0
154 0.046 0.024 0
155 0.048 0.024 0
156 0.05 0.024 0
157 0.052 0.024 0
158 0.054 0.024 0
159 0.056 0.024 0
160 0.058 0.024 0
161 0.06 0.024 0
162 0.062 0.024 0
163 0.064 0.024 0
164 0.066 0.024 0
165 0.068 0.024 0
166 0.07000000000000001 0.024 0
167 0.07200000000000001 0.024 0
168 0.074 0.024 0
169 0.076 0.024 0
170 0.078 0.024 0
171 0.08 0.024 0
172 0.082 0.024 0
173 0.08400000000000001 0.024 0
174 0.08600000000000001 0.024 0
175 0.08799999999999999 0.024 0
176 0.09 0.024 0
177 0.092 0.024 0
178 0.094 0.024 0
179 0.096 0.024 0
180 0.098 0.024 0
181 0.1 0.024 0
182 0.102 0.024 0
183 0.104 0.024 0
184 0.106 0.024 0
185 0.108 0.024 0
186 0.11 0.024 0
187 0.112 0.024 0
188 0.114 0.024 0
189 0.116 0.024 0
190 0.118 0.024 0
191 0.12 0.024 0
192 0.122 0.024 0
193 0.124 0.024 0
194 0.126 0.024 0
195 0.128 0.024 0
196 0 0.026 0
197 0.002 0.026 0
198 0.004 0.026 0
199 0.006 0.026 0
200 0.008 0.026 0
201 0.01 0.026 0
202 0.012 0.026 0
203 0.014 0.026 0
204 0.016 0.026 0
205 0.018 0.026 0
206 0.02 0.026 0
207 0.022 0.026 0
208 0.024 0.026 0
209 0.026 0.026 0
210 0.028 0.026 0
211 0.03 0.026 0
212 0.032 0.026 0
213 0.034 0.026 0
214 0.036 0.026 0
215 0.038 0.026 0
216 0.04 0.026 0
217 0.042 0.026 0
218 0.044 0.026 0
219 0.046 0.026 0
220 0.048 0.026 0
221 0.05 0.026 0
222 0.052 0.026 0
223 0.054 0.026 0
224 0.056 0.026 0
225 0.058 0.026 0
226 0.06 0.026 0
227 0.062 0.026 0
228 0.064 0.026 0
229 0.066 0.026 0
230 0.068 0.026 0
231 0.07000000000000001 0.026 0
232 0.07200000000000001 0.026 0
233 0.074 0.026 0
234 0.076 0.026 0
235 0.078 0.026 0
236 0.08 0.026 0
237 0.082 0.026 0
238 0.08400000000000001 0.026 0
239 0.08600000000000001 0.026 0
240 0.08799999999999999 0.026 0
241 0.09 0.026 0
242 0.092 0.026 0
243 0.094 0.026 0
244 0.096 0.026 0
245 0.098 0.026 0
246 0.1 0.026 0
247 0.102 0.026 0
248 0.104 0.026 0
249 0.106 0.026 0
250 0.108 0.026 0
251 0.11 0.026 0
252 0.112 0.026 0
253 0.114 0.026 0
254 0.116 0.026 0
255 0.118 0.026 0
256 0.12 0.026 0
257 0.122 0.026 0
258 0.124 0.026 0
259 0.126 0.026 0
260 0.128 0.026 0
261 0 0.028 0
262 0.002 0.028 0
263 0.004 0.028 0
264 0.006 0.028 0
265 0.008 0.028 0
266 0.01 0.028 0
267 0.012 0.028 0
268 0.014 0.028 0
269 0.016 0.028 0
270 0.018 0.028 0
271 0.02 0.028 0
272 0.022 0.028 0
273 0.024 0.028 0
274 0.026 0.028 0
275 0.028 0.028 0
276 0.03 0.028 0
277 0.032 0.028 0
278 0.034 0.028 0
279 0.036 0.028 0
280 0.038 0.028 0
281 0.04 0.028 0
282 0.042 0.028 0
283 0.044 0.028 0
284 0.046 0.028 0
285 0.048 0.028 0
286 0.05 0.028 0
287 0.052 0.028 0
288 0.054 0.028 0
289 0.056 0.028 0
290 0.058 0.028 0
291 0.06 0.028 0
292 0.062 0.028 0
293 0.064 0.028 0
294 0.066 0.028 0
295 0.068 0.028 0
296 0.07000000000000001 0.028 0
297 0.07200000000000001 0.028 0
298 0.074 0.028 0
299 0.076 0.028 0
300 0.078 0.028 0
301 0.08 0.028 0
302 0.082 0.028 0
303 0.08400000000000001 0.028 0
304 0.08600000000000001 0.028 0
305 0.08799999999999999 0.028 0
306 0.09 0.028 0
307 0.092 0.028 0
308 0.094 0.028 0
309 0.096 0.028 0
310 0.098 0.028 0
311 0.1 0.028 0
312 0.102 0.028 0
313 0.104 0.028 0
314 0.106 0.028 0
315 0.108 0.028 0
316 0.11 0.028 0
317 0.112 0.028 0
318 0.114 0.028 0
319 0.116 0.028 0
320 0.118 0.028 0
321 0.12 0.028 0
322 0.122 0.028 0
323 0.124 0.028 0
324 0.126 0.028 0
325 0.128 0.028 0
326 0.06 0.03 0
327 0.062 0.03 0
328 0.064 0.03 0
329 0.066 0.03 0
330 0.068 0.03 0
331 0.06 0.032 0
332 0.062 0.032 0
333 0.064 0.032 0
334 0.066 0.032 0
335 0.068 0.032 0
336 0.06 0.034 0
337 0.062 0.034 0
338 0.064 0.034 0
339 0.066 0.034 0
340 0.068 0.034 0
341 0.06 0.036 0
342 0.062 0.036 0
343 0.064 0.036 0
344 0.066 0.036 0
345 0.068 0.036 0
346 0.06 0.038 0
347 0.062 0.038 0
348 0.064 0.038 0
349 0.066 0.038 0
350 0.068 0.038 0
351 0.06 0.04 0
352 0.062 0.04 0
353 0.064 0.04 0
354 0.066 0.04 0
355 0.068 0.04 0
356 0.06 0.042 0
357 0.062 0.042 0
358 0.064 0.042 0
359 0.066 0.042 0
360 0.068 0.042 0
361 0.06 0.044 0
362 0.062 0.044 0
363 0.064 0.044 0
364 0.066 0.044 0
365 0.068 0.044 0
366 0.06 0.046 0
367 0.062 0.046 0
368 0.064 0.046 0
369 0.066 0.046 0
370 0.068 0.046 0
371 0.06 0.048 0
372 0.062 0.048 0
373 0.064 0.048 0
374 0.066 0.048 0
375 0.068 0.048 0
376 0.06 0.05 0
377 0.062 0.05 0
378 0.064 0.05 0
379 0.066 0.05 0
380 0.068 0.05 0
381 0.06 0.052 0
382 0.062 0.052 0
383 0.064 0.052 0
384 0.066 0.052 0
385 0.068 0.052 0
386 0.06 0.054 0
387 0.062 0.054 0
388 0.064 0.054 0
389 0.066 0.054 0
390 0.068 0.054 0
391 0.06 0.056 0
392 0.062 0.056 0
393 0.064 0.056 0
394 0.066 0.056 0
395 0.068 0.056 0
396 0.06 0.058 0
397 0.062 0.058 0
398 0.064 0.058 0
399 0.066 0.058 0
400 0.068 0.058 0
401 0.06 0.06 0
402 0.062 0.06 0
403 0.064 0.06 0
404 0.066 0.06 0
405 0.068 0.06 0
406 0.06 0.062 0
407 0.062 0.062 0
408 0.064 0.062 0
409 0.066 0.062 0
410 0.068 0.062 0
411 0.06 0.064 0
412 0.062 0.064 0
413 0.064 0.064 0
414 0.066 0.064 0
415 0.068 0.064 0
416 0.06 0.066 0
417 0.062 0.066 0
418 0.064 0.066 0
419 0.066 0.066 0
420 0.068 0.066 0
421 0.06 0.068 0
422 0.062 0.068 0
423 0.064 0.068 0
424 0.066 0.068 0
425 0.068 0.068 0
426 0.06 0.07000000000000001 0
427 0.062 0.07000000000000001 0
428 0.064 0.07000000000000001 0
429 0.066 0.07000000000000001 0
430 0.068 0.07000000000000001 0
431 0.06 0.07200000000000001 0
432 0.062 0.07200000000000001 0
433 0.064 0.07200000000000001 0
434 0.066 0.07200000000000001 0
435 0.068 0.07200000000000001 0
436 0.06 0.074 0
437 0.062 0.074 0
438 0.064 0.074 0
439 0.066 0.074 0
440 0.068 0.074 0
441 0.06 0.076 0
442 0.062 0.076 0
443 0.064 0.076 0
444 0.066 0.076 0
445 0.068 0.076 0
446 0.06 0.078 0
447 0.062 0.078 0
448 0.064 0.078 0
449 0.066 0.078 0
450 0.068 0.078 0
451 0.06 0.08 0
452 0.062 0.08 0
453 0.064 0.08 0
454 0.066 0.08 0
455 0.068 0.08 0
456 0.06 0.082 0
457 0.062 0.082 0
458 0.064 0.082 0
459 0.066 0.082 0
460 0.068 0.082 0
461 0.06 0.08400000000000001 0
462 0.062 0.08400000000000001 0
463 0.064 0.08400000000000001 0
464 0.066 0.08400000000000001 0
465 0.068 0.08400000000000001 0
466 0.06 0.08600000000000001 0
467 0.062 0.08600000000000001 0
468 0.064 0.08600000000000001 0
469 0.066 0.08600000000000001 0
470 0.068 0.08600000000000001 0
471 0.06 0.08799999999999999 0
472 0.062 0.08799999999999999 0
473 0.064 0.08799999999999999 0
474 0.066 0.08799999999999999 0
475 0.068 0.08799999999999999 0
476 0.06 0.09 0
477 0.062 0.09 0
478 0.064 0.09 0
479 0.066 0.09 0
480 0.068 0.09 0
481 0.06 0.092 0
482 0.062 0.092 0
483 0.064 0.092 0
484 0.066 0.092 0
485 0.068 0.092 0
486 0.06 0.094 0
487 0.062 0.094 0
488 0.064 0.094 0
489 0.066 0.094 0
490 0.068 0.094 0
491 0.06 0.096 0
492 0.062 0.096 0
493 0.064 0.096 0
494 0.066 0.096 0
495 0.068 0.096 0
496 0.06 0.098 0
497 0.062 0.098 0
498 0.064 0.098 0
499 0.066 0.098 0
500 0.068 0.098 0
501 0 0.1 0
502 0.002 0.1 0
503 0.004 0.1 0
504 0.006 0.1 0
505 0.008 0.1 0
506 0.01 0.1 0
507 0.012 0.1 0
508 0.014 0.1 0
509 0.016 0.1 0
510 0.018 0.1 0
511 0.02 0.1 0
512 0.022 0.1 0
513 0.024 0.1 0
514 0.026 0.1 0
515 0.028 0.1 0
516 0.03 0.1 0
517 0.032 0.1 0
518 0.034 0.1 0
519 0.036 0.1 0
520 0.038 0.1 0
521 0.04 0.1 0
522 0.042 0.1 0
523 0.044 0.1 0
524 0.046 0.1 0
525 0.048 0.1 0
526 0.05 0.1 0
527 0.052 0.1 0
528 0.054 0.1 0
529 0.056 0.1 0
530 0.058 0.1 0
531 0.06 0.1 0
532 0.062 0.1 0
533 0.064 0.1 0
534 0.066 0.1 0
535 0.068 0.1 0
536 0.07000000000000001 0.1 0
537 0.07200000000000001 0.1 0
538 0.074 0.1 0
539 0.076 0.1 0
540 0.078 0.1 0
541 0.08 0.1 0
542 0.082 0.1 0
543 0.08400000000000001 0.1 0
544 0.08600000000000001 0.1 0
545 0.08799999999999999 0.1 0
546 0.09 0.1 0
547 0.092 0.1 0
548 0.094 0.1 0
549 0.096 0.1 0
550 0.098 0.1 0
551 0.1 0.1 0
552 0.102 0.1 0
553 0.104 0.1 0
554 0.106 0.1 0
555 0.108 0.1 0
556 0.11 0.1 0
557 0.112 0.1 0
558 0.114 0.1 0
559 0.116 0.1 0
560 0.118 0.1 0
561 0.12 0.1 0
562 0.122 0.1 0
563 0.124 0.1 0
564 0.126 0.1 0
565 0.128 0.1 0
566 0 0.102 0
567 0.002 0.102 0
568 0.004 0.102 0
569 0.006 0.102 0
570 0.008 0.102 0
571 0.01 0.102 0
572 0.012 0.102 0
573 0.014 0.102 0
574 0.016 0.102 0
575 0.018 0.102 0
576 0.02 0.102 0
577 0.022 0.102 0
578 0.024 0.102 0
579 0.026 0.102 0
580 0.028 0.102 0
581 0.03 0.102 0
582 0.032 0.102 0
583 0.034 0.102 0
584 0.036 0.102 0
585 0.038 0.102 0
586 0.04 0.102 0
587 0.042 0.102 0
588 0.044 0.102 0
589 0.046 0.102 0
590 0.048 0.102 0
591 0.05 0.102 0
592 0.052 0.102 0
593 0.054 0.102 0
594 0.056 0.102 0
595 0.058 0.102 0
596 0.06 0.102 0
597 0.062 0.102 0
598 0.064 0.102 0
599 0.066 0.102 0
600 0.068 0.102 0
601 0.07000000000000001 0.102 0
602 0.07200000000000001 0.102 0
603 0.074 0.102 0
604 0.076 0.102 0
605 0.078 0.102 0
606 0.08 0.102 0
607 0.082 0.102 0
608 0.08400000000000001 0.102 0
609 0.08600000000000001 0.102 0
610 0.08799999999999999 0.102 0
611 0.09 0.102 0
612 0.092 0.102 0
613 0.094 0.102 0
614 0.096 0.102 0
615 0.098 0.102 0
616 0.1 0.102 0
617 0.102 0.102 0
618 0.104 0.102 0
619 0.106 0.102 0
620 0.108 0.102 0
621 0.11 0.102 0
622 0.112 0.102 0
623 0.114 0.102 0
624 0.116 0.102 0
625 0.118 0.102 0
626 0.12 0.102 0
627 0.122 0.102 0
628 0.124 0.102 0
629 0.126 0.102 0
630 0.128 0.102 0
631 0 0.104 0
632 0.002 0.104 0
633 0.004 0.104 0
634 0.006 0.104 0
635 0.008 0.104 0
636 0.01 0.104 0
637 0.012 0.104 0
638 0.014 0.104 0
639 0.016 0.104 0
640 0.018 0.104 0
641 0.02 0.104 0
642 0.022 0.104 0
643 0.024 0.104 0
644 0.026 0.104 0
645 0.028 0.104 0
646 0.03 0.104 0
647 0.032 0.104 0
648 0.034 0.104 0
649 0.036 0.104 0
650 0.038 0.104 0
651 0.04 0.104 0
652 0.042 0.104 0
653 0.044 0.104 0
654 0.046 0.104 0
655 0.048 0.104 0
656 0.05 0.104 0
657 0.052 0.104 0
658 0.054 0.104 0
659 0.056 0.104 0
660 0.058 0.104 0
661 0.06 0.104 0
662 0.062 0.104 0
663 0.064 0.104 0
664 0.066 0.104 0
665 0.068 0.104 0
666 0.07000000000000001 0.104 0
667 0.07200000000000001 0.104 0
668 0.074 0.104 0
669 0.076 0.104 0
670 0.078 0.104 0
671 0.08 0.104 0
672 0.082 0.104 0
673 0.08400000000000001 0.104 0
674 0.08600000000000001 0.104 0
675 0.08799999999999999 0.104 0
676 0.09 0.104 0
677 0.092 0.104 0
678 0.094 0.104 0
679 0.096 0.104 0
680 0.098 0.104 0
681 0.1 0.104 0
682 0.102 0.104 0
683 0.104 0.104 0
684 0.106 0.104 0
685 0.108 0.104 0
686 0.11 0.104 0
687 0.112 0.104 0
688 0.114 0.104 0
689 0.116 0.104 0
690 0.118 0.104 0
691 0.12 0.104 0
692 0.122 0.104 0
693 0.124 0.104 0
694 0.126 0.104 0
695 0.128 0.104 0
696 0 0.106 0
697 0.002 0.106 0
698 0.004 0.106 0
699 0.006 0.106 0
700 0.008 0.106 0
701 0.01 0.106 0
702 0.012 0.106 0
703 0.014 0.106 0
704 0.016 0.106 0
705 0.018 0.106 0
706 0.02 0.106 0
707 0.022 0.106 0
708 0.024 0.106 0
709 0.026 0.106 0
710 0.028 0.106 0
711 0.03 0.106 0
712 0.032 0.106 0
713 0.034 0.106 0
714 0.036 0.106 0
715 0.038 0.106 0
716 0.04 0.106 0
717 0.042 0.106 0
718 0.044 0.106 0
719 0.046 0.106 0
720 0.048 0.106 0
721 0.05 0.106 0
722 0.052 0.106 0
723 0.054 0.106 0
724 0.056 0.106 0
725 0.058 0.106 0
726 0.06 0.106 0
727 0.062 0.106 0
728 0.064 0.106 0
729 0.066 0.106 0
730 0.068 0.106 0
731 0.07000000000000001 0.106 0
732 0.07200000000000001 0.106 0
733 0.074 0.106 0
734 0.076 0.106 0
735 0.078 0.106 0
736 0.08 0.106 0
737 0.082 0.106 0
738 0.08400000000000001 0.106 0
739 0.08600000000000001 0.106 0
740 0.08799999999999999 0.106 0
741 0.09 0.106 0
742 0.092 0.106 0
743 0.094 0.106 0
744 0.096 0.106 0
745 0.098 0.106 0
746 0.1 0.106 0
747 0.102 0.106 0
748 0.104 0.106 0
749 0.106 0.106 0
750 0.108 0.106 0
751 0.11 0.106 0
752 0.112 0.106 0
753 0.114 0.106 0
754 0.116 0.106 0
755 0.118 0.106 0
756 0.12 0.106 0
757 0.122 0.106 0
758 0.124 0.106 0
759 0.126 0.106 0
760 0.128 0.106 0
761 0 0.108 0
762 0.002 0.108 0
763 0.004 0.108 0
764 0.006 0.108 0
765 0.008 0.108 0
766 0.01 0.108 0
767 0.012 0.108 0
768 0.014 0.108 0
769 0.016 0.108 0
770 0.018 0.108 0
771 0.02 0.108 0
772 0.022 0.108 0
773 0.024 0.108 0
774 0.026 0.108 0
775 0.028 0.108 0
776 0.03 0.108 0
777 0.032 0.108 0
778 0.034 0.108 0
779 0.036 0.108 0
780 0.038 0.108 0
781 0.04 0.108 0
782 0.042 0.108 0
783 0.044 0.108 0
784 0.046 0.108 0
785 0.048 0.108 0
786 0.05 0.108 0
787 0.052 0.108 0
788 0.054 0.108 0
789 0.056 0.108 0
790 0.058 0.108 0
791 0.06 0.108 0
792 0.062 0.108 0
793 0.064 0.108 0
794 0.066 0.108 0
795 0.068 0.108 0
796 0.07000000000000001 0.108 0
797 0.07200000000000001 0.108 0
798 0.074 0.108 0
799 0.076 0.108 0
800 0.078 0.108 0
801 0.08 0.108 0
802 0.082 0.108 0
803 0.08400000000000001 0.108 0
804 0.08600000000000001 0.108 0
805 0.08799999999999999 0.108 0
806 0.09 0.108 0
807 0.092 0.108 0
808 0.094 0.108 0
809 0.096 0.108 0
810 0.098 0.108 0
811 0.1 0.108 0
812 0.102 0.108 0
813 0.104 0.108 0
814 0.106 0.108 0
815 0.108 0.108 0
816 0.11 0.108 0
817 0.112 0.108 0
818 0.114 0.108 0
819 0.116 0.108 0
820 0.118 0.108 0
821 0.12 0.108 0
822 0.122 0.108 0
823 0.124 0.108 0
824 0.126 0.108 0
825 0.128 0.108 0
$EndNodes
$Elements
1648
1 1 2 3 3 1 2
2 1 2 1 1 1 66
3 1 2 3 3 2 3
4 1 2 3 3 3 4
5 1 2 3 3 4 5
6 1 2 3 3 5 6
7 1 2 3 3 6 7
8 1 2 3 3 7 8
9 1 2 3 3 8 9
10 1 2 3 3 9 10
11 1 2 3 3 10 11
12 1 2 3 3 11 12
13 1 2 3 3 12 13
14 1 2 3 3 13 14
15 1 2 3 3 14 15
16 1 2 3 3 15 16
17 1 2 3 3 16 17
18 1 2 3 3 17 18
19 1 2 3 3 18 19
20 1 2 3 3 19 20
21 1 2 3 3 20 21
22 1 2 3 3 21 22
23 1 2 3 3 22 23
24 1 2 3 3 23 24
25 1 2 3 3 24 25
26 1 2 3 3 25 26
27 1 2 3 3 26 27
28 1 2 3 3 27 28
29 1 2 3 3 28 29
30 1 2 3 3 29 30
31 1 2 3 3 30 31
32 1 2 3 3 31 32
33 1 2 3 3 32 33
34 1 2 3 3 33 34
35 1 2 3 3 34 35
36 1 2 3 3 35 36
37 1 2 3 3 36 37
38 1 2 3 3 37 38
39 1 2 3 3 38 39
40 1 2 3 3 39 40
41 1 2 3 3 40 41
42 1 2 3 3 41 42
43 1 2 3 3 42 43
44 1 2 3 3 43 44
45 1 2 3 3 44 45
46 1 2 3 3 45 46
47 1 2 3 3 46 47
48 1 2 3 3 47 48
49 1 2 3 3 48 49
50 1 2 3 3 49 50
51 1 2 3 3 50 51
52 1 2 3 3 51 52
53 1 2 3 3 52 53
54 1 2 3 3 53 54
55 1 2 3 3 54 55
56 1 2 3 3 55 56
57 1 2 3 3 56 57
58 1 2 3 3 57 58
59 1 2 3 3 58 59
60 1 2 3 3 59 60
61 1 2 3 3 60 61
62 1 2 3 3 61 62
63 1 2 3 3 62 63
64 1 2 3 3 63 64
65 1 2 3 3 64 65
66 1 2 2 2 65 130
67 1 2 1 1 66 131
68 1 2 2 2 130 195
69 1 2 1 1 131 196
70 1 2 2 2 195 260
71 1 2 3 3 261 262
72 1 2 1 1 196 261
73 1 2 3 3 262 263
74 1 2 3 3 263 264
75 1 2 3 3 264 265
76 1 2 3 3 265 266
77 1 2 3 3 266 267
78 1 2 3 3 267 268
79 1 2 3 3 268 269
80 1 2 3 3 269 270
81 1 2 3 3 270 271
82 1 2 3 3 271 272
83 1 2 3 3 272 273
84 1 2 3 3 273 274
85 1 2 3 3 274 275
86 1 2 3 3 275 276
87 1 2 3 3 276 277
88 1 2 3 3 277 278
89 1 2 3 3 278 279
90 1 2 3 3 279 280
91 1 2 3 3 280 281
92 1 2 3 3 281 282
93 1 2 3 3 282 283
94 1 2 3 3 283 284
95 1 2 3 3 284 285
96 1 2 3 3 285 286
97 1 2 3 3 286 287
98 1 2 3 3 287 288
99 1 2 3 3 288 289
100 1 2 3 3 289 290
101 1 2 3 3 290 291
102 1 2 3 3 295 296
103 1 2 3 3 296 297
104 1 2 3 3 297 298
105 1 2 3 3 298 299
106 1 2 3 3 299 300
107 1 2 3 3 300 301
108 1 2 3 3 301 302
109 1 2 3 3 302 303
110 1 2 3 3 303 304
111 1 2 3 3 304 305
112 1 2 3 3 305 306
113 1 2 3 3 306 307
114 1 2 3 3 307 308
115 1 2 3 3 308 309
116 1 2 3 3 309 310
117 1 2 3 3 310 311
118 1 2 3 3 311 312
119 1 2 3 3 312 313
120 1 2 3 3 313 314
121 1 2 3 3 314 315
122 1 2 3 3 315 316
123 1 2 3 3 316 317
124 1 2 3 3 317 318
125 1 2 3 3 318 319
126 1 2 3 3 319 320
127 1 2 3 3 320 321
128 1 2 3 3 321 322
129 1 2 3 3 322 323
130 1 2 3 3 323 324
131 1 2 2 2 260 325
132 1 2 3 3 324 325
133 1 2 3 3 291 326
134 1 2 3 3 295 330
135 1 2 3 3 326 331
136 1 2 3 3 330 335
137 1 2 3 3 331 336
138 1 2 3 3 335 340
139 1 2 3 3 336 341
140 1 2 3 3 340 345
141 1 2 3 3 341 346
142 1 2 3 3 345 350
143 1 2 3 3 346 351
144 1 2 3 3 350 355
145 1 2 3 3 351 356
146 1 2 3 3 355 360
147 1 2 3 3 356 361
148 1 2 3 3 360 365
149 1 2 3 3 361 366
150 1 2 3 3 365 370
151 1 2 3 3 366 371
152 1 2 3 3 370 375
153 1 2 3 3 371 376
154 1 2 3 3 375 380
155 1 2 3 3 376 381
156 1 2 3 3 380 385
157 1 2 3 3 381 386
158 1 2 3 3 385 390
159 1 2 3 3 386 391
160 1 2 3 3 390 395
161 1 2 3 3 391 396
162 1 2 3 3 395 400
163 1 2 3 3 396 401
164 1 2 3 3 400 405
165 1 2 3 3 401 406
166 1 2 3 3 405 410
167 1 2 3 3 406 411
168 1 2 3 3 410 415
169 1 2 3 3 411 416
170 1 2 3 3 415 420
171 1 2 3 3 416 421
172 1 2 3 3 420 425
173 1 2 3 3 421 426
174 1 2 3 3 425 430
175 1 2 3 3 426 431
176 1 2 3 3 430 435
177 1 2 3 3 431 436
178 1 2 3 3 435 440
179 1 2 3 3 436 441
180 1 2 3 3 440 445
181 1 2 3 3 441 446
182 1 2 3 3 445 450
183 1 2 3 3 446 451
184 1 2 3 3 450 455
185 1 2 3 3 451 456
186 1 2 3 3 455 460
187 1 2 3 3 456 461
188 1 2 3 3 460 465
189 1 2 3 3 461 466
190 1 2 3 3 465 470
191 1 2 3 3 466 471
192 1 2 3 3 470 475
193 1 2 3 3 471 476
194 1 2 3 3 475 480
195 1 2 3 3 476 481
196 1 2 3 3 480 485
197 1 2 3 3 481 486
198 1 2 3 3 485 490
199 1 2 3 3 486 491
200 1 2 3 3 490 495
201 1 2 3 3 491 496
202 1 2 3 3 495 500
203 1 2 3 3 496 531
204 1 2 3 3 500 535
205 1 2 3 3 501 502
206 1 2 1 1 501 566
207 1 2 3 3 502 503
208 1 2 3 3 503 504
209 1 2 3 3 504 505
210 1 2 3 3 505 506
211 1 2 3 3 506 507
212 1 2 3 3 507 508
213 1 2 3 3 508 509
214 1 2 3 3 509 510
215 1 2 3 3 510 511
216 1 2 3 3 511 512
217 1 2 3 3 512 513
218 1 2 3 3 513 514
219 1 2 3 3 514 515
220 1 2 3 3 515 516
221 1 2 3 3 516 517
222 1 2 3 3 517 518
223 1 2 3 3 518 519
224 1 2 3 3 519 520
225 1 2 3 3 520 521
226 1 2 3 3 521 522
227 1 2 3 3 522 523
228 1 2 3 3 523 524
229 1 2 3 3 524 525
230 1 2 3 3 525 526
231 1 2 3 3 526 527
232 1 2 3 3 527 528
233 1 2 3 3 528 529
234 1 2 3 3 529 530
235 1 2 3 3 530 531
236 1 2 3 3 535 536
237 1 2 3 3 536 537
238 1 2 3 3 537 538
239 1 2 3 3 538 539
240 1 2 3 3 539 540
241 1 2 3 3 540 541
242 1 2 3 3 541 542
243 1 2 3 3 542 543
244 1 2 3 3 543 544
245 1 2 3 3 544 545
246 1 2 3 3 545 546
247 1 2 3 3 546 547
248 1 2 3 3 547 548
249 1 2 3 3 548 549
250 1 2 3 3 549 550
251 1 2 3 3 550 551
252 1 2 3 3 551 552
253 1 2 3 3 552 553
254 1 2 3 3 553 554
255 1 2 3 3 554 555
256 1 2 3 3 555 556
257 1 2 3 3 556 557
258 1 2 3 3 557 558
259 1 2 3 3 558 559
260 1 2 3 3 559 560
261 1 2 3 3 560 561
262 1 2 3 3 561 562
263 1 2 3 3 562 563
264 1 2 3 3 563 564
265 1 2 3 3 564 565
266 1 2 2 2 565 630
267 1 2 1 1 566 631
268 1 2 2 2 630 695
269 1 2 1 1 631 696
270 1 2 2 2 695 760
271 1 2 3 3 761 762
272 1 2 1 1 696 761
273 1 2 3 3 762 763
274 1 2 3 3 763 764
275 1 2 3 3 764 765
276 1 2 3 3 765 766
277 1 2 3 3 766 767
278 1 2 3 3 767 768
279 1 2 3 3 768 769
280 1 2 3 3 769 770
281 1 2 3 3 770 771
282 1 2 3 3 771 772
283 1 2 3 3 772 773
284 1 2 3 3 773 774
285 1 2 3 3 774 775
286 1 2 3 3 775 776
287 1 2 3 3 776 777
288 1 2 3 3 777 778
289 1 2 3 3 778 779
290 1 2 3 3 779 780
291 1 2 3 3 780 781
292 1 2 3 3 781 782
293 1 2 3 3 782 783
294 1 2 3 3 783 784
295 1 2 3 3 784 785
296 1 2 3 3 785 786
297 1 2 3 3 786 787
298 1 2 3 3 787 788
299 1 2 3 3 788 789
300 1 2 3 3 789 790
301 1 2 3 3 790 791
302 1 2 3 3 791 792
303 1 2 3 3 792 793
304 1 2 3 3 793 794
305 1 2 3 3 794 795
306 1 2 3 3 795 796
307 1 2 3 3 796 797
308 1 2 3 3 797 798
309 1 2 3 3 798 799
310 1 2 3 3 799 800
311 1 2 3 3 800 801
312 1 2 3 3 801 802
313 1 2 3 3 802 803
314 1 2 3 3 803 804
315 1 2 3 3 804 805
316 1 2 3 3 805 806
317 1 2 3 3 806 807
318 1 2 3 3 807 808
319 1 2 3 3 808 809
320 1 2 3 3 809 810
321 1 2 3 3 810 811
322 1 2 3 3 811 812
323 1 2 3 3 812 813
324 1 2 3 3 813 814
325 1 2 3 3 814 815
326 1 2 3 3 815 816
327 1 2 3 3 816 817
328 1 2 3 3 817 818
329 1 2 3 3 818 819
330 1 2 3 3 819 820
331 1 2 3 3 820 821
332 1 2 3 3 821 822
333 1 2 3 3 822 823
334 1 2 3 3 823 824
335 1 2 2 2 760 825
336 1 2 3 3 824 825
337 2 2 10 10 1 2 67
338 2 2 10 10 1 67 66
339 2 2 10 10 2 3 68
340 2 2 10 10 2 68 67
341 2 2 10 10 3 4 69
342 2 2 10 10 3 69 68
343 2 2 10 10 4 5 70
344 2 2 10 10 4 70 69
345 2 2 10 10 5 6 71
346 2 2 10 10 5 71 70
347 2 2 10 10 6 7 72
348 2 2 10 10 6 72 71
349 2 2 10 10 7 8 73
350 2 2 10 10 7 73 72
351 2 2 10 10 8 9 74
352 2 2 10 10 8 74 73
353 2 2 10 10 9 10 75
354 2 2 10 10 9 75 74
355 2 2 10 10 10 11 76
356 2 2 10 10 10 76 75
357 2 2 10 10 11 12 77
358 2 2 10 10 11 77 76
359 2 2 10 10 12 13 78
360 2 2 10 10 12 78 77
361 2 2 10 10 13 14 79
362 2 2 10 10 13 79 78
363 2 2 10 10 14 15 80
364 2 2 10 10 14 80 79
365 2 2 10 10 15 16 81
366 2 2 10 10 15 81 80
367 2 2 10 10 16 17 82
368 2 2 10 10 16 82 81
369 2 2 10 10 17 18 83
370 2 2 10 10 17 83 82
371 2 2 10 10 18 19 84
372 2 2 10 10 18 84 83
373 2 2 10 10 19 20 85
374 2 2 10 10 19 85 84
375 2 2 10 10 20 21 86
376 2 2 10 10 20 86 85
377 2 2 10 10 21 22 87
378 2 2 10 10 21 87 86
379 2 2 10 10 22 23 88
380 2 2 10 10 22 88 87
381 2 2 10 10 23 24 89
382 2 2 10 10 23 89 88
383 2 2 10 10 24 25 90
384 2 2 10 10 24 90 89
385 2 2 10 10 25 26 91
386 2 2 10 10 25 91 90
387 2 2 10 10 26 27 92
388 2 2 10 10 26 92 91
389 2 2 10 10 27 28 93
390 2 2 10 10 27 93 92
391 2 2 10 10 28 29 94
392 2 2 10 10 28 94 93
393 2 2 10 10 29 30 95
394 2 2 10 10 29 95 94
395 2 2 10 10 30 31 96
396 2 2 10 10 30 96 95
397 2 2 10 10 31 32 97
398 2 2 10 10 31 97 96
399 2 2 10 10 32 33 98
400 2 2 10 10 32 98 97
401 2 2 10 10 33 34 99
402 2 2 10 10 33 99 98
403 2 2 10 10 34 35 100
404 2 2 10 10 34 100 99
405 2 2 10 10 35 36 101
406 2 2 10 10 35 101 100
407 2 2 10 10 36 37 102
408 2 2 10 10 36 102 101
409 2 2 10 10 37 38 103
410 2 2 10 10 37 103 102
411 2 2 10 10 38 39 104
412 2 2 10 10 38 104 103
413 2 2 10 10 39 40 105
414 2 2 10 10 39 105 104
415 2 2 10 10 40 41 106
416 2 2 10 10 40 106 105
417 2 2 10 10 41 42 107
418 2 2 10 10 41 107 106
419 2 2 10 10 42 43 108
420 2 2 10 10 42 108 107
421 2 2 10 10 43 44 109
422 2 2 10 10 43 109 108
423 2 2 10 10 44 45 110
424 2 2 10 10 44 110 109
425 2 2 10 10 45 46 111
426 2 2 10 10 45 111 110
427 2 2 10 10 46 47 112
428 2 2 10 10 46 112 111
429 2 2 10 10 47 48 113
430 2 2 10 10 47 113 112
431 2 2 10 10 48 49 114
432 2 2 10 10 48 114 113
433 2 2 10 10 49 50 115
434 2 2 10 10 49 115 114
435 2 2 10 10 50 51 116
436 2 2 10 10 50 116 115
437 2 2 10 10 51 52 117
438 2 2 10 10 51 117 116
439 2 2 10 10 52 53 118
440 2 2 10 10 52 118 117
441 2 2 10 10 53 54 119
442 2 2 10 10 53 119 118
443 2 2 10 10 54 55 120
444 2 2 10 10 54 120 119
445 2 2 10 10 55 56 121
446 2 2 10 10 55 121 120
447 2 2 10 10 56 57 122
448 2 2 10 10 56 122 121
449 2 2 10 10 57 58 123
450 2 2 10 10 57 123 122
451 2 2 10 10 58 59 124
452 2 2 10 10 58 124 123
453 2 2 10 10 59 60 125
454 2 2 10 10 59 125 124
455 2 2 10 10 60 61 126
456 2 2 10 10 60 126 125
457 2 2 10 10 61 62 127
458 2 2 10 10 61 127 126
459 2 2 10 10 62 63 128
460 2 2 10 10 62 128 127
461 2 2 10 10 63 64 129
462 2 2 10 10 63 129 128
463 2 2 10 10 64 65 130
464 2 2 10 10 64 130 129
465 2 2 10 10 66 67 132
466 2 2 10 10 66 132 131
467 2 2 10 10 67 68 133
468 2 2 10 10 67 133 132
469 2 2 10 10 68 69 134
470 2 2 10 10 68 134 133
471 2 2 10 10 69 70 135
472 2 2 10 10 69 135 134
473 2 2 10 10 70 71 136
474 2 2 10 10 70 136 135
475 2 2 10 10 71 72 137
476 2 2 10 10 71 137 136
477 2 2 10 10 72 73 138
478 2 2 10 10 72 138 137
479 2 2 10 10 73 74 139
480 2 2 10 10 73 139 138
481 2 2 10 10 74 75 140
482 2 2 10 10 74 140 139
483 2 2 10 10 75 76 141
484 2 2 10 10 75 141 140
485 2 2 10 10 76 77 142
486 2 2 10 10 76 142 141
487 2 2 10 10 77 78 143
488 2 2 10 10 77 143 142
489 2 2 10 10 78 79 144
490 2 2 10 10 78 144 143
491 2 2 10 10 79 80 145
492 2 2 10 10 79 145 144
493 2 2 10 10 80 81 146
494 2 2 10 10 80 146 145
495 2 2 10 10 81 82 147
496 2 2 10 10 81 147 146
497 2 2 10 10 82 83 148
498 2 2 10 10 82 148 147
499 2 2 10 10 83 84 149
500 2 2 10 10 83 149 148
501 2 2 10 10 84 85 150
502 2 2 10 10 84 150 149
503 2 2 10 10 85 86 151
504 2 2 10 10 85 151 150
505 2 2 10 10 86 87 152
506 2 2 10 10 86 152 151
507 2 2 10 10 87 88 153
508 2 2 10 10 87 153 152
509 2 2 10 10 88 89 154
510 2 2 10 10 88 154 153
511 2 2 10 10 89 90 155
512 2 2 10 10 89 155 154
513 2 2 10 10 90 91 156
514 2 2 10 10 90 156 155
515 2 2 10 10 91 92 157
516 2 2 10 10 91 157 156
517 2 2 10 10 92 93 158
518 2 2 10 10 92 158 157
519 2 2 10 10 93 94 159
520 2 2 10 10 93 159 158
521 2 2 10 10 94 95 160
522 2 2 10 10 94 160 159
523 2 2 10 10 95 96 161
524 2 2 10 10 95 161 160
525 2 2 10 10 96 97 162
526 2 2 10 10 96 162 161
527 2 2 10 10 97 98 163
528 2 2 10 10 97 163 162
529 2 2 10 10 98 99 164
530 2 2 10 10 98 164 163
531 2 2 10 10 99 100 165
532 2 2 10 10 99 165 164
533 2 2 10 10 100 101 166
534 2 2 10 10 100 166 165
535 2 2 10 10 101 102 167
536 2 2 10 10 101 167 166
537 2 2 10 10 102 103 168
538 2 2 10 10 102 168 167
539 2 2 10 10 103 104 169
540 2 2 10 10 103 169 168
541 2 2 10 10 104 105 170
542 2 2 10 10 104 170 169
543 2 2 10 10 105 106 171
544 2 2 10 10 105 171 170
545 2 2 10 10 106 107 172
546 2 2 10 10 106 172 171
547 2 2 10 10 107 108 173
548 2 2 10 10 107 173 172
549 2 2 10 10 108 109 174
550 2 2 10 10 108 174 173
551 2 2 10 10 109 110 175
552 2 2 10 10 109 175 174
553 2 2 10 10 110 111 176
554 2 2 10 10 110 176 175
555 2 2 10 10 111 112 177
556 2 2 10 10 111 177 176
557 2 2 10 10 112 113 178
558 2 2 10 10 112 178 177
559 2 2 10 10 113 114 179
560 2 2 10 10 113 179 178
561 2 2 10 10 114 115 180
562 2 2 10 10 114 180 179
563 2 2 10 10 115 116 181
564 2 2 10 10 115 181 180
565 2 2 10 10 116 117 182
566 2 2 10 10 116 182 181
567 2 2 10 10 117 118 183
568 2 2 10 10 117 183 182
569 2 2 10 10 118 119 184
570 2 2 10 10 118 184 183
571 2 2 10 10 119 120 185
572 2 2 10 10 119 185 184
573 2 2 10 10 120 121 186
574 2 2 10 10 120 186 185
575 2 2 10 10 121 122 187
576 2 2 10 10 121 187 186
577 2 2 10 10 122 123 188
578 2 2 10 10 122 188 187
579 2 2 10 10 123 124 189
580 2 2 10 10 123 189 188
581 2 2 10 10 124 125 190
582 2 2 10 10 124 190 189
583 2 2 10 10 125 126 191
584 2 2 10 10 125 191 190
585 2 2 10 10 126 127 192
586 2 2 10 10 126 192 191
587 2 2 10 10 127 128 193
588 2 2 10 10 127 193 192
589 2 2 10 10 128 129 194
590 2 2 10 10 128 194 193
591 2 2 10 10 129 130 195
592 2 2 10 10 129 195 194
593 2 2 10 10 131 132 197
594 2 2 10 10 131 197 196
595 2 2 10 10 132 133 198
596 2 2 10 10 132 198 197
597 2 2 10 10 133 134 199
598 2 2 10 10 133 199 198
599 2 2 10 10 134 135 200
600 2 2 10 10 134 200 199
601 2 2 10 10 135 136 201
602 2 2 10 10 135 201 200
603 2 2 10 10 136 137 202
604 2 2 10 10 136 202 201
605 2 2 10 10 137 138 203
606 2 2 10 10 137 203 202
607 2 2 10 10 138 139 204
608 2 2 10 10 138 204 203
609 2 2 10 10 139 140 205
610 2 2 10 10 139 205 204
611 2 2 10 10 140 141 206
612 2 2 10 10 140 206 205
613 2 2 10 10 141 142 207
614 2 2 10 10 141 207 206
615 2 2 10 10 142 143 208
616 2 2 10 10 142 208 207
617 2 2 10 10 143 144 209
618 2 2 10 10 143 209 208
619 2 2 10 10 144 145 210
620 2 2 10 10 144 210 209
621 2 2 10 10 145 146 211
622 2 2 10 10 145 211 210
623 2 2 10 10 146 147 212
624 2 2 10 10 146 212 211
625 2 2 10 10 147 148 213
626 2 2 10 10 147 213 212
627 2 2 10 10 148 149 214
628 2 2 10 10 148 214 213
629 2 2 10 10 149 150 215
630 2 2 10 10 149 215 214
631 2 2 10 10 150 151 216
632 2 2 10 10 150 216 215
633 2 2 10 10 151 152 217
634 2 2 10 10 151 217 216
635 2 2 10 10 152 153 218
636 2 2 10 10 152 218 217
637 2 2 10 10 153 154 219
638 2 2 10 10 153 219 218
639 2 2 10 10 154 155 220
640 2 2 10 10 154 220 219
641 2 2 10 10 155 156 221
642 2 2 10 10 155 221 220
643 2 2 10 10 156 157 222
644 2 2 10 10 156 222 221
645 2 2 10 10 157 158 223
646 2 2 10 10 157 223 222
647 2 2 10 10 158 159 224
648 2 2 10 10 158 224 223
649 2 2 10 10 159 160 225
650 2 2 10 10 159 225 224
651 2 2 10 10 160 161 226
652 2 2 10 10 160 226 225
653 2 2 10 10 161 162 227
654 2 2 10 10 161 227 226
655 2 2 10 10 162 163 228
656 2 2 10 10 162 228 227
657 2 2 10 10 163 164 229
658 2 2 10 10 163 229 228
659 2 2 10 10 164 165 230
660 2 2 10 10 164 230 229
661 2 2 10 10 165 166 231
662 2 2 10 10 165 231 230
663 2 2 10 10 166 167 232
664 2 2 10 10 166 232 231
665 2 2 10 10 167 168 233
666 2 2 10 10 167 233 232
667 2 2 10 10 168 169 234
668 2 2 10 10 168 234 233
669 2 2 10 10 169 170 235
670 2 2 10 10 169 235 234
671 2 2 10 10 170 171 236
672 2 2 10 10 170 236 235
673 2 2 10 10 171 172 237
674 2 2 10 10 171 237 236
675 2 2 10 10 172 173 238
676 2 2 10 10 172 238 237
677 2 2 10 10 173 174 239
678 2 2 10 10 173 239 238
679 2 2 10 10 174 175 240
680 2 2 10 10 174 240 239
681 2 2 10 10 175 176 241
682 2 2 10 10 175 241 240
683 2 2 10 10 176 177 242
684 2 2 10 10 176 242 241
685 2 2 10 10 177 178 243
686 2 2 10 10 177 243 242
687 2 2 10 10 178 179 244
688 2 2 10 10 178 244 243
689 2 2 10 10 179 180 245
690 2 2 10 10 179 245 244
691 2 2 10 10 180 181 246
692 2 2 10 10 180 246 245
693 2 2 10 10 181 182 247
694 2 2 10 10 181 247 246
695 2 2 10 10 182 183 248
696 2 2 10 10 182 248 247
697 2 2 10 10 183 184 249
698 2 2 10 10 183 249 248
699 2 2 10 10 184 185 250
700 2 2 10 10 184 250 249
701 2 2 10 10 185 186 251
702 2 2 10 10 185 251 250
703 2 2 10 10 186 187 252
704 2 2 10 10 186 252 251
705 2 2 10 10 187 188 253
706 2 2 10 10 187 253 252
707 2 2 10 10 188 189 254
708 2 2 10 10 188 254 253
709 2 2 10 10 189 190 255
710 2 2 10 10 189 255 254
711 2 2 10 10 190 191 256
712 2 2 10 10 190 256 255
713 2 2 10 10 191 192 257
714 2 2 10 10 191 257 256
715 2 2 10 10 192 193 258
716 2 2 10 10 192 258 257
717 2 2 10 10 193 194 259
718 2 2 10 10 193 259 258
719 2 2 10 10 194 195 260
720 2 2 10 10 194 260 259
721 2 2 10 10 196 197 262
722 2 2 10 10 196 262 261
723 2 2 10 10 197 198 263
724 2 2 10 10 197 263 262
725 2 2 10 10 198 199 264
726 2 2 10 10 198 264 263
727 2 2 10 10 199 200 265
728 2 2 10 10 199 265 264
729 2 2 10 10 200 201 266
730 2 2 10 10 200 266 265
731 2 2 10 10 201 202 267
732 2 2 10 10 201 267 266
733 2 2 10 10 202 203 268
734 2 2 10 10 202 268 267
735 2 2 10 10 203 204 269
736 2 2 10 10 203 269 268
737 2 2 10 10 204 205 270
738 2 2 10 10 204 270 269
739 2 2 10 10 205 206 271
740 2 2 10 10 205 271 270
741 2 2 10 10 206 207 272
742 2 2 10 10 206 272 271
743 2 2 10 10 207 208 273
744 2 2 10 10 207 273 272
745 2 2 10 10 208 209 274
746 2 2 10 10 208 274 273
747 2 2 10 10 209 210 275
748 2 2 10 10 209 275 274
749 2 2 10 10 210 211 276
750 2 2 10 10 210 276 275
751 2 2 10 10 211 212 277
752 2 2 10 10 211 277 276
753 2 2 10 10 212 213 278
754 2 2 10 10 212 278 277
755 2 2 10 10 213 214 279
756 2 2 10 10 213 279 278
757 2 2 10 10 214 215 280
758 2 2 10 10 214 280 279
759 2 2 10 10 215 216 281
760 2 2 10 10 215 281 280
761 2 2 10 10 216 217 282
762 2 2 10 10 216 282 281
763 2 2 10 10 217 218 283
764 2 2 10 10 217 283 282
765 2 2 10 10 218 219 284
766 2 2 10 10 218 284 283
767 2 2 10 10 219 220 285
768 2 2 10 10 219 285 284
769 2 2 10 10 220 221 286
770 2 2 10 10 220 286 285
771 2 2 10 10 221 222 287
772 2 2 10 10 221 287 286
773 2 2 10 10 222 223 288
774 2 2 10 10 222 288 287
775 2 2 10 10 223 224 289
776 2 2 10 10 223 289 288
777 2 2 10 10 224 225 290
778 2 2 10 10 224 290 289
779 2 2 10 10 225 226 291
780 2 2 10 10 225 291 290
781 2 2 10 10 226 227 292
782 2 2 10 10 226 292 291
783 2 2 10 10 227 228 293
784 2 2 10 10 227 293 292
785 2 2 10 10 228 229 294
786 2 2 10 10 228 294 293
787 2 2 10 10 229 230 295
788 2 2 10 10 229 295 294
789 2 2 10 10 230 231 296
790 2 2 10 10 230 296 295
791 2 2 10 10 231 232 297
792 2 2 10 10 231 297 296
793 2 2 10 10 232 233 298
794 2 2 10 10 232 298 297
795 2 2 10 10 233 234 299
796 2 2 10 10 233 299 298
797 2 2 10 10 234 235 300
798 2 2 10 10 234 300 299
799 2 2 10 10 235 236 301
800 2 2 10 10 235 301 300
801 2 2 10 10 236 237 302
802 2 2 10 10 236 302 301
803 2 2 10 10 237 238 303
804 2 2 10 10 237 303 302
805 2 2 10 10 238 239 304
806 2 2 10 10 238 304 303
807 2 2 10 10 239 240 305
808 2 2 10 10 239 305 304
809 2 2 10 10 240 241 306
810 2 2 10 10 240 306 305
811 2 2 10 10 241 242 307
812 2 2 10 10 241 307 306
813 2 2 10 10 242 243 308
814 2 2 10 10 242 308 307
815 2 2 10 10 243 244 309
816 2 2 10 10 243 309 308
817 2 2 10 10 244 245 310
818 2 2 10 10 244 310 309
819 2 2 10 10 245 246 311
820 2 2 10 10 245 311 310
821 2 2 10 10 246 247 312
822 2 2 10 10 246 312 311
823 2 2 10 10 247 248 313
824 2 2 10 10 247 313 312
825 2 2 10 10 248 249 314
826 2 2 10 10 248 314 313
827 2 2 10 10 249 250 315
828 2 2 10 10 249 315 314
829 2 2 10 10 250 251 316
830 2 2 10 10 250 316 315
831 2 2 10 10 251 252 317
832 2 2 10 10 251 317 316
833 2 2 10 10 252 253 318
834 2 2 10 10 252 318 317
835 2 2 10 10 253 254 319
836 2 2 10 10 253 319 318
837 2 2 10 10 254 255 320
838 2 2 10 10 254 320 319
839 2 2 10 10 255 256 321
840 2 2 10 10 255 321 320
841 2 2 10 10 256 257 322
842 2 2 10 10 256 322 321
843 2 2 10 10 257 258 323
844 2 2 10 10 257 323 322
845 2 2 10 10 258 259 324
846 2 2 10 10 258 324 323
847 2 2 10 10 259 260 325
848 2 2 10 10 259 325 324
849 2 2 10 10 291 292 327
850 2 2 10 10 291 327 326
851 2 2 10 10 292 293 328
852 2 2 10 10 292 328 327
853 2 2 10 10 293 294 329
854 2 2 10 10 293 329 328
855 2 2 10 10 294 295 330
856 2 2 10 10 294 330 329
857 2 2 10 10 326 327 332
858 2 2 10 10 326 332 331
859 2 2 10 10 327 328 333
860 2 2 10 10 327 333 332
861 2 2 10 10 328 329 334
862 2 2 10 10 328 334 333
863 2 2 10 10 329 330 335
864 2 2 10 10 329 335 334
865 2 2 10 10 331 332 337
866 2 2 10 10 331 337 336
867 2 2 10 10 332 333 338
868 2 2 10 10 332 338 337
869 2 2 10 10 333 334 339
870 2 2 10 10 333 339 338
871 2 2 10 10 334 335 340
872 2 2 10 10 334 340 339
873 2 2 10 10 336 337 342
874 2 2 10 10 336 342 341
875 2 2 10 10 337 338 343
876 2 2 10 10 337 343 342
877 2 2 10 10 338 339 344
878 2 2 10 10 338 344 343
879 2 2 10 10 339 340 345
880 2 2 10 10 339 345 344
881 2 2 10 10 341 342 347
882 2 2 10 10 341 347 346
883 2 2 10 10 342 343 348
884 2 2 10 10 342 348 347
885 2 2 10 10 343 344 349
886 2 2 10 10 343 349 348
887 2 2 10 10 344 345 350
888 2 2 10 10 344 350 349
889 2 2 10 10 346 347 352
890 2 2 10 10 346 352 351
891 2 2 10 10 347 348 353
892 2 2 10 10 347 353 352
893 2 2 10 10 348 349 354
894 2 2 10 10 348 354 353
895 2 2 10 10 349 350 355
896 2 2 10 10 349 355 354
897 2 2 10 10 351 352 357
898 2 2 10 10 351 357 356
899 2 2 10 10 352 353 358
900 2 2 10 10 352 358 357
901 2 2 10 10 353 354 359
902 2 2 10 10 353 359 358
903 2 2 10 10 354 355 360
904 2 2 10 10 354 360 359
905 2 2 10 10 356 357 362
906 2 2 10 10 356 362 361
907 2 2 10 10 357 358 363
908 2 2 10 10 357 363 362
909 2 2 10 10 358 359 364
910 2 2 10 10 358 364 363
911 2 2 10 10 359 360 365
912 2 2 10 10 359 365 364
913 2 2 10 10 361 362 367
914 2 2 10 10 361 367 366
915 2 2 10 10 362 363 368
916 2 2 10 10 362 368 367
917 2 2 10 10 363 364 369
918 2 2 10 10 363 369 368
919 2 2 10 10 364 365 370
920 2 2 10 10 364 370 369
921 2 2 10 10 366 367 372
922 2 2 10 10 366 372 371
923 2 2 10 10 367 368 373
924 2 2 10 10 367 373 372
925 2 2 10 10 368 369 374
926 2 2 10 10 368 374 373
927 2 2 10 10 369 370 375
928 2 2 10 10 369 375 374
929 2 2 10 10 371 372 377
930 2 2 10 10 371 377 376
931 2 2 10 10 372 373 378
932 2 2 10 10 372 378 377
933 2 2 10 10 373 374 379
934 2 2 10 10 373 379 378
935 2 2 10 10 374 375 380
936 2 2 10 10 374 380 379
937 2 2 10 10 376 377 382
938 2 2 10 10 376 382 381
939 2 2 10 10 377 378 383
940 2 2 10 10 377 383 382
941 2 2 10 10 378 379 384
942 2 2 10 10 378 384 383
943 2 2 10 10 379 380 385
944 2 2 10 10 379 385 384
945 2 2 10 10 381 382 387
946 2 2 10 10 381 387 386
947 2 2 10 10 382 383 388
948 2 2 10 10 382 388 387
949 2 2 10 10 383 384 389
950 2 2 10 10 383 389 388
951 2 2 10 10 384 385 390
952 2 2 10 10 384 390 389
953 2 2 10 10 386 387 392
954 2 2 10 10 386 392 391
955 2 2 10 10 387 388 393
956 2 2 10 10 387 393 392
957 2 2 10 10 388 389 394
958 2 2 10 10 388 394 393
959 2 2 10 10 389 390 395
960 2 2 10 10 389 395 394
961 2 2 10 10 391 392 397
962 2 2 10 10 391 397 396
963 2 2 10 10 392 393 398
964 2 2 10 10 392 398 397
965 2 2 10 10 393 394 399
966 2 2 10 10 393 399 398
967 2 2 10 10 394 395 400
968 2 2 10 10 394 400 399
969 2 2 10 10 396 397 402
970 2 2 10 10 396 402 401
971 2 2 10 10 397 398 403
972 2 2 10 10 397 403 402
973 2 2 10 10 398 399 404
974 2 2 10 10 398 404 403
975 2 2 10 10 399 400 405
976 2 2 10 10 399 405 404
977 2 2 10 10 401 402 407
978 2 2 10 10 401 407 406
979 2 2 10 10 402 403 408
980 2 2 10 10 402 408 407
981 2 2 10 10 403 404 409
982 2 2 10 10 403 409 408
983 2 2 10 10 404 405 410
984 2 2 10 10 404 410 409
985 2 2 10 10 406 407 412
986 2 2 10 10 406 412 411
987 2 2 10 10 407 408 413
988 2 2 10 10 407 413 412
989 2 2 10 10 408 409 414
990 2 2 10 10 408 414 413
991 2 2 10 10 409 410 415
992 2 2 10 10 409 415 414
993 2 2 10 10 411 412 417
994 2 2 10 10 411 417 416
995 2 2 10 10 412 413 418
996 2 2 10 10 412 418 417
997 2 2 10 10 413 414 419
998 2 2 10 10 413 419 418
999 2 2 10 10 414 415 420
1000 2 2 10 10 414 420 419
1001 2 2 10 10 416 417 422
1002 2 2 10 10 416 422 421
1003 2 2 10 10 417 418 423
1004 2 2 10 10 417 423 422
1005 2 2 10 10 418 419 424
1006 2 2 10 10 418 424 423
1007 2 2 10 10 419 420 425
1008 2 2 10 10 419 425 424
1009 2 2 10 10 421 422 427
1010 2 2 10 10 421 427 426
1011 2 2 10 10 422 423 428
1012 2 2 10 10 422 428 427
1013 2 2 10 10 423 424 429
1014 2 2 10 10 423 429 428
1015 2 2 10 10 424 425 430
1016 2 2 10 10 424 430 429
1017 2 2 10 10 426 427 432
1018 2 2 10 10 426 432 431
1019 2 2 10 10 427 428 433
1020 2 2 10 10 427 433 432
1021 2 2 10 10 428 429 434
1022 2 2 10 10 428 434 433
1023 2 2 10 10 429 430 435
1024 2 2 10 10 429 435 434
1025 2 2 10 10 431 432 437
1026 2 2 10 10 431 437 436
1027 2 2 10 10 432 433 438
1028 2 2 10 10 432 438 437
1029 2 2 10 10 433 434 439
1030 2 2 10 10 433 439 438
1031 2 2 10 10 434 435 440
1032 2 2 10 10 434 440 439
1033 2 2 10 10 436 437 442
1034 2 2 10 10 436 442 441
1035 2 2 10 10 437 438 443
1036 2 2 10 10 437 443 442
1037 2 2 10 10 438 439 444
1038 2 2 10 10 438 444 443
1039 2 2 10 10 439 440 445
1040 2 2 10 10 439 445 444
1041 2 2 10 10 441 442 447
1042 2 2 10 10 441 447 446
1043 2 2 10 10 442 443 448
1044 2 2 10 10 442 448 447
1045 2 2 10 10 443 444 449
1046 2 2 10 10 443 449 448
1047 2 2 10 10 444 445 450
1048 2 2 10 10 444 450 449
1049 2 2 10 10 446 447 452
1050 2 2 10 10 446 452 451
1051 2 2 10 10 447 448 453
1052 2 2 10 10 447 453 452
1053 2 2 10 10 448 449 454
1054 2 2 10 10 448 454 453
1055 2 2 10 10 449 450 455
1056 2 2 10 10 449 455 454
1057 2 2 10 10 451 452 457
1058 2 2 10 10 451 457 456
1059 2 2 10 10 452 453 458
1060 2 2 10 10 452 458 457
1061 2 2 10 10 453 454 459
1062 2 2 10 10 453 459 458
1063 2 2 10 10 454 455 460
1064 2 2 10 10 454 460 459
1065 2 2 10 10 456 457 462
1066 2 2 10 10 456 462 461
1067 2 2 10 10 457 458 463
1068 2 2 10 10 457 463 462
1069 2 2 10 10 458 459 464
1070 2 2 10 10 458 464 463
1071 2 2 10 10 459 460 465
1072 2 2 10 10 459 465 464
1073 2 2 10 10 461 462 467
1074 2 2 10 10 461 467 466
1075 2 2 10 10 462 463 468
1076 2 2 10 10 462 468 467
1077 2 2 10 10 463 464 469
1078 2 2 10 10 463 469 468
1079 2 2 10 10 464 465 470
1080 2 2 10 10 464 470 469
1081 2 2 10 10 466 467 472
1082 2 2 10 10 466 472 471
1083 2 2 10 10 467 468 473
1084 2 2 10 10 467 473 472
1085 2 2 10 10 468 469 474
1086 2 2 10 10 468 474 473
1087 2 2 10 10 469 470 475
1088 2 2 10 10 469 475 474
1089 2 2 10 10 471 472 477
1090 2 2 10 10 471 477 476
1091 2 2 10 10 472 473 478
1092 2 2 10 10 472 478 477
1093 2 2 10 10 473 474 479
1094 2 2 10 10 473 479 478
1095 2 2 10 10 474 475 480
1096 2 2 10 10 474 480 479
1097 2 2 10 10 476 477 482
1098 2 2 10 10 476 482 481
1099 2 2 10 10 477 478 483
1100 2 2 10 10 477 483 482
1101 2 2 10 10 478 479 484
1102 2 2 10 10 478 484 483
1103 2 2 10 10 479 480 485
1104 2 2 10 10 479 485 484
1105 2 2 10 10 481 482 487
1106 2 2 10 10 481 487 486
1107 2 2 10 10 482 483 488
1108 2 2 10 10 482 488 487
1109 2 2 10 10 483 484 489
1110 2 2 10 10 483 489 488
1111 2 2 10 10 484 485 490
1112 2 2 10 10 484 490 489
1113 2 2 10 10 486 487 492
1114 2 2 10 10 486 492 491
1115 2 2 10 10 487 488 493
1116 2 2 10 10 487 493 492
1117 2 2 10 10 488 489 494
1118 2 2 10 10 488 494 493
1119 2 2 10 10 489 490 495
1120 2 2 10 10 489 495 494
1121 2 2 10 10 491 492 497
1122 2 2 10 10 491 497 496
1123 2 2 10 10 492 493 498
1124 2 2 10 10 492 498 497
1125 2 2 10 10 493 494 499
1126 2 2 10 10 493 499 498
1127 2 2 10 10 494 495 500
1128 2 2 10 10 494 500 499
1129 2 2 10 10 496 497 532
1130 2 2 10 10 496 532 531
1131 2 2 10 10 497 498 533
1132 2 2 10 10 497 533 532
1133 2 2 10 10 498 499 534
1134 2 2 10 10 498 534 533
1135 2 2 10 10 499 500 535
1136 2 2 10 10 499 535 534
1137 2 2 10 10 501 502 567
1138 2 2 10 10 501 567 566
1139 2 2 10 10 502 503 568
1140 2 2 10 10 502 568 567
1141 2 2 10 10 503 504 569
1142 2 2 10 10 503 569 568
1143 2 2 10 10 504 505 570
1144 2 2 10 10 504 570 569
1145 2 2 10 10 505 506 571
1146 2 2 10 10 505 571 570
1147 2 2 10 10 506 507 572
1148 2 2 10 10 506 572 571
1149 2 2 10 10 507 508 573
1150 2 2 10 10 507 573 572
1151 2 2 10 10 508 509 574
1152 2 2 10 10 508 574 573
1153 2 2 10 10 509 510 575
1154 2 2 10 10 509 575 574
1155 2 2 10 10 510 511 576
1156 2 2 10 10 510 576 575
1157 2 2 10 10 511 512 577
1158 2 2 10 10 511 577 576
1159 2 2 10 10 512 513 578
1160 2 2 10 10 512 578 577
1161 2 2 10 10 513 514 579
1162 2 2 10 10 513 579 578
1163 2 2 10 10 514 515 580
1164 2 2 10 10 514 580 579
1165 2 2 10 10 515 516 581
1166 2 2 10 10 515 581 580
1167 2 2 10 10 516 517 582
1168 2 2 10 10 516 582 581
1169 2 2 10 10 517 518 583
1170 2 2 10 10 517 583 582
1171 2 2 10 10 518 519 584
1172 2 2 10 10 518 584 583
1173 2 2 10 10 519 520 585
1174 2 2 10 10 519 585 584
1175 2 2 10 10 520 521 586
1176 2 2 10 10 520 586 585
1177 2 2 10 10 521 522 587
1178 2 2 10 10 521 587 586
1179 2 2 10 10 522 523 588
1180 2 2 10 10 522 588 587
1181 2 2 10 10 523 524 589
1182 2 2 10 10 523 589 588
1183 2 2 10 10 524 525 590
1184 2 2 10 10 524 590 589
1185 2 2 10 10 525 526 591
1186 2 2 10 10 525 591 590
1187 2 2 10 10 526 527 592
1188 2 2 10 10 526 592 591
1189 2 2 10 10 527 528 593
1190 2 2 10 10 527 593 592
1191 2 2 10 10 528 529 594
1192 2 2 10 10 528 594 593
1193 2 2 10 10 529 530 595
1194 2 2 10 10 529 595 594
1195 2 2 10 10 530 531 596
1196 2 2 10 10 530 596 595
1197 2 2 10 10 531 532 597
1198 2 2 10 10 531 597 596
1199 2 2 10 10 532 533 598
1200 2 2 10 10 532 598 597
1201 2 2 10 10 533 534 599
1202 2 2 10 10 533 599 598
1203 2 2 10 10 534 535 600
1204 2 2 10 10 534 600 599
1205 2 2 10 10 535 536 601
1206 2 2 10 10 535 601 600
1207 2 2 10 10 536 537 602
1208 2 2 10 10 536 602 601
1209 2 2 10 10 537 538 603
1210 2 2 10 10 537 603 602
1211 2 2 10 10 538 539 604
1212 2 2 10 10 538 604 603
1213 2 2 10 10 539 540 605
1214 2 2 10 10 539 605 604
1215 2 2 10 10 540 541 606
1216 2 2 10 10 540 606 605
1217 2 2 10 10 541 542 607
1218 2 2 10 10 541 607 606
1219 2 2 10 10 542 543 608
1220 2 2 10 10 542 608 607
1221 2 2 10 10 543 544 609
1222 2 2 10 10 543 609 608
1223 2 2 10 10 544 545 610
1224 2 2 10 10 544 610 609
1225 2 2 10 10 545 546 611
1226 2 2 10 10 545 611 610
1227 2 2 10 10 546 547 612
1228 2 2 10 10 546 612 611
1229 2 2 10 10 547 548 613
1230 2 2 10 10 547 613 612
1231 2 2 10 10 548 549 614
1232 2 2 10 10 548 614 613
1233 2 2 10 10 549 550 615
1234 2 2 10 10 549 615 614
1235 2 2 10 10 550 551 616
1236 2 2 10 10 550 616 615
1237 2 2 10 10 551 552 617
1238 2 2 10 10 551 617 616
1239 2 2 10 10 552 553 618
1240 2 2 10 10 552 618 617
1241 2 2 10 10 553 554 619
1242 2 2 10 10 553 619 618
1243 2 2 10 10 554 555 620
1244 2 2 10 10 554 620 619
1245 2 2 10 10 555 556 621
1246 2 2 10 10 555 621 620
1247 2 2 10 10 556 557 622
1248 2 2 10 10 556 622 621
1249 2 2 10 10 557 558 623
1250 2 2 10 10 557 623 622
1251 2 2 10 10 558 559 624
1252 2 2 10 10 558 624 623
1253 2 2 10 10 559 560 625
1254 2 2 10 10 559 625 624
1255 2 2 10 10 560 561 626
1256 2 2 10 10 560 626 625
1257 2 2 10 10 561 562 627
1258 2 2 10 10 561 627 626
1259 2 2 10 10 562 563 628
1260 2 2 10 10 562 628 627
1261 2 2 10 10 563 564 629
1262 2 2 10 10 563 629 628
1263 2 2 10 10 564 565 630
1264 2 2 10 10 564 630 629
1265 2 2 10 10 566 567 632
1266 2 2 10 10 566 632 631
1267 2 2 10 10 567 568 633
1268 2 2 10 10 567 633 632
1269 2 2 10 10 568 569 634
1270 2 2 10 10 568 634 633
1271 2 2 10 10 569 570 635
1272 2 2 10 10 569 635 634
1273 2 2 10 10 570 571 636
1274 2 2 10 10 570 636 635
1275 2 2 10 10 571 572 637
1276 2 2 10 10 571 637 636
1277 2 2 10 10 572 573 638
1278 2 2 10 10 572 638 637
1279 2 2 10 10 573 574 639
1280 2 2 10 10 573 639 638
1281 2 2 10 10 574 575 640
1282 2 2 10 10 574 640 639
1283 2 2 10 10 575 576 641
1284 2 2 10 10 575 641 640
1285 2 2 10 10 576 577 642
1286 2 2 10 10 576 642 641
1287 2 2 10 10 577 578 643
1288 2 2 10 10 577 643 642
1289 2 2 10 10 578 579 644
1290 2 2 10 10 578 644 643
1291 2 2 10 10 579 580 645
1292 2 2 10 10 579 645 644
1293 2 2 10 10 580 581 646
1294 2 2 10 10 580 646 645
1295 2 2 10 10 581 582 647
1296 2 2 10 10 581 647 646
1297 2 2 10 10 582 583 648
1298 2 2 10 10 582 648 647
1299 2 2 10 10 583 584 649
1300 2 2 10 10 583 649 648
1301 2 2 10 10 584 585 650
1302 2 2 10 10 584 650 649
1303 2 2 10 10 585 586 651
1304 2 2 10 10 585 651 650
1305 2 2 10 10 586 587 652
1306 2 2 10 10 586 652 651
1307 2 2 10 10 587 588 653
1308 2 2 10 10 587 653 652
1309 2 2 10 10 588 589 654
1310 2 2 10 10 588 654 653
1311 2 2 10 10 589 590 655
1312 2 2 10 10 589 655 654
1313 2 2 10 10 590 591 656
1314 2 2 10 10 590 656 655
1315 2 2 10 10 591 592 657
1316 2 2 10 10 591 657 656
1317 2 2 10 10 592 593 658
1318 2 2 10 10 592 658 657
1319 2 2 10 10 593 594 659
1320 2 2 10 10 593 659 658
1321 2 2 10 10 594 595 660
1322 2 2 10 10 594 660 659
1323 2 2 10 10 595 596 661
1324 2 2 10 10 595 661 660
1325 2 2 10 10 596 597 662
1326 2 2 10 10 596 662 661
1327 2 2 10 10 597 598 663
1328 2 2 10 10 597 663 662
1329 2 2 10 10 598 599 664
1330 2 2 10 10 598 664 663
1331 2 2 10 10 599 600 665
1332 2 2 10 10 599 665 664
1333 2 2 10 10 600 601 666
1334 2 2 10 10 600 666 665
1335 2 2 10 10 601 602 667
1336 2 2 10 10 601 667 666
1337 2 2 10 10 602 603 668
1338 2 2 10 10 602 668 667
1339 2 2 10 10 603 604 669
1340 2 2 10 10 603 669 668
1341 2 2 10 10 604 605 670
1342 2 2 10 10 604 670 669
1343 2 2 10 10 605 606 671
1344 2 2 10 10 605 671 670
1345 2 2 10 10 606 607 672
1346 2 2 10 10 606 672 671
1347 2 2 10 10 607 608 673
1348 2 2 10 10 607 673 672
1349 2 2 10 10 608 609 674
1350 2 2 10 10 608 674 673
1351 2 2 10 10 609 610 675
1352 2 2 10 10 609 675 674
1353 2 2 10 10 610 611 676
1354 2 2 10 10 610 676 675
1355 2 2 10 10 611 612 677
1356 2 2 10 10 611 677 676
1357 2 2 10 10 612 613 678
1358 2 2 10 10 612 678 677
1359 2 2 10 10 613 614 679
1360 2 2 10 10 613 679 678
1361 2 2 10 10 614 615 680
1362 2 2 10 10 614 680 679
1363 2 2 10 10 615 616 681
1364 2 2 10 10 615 681 680
1365 2 2 10 10 616 617 682
1366 2 2 10 10 616 682 681
1367 2 2 10 10 617 618 683
1368 2 2 10 10 617 683 682
1369 2 2 10 10 618 619 684
1370 2 2 10 10 618 684 683
1371 2 2 10 10 619 620 685
1372 2 2 10 10 619 685 684
1373 2 2 10 10 620 621 686
1374 2 2 10 10 620 686 685
1375 2 2 10 10 621 622 687
1376 2 2 10 10 621 687 686
1377 2 2 10 10 622 623 688
1378 2 2 10 10 622 688 687
1379 2 2 10 10 623 624 689
1380 2 2 10 10 623 689 688
1381 2 2 10 10 624 625 690
1382 2 2 10 10 624 690 689
1383 2 2 10 10 625 626 691
1384 2 2 10 10 625 691 690
1385 2 2 10 10 626 627 692
1386 2 2 10 10 626 692 691
1387 2 2 10 10 627 628 693
1388 2 2 10 10 627 693 692
1389 2 2 10 10 628 629 694
1390 2 2 10 10 628 694 693
1391 2 2 10 10 629 630 695
1392 2 2 10 10 629 695 694
1393 2 2 10 10 631 632 697
1394 2 2 10 10 631 697 696
1395 2 2 10 10 632 633 698
1396 2 2 10 10 632 698 697
1397 2 2 10 10 633 634 699
1398 2 2 10 10 633 699 698
1399 2 2 10 10 634 635 700
1400 2 2 10 10 634 700 699
1401 2 2 10 10 635 636 701
1402 2 2 10 10 635 701 700
1403 2 2 10 10 636 637 702
1404 2 2 10 10 636 702 701
1405 2 2 10 10 637 638 703
1406 2 2 10 10 637 703 702
1407 2 2 10 10 638 639 704
1408 2 2 10 10 638 704 703
1409 2 2 10 10 639 640 705
1410 2 2 10 10 639 705 704
1411 2 2 10 10 640 641 706
1412 2 2 10 10 640 706 705
1413 2 2 10 10 641 642 707
1414 2 2 10 10 641 707 706
1415 2 2 10 10 642 643 708
1416 2 2 10 10 642 708 707
1417 2 2 10 10 643 644 709
1418 2 2 10 10 643 709 708
1419 2 2 10 10 644 645 710
1420 2 2 10 10 644 710 709
1421 2 2 10 10 645 646 711
1422 2 2 10 10 645 711 710
1423 2 2 10 10 646 647 712
1424 2 2 10 10 646 712 711
1425 2 2 10 10 647 648 713
1426 2 2 10 10 647 713 712
1427 2 2 10 10 648 649 714
1428 2 2 10 10 648 714 713
1429 2 2 10 10 649 650 715
1430 2 2 10 10 649 715 714
1431 2 2 10 10 650 651 716
1432 2 2 10 10 650 716 715
1433 2 2 10 10 651 652 717
1434 2 2 10 10 651 717 716
1435 2 2 10 10 652 653 718
1436 2 2 10 10 652 718 717
1437 2 2 10 10 653 654 719
1438 2 2 10 10 653 719 718
1439 2 2 10 10 654 655 720
1440 2 2 10 10 654 720 719
1441 2 2 10 10 655 656 721
1442 2 2 10 10 655 721 720
1443 2 2 10 10 656 657 722
1444 2 2 10 10 656 722 721
1445 2 2 10 10 657 658 723
1446 2 2 10 10 657 723 722
1447 2 2 10 10 658 659 724
1448 2 2 10 10 658 724 723
1449 2 2 10 10 659 660 725
1450 2 2 10 10 659 725 724
1451 2 2 10 10 660 661 726
1452 2 2 10 10 660 726 725
1453 2 2 10 10 661 662 727
1454 2 2 10 10 661 727 726
1455 2 2 10 10 662 663 728
1456 2 2 10 10 662 728 727
1457 2 2 10 10 663 664 729
1458 2 2 10 10 663 729 728
1459 2 2 10 10 664 665 730
1460 2 2 10 10 664 730 729
1461 2 2 10 10 665 666 731
1462 2 2 10 10 665 731 730
1463 2 2 10 10 666 667 732
1464 2 2 10 10 666 732 731
1465 2 2 10 10 667 668 733
1466 2 2 10 10 667 733 732
1467 2 2 10 10 668 669 734
1468 2 2 10 10 668 734 733
1469 2 2 10 10 669 670 735
1470 2 2 10 10 669 735 734
1471 2 2 10 10 670 671 736
1472 2 2 10 10 670 736 735
1473 2 2 10 10 671 672 737
1474 2 2 10 10 671 737 736
1475 2 2 10 10 672 673 738
1476 2 2 10 10 672 738 737
1477 2 2 10 10 673 674 739
1478 2 2 10 10 673 739 738
1479 2 2 10 10 674 675 740
1480 2 2 10 10 674 740 739
1481 2 2 10 10 675 676 741
1482 2 2 10 10 675 741 740
1483 2 2 10 10 676 677 742
1484 2 2 10 10 676 742 741
1485 2 2 10 10 677 678 743
1486 2 2 10 10 677 743 742
1487 2 2 10 10 678 679 744
1488 2 2 10 10 678 744 743
1489 2 2 10 10 679 680 745
1490 2 2 10 10 679 745 744
1491 2 2 10 10 680 681 746
1492 2 2 10 10 680 746 745
1493 2 2 10 10 681 682 747
1494 2 2 10 10 681 747 746
1495 2 2 10 10 682 683 748
1496 2 2 10 10 682 748 747
1497 2 2 10 10 683 684 749
1498 2 2 10 10 683 749 748
1499 2 2 10 10 684 685 750
1500 2 2 10 10 684 750 749
1501 2 2 10 10 685 686 751
1502 2 2 10 10 685 751 750
1503 2 2 10 10 686 687 752
1504 2 2 10 10 686 752 751
1505 2 2 10 10 687 688 753
1506 2 2 10 10 687 753 752
1507 2 2 10 10 688 689 754
1508 2 2 10 10 688 754 753
1509 2 2 10 10 689 690 755
1510 2 2 10 10 689 755 754
1511 2 2 10 10 690 691 756
1512 2 2 10 10 690 756 755
1513 2 2 10 10 691 692 757
1514 2 2 10 10 691 757 756
1515 2 2 10 10 692 693 758
1516 2 2 10 10 692 758 757
1517 2 2 10 10 693 694 759
1518 2 2 10 10 693 759 758
1519 2 2 10 10 694 695 760
1520 2 2 10 10 694 760 759
1521 2 2 10 10 696 697 762
1522 2 2 10 10 696 762 761
1523 2 2 10 10 697 698 763
1524 2 2 10 10 697 763 762
1525 2 2 10 10 698 699 764
1526 2 2 10 10 698 764 763
1527 2 2 10 10 699 700 765
1528 2 2 10 10 699 765 764
1529 2 2 10 10 700 701 766
1530 2 2 10 10 700 766 765
1531 2 2 10 10 701 702 767
1532 2 2 10 10 701 767 766
1533 2 2 10 10 702 703 768
1534 2 2 10 10 702 768 767
1535 2 2 10 10 703 704 769
1536 2 2 10 10 703 769 768
1537 2 2 10 10 704 705 770
1538 2 2 10 10 704 770 769
1539 2 2 10 10 705 706 771
1540 2 2 10 10 705 771 770
1541 2 2 10 10 706 707 772
1542 2 2 10 10 706 772 771
1543 2 2 10 10 707 708 773
1544 2 2 10 10 707 773 772
1545 2 2 10 10 708 709 774
1546 2 2 10 10 708 774 773
1547 2 2 10 10 709 710 775
1548 2 2 10 10 709 775 774
1549 2 2 10 10 710 711 776
1550 2 2 10 10 710 776 775
1551 2 2 10 10 711 712 777
1552 2 2 10 10 711 777 776
1553 2 2 10 10 712 713 778
1554 2 2 10 10 712 778 777
1555 2 2 10 10 713 714 779
1556 2 2 10 10 713 779 778
1557 2 2 10 10 714 715 780
1558 2 2 10 10 714 780 779
1559 2 2 10 10 715 716 781
1560 2 2 10 10 715 781 780
1561 2 2 10 10 716 717 782
1562 2 2 10 10 716 782 781
1563 2 2 10 10 717 718 783
1564 2 2 10 10 717 783 782
1565 2 2 10 10 718 719 784
1566 2 2 10 10 718 784 783
1567 2 2 10 10 719 720 785
1568 2 2 10 10 719 785 784
1569 2 2 10 10 720 721 786
1570 2 2 10 10 720 786 785
1571 2 2 10 10 721 722 787
1572 2 2 10 10 721 787 786
1573 2 2 10 10 722 723 788
1574 2 2 10 10 722 788 787
1575 2 2 10 10 723 724 789
1576 2 2 10 10 723 789 788
1577 2 2 10 10 724 725 790
1578 2 2 10 10 724 790 789
1579 2 2 10 10 725 726 791
1580 2 2 10 10 725 791 790
1581 2 2 10 10 726 727 792
1582 2 2 10 10 726 792 791
1583 2 2 10 10 727 728 793
1584 2 2 10 10 727 793 792
1585 2 2 10 10 728 729 794
1586 2 2 10 10 728 794 793
1587 2 2 10 10 729 730 795
1588 2 2 10 10 729 795 794
1589 2 2 10 10 730 731 796
1590 2 2 10 10 730 796 795
1591 2 2 10 10 731 732 797
1592 2 2 10 10 731 797 796
1593 2 2 10 10 732 733 798
1594 2 2 10 10 732 798 797
1595 2 2 10 10 733 734 799
1596 2 2 10 10 733 799 798
1597 2 2 10 10 734 735 800
1598 2 2 10 10 734 800 799
1599 2 2 10 10 735 736 801
1600 2 2 10 10 735 801 800
1601 2 2 10 10 736 737 802
1602 2 2 10 10 736 802 801
1603 2 2 10 10 737 738 803
1604 2 2 10 10 737 803 802
1605 2 2 10 10 738 739 804
1606 2 2 10 10 738 804 803
1607 2 2 10 10 739 740 805
1608 2 2 10 10 739 805 804
1609 2 2 10 10 740 741 806
1610 2 2 10 10 740 806 805
1611 2 2 10 10 741 742 807
1612 2 2 10 10 741 807 806
1613 2 2 10 10 742 743 808
1614 2 2 10 10 742 808 807
1615 2 2 10 10 743 744 809
1616 2 2 10 10 743 809 808
1617 2 2 10 10 744 745 810
1618 2 2 10 10 744 810 809
1619 2 2 10 10 745 746 811
1620 2 2 10 10 745 811 810
1621 2 2 10 10 746 747 812
1622 2 2 10 10 746 812 811
1623 2 2 10 10 747 748 813
1624 2 2 10 10 747 813 812
1625 2 2 10 10 748 749 814
1626 2 2 10 10 748 814 813
1627 2 2 10 10 749 750 815
1628 2 2 10 10 749 815 814
1629 2 2 10 10 750 751 816
1630 2 2 10 10 750 816 815
1631 2 2 10 10 751 752 817
1632 2 2 10 10 751 817 816
1633 2 2 10 10 752 753 818
1634 2 2 10 10 752 818 817
1635 2 2 10 10 753 754 819
1636 2 2 10 10 753 819 818
1637 2 2 10 10 754 755 820
1638 2 2 10 10 754 820 819
1639 2 2 10 10 755 756 821
1640 2 2 10 10 755 821 820
1641 2 2 10 10 756 757 822
1642 2 2 10 10 756 822 821
1643 2 2 10 10 757 758 823
1644 2 2 10 10 757 823 822
1645 2 2 10 10 758 759 824
1646 2 2 10 10 758 824 823
1647 2 2 10 10 759 760 825
1648 2 2 10 10 759 825 824
$EndElements
