$MeshFormat
2.2 0 8
$EndMeshFormat
$PhysicalNames
4
1 1 "inlet"
1 2 "outlet"
1 3 "walls"
2 10 "fluid"
$EndPhysicalNames
$Nodes
423
1 0 0.016 0
2 0.004 0.016 0
3 0.008 0.016 0
4 0.012 0.016 0
5 0.016 0.016 0
6 0.02 0.016 0
7 0.024 0.016 0
8 0.028 0.016 0
9 0.032 0.016 0
10 0.036 0.016 0
11 0.04 0.016 0
12 0.044 0.016 0
13 0.048 0.016 0
14 0.052 0.016 0
15 0.08 0.016 0
16 0.08400000000000001 0.016 0
17 0.08799999999999999 0.016 0
18 0.092 0.016 0
19 0.096 0.016 0
20 0.1 0.016 0
21 0.104 0.016 0
22 0.108 0.016 0
23 0.112 0.016 0
24 0.116 0.016 0
25 0.12 0.016 0
26 0.124 0.016 0
27 0.128 0.016 0
28 0 0.02 0
29 0.004 0.02 0
30 0.008 0.02 0
31 0.012 0.02 0
32 0.016 0.02 0
33 0.02 0.02 0
34 0.024 0.02 0
35 0.028 0.02 0
36 0.032 0.02 0
37 0.036 0.02 0
38 0.04 0.02 0
39 0.044 0.02 0
40 0.048 0.02 0
41 0.052 0.02 0
42 0.056 0.02 0
43 0.076 0.02 0
44 0.08 0.02 0
45 0.08400000000000001 0.02 0
46 0.08799999999999999 0.02 0
47 0.092 0.02 0
48 0.096 0.02 0
49 0.1 0.02 0
50 0.104 0.02 0
51 0.108 0.02 0
52 0.112 0.02 0
53 0.116 0.02 0
54 0.12 0.02 0
55 0.124 0.02 0
56 0.128 0.02 0
57 0 0.024 0
58 0.004 0.024 0
59 0.008 0.024 0
60 0.012 0.024 0
61 0.016 0.024 0
62 0.02 0.024 0
63 0.024 0.024 0
64 0.028 0.024 0
65 0.032 0.024 0
66 0.036 0.024 0
67 0.04 0.024 0
68 0.044 0.024 0
69 0.048 0.024 0
70 0.052 0.024 0
71 0.056 0.024 0
72 0.07200000000000001 0.024 0
73 0.076 0.024 0
74 0.08 0.024 0
75 0.08400000000000001 0.024 0
76 0.08799999999999999 0.024 0
77 0.092 0.024 0
78 0.096 0.024 0
79 0.1 0.024 0
80 0.104 0.024 0
81 0.108 0.024 0
82 0.112 0.024 0
83 0.116 0.024 0
84 0.12 0.024 0
85 0.124 0.024 0
86 0.128 0.024 0
87 0 0.028 0
88 0.004 0.028 0
89 0.008 0.028 0
90 0.012 0.028 0
91 0.016 0.028 0
92 0.02 0.028 0
93 0.024 0.028 0
94 0.028 0.028 0
95 0.032 0.028 0
96 0.036 0.028 0
97 0.04 0.028 0
98 0.044 0.028 0
99 0.048 0.028 0
100 0.052 0.028 0
101 0.056 0.028 0
102 0.07200000000000001 0.028 0
103 0.076 0.028 0
104 0.08 0.028 0
105 0.08400000000000001 0.028 0
106 0.08799999999999999 0.028 0
107 0.092 0.028 0
108 0.096 0.028 0
109 0.1 0.028 0
110 0.104 0.028 0
111 0.108 0.028 0
112 0.112 0.028 0
113 0.116 0.028 0
114 0.12 0.028 0
115 0.124 0.028 0
116 0.128 0.028 0
117 0 0.032 0
118 0.004 0.032 0
119 0.008 0.032 0
120 0.012 0.032 0
121 0.016 0.032 0
122 0.02 0.032 0
123 0.024 0.032 0
124 0.028 0.032 0
125 0.032 0.032 0
126 0.036 0.032 0
127 0.04 0.032 0
128 0.044 0.032 0
129 0.048 0.032 0
130 0.052 0.032 0
131 0.056 0.032 0
132 0.06 0.032 0
133 0.068 0.032 0
134 0.07200000000000001 0.032 0
135 0.076 0.032 0
136 0.08 0.032 0
137 0.08400000000000001 0.032 0
138 0.08799999999999999 0.032 0
139 0.092 0.032 0
140 0.096 0.032 0
141 0.1 0.032 0
142 0.104 0.032 0
143 0.108 0.032 0
144 0.112 0.032 0
145 0.116 0.032 0
146 0.12 0.032 0
147 0.124 0.032 0
148 0.128 0.032 0
149 0.044 0.036 0
150 0.048 0.036 0
151 0.052 0.036 0
152 0.056 0.036 0
153 0.06 0.036 0
154 0.068 0.036 0
155 0.07200000000000001 0.036 0
156 0.076 0.036 0
157 0.08 0.036 0
158 0.08400000000000001 0.036 0
159 0.044 0.04 0
160 0.048 0.04 0
161 0.052 0.04 0
162 0.056 0.04 0
163 0.06 0.04 0
164 0.064 0.04 0
165 0.068 0.04 0
166 0.07200000000000001 0.04 0
167 0.076 0.04 0
168 0.08 0.04 0
169 0.08400000000000001 0.04 0
170 0.048 0.044 0
171 0.052 0.044 0
172 0.056 0.044 0
173 0.06 0.044 0
174 0.064 0.044 0
175 0.068 0.044 0
176 0.07200000000000001 0.044 0
177 0.076 0.044 0
178 0.08 0.044 0
179 0.048 0.048 0
180 0.052 0.048 0
181 0.056 0.048 0
182 0.06 0.048 0
183 0.064 0.048 0
184 0.068 0.048 0
185 0.07200000000000001 0.048 0
186 0.076 0.048 0
187 0.08 0.048 0
188 0.052 0.052 0
189 0.056 0.052 0
190 0.06 0.052 0
191 0.064 0.052 0
192 0.068 0.052 0
193 0.07200000000000001 0.052 0
194 0.076 0.052 0
195 0.052 0.056 0
196 0.056 0.056 0
197 0.06 0.056 0
198 0.064 0.056 0
199 0.068 0.056 0
200 0.07200000000000001 0.056 0
201 0.076 0.056 0
202 0.052 0.06 0
203 0.056 0.06 0
204 0.06 0.06 0
205 0.064 0.06 0
206 0.068 0.06 0
207 0.07200000000000001 0.06 0
208 0.076 0.06 0
209 0.052 0.064 0
210 0.056 0.064 0
211 0.06 0.064 0
212 0.064 0.064 0
213 0.068 0.064 0
214 0.07200000000000001 0.064 0
215 0.076 0.064 0
216 0.052 0.068 0
217 0.056 0.068 0
218 0.06 0.068 0
219 0.064 0.068 0
220 0.068 0.068 0
221 0.07200000000000001 0.068 0
222 0.076 0.068 0
223 0.052 0.07200000000000001 0
224 0.056 0.07200000000000001 0
225 0.06 0.07200000000000001 0
226 0.064 0.07200000000000001 0
227 0.068 0.07200000000000001 0
228 0.07200000000000001 0.07200000000000001 0
229 0.076 0.07200000000000001 0
230 0.052 0.076 0
231 0.056 0.076 0
232 0.06 0.076 0
233 0.064 0.076 0
234 0.068 0.076 0
235 0.07200000000000001 0.076 0
236 0.076 0.076 0
237 0.048 0.08 0
238 0.052 0.08 0
239 0.056 0.08 0
240 0.06 0.08 0
241 0.064 0.08 0
242 0.068 0.08 0
243 0.07200000000000001 0.08 0
244 0.076 0.08 0
245 0.08 0.08 0
246 0.048 0.08400000000000001 0
247 0.052 0.08400000000000001 0
248 0.056 0.08400000000000001 0
249 0.06 0.08400000000000001 0
250 0.064 0.08400000000000001 0
251 0.068 0.08400000000000001 0
252 0.07200000000000001 0.08400000000000001 0
253 0.076 0.08400000000000001 0
254 0.08 0.08400000000000001 0
255 0.044 0.08799999999999999 0
256 0.048 0.08799999999999999 0
257 0.052 0.08799999999999999 0
258 0.056 0.08799999999999999 0
259 0.06 0.08799999999999999 0
260 0.064 0.08799999999999999 0
261 0.068 0.08799999999999999 0
262 0.07200000000000001 0.08799999999999999 0
263 0.076 0.08799999999999999 0
264 0.08 0.08799999999999999 0
265 0.08400000000000001 0.08799999999999999 0
266 0.044 0.092 0
267 0.048 0.092 0
268 0.052 0.092 0
269 0.056 0.092 0
270 0.06 0.092 0
271 0.068 0.092 0
272 0.07200000000000001 0.092 0
273 0.076 0.092 0
274 0.08 0.092 0
275 0.08400000000000001 0.092 0
276 0 0.096 0
277 0.004 0.096 0
278 0.008 0.096 0
279 0.012 0.096 0
280 0.016 0.096 0
281 0.02 0.096 0
282 0.024 0.096 0
283 0.028 0.096 0
284 0.032 0.096 0
285 0.036 0.096 0
286 0.04 0.096 0
287 0.044 0.096 0
288 0.048 0.096 0
289 0.052 0.096 0
290 0.056 0.096 0
291 0.06 0.096 0
292 0.068 0.096 0
293 0.07200000000000001 0.096 0
294 0.076 0.096 0
295 0.08 0.096 0
296 0.08400000000000001 0.096 0
297 0.08799999999999999 0.096 0
298 0.092 0.096 0
299 0.096 0.096 0
300 0.1 0.096 0
301 0.104 0.096 0
302 0.108 0.096 0
303 0.112 0.096 0
304 0.116 0.096 0
305 0.12 0.096 0
306 0.124 0.096 0
307 0.128 0.096 0
308 0 0.1 0
309 0.004 0.1 0
310 0.008 0.1 0
311 0.012 0.1 0
312 0.016 0.1 0
313 0.02 0.1 0
314 0.024 0.1 0
315 0.028 0.1 0
316 0.032 0.1 0
317 0.036 0.1 0
318 0.04 0.1 0
319 0.044 0.1 0
320 0.048 0.1 0
321 0.052 0.1 0
322 0.056 0.1 0
323 0.07200000000000001 0.1 0
324 0.076 0.1 0
325 0.08 0.1 0
326 0.08400000000000001 0.1 0
327 0.08799999999999999 0.1 0
328 0.092 0.1 0
329 0.096 0.1 0
330 0.1 0.1 0
331 0.104 0.1 0
332 0.108 0.1 0
333 0.112 0.1 0
334 0.116 0.1 0
335 0.12 0.1 0
336 0.124 0.1 0
337 0.128 0.1 0
338 0 0.104 0
339 0.004 0.104 0
340 0.008 0.104 0
341 0.012 0.104 0
342 0.016 0.104 0
343 0.02 0.104 0
344 0.024 0.104 0
345 0.028 0.104 0
346 0.032 0.104 0
347 0.036 0.104 0
348 0.04 0.104 0
349 0.044 0.104 0
350 0.048 0.104 0
351 0.052 0.104 0
352 0.056 0.104 0
353 0.07200000000000001 0.104 0
354 0.076 0.104 0
355 0.08 0.104 0
356 0.08400000000000001 0.104 0
357 0.08799999999999999 0.104 0
358 0.092 0.104 0
359 0.096 0.104 0
360 0.1 0.104 0
361 0.104 0.104 0
362 0.108 0.104 0
363 0.112 0.104 0
364 0.116 0.104 0
365 0.12 0.104 0
366 0.124 0.104 0
367 0.128 0.104 0
368 0 0.108 0
369 0.004 0.108 0
370 0.008 0.108 0
371 0.012 0.108 0
372 0.016 0.108 0
373 0.02 0.108 0
374 0.024 0.108 0
375 0.028 0.108 0
376 0.032 0.108 0
377 0.036 0.108 0
378 0.04 0.108 0
379 0.044 0.108 0
380 0.048 0.108 0
381 0.052 0.108 0
382 0.056 0.108 0
383 0.076 0.108 0
384 0.08 0.108 0
385 0.08400000000000001 0.108 0
386 0.08799999999999999 0.108 0
387 0.092 0.108 0
388 0.096 0.108 0
389 0.1 0.108 0
390 0.104 0.108 0
391 0.108 0.108 0
392 0.112 0.108 0
393 0.116 0.108 0
394 0.12 0.108 0
395 0.124 0.108 0
396 0.128 0.108 0
397 0 0.112 0
398 0.004 0.112 0
399 0.008 0.112 0
400 0.012 0.112 0
401 0.016 0.112 0
402 0.02 0.112 0
403 0.024 0.112 0
404 0.028 0.112 0
405 0.032 0.112 0
406 0.036 0.112 0
407 0.04 0.112 0
408 0.044 0.112 0
409 0.048 0.112 0
410 0.052 0.112 0
411 0.08 0.112 0
412 0.08400000000000001 0.112 0
413 0.08799999999999999 0.112 0
414 0.092 0.112 0
415 0.096 0.112 0
416 0.1 0.112 0
417 0.104 0.112 0
418 0.108 0.112 0
419 0.112 0.112 0
420 0.116 0.112 0
421 0.12 0.112 0
422 0.124 0.112 0
423 0.128 0.112 0
$EndNodes
$Elements
844
1 1 2 3 3 1 2
2 1 2 1 1 1 28
3 1 2 3 3 2 3
4 1 2 3 3 3 4
5 1 2 3 3 4 5
6 1 2 3 3 5 6
7 1 2 3 3 6 7
8 1 2 3 3 7 8
9 1 2 3 3 8 9
10 1 2 3 3 9 10
11 1 2 3 3 10 11
12 1 2 3 3 11 12
13 1 2 3 3 12 13
14 1 2 3 3 13 14
15 1 2 3 3 14 41
16 1 2 3 3 15 16
17 1 2 3 3 15 44
18 1 2 3 3 16 17
19 1 2 3 3 17 18
20 1 2 3 3 18 19
21 1 2 3 3 19 20
22 1 2 3 3 20 21
23 1 2 3 3 21 22
24 1 2 3 3 22 23
25 1 2 3 3 23 24
26 1 2 3 3 24 25
27 1 2 3 3 25 26
28 1 2 3 3 26 27
29 1 2 2 2 27 56
30 1 2 1 1 28 57
31 1 2 3 3 41 42
32 1 2 3 3 42 71
33 1 2 3 3 43 44
34 1 2 3 3 43 73
35 1 2 2 2 56 86
36 1 2 1 1 57 87
37 1 2 3 3 71 101
38 1 2 3 3 72 73
39 1 2 3 3 72 102
40 1 2 2 2 86 116
41 1 2 3 3 117 118
42 1 2 1 1 87 117
43 1 2 3 3 118 119
44 1 2 3 3 119 120
45 1 2 3 3 120 121
46 1 2 3 3 121 122
47 1 2 3 3 122 123
48 1 2 3 3 123 124
49 1 2 3 3 124 125
50 1 2 3 3 125 126
51 1 2 3 3 126 127
52 1 2 3 3 127 128
53 1 2 3 3 101 131
54 1 2 3 3 102 134
55 1 2 3 3 137 138
56 1 2 3 3 138 139
57 1 2 3 3 139 140
58 1 2 3 3 140 141
59 1 2 3 3 141 142
60 1 2 3 3 142 143
61 1 2 3 3 143 144
62 1 2 3 3 144 145
63 1 2 3 3 145 146
64 1 2 3 3 146 147
65 1 2 2 2 116 148
66 1 2 3 3 147 148
67 1 2 3 3 128 149
68 1 2 3 3 131 132
69 1 2 3 3 132 153
70 1 2 3 3 133 134
71 1 2 3 3 133 154
72 1 2 3 3 137 158
73 1 2 3 3 159 160
74 1 2 3 3 149 159
75 1 2 3 3 153 163
76 1 2 3 3 154 165
77 1 2 3 3 158 169
78 1 2 3 3 168 169
79 1 2 3 3 160 170
80 1 2 3 3 163 164
81 1 2 3 3 164 165
82 1 2 3 3 168 178
83 1 2 3 3 179 180
84 1 2 3 3 170 179
85 1 2 3 3 178 187
86 1 2 3 3 186 187
87 1 2 3 3 180 188
88 1 2 3 3 186 194
89 1 2 3 3 188 195
90 1 2 3 3 194 201
91 1 2 3 3 195 202
92 1 2 3 3 201 208
93 1 2 3 3 202 209
94 1 2 3 3 208 215
95 1 2 3 3 209 216
96 1 2 3 3 215 222
97 1 2 3 3 216 223
98 1 2 3 3 222 229
99 1 2 3 3 223 230
100 1 2 3 3 229 236
101 1 2 3 3 230 238
102 1 2 3 3 236 244
103 1 2 3 3 237 238
104 1 2 3 3 237 246
105 1 2 3 3 244 245
106 1 2 3 3 245 254
107 1 2 3 3 246 256
108 1 2 3 3 259 260
109 1 2 3 3 260 261
110 1 2 3 3 254 264
111 1 2 3 3 255 256
112 1 2 3 3 255 266
113 1 2 3 3 259 270
114 1 2 3 3 261 271
115 1 2 3 3 264 265
116 1 2 3 3 265 275
117 1 2 3 3 266 287
118 1 2 3 3 270 291
119 1 2 3 3 290 291
120 1 2 3 3 292 293
121 1 2 3 3 271 292
122 1 2 3 3 275 296
123 1 2 3 3 276 277
124 1 2 1 1 276 308
125 1 2 3 3 277 278
126 1 2 3 3 278 279
127 1 2 3 3 279 280
128 1 2 3 3 280 281
129 1 2 3 3 281 282
130 1 2 3 3 282 283
131 1 2 3 3 283 284
132 1 2 3 3 284 285
133 1 2 3 3 285 286
134 1 2 3 3 286 287
135 1 2 3 3 290 322
136 1 2 3 3 293 323
137 1 2 3 3 296 297
138 1 2 3 3 297 298
139 1 2 3 3 298 299
140 1 2 3 3 299 300
141 1 2 3 3 300 301
142 1 2 3 3 301 302
143 1 2 3 3 302 303
144 1 2 3 3 303 304
145 1 2 3 3 304 305
146 1 2 3 3 305 306
147 1 2 3 3 306 307
148 1 2 2 2 307 337
149 1 2 1 1 308 338
150 1 2 3 3 322 352
151 1 2 3 3 353 354
152 1 2 3 3 323 353
153 1 2 2 2 337 367
154 1 2 1 1 338 368
155 1 2 3 3 352 382
156 1 2 3 3 381 382
157 1 2 3 3 383 384
158 1 2 3 3 354 383
159 1 2 2 2 367 396
160 1 2 3 3 397 398
161 1 2 1 1 368 397
162 1 2 3 3 398 399
163 1 2 3 3 399 400
164 1 2 3 3 400 401
165 1 2 3 3 401 402
166 1 2 3 3 402 403
167 1 2 3 3 403 404
168 1 2 3 3 404 405
169 1 2 3 3 405 406
170 1 2 3 3 406 407
171 1 2 3 3 407 408
172 1 2 3 3 408 409
173 1 2 3 3 381 410
174 1 2 3 3 409 410
175 1 2 3 3 411 412
176 1 2 3 3 384 411
177 1 2 3 3 412 413
178 1 2 3 3 413 414
179 1 2 3 3 414 415
180 1 2 3 3 415 416
181 1 2 3 3 416 417
182 1 2 3 3 417 418
183 1 2 3 3 418 419
184 1 2 3 3 419 420
185 1 2 3 3 420 421
186 1 2 3 3 421 422
187 1 2 2 2 396 423
188 1 2 3 3 422 423
189 2 2 10 10 1 2 29
190 2 2 10 10 1 29 28
191 2 2 10 10 2 3 30
192 2 2 10 10 2 30 29
193 2 2 10 10 3 4 31
194 2 2 10 10 3 31 30
195 2 2 10 10 4 5 32
196 2 2 10 10 4 32 31
197 2 2 10 10 5 6 33
198 2 2 10 10 5 33 32
199 2 2 10 10 6 7 34
200 2 2 10 10 6 34 33
201 2 2 10 10 7 8 35
202 2 2 10 10 7 35 34
203 2 2 10 10 8 9 36
204 2 2 10 10 8 36 35
205 2 2 10 10 9 10 37
206 2 2 10 10 9 37 36
207 2 2 10 10 10 11 38
208 2 2 10 10 10 38 37
209 2 2 10 10 11 12 39
210 2 2 10 10 11 39 38
211 2 2 10 10 12 13 40
212 2 2 10 10 12 40 39
213 2 2 10 10 13 14 41
214 2 2 10 10 13 41 40
215 2 2 10 10 15 16 45
216 2 2 10 10 15 45 44
217 2 2 10 10 16 17 46
218 2 2 10 10 16 46 45
219 2 2 10 10 17 18 47
220 2 2 10 10 17 47 46
221 2 2 10 10 18 19 48
222 2 2 10 10 18 48 47
223 2 2 10 10 19 20 49
224 2 2 10 10 19 49 48
225 2 2 10 10 20 21 50
226 2 2 10 10 20 50 49
227 2 2 10 10 21 22 51
228 2 2 10 10 21 51 50
229 2 2 10 10 22 23 52
230 2 2 10 10 22 52 51
231 2 2 10 10 23 24 53
232 2 2 10 10 23 53 52
233 2 2 10 10 24 25 54
234 2 2 10 10 24 54 53
235 2 2 10 10 25 26 55
236 2 2 10 10 25 55 54
237 2 2 10 10 26 27 56
238 2 2 10 10 26 56 55
239 2 2 10 10 28 29 58
240 2 2 10 10 28 58 57
241 2 2 10 10 29 30 59
242 2 2 10 10 29 59 58
243 2 2 10 10 30 31 60
244 2 2 10 10 30 60 59
245 2 2 10 10 31 32 61
246 2 2 10 10 31 61 60
247 2 2 10 10 32 33 62
248 2 2 10 10 32 62 61
249 2 2 10 10 33 34 63
250 2 2 10 10 33 63 62
251 2 2 10 10 34 35 64
252 2 2 10 10 34 64 63
253 2 2 10 10 35 36 65
254 2 2 10 10 35 65 64
255 2 2 10 10 36 37 66
256 2 2 10 10 36 66 65
257 2 2 10 10 37 38 67
258 2 2 10 10 37 67 66
259 2 2 10 10 38 39 68
260 2 2 10 10 38 68 67
261 2 2 10 10 39 40 69
262 2 2 10 10 39 69 68
263 2 2 10 10 40 41 70
264 2 2 10 10 40 70 69
265 2 2 10 10 41 42 71
266 2 2 10 10 41 71 70
267 2 2 10 10 43 44 74
268 2 2 10 10 43 74 73
269 2 2 10 10 44 45 75
270 2 2 10 10 44 75 74
271 2 2 10 10 45 46 76
272 2 2 10 10 45 76 75
273 2 2 10 10 46 47 77
274 2 2 10 10 46 77 76
275 2 2 10 10 47 48 78
276 2 2 10 10 47 78 77
277 2 2 10 10 48 49 79
278 2 2 10 10 48 79 78
279 2 2 10 10 49 50 80
280 2 2 10 10 49 80 79
281 2 2 10 10 50 51 81
282 2 2 10 10 50 81 80
283 2 2 10 10 51 52 82
284 2 2 10 10 51 82 81
285 2 2 10 10 52 53 83
286 2 2 10 10 52 83 82
287 2 2 10 10 53 54 84
288 2 2 10 10 53 84 83
289 2 2 10 10 54 55 85
290 2 2 10 10 54 85 84
291 2 2 10 10 55 56 86
292 2 2 10 10 55 86 85
293 2 2 10 10 57 58 88
294 2 2 10 10 57 88 87
295 2 2 10 10 58 59 89
296 2 2 10 10 58 89 88
297 2 2 10 10 59 60 90
298 2 2 10 10 59 90 89
299 2 2 10 10 60 61 91
300 2 2 10 10 60 91 90
301 2 2 10 10 61 62 92
302 2 2 10 10 61 92 91
303 2 2 10 10 62 63 93
304 2 2 10 10 62 93 92
305 2 2 10 10 63 64 94
306 2 2 10 10 63 94 93
307 2 2 10 10 64 65 95
308 2 2 10 10 64 95 94
309 2 2 10 10 65 66 96
310 2 2 10 10 65 96 95
311 2 2 10 10 66 67 97
312 2 2 10 10 66 97 96
313 2 2 10 10 67 68 98
314 2 2 10 10 67 98 97
315 2 2 10 10 68 69 99
316 2 2 10 10 68 99 98
317 2 2 10 10 69 70 100
318 2 2 10 10 69 100 99
319 2 2 10 10 70 71 101
320 2 2 10 10 70 101 100
321 2 2 10 10 72 73 103
322 2 2 10 10 72 103 102
323 2 2 10 10 73 74 104
324 2 2 10 10 73 104 103
325 2 2 10 10 74 75 105
326 2 2 10 10 74 105 104
327 2 2 10 10 75 76 106
328 2 2 10 10 75 106 105
329 2 2 10 10 76 77 107
330 2 2 10 10 76 107 106
331 2 2 10 10 77 78 108
332 2 2 10 10 77 108 107
333 2 2 10 10 78 79 109
334 2 2 10 10 78 109 108
335 2 2 10 10 79 80 110
336 2 2 10 10 79 110 109
337 2 2 10 10 80 81 111
338 2 2 10 10 80 111 110
339 2 2 10 10 81 82 112
340 2 2 10 10 81 112 111
341 2 2 10 10 82 83 113
342 2 2 10 10 82 113 112
343 2 2 10 10 83 84 114
344 2 2 10 10 83 114 113
345 2 2 10 10 84 85 115
346 2 2 10 10 84 115 114
347 2 2 10 10 85 86 116
348 2 2 10 10 85 116 115
349 2 2 10 10 87 88 118
350 2 2 10 10 87 118 117
351 2 2 10 10 88 89 119
352 2 2 10 10 88 119 118
353 2 2 10 10 89 90 120
354 2 2 10 10 89 120 119
355 2 2 10 10 90 91 121
356 2 2 10 10 90 121 120
357 2 2 10 10 91 92 122
358 2 2 10 10 91 122 121
359 2 2 10 10 92 93 123
360 2 2 10 10 92 123 122
361 2 2 10 10 93 94 124
362 2 2 10 10 93 124 123
363 2 2 10 10 94 95 125
364 2 2 10 10 94 125 124
365 2 2 10 10 95 96 126
366 2 2 10 10 95 126 125
367 2 2 10 10 96 97 127
368 2 2 10 10 96 127 126
369 2 2 10 10 97 98 128
370 2 2 10 10 97 128 127
371 2 2 10 10 98 99 129
372 2 2 10 10 98 129 128
373 2 2 10 10 99 100 130
374 2 2 10 10 99 130 129
375 2 2 10 10 100 101 131
376 2 2 10 10 100 131 130
377 2 2 10 10 102 103 135
378 2 2 10 10 102 135 134
379 2 2 10 10 103 104 136
380 2 2 10 10 103 136 135
381 2 2 10 10 104 105 137
382 2 2 10 10 104 137 136
383 2 2 10 10 105 106 138
384 2 2 10 10 105 138 137
385 2 2 10 10 106 107 139
386 2 2 10 10 106 139 138
387 2 2 10 10 107 108 140
388 2 2 10 10 107 140 139
389 2 2 10 10 108 109 141
390 2 2 10 10 108 141 140
391 2 2 10 10 109 110 142
392 2 2 10 10 109 142 141
393 2 2 10 10 110 111 143
394 2 2 10 10 110 143 142
395 2 2 10 10 111 112 144
396 2 2 10 10 111 144 143
397 2 2 10 10 112 113 145
398 2 2 10 10 112 145 144
399 2 2 10 10 113 114 146
400 2 2 10 10 113 146 145
401 2 2 10 10 114 115 147
402 2 2 10 10 114 147 146
403 2 2 10 10 115 116 148
404 2 2 10 10 115 148 147
405 2 2 10 10 128 129 150
406 2 2 10 10 128 150 149
407 2 2 10 10 129 130 151
408 2 2 10 10 129 151 150
409 2 2 10 10 130 131 152
410 2 2 10 10 130 152 151
411 2 2 10 10 131 132 153
412 2 2 10 10 131 153 152
413 2 2 10 10 133 134 155
414 2 2 10 10 133 155 154
415 2 2 10 10 134 135 156
416 2 2 10 10 134 156 155
417 2 2 10 10 135 136 157
418 2 2 10 10 135 157 156
419 2 2 10 10 136 137 158
420 2 2 10 10 136 158 157
421 2 2 10 10 149 150 160
422 2 2 10 10 149 160 159
423 2 2 10 10 150 151 161
424 2 2 10 10 150 161 160
425 2 2 10 10 151 152 162
426 2 2 10 10 151 162 161
427 2 2 10 10 152 153 163
428 2 2 10 10 152 163 162
429 2 2 10 10 154 155 166
430 2 2 10 10 154 166 165
431 2 2 10 10 155 156 167
432 2 2 10 10 155 167 166
433 2 2 10 10 156 157 168
434 2 2 10 10 156 168 167
435 2 2 10 10 157 158 169
436 2 2 10 10 157 169 168
437 2 2 10 10 160 161 171
438 2 2 10 10 160 171 170
439 2 2 10 10 161 162 172
440 2 2 10 10 161 172 171
441 2 2 10 10 162 163 173
442 2 2 10 10 162 173 172
443 2 2 10 10 163 164 174
444 2 2 10 10 163 174 173
445 2 2 10 10 164 165 175
446 2 2 10 10 164 175 174
447 2 2 10 10 165 166 176
448 2 2 10 10 165 176 175
449 2 2 10 10 166 167 177
450 2 2 10 10 166 177 176
451 2 2 10 10 167 168 178
452 2 2 10 10 167 178 177
453 2 2 10 10 170 171 180
454 2 2 10 10 170 180 179
455 2 2 10 10 171 172 181
456 2 2 10 10 171 181 180
457 2 2 10 10 172 173 182
458 2 2 10 10 172 182 181
459 2 2 10 10 173 174 183
460 2 2 10 10 173 183 182
461 2 2 10 10 174 175 184
462 2 2 10 10 174 184 183
463 2 2 10 10 175 176 185
464 2 2 10 10 175 185 184
465 2 2 10 10 176 177 186
466 2 2 10 10 176 186 185
467 2 2 10 10 177 178 187
468 2 2 10 10 177 187 186
469 2 2 10 10 180 181 189
470 2 2 10 10 180 189 188
471 2 2 10 10 181 182 190
472 2 2 10 10 181 190 189
473 2 2 10 10 182 183 191
474 2 2 10 10 182 191 190
475 2 2 10 10 183 184 192
476 2 2 10 10 183 192 191
477 2 2 10 10 184 185 193
478 2 2 10 10 184 193 192
479 2 2 10 10 185 186 194
480 2 2 10 10 185 194 193
481 2 2 10 10 188 189 196
482 2 2 10 10 188 196 195
483 2 2 10 10 189 190 197
484 2 2 10 10 189 197 196
485 2 2 10 10 190 191 198
486 2 2 10 10 190 198 197
487 2 2 10 10 191 192 199
488 2 2 10 10 191 199 198
489 2 2 10 10 192 193 200
490 2 2 10 10 192 200 199
491 2 2 10 10 193 194 201
492 2 2 10 10 193 201 200
493 2 2 10 10 195 196 203
494 2 2 10 10 195 203 202
495 2 2 10 10 196 197 204
496 2 2 10 10 196 204 203
497 2 2 10 10 197 198 205
498 2 2 10 10 197 205 204
499 2 2 10 10 198 199 206
500 2 2 10 10 198 206 205
501 2 2 10 10 199 200 207
502 2 2 10 10 199 207 206
503 2 2 10 10 200 201 208
504 2 2 10 10 200 208 207
505 2 2 10 10 202 203 210
506 2 2 10 10 202 210 209
507 2 2 10 10 203 204 211
508 2 2 10 10 203 211 210
509 2 2 10 10 204 205 212
510 2 2 10 10 204 212 211
511 2 2 10 10 205 206 213
512 2 2 10 10 205 213 212
513 2 2 10 10 206 207 214
514 2 2 10 10 206 214 213
515 2 2 10 10 207 208 215
516 2 2 10 10 207 215 214
517 2 2 10 10 209 210 217
518 2 2 10 10 209 217 216
519 2 2 10 10 210 211 218
520 2 2 10 10 210 218 217
521 2 2 10 10 211 212 219
522 2 2 10 10 211 219 218
523 2 2 10 10 212 213 220
524 2 2 10 10 212 220 219
525 2 2 10 10 213 214 221
526 2 2 10 10 213 221 220
527 2 2 10 10 214 215 222
528 2 2 10 10 214 222 221
529 2 2 10 10 216 217 224
530 2 2 10 10 216 224 223
531 2 2 10 10 217 218 225
532 2 2 10 10 217 225 224
533 2 2 10 10 218 219 226
534 2 2 10 10 218 226 225
535 2 2 10 10 219 220 227
536 2 2 10 10 219 227 226
537 2 2 10 10 220 221 228
538 2 2 10 10 220 228 227
539 2 2 10 10 221 222 229
540 2 2 10 10 221 229 228
541 2 2 10 10 223 224 231
542 2 2 10 10 223 231 230
543 2 2 10 10 224 225 232
544 2 2 10 10 224 232 231
545 2 2 10 10 225 226 233
546 2 2 10 10 225 233 232
547 2 2 10 10 226 227 234
548 2 2 10 10 226 234 233
549 2 2 10 10 227 228 235
550 2 2 10 10 227 235 234
551 2 2 10 10 228 229 236
552 2 2 10 10 228 236 235
553 2 2 10 10 230 231 239
554 2 2 10 10 230 239 238
555 2 2 10 10 231 232 240
556 2 2 10 10 231 240 239
557 2 2 10 10 232 233 241
558 2 2 10 10 232 241 240
559 2 2 10 10 233 234 242
560 2 2 10 10 233 242 241
561 2 2 10 10 234 235 243
562 2 2 10 10 234 243 242
563 2 2 10 10 235 236 244
564 2 2 10 10 235 244 243
565 2 2 10 10 237 238 247
566 2 2 10 10 237 247 246
567 2 2 10 10 238 239 248
568 2 2 10 10 238 248 247
569 2 2 10 10 239 240 249
570 2 2 10 10 239 249 248
571 2 2 10 10 240 241 250
572 2 2 10 10 240 250 249
573 2 2 10 10 241 242 251
574 2 2 10 10 241 251 250
575 2 2 10 10 242 243 252
576 2 2 10 10 242 252 251
577 2 2 10 10 243 244 253
578 2 2 10 10 243 253 252
579 2 2 10 10 244 245 254
580 2 2 10 10 244 254 253
581 2 2 10 10 246 247 257
582 2 2 10 10 246 257 256
583 2 2 10 10 247 248 258
584 2 2 10 10 247 258 257
585 2 2 10 10 248 249 259
586 2 2 10 10 248 259 258
587 2 2 10 10 249 250 260
588 2 2 10 10 249 260 259
589 2 2 10 10 250 251 261
590 2 2 10 10 250 261 260
591 2 2 10 10 251 252 262
592 2 2 10 10 251 262 261
593 2 2 10 10 252 253 263
594 2 2 10 10 252 263 262
595 2 2 10 10 253 254 264
596 2 2 10 10 253 264 263
597 2 2 10 10 255 256 267
598 2 2 10 10 255 267 266
599 2 2 10 10 256 257 268
600 2 2 10 10 256 268 267
601 2 2 10 10 257 258 269
602 2 2 10 10 257 269 268
603 2 2 10 10 258 259 270
604 2 2 10 10 258 270 269
605 2 2 10 10 261 262 272
606 2 2 10 10 261 272 271
607 2 2 10 10 262 263 273
608 2 2 10 10 262 273 272
609 2 2 10 10 263 264 274
610 2 2 10 10 263 274 273
611 2 2 10 10 264 265 275
612 2 2 10 10 264 275 274
613 2 2 10 10 266 267 288
614 2 2 10 10 266 288 287
615 2 2 10 10 267 268 289
616 2 2 10 10 267 289 288
617 2 2 10 10 268 269 290
618 2 2 10 10 268 290 289
619 2 2 10 10 269 270 291
620 2 2 10 10 269 291 290
621 2 2 10 10 271 272 293
622 2 2 10 10 271 293 292
623 2 2 10 10 272 273 294
624 2 2 10 10 272 294 293
625 2 2 10 10 273 274 295
626 2 2 10 10 273 295 294
627 2 2 10 10 274 275 296
628 2 2 10 10 274 296 295
629 2 2 10 10 276 277 309
630 2 2 10 10 276 309 308
631 2 2 10 10 277 278 310
632 2 2 10 10 277 310 309
633 2 2 10 10 278 279 311
634 2 2 10 10 278 311 310
635 2 2 10 10 279 280 312
636 2 2 10 10 279 312 311
637 2 2 10 10 280 281 313
638 2 2 10 10 280 313 312
639 2 2 10 10 281 282 314
640 2 2 10 10 281 314 313
641 2 2 10 10 282 283 315
642 2 2 10 10 282 315 314
643 2 2 10 10 283 284 316
644 2 2 10 10 283 316 315
645 2 2 10 10 284 285 317
646 2 2 10 10 284 317 316
647 2 2 10 10 285 286 318
648 2 2 10 10 285 318 317
649 2 2 10 10 286 287 319
650 2 2 10 10 286 319 318
651 2 2 10 10 287 288 320
652 2 2 10 10 287 320 319
653 2 2 10 10 288 289 321
654 2 2 10 10 288 321 320
655 2 2 10 10 289 290 322
656 2 2 10 10 289 322 321
657 2 2 10 10 293 294 324
658 2 2 10 10 293 324 323
659 2 2 10 10 294 295 325
660 2 2 10 10 294 325 324
661 2 2 10 10 295 296 326
662 2 2 10 10 295 326 325
663 2 2 10 10 296 297 327
664 2 2 10 10 296 327 326
665 2 2 10 10 297 298 328
666 2 2 10 10 297 328 327
667 2 2 10 10 298 299 329
668 2 2 10 10 298 329 328
669 2 2 10 10 299 300 330
670 2 2 10 10 299 330 329
671 2 2 10 10 300 301 331
672 2 2 10 10 300 331 330
673 2 2 10 10 301 302 332
674 2 2 10 10 301 332 331
675 2 2 10 10 302 303 333
676 2 2 10 10 302 333 332
677 2 2 10 10 303 304 334
678 2 2 10 10 303 334 333
679 2 2 10 10 304 305 335
680 2 2 10 10 304 335 334
681 2 2 10 10 305 306 336
682 2 2 10 10 305 336 335
683 2 2 10 10 306 307 337
684 2 2 10 10 306 337 336
685 2 2 10 10 308 309 339
686 2 2 10 10 308 339 338
687 2 2 10 10 309 310 340
688 2 2 10 10 309 340 339
689 2 2 10 10 310 311 341
690 2 2 10 10 310 341 340
691 2 2 10 10 311 312 342
692 2 2 10 10 311 342 341
693 2 2 10 10 312 313 343
694 2 2 10 10 312 343 342
695 2 2 10 10 313 314 344
696 2 2 10 10 313 344 343
697 2 2 10 10 314 315 345
698 2 2 10 10 314 345 344
699 2 2 10 10 315 316 346
700 2 2 10 10 315 346 345
701 2 2 10 10 316 317 347
702 2 2 10 10 316 347 346
703 2 2 10 10 317 318 348
704 2 2 10 10 317 348 347
705 2 2 10 10 318 319 349
706 2 2 10 10 318 349 348
707 2 2 10 10 319 320 350
708 2 2 10 10 319 350 349
709 2 2 10 10 320 321 351
710 2 2 10 10 320 351 350
711 2 2 10 10 321 322 352
712 2 2 10 10 321 352 351
713 2 2 10 10 323 324 354
714 2 2 10 10 323 354 353
715 2 2 10 10 324 325 355
716 2 2 10 10 324 355 354
717 2 2 10 10 325 326 356
718 2 2 10 10 325 356 355
719 2 2 10 10 326 327 357
720 2 2 10 10 326 357 356
721 2 2 10 10 327 328 358
722 2 2 10 10 327 358 357
723 2 2 10 10 328 329 359
724 2 2 10 10 328 359 358
725 2 2 10 10 329 330 360
726 2 2 10 10 329 360 359
727 2 2 10 10 330 331 361
728 2 2 10 10 330 361 360
729 2 2 10 10 331 332 362
730 2 2 10 10 331 362 361
731 2 2 10 10 332 333 363
732 2 2 10 10 332 363 362
733 2 2 10 10 333 334 364
734 2 2 10 10 333 364 363
735 2 2 10 10 334 335 365
736 2 2 10 10 334 365 364
737 2 2 10 10 335 336 366
738 2 2 10 10 335 366 365
739 2 2 10 10 336 337 367
740 2 2 10 10 336 367 366
741 2 2 10 10 338 339 369
742 2 2 10 10 338 369 368
743 2 2 10 10 339 340 370
744 2 2 10 10 339 370 369
745 2 2 10 10 340 341 371
746 2 2 10 10 340 371 370
747 2 2 10 10 341 342 372
748 2 2 10 10 341 372 371
749 2 2 10 10 342 343 373
750 2 2 10 10 342 373 372
751 2 2 10 10 343 344 374
752 2 2 10 10 343 374 373
753 2 2 10 10 344 345 375
754 2 2 10 10 344 375 374
755 2 2 10 10 345 346 376
756 2 2 10 10 345 376 375
757 2 2 10 10 346 347 377
758 2 2 10 10 346 377 376
759 2 2 10 10 347 348 378
760 2 2 10 10 347 378 377
761 2 2 10 10 348 349 379
762 2 2 10 10 348 379 378
763 2 2 10 10 349 350 380
764 2 2 10 10 349 380 379
765 2 2 10 10 350 351 381
766 2 2 10 10 350 381 380
767 2 2 10 10 351 352 382
768 2 2 10 10 351 382 381
769 2 2 10 10 354 355 384
770 2 2 10 10 354 384 383
771 2 2 10 10 355 356 385
772 2 2 10 10 355 385 384
773 2 2 10 10 356 357 386
774 2 2 10 10 356 386 385
775 2 2 10 10 357 358 387
776 2 2 10 10 357 387 386
777 2 2 10 10 358 359 388
778 2 2 10 10 358 388 387
779 2 2 10 10 359 360 389
780 2 2 10 10 359 389 388
781 2 2 10 10 360 361 390
782 2 2 10 10 360 390 389
783 2 2 10 10 361 362 391
784 2 2 10 10 361 391 390
785 2 2 10 10 362 363 392
786 2 2 10 10 362 392 391
787 2 2 10 10 363 364 393
788 2 2 10 10 363 393 392
789 2 2 10 10 364 365 394
790 2 2 10 10 364 394 393
791 2 2 10 10 365 366 395
792 2 2 10 10 365 395 394
793 2 2 10 10 366 367 396
794 2 2 10 10 366 396 395
795 2 2 10 10 368 369 398
796 2 2 10 10 368 398 397
797 2 2 10 10 369 370 399
798 2 2 10 10 369 399 398
799 2 2 10 10 370 371 400
800 2 2 10 10 370 400 399
801 2 2 10 10 371 372 401
802 2 2 10 10 371 401 400
803 2 2 10 10 372 373 402
804 2 2 10 10 372 402 401
805 2 2 10 10 373 374 403
806 2 2 10 10 373 403 402
807 2 2 10 10 374 375 404
808 2 2 10 10 374 404 403
809 2 2 10 10 375 376 405
810 2 2 10 10 375 405 404
811 2 2 10 10 376 377 406
812 2 2 10 10 376 406 405
813 2 2 10 10 377 378 407
814 2 2 10 10 377 407 406
815 2 2 10 10 378 379 408
816 2 2 10 10 378 408 407
817 2 2 10 10 379 380 409
818 2 2 10 10 379 409 408
819 2 2 10 10 380 381 410
820 2 2 10 10 380 410 409
821 2 2 10 10 384 385 412
822 2 2 10 10 384 412 411
823 2 2 10 10 385 386 413
824 2 2 10 10 385 413 412
825 2 2 10 10 386 387 414
826 2 2 10 10 386 414 413
827 2 2 10 10 387 388 415
828 2 2 10 10 387 415 414
829 2 2 10 10 388 389 416
830 2 2 10 10 388 416 415
831 2 2 10 10 389 390 417
832 2 2 10 10 389 417 416
833 2 2 10 10 390 391 418
834 2 2 10 10 390 418 417
835 2 2 10 10 391 392 419
836 2 2 10 10 391 419 418
837 2 2 10 10 392 393 420
838 2 2 10 10 392 420 419
839 2 2 10 10 393 394 421
840 2 2 10 10 393 421 420
841 2 2 10 10 394 395 422
842 2 2 10 10 394 422 421
843 2 2 10 10 395 396 423
844 2 2 10 10 395 423 422
$EndElements
