$MeshFormat
2.2 0 8
$EndMeshFormat
$PhysicalNames
4
1 1 "inlet"
1 2 "outlet"
1 3 "walls"
2 10 "fluid"
$EndPhysicalNames
$Nodes
1259
1 0 0.018 0
2 0.002 0.018 0
3 0.004 0.018 0
4 0.006 0.018 0
5 0.008 0.018 0
6 0.01 0.018 0
7 0.012 0.018 0
8 0.014 0.018 0
9 0.016 0.018 0
10 0.018 0.018 0
11 0.02 0.018 0
12 0.022 0.018 0
13 0.024 0.018 0
14 0.026 0.018 0
15 0.028 0.018 0
16 0.03 0.018 0
17 0.032 0.018 0
18 0.034 0.018 0
19 0.036 0.018 0
20 0.038 0.018 0
21 0.04 0.018 0
22 0.042 0.018 0
23 0.044 0.018 0
24 0.046 0.018 0
25 0.048 0.018 0
26 0.05 0.018 0
27 0.052 0.018 0
28 0.054 0.018 0
29 0.056 0.018 0
30 0.058 0.018 0
31 0.06 0.018 0
32 0.062 0.018 0
33 0.064 0.018 0
34 0.066 0.018 0
35 0.068 0.018 0
36 0.07000000000000001 0.018 0
37 0.07200000000000001 0.018 0
38 0.074 0.018 0
39 0.076 0.018 0
40 0.078 0.018 0
41 0.08 0.018 0
42 0.082 0.018 0
43 0.08400000000000001 0.018 0
44 0.08600000000000001 0.018 0
45 0.08799999999999999 0.018 0
46 0.09 0.018 0
47 0.092 0.018 0
48 0.094 0.018 0
49 0.096 0.018 0
50 0.098 0.018 0
51 0.1 0.018 0
52 0.102 0.018 0
53 0.104 0.018 0
54 0.106 0.018 0
55 0.108 0.018 0
56 0.11 0.018 0
57 0.112 0.018 0
58 0.114 0.018 0
59 0.116 0.018 0
60 0.118 0.018 0
61 0.12 0.018 0
62 0.122 0.018 0
63 0.124 0.018 0
64 0.126 0.018 0
65 0.128 0.018 0
66 0 0.02 0
67 0.002 0.02 0
68 0.004 0.02 0
69 0.006 0.02 0
70 0.008 0.02 0
71 0.01 0.02 0
72 0.012 0.02 0
73 0.014 0.02 0
74 0.016 0.02 0
75 0.018 0.02 0
76 0.02 0.02 0
77 0.022 0.02 0
78 0.024 0.02 0
79 0.026 0.02 0
80 0.028 0.02 0
81 0.03 0.02 0
82 0.032 0.02 0
83 0.034 0.02 0
84 0.036 0.02 0
85 0.038 0.02 0
86 0.04 0.02 0
87 0.042 0.02 0
88 0.044 0.02 0
89 0.046 0.02 0
90 0.048 0.02 0
91 0.05 0.02 0
92 0.052 0.02 0
93 0.054 0.02 0
94 0.056 0.02 0
95 0.058 0.02 0
96 0.06 0.02 0
97 0.062 0.02 0
98 0.064 0.02 0
99 0.066 0.02 0
100 0.068 0.02 0
101 0.07000000000000001 0.02 0
102 0.07200000000000001 0.02 0
103 0.074 0.02 0
104 0.076 0.02 0
105 0.078 0.02 0
106 0.08 0.02 0
107 0.082 0.02 0
108 0.08400000000000001 0.02 0
109 0.08600000000000001 0.02 0
110 0.08799999999999999 0.02 0
111 0.09 0.02 0
112 0.092 0.02 0
113 0.094 0.02 0
114 0.096 0.02 0
115 0.098 0.02 0
116 0.1 0.02 0
117 0.102 0.02 0
118 0.104 0.02 0
119 0.106 0.02 0
120 0.108 0.02 0
121 0.11 0.02 0
122 0.112 0.02 0
123 0.114 0.02 0
124 0.116 0.02 0
125 0.118 0.02 0
126 0.12 0.02 0
127 0.122 0.02 0
128 0.124 0.02 0
129 0.126 0.02 0
130 0.128 0.02 0
131 0 0.022 0
132 0.002 0.022 0
133 0.004 0.022 0
134 0.006 0.022 0
135 0.008 0.022 0
136 0.01 0.022 0
137 0.012 0.022 0
138 0.014 0.022 0
139 0.016 0.022 0
140 0.018 0.022 0
141 0.02 0.022 0
142 0.022 0.022 0
143 0.024 0.022 0
144 0.026 0.022 0
145 0.028 0.022 0
146 0.03 0.022 0
147 0.032 0.022 0
148 0.034 0.022 0
149 0.036 0.022 0
150 0.038 0.022 0
151 0.04 0.022 0
152 0.042 0.022 0
153 0.044 0.022 0
154 0.046 0.022 0
155 0.048 0.022 0
156 0.05 0.022 0
157 0.052 0.022 0
158 0.054 0.022 0
159 0.056 0.022 0
160 0.058 0.022 0
161 0.06 0.022 0
162 0.062 0.022 0
163 0.064 0.022 0
164 0.066 0.022 0
165 0.068 0.022 0
166 0.07000000000000001 0.022 0
167 0.07200000000000001 0.022 0
168 0.074 0.022 0
169 0.076 0.022 0
170 0.078 0.022 0
171 0.08 0.022 0
172 0.082 0.022 0
173 0.08400000000000001 0.022 0
174 0.08600000000000001 0.022 0
175 0.08799999999999999 0.022 0
176 0.09 0.022 0
177 0.092 0.022 0
178 0.094 0.022 0
179 0.096 0.022 0
180 0.098 0.022 0
181 0.1 0.022 0
182 0.102 0.022 0
183 0.104 0.022 0
184 0.106 0.022 0
185 0.108 0.022 0
186 0.11 0.022 0
187 0.112 0.022 0
188 0.114 0.022 0
189 0.116 0.022 0
190 0.118 0.022 0
191 0.12 0.022 0
192 0.122 0.022 0
193 0.124 0.022 0
194 0.126 0.022 0
195 0.128 0.022 0
196 0 0.024 0
197 0.002 0.024 0
198 0.004 0.024 0
199 0.006 0.024 0
200 0.008 0.024 0
201 0.01 0.024 0
202 0.012 0.024 0
203 0.014 0.024 0
204 0.016 0.024 0
205 0.018 0.024 0
206 0.02 0.024 0
207 0.022 0.024 0
208 0.024 0.024 0
209 0.026 0.024 0
210 0.028 0.024 0
211 0.03 0.024 0
212 0.032 0.024 0
213 0.034 0.024 0
214 0.036 0.024 0
215 0.038 0.024 0
216 0.04 0.024 0
217 0.042 0.024 0
218 0.044 0.024 0
219 0.046 0.024 0
220 0.048 0.024 0
221 0.05 0.024 0
222 0.052 0.024 0
223 0.054 0.024 0
224 0.056 0.024 0
225 0.058 0.024 0
226 0.06 0.024 0
227 0.062 0.024 0
228 0.064 0.024 0
229 0.066 0.024 0
230 0.068 0.024 0
231 0.07000000000000001 0.024 0
232 0.07200000000000001 0.024 0
233 0.074 0.024 0
234 0.076 0.024 0
235 0.078 0.024 0
236 0.08 0.024 0
237 0.082 0.024 0
238 0.08400000000000001 0.024 0
239 0.08600000000000001 0.024 0
240 0.08799999999999999 0.024 0
241 0.09 0.024 0
242 0.092 0.024 0
243 0.094 0.024 0
244 0.096 0.024 0
245 0.098 0.024 0
246 0.1 0.024 0
247 0.102 0.024 0
248 0.104 0.024 0
249 0.106 0.024 0
250 0.108 0.024 0
251 0.11 0.024 0
252 0.112 0.024 0
253 0.114 0.024 0
254 0.116 0.024 0
255 0.118 0.024 0
256 0.12 0.024 0
257 0.122 0.024 0
258 0.124 0.024 0
259 0.126 0.024 0
260 0.128 0.024 0
261 0 0.026 0
262 0.002 0.026 0
263 0.004 0.026 0
264 0.006 0.026 0
265 0.008 0.026 0
266 0.01 0.026 0
267 0.012 0.026 0
268 0.014 0.026 0
269 0.016 0.026 0
270 0.018 0.026 0
271 0.02 0.026 0
272 0.022 0.026 0
273 0.024 0.026 0
274 0.026 0.026 0
275 0.028 0.026 0
276 0.03 0.026 0
277 0.032 0.026 0
278 0.034 0.026 0
279 0.036 0.026 0
280 0.038 0.026 0
281 0.04 0.026 0
282 0.042 0.026 0
283 0.044 0.026 0
284 0.046 0.026 0
285 0.048 0.026 0
286 0.05 0.026 0
287 0.052 0.026 0
288 0.054 0.026 0
289 0.056 0.026 0
290 0.058 0.026 0
291 0.06 0.026 0
292 0.062 0.026 0
293 0.064 0.026 0
294 0.066 0.026 0
295 0.068 0.026 0
296 0.07000000000000001 0.026 0
297 0.07200000000000001 0.026 0
298 0.074 0.026 0
299 0.076 0.026 0
300 0.078 0.026 0
301 0.08 0.026 0
302 0.082 0.026 0
303 0.08400000000000001 0.026 0
304 0.08600000000000001 0.026 0
305 0.08799999999999999 0.026 0
306 0.09 0.026 0
307 0.092 0.026 0
308 0.094 0.026 0
309 0.096 0.026 0
310 0.098 0.026 0
311 0.1 0.026 0
312 0.102 0.026 0
313 0.104 0.026 0
314 0.106 0.026 0
315 0.108 0.026 0
316 0.11 0.026 0
317 0.112 0.026 0
318 0.114 0.026 0
319 0.116 0.026 0
320 0.118 0.026 0
321 0.12 0.026 0
322 0.122 0.026 0
323 0.124 0.026 0
324 0.126 0.026 0
325 0.128 0.026 0
326 0 0.028 0
327 0.002 0.028 0
328 0.004 0.028 0
329 0.006 0.028 0
330 0.008 0.028 0
331 0.01 0.028 0
332 0.012 0.028 0
333 0.014 0.028 0
334 0.016 0.028 0
335 0.018 0.028 0
336 0.02 0.028 0
337 0.022 0.028 0
338 0.024 0.028 0
339 0.026 0.028 0
340 0.028 0.028 0
341 0.03 0.028 0
342 0.032 0.028 0
343 0.034 0.028 0
344 0.036 0.028 0
345 0.038 0.028 0
346 0.04 0.028 0
347 0.042 0.028 0
348 0.044 0.028 0
349 0.046 0.028 0
350 0.048 0.028 0
351 0.05 0.028 0
352 0.052 0.028 0
353 0.054 0.028 0
354 0.056 0.028 0
355 0.058 0.028 0
356 0.06 0.028 0
357 0.062 0.028 0
358 0.064 0.028 0
359 0.066 0.028 0
360 0.068 0.028 0
361 0.07000000000000001 0.028 0
362 0.07200000000000001 0.028 0
363 0.074 0.028 0
364 0.076 0.028 0
365 0.078 0.028 0
366 0.08 0.028 0
367 0.082 0.028 0
368 0.08400000000000001 0.028 0
369 0.08600000000000001 0.028 0
370 0.08799999999999999 0.028 0
371 0.09 0.028 0
372 0.092 0.028 0
373 0.094 0.028 0
374 0.096 0.028 0
375 0.098 0.028 0
376 0.1 0.028 0
377 0.102 0.028 0
378 0.104 0.028 0
379 0.106 0.028 0
380 0.108 0.028 0
381 0.11 0.028 0
382 0.112 0.028 0
383 0.114 0.028 0
384 0.116 0.028 0
385 0.118 0.028 0
386 0.12 0.028 0
387 0.122 0.028 0
388 0.124 0.028 0
389 0.126 0.028 0
390 0.128 0.028 0
391 0 0.03 0
392 0.002 0.03 0
393 0.004 0.03 0
394 0.006 0.03 0
395 0.008 0.03 0
396 0.01 0.03 0
397 0.012 0.03 0
398 0.014 0.03 0
399 0.016 0.03 0
400 0.018 0.03 0
401 0.02 0.03 0
402 0.022 0.03 0
403 0.024 0.03 0
404 0.026 0.03 0
405 0.028 0.03 0
406 0.03 0.03 0
407 0.032 0.03 0
408 0.034 0.03 0
409 0.036 0.03 0
410 0.038 0.03 0
411 0.04 0.03 0
412 0.042 0.03 0
413 0.044 0.03 0
414 0.046 0.03 0
415 0.048 0.03 0
416 0.05 0.03 0
417 0.052 0.03 0
418 0.054 0.03 0
419 0.056 0.03 0
420 0.058 0.03 0
421 0.06 0.03 0
422 0.062 0.03 0
423 0.064 0.03 0
424 0.066 0.03 0
425 0.068 0.03 0
426 0.07000000000000001 0.03 0
427 0.07200000000000001 0.03 0
428 0.074 0.03 0
429 0.076 0.03 0
430 0.078 0.03 0
431 0.08 0.03 0
432 0.082 0.03 0
433 0.08400000000000001 0.03 0
434 0.08600000000000001 0.03 0
435 0.08799999999999999 0.03 0
436 0.09 0.03 0
437 0.092 0.03 0
438 0.094 0.03 0
439 0.096 0.03 0
440 0.098 0.03 0
441 0.1 0.03 0
442 0.102 0.03 0
443 0.104 0.03 0
444 0.106 0.03 0
445 0.108 0.03 0
446 0.11 0.03 0
447 0.112 0.03 0
448 0.114 0.03 0
449 0.116 0.03 0
450 0.118 0.03 0
451 0.12 0.03 0
452 0.122 0.03 0
453 0.124 0.03 0
454 0.126 0.03 0
455 0.128 0.03 0
456 0.046 0.032 0
457 0.048 0.032 0
458 0.05 0.032 0
459 0.052 0.032 0
460 0.054 0.032 0
461 0.056 0.032 0
462 0.058 0.032 0
463 0.06 0.032 0
464 0.062 0.032 0
465 0.048 0.034 0
466 0.05 0.034 0
467 0.052 0.034 0
468 0.054 0.034 0
469 0.056 0.034 0
470 0.058 0.034 0
471 0.06 0.034 0
472 0.062 0.034 0
473 0.064 0.034 0
474 0.048 0.036 0
475 0.05 0.036 0
476 0.052 0.036 0
477 0.054 0.036 0
478 0.056 0.036 0
479 0.058 0.036 0
480 0.06 0.036 0
481 0.062 0.036 0
482 0.064 0.036 0
483 0.05 0.038 0
484 0.052 0.038 0
485 0.054 0.038 0
486 0.056 0.038 0
487 0.058 0.038 0
488 0.06 0.038 0
489 0.062 0.038 0
490 0.064 0.038 0
491 0.066 0.038 0
492 0.052 0.04 0
493 0.054 0.04 0
494 0.056 0.04 0
495 0.058 0.04 0
496 0.06 0.04 0
497 0.062 0.04 0
498 0.064 0.04 0
499 0.066 0.04 0
500 0.068 0.04 0
501 0.054 0.042 0
502 0.056 0.042 0
503 0.058 0.042 0
504 0.06 0.042 0
505 0.062 0.042 0
506 0.064 0.042 0
507 0.066 0.042 0
508 0.068 0.042 0
509 0.07000000000000001 0.042 0
510 0.054 0.044 0
511 0.056 0.044 0
512 0.058 0.044 0
513 0.06 0.044 0
514 0.062 0.044 0
515 0.064 0.044 0
516 0.066 0.044 0
517 0.068 0.044 0
518 0.07000000000000001 0.044 0
519 0.056 0.046 0
520 0.058 0.046 0
521 0.06 0.046 0
522 0.062 0.046 0
523 0.064 0.046 0
524 0.066 0.046 0
525 0.068 0.046 0
526 0.07000000000000001 0.046 0
527 0.07200000000000001 0.046 0
528 0.058 0.048 0
529 0.06 0.048 0
530 0.062 0.048 0
531 0.064 0.048 0
532 0.066 0.048 0
533 0.068 0.048 0
534 0.07000000000000001 0.048 0
535 0.07200000000000001 0.048 0
536 0.074 0.048 0
537 0.076 0.048 0
538 0.078 0.048 0
539 0.08 0.048 0
540 0.082 0.048 0
541 0.08400000000000001 0.048 0
542 0.08600000000000001 0.048 0
543 0.08799999999999999 0.048 0
544 0.09 0.048 0
545 0.092 0.048 0
546 0.094 0.048 0
547 0.096 0.048 0
548 0.098 0.048 0
549 0.058 0.05 0
550 0.06 0.05 0
551 0.062 0.05 0
552 0.064 0.05 0
553 0.066 0.05 0
554 0.068 0.05 0
555 0.07000000000000001 0.05 0
556 0.07200000000000001 0.05 0
557 0.074 0.05 0
558 0.076 0.05 0
559 0.078 0.05 0
560 0.08 0.05 0
561 0.082 0.05 0
562 0.08400000000000001 0.05 0
563 0.08600000000000001 0.05 0
564 0.08799999999999999 0.05 0
565 0.09 0.05 0
566 0.092 0.05 0
567 0.094 0.05 0
568 0.096 0.05 0
569 0.098 0.05 0
570 0.1 0.05 0
571 0.06 0.052 0
572 0.062 0.052 0
573 0.064 0.052 0
574 0.066 0.052 0
575 0.068 0.052 0
576 0.07000000000000001 0.052 0
577 0.07200000000000001 0.052 0
578 0.074 0.052 0
579 0.076 0.052 0
580 0.078 0.052 0
581 0.08 0.052 0
582 0.082 0.052 0
583 0.08400000000000001 0.052 0
584 0.08600000000000001 0.052 0
585 0.08799999999999999 0.052 0
586 0.09 0.052 0
587 0.092 0.052 0
588 0.094 0.052 0
589 0.096 0.052 0
590 0.098 0.052 0
591 0.1 0.052 0
592 0.062 0.054 0
593 0.064 0.054 0
594 0.066 0.054 0
595 0.068 0.054 0
596 0.07000000000000001 0.054 0
597 0.07200000000000001 0.054 0
598 0.074 0.054 0
599 0.076 0.054 0
600 0.078 0.054 0
601 0.08 0.054 0
602 0.082 0.054 0
603 0.08400000000000001 0.054 0
604 0.08600000000000001 0.054 0
605 0.08799999999999999 0.054 0
606 0.09 0.054 0
607 0.092 0.054 0
608 0.094 0.054 0
609 0.096 0.054 0
610 0.098 0.054 0
611 0.1 0.054 0
612 0.064 0.056 0
613 0.066 0.056 0
614 0.068 0.056 0
615 0.07000000000000001 0.056 0
616 0.07200000000000001 0.056 0
617 0.074 0.056 0
618 0.076 0.056 0
619 0.078 0.056 0
620 0.08 0.056 0
621 0.082 0.056 0
622 0.08400000000000001 0.056 0
623 0.08600000000000001 0.056 0
624 0.08799999999999999 0.056 0
625 0.09 0.056 0
626 0.092 0.056 0
627 0.094 0.056 0
628 0.096 0.056 0
629 0.098 0.056 0
630 0.1 0.056 0
631 0.102 0.056 0
632 0.064 0.058 0
633 0.066 0.058 0
634 0.068 0.058 0
635 0.07000000000000001 0.058 0
636 0.07200000000000001 0.058 0
637 0.074 0.058 0
638 0.076 0.058 0
639 0.078 0.058 0
640 0.08 0.058 0
641 0.082 0.058 0
642 0.08400000000000001 0.058 0
643 0.08600000000000001 0.058 0
644 0.08799999999999999 0.058 0
645 0.09 0.058 0
646 0.092 0.058 0
647 0.094 0.058 0
648 0.096 0.058 0
649 0.098 0.058 0
650 0.1 0.058 0
651 0.102 0.058 0
652 0.066 0.06 0
653 0.068 0.06 0
654 0.07000000000000001 0.06 0
655 0.07200000000000001 0.06 0
656 0.074 0.06 0
657 0.076 0.06 0
658 0.078 0.06 0
659 0.08 0.06 0
660 0.082 0.06 0
661 0.08400000000000001 0.06 0
662 0.08600000000000001 0.06 0
663 0.08799999999999999 0.06 0
664 0.09 0.06 0
665 0.092 0.06 0
666 0.094 0.06 0
667 0.096 0.06 0
668 0.098 0.06 0
669 0.1 0.06 0
670 0.102 0.06 0
671 0.09 0.062 0
672 0.092 0.062 0
673 0.094 0.062 0
674 0.096 0.062 0
675 0.098 0.062 0
676 0.1 0.062 0
677 0.102 0.062 0
678 0.09 0.064 0
679 0.092 0.064 0
680 0.094 0.064 0
681 0.096 0.064 0
682 0.098 0.064 0
683 0.1 0.064 0
684 0.102 0.064 0
685 0.104 0.064 0
686 0.09 0.066 0
687 0.092 0.066 0
688 0.094 0.066 0
689 0.096 0.066 0
690 0.098 0.066 0
691 0.1 0.066 0
692 0.102 0.066 0
693 0.104 0.066 0
694 0.092 0.068 0
695 0.094 0.068 0
696 0.096 0.068 0
697 0.098 0.068 0
698 0.1 0.068 0
699 0.102 0.068 0
700 0.104 0.068 0
701 0.092 0.07000000000000001 0
702 0.094 0.07000000000000001 0
703 0.096 0.07000000000000001 0
704 0.098 0.07000000000000001 0
705 0.1 0.07000000000000001 0
706 0.102 0.07000000000000001 0
707 0.104 0.07000000000000001 0
708 0.092 0.07200000000000001 0
709 0.094 0.07200000000000001 0
710 0.096 0.07200000000000001 0
711 0.098 0.07200000000000001 0
712 0.1 0.07200000000000001 0
713 0.102 0.07200000000000001 0
714 0.104 0.07200000000000001 0
715 0.106 0.07200000000000001 0
716 0.094 0.074 0
717 0.096 0.074 0
718 0.098 0.074 0
719 0.1 0.074 0
720 0.102 0.074 0
721 0.104 0.074 0
722 0.106 0.074 0
723 0.094 0.076 0
724 0.096 0.076 0
725 0.098 0.076 0
726 0.1 0.076 0
727 0.102 0.076 0
728 0.104 0.076 0
729 0.106 0.076 0
730 0.094 0.078 0
731 0.096 0.078 0
732 0.098 0.078 0
733 0.1 0.078 0
734 0.102 0.078 0
735 0.104 0.078 0
736 0.106 0.078 0
737 0.108 0.078 0
738 0.094 0.08 0
739 0.096 0.08 0
740 0.098 0.08 0
741 0.1 0.08 0
742 0.102 0.08 0
743 0.104 0.08 0
744 0.106 0.08 0
745 0.108 0.08 0
746 0.096 0.082 0
747 0.098 0.082 0
748 0.1 0.082 0
749 0.102 0.082 0
750 0.104 0.082 0
751 0.106 0.082 0
752 0.108 0.082 0
753 0.096 0.08400000000000001 0
754 0.098 0.08400000000000001 0
755 0.1 0.08400000000000001 0
756 0.102 0.08400000000000001 0
757 0.104 0.08400000000000001 0
758 0.106 0.08400000000000001 0
759 0.108 0.08400000000000001 0
760 0.096 0.08600000000000001 0
761 0.098 0.08600000000000001 0
762 0.1 0.08600000000000001 0
763 0.102 0.08600000000000001 0
764 0.104 0.08600000000000001 0
765 0.106 0.08600000000000001 0
766 0.108 0.08600000000000001 0
767 0.11 0.08600000000000001 0
768 0.098 0.08799999999999999 0
769 0.1 0.08799999999999999 0
770 0.102 0.08799999999999999 0
771 0.104 0.08799999999999999 0
772 0.106 0.08799999999999999 0
773 0.108 0.08799999999999999 0
774 0.11 0.08799999999999999 0
775 0.098 0.09 0
776 0.1 0.09 0
777 0.102 0.09 0
778 0.104 0.09 0
779 0.106 0.09 0
780 0.108 0.09 0
781 0.11 0.09 0
782 0.098 0.092 0
783 0.1 0.092 0
784 0.102 0.092 0
785 0.104 0.092 0
786 0.106 0.092 0
787 0.108 0.092 0
788 0.11 0.092 0
789 0.112 0.092 0
790 0.098 0.094 0
791 0.1 0.094 0
792 0.102 0.094 0
793 0.104 0.094 0
794 0.106 0.094 0
795 0.108 0.094 0
796 0.11 0.094 0
797 0.112 0.094 0
798 0.1 0.096 0
799 0.102 0.096 0
800 0.104 0.096 0
801 0.106 0.096 0
802 0.108 0.096 0
803 0.11 0.096 0
804 0.112 0.096 0
805 0 0.098 0
806 0.002 0.098 0
807 0.004 0.098 0
808 0.006 0.098 0
809 0.008 0.098 0
810 0.01 0.098 0
811 0.012 0.098 0
812 0.014 0.098 0
813 0.016 0.098 0
814 0.018 0.098 0
815 0.02 0.098 0
816 0.022 0.098 0
817 0.024 0.098 0
818 0.026 0.098 0
819 0.028 0.098 0
820 0.03 0.098 0
821 0.032 0.098 0
822 0.034 0.098 0
823 0.036 0.098 0
824 0.038 0.098 0
825 0.04 0.098 0
826 0.042 0.098 0
827 0.044 0.098 0
828 0.046 0.098 0
829 0.048 0.098 0
830 0.05 0.098 0
831 0.052 0.098 0
832 0.054 0.098 0
833 0.056 0.098 0
834 0.058 0.098 0
835 0.06 0.098 0
836 0.062 0.098 0
837 0.064 0.098 0
838 0.066 0.098 0
839 0.068 0.098 0
840 0.07000000000000001 0.098 0
841 0.07200000000000001 0.098 0
842 0.074 0.098 0
843 0.076 0.098 0
844 0.078 0.098 0
845 0.08 0.098 0
846 0.082 0.098 0
847 0.08400000000000001 0.098 0
848 0.08600000000000001 0.098 0
849 0.08799999999999999 0.098 0
850 0.09 0.098 0
851 0.092 0.098 0
852 0.094 0.098 0
853 0.096 0.098 0
854 0.098 0.098 0
855 0.1 0.098 0
856 0.102 0.098 0
857 0.104 0.098 0
858 0.106 0.098 0
859 0.108 0.098 0
860 0.11 0.098 0
861 0.112 0.098 0
862 0.114 0.098 0
863 0.116 0.098 0
864 0.118 0.098 0
865 0.12 0.098 0
866 0.122 0.098 0
867 0.124 0.098 0
868 0.126 0.098 0
869 0.128 0.098 0
870 0 0.1 0
871 0.002 0.1 0
872 0.004 0.1 0
873 0.006 0.1 0
874 0.008 0.1 0
875 0.01 0.1 0
876 0.012 0.1 0
877 0.014 0.1 0
878 0.016 0.1 0
879 0.018 0.1 0
880 0.02 0.1 0
881 0.022 0.1 0
882 0.024 0.1 0
883 0.026 0.1 0
884 0.028 0.1 0
885 0.03 0.1 0
886 0.032 0.1 0
887 0.034 0.1 0
888 0.036 0.1 0
889 0.038 0.1 0
890 0.04 0.1 0
891 0.042 0.1 0
892 0.044 0.1 0
893 0.046 0.1 0
894 0.048 0.1 0
895 0.05 0.1 0
896 0.052 0.1 0
897 0.054 0.1 0
898 0.056 0.1 0
899 0.058 0.1 0
900 0.06 0.1 0
901 0.062 0.1 0
902 0.064 0.1 0
903 0.066 0.1 0
904 0.068 0.1 0
905 0.07000000000000001 0.1 0
906 0.07200000000000001 0.1 0
907 0.074 0.1 0
908 0.076 0.1 0
909 0.078 0.1 0
910 0.08 0.1 0
911 0.082 0.1 0
912 0.08400000000000001 0.1 0
913 0.08600000000000001 0.1 0
914 0.08799999999999999 0.1 0
915 0.09 0.1 0
916 0.092 0.1 0
917 0.094 0.1 0
918 0.096 0.1 0
919 0.098 0.1 0
920 0.1 0.1 0
921 0.102 0.1 0
922 0.104 0.1 0
923 0.106 0.1 0
924 0.108 0.1 0
925 0.11 0.1 0
926 0.112 0.1 0
927 0.114 0.1 0
928 0.116 0.1 0
929 0.118 0.1 0
930 0.12 0.1 0
931 0.122 0.1 0
932 0.124 0.1 0
933 0.126 0.1 0
934 0.128 0.1 0
935 0 0.102 0
936 0.002 0.102 0
937 0.004 0.102 0
938 0.006 0.102 0
939 0.008 0.102 0
940 0.01 0.102 0
941 0.012 0.102 0
942 0.014 0.102 0
943 0.016 0.102 0
944 0.018 0.102 0
945 0.02 0.102 0
946 0.022 0.102 0
947 0.024 0.102 0
948 0.026 0.102 0
949 0.028 0.102 0
950 0.03 0.102 0
951 0.032 0.102 0
952 0.034 0.102 0
953 0.036 0.102 0
954 0.038 0.102 0
955 0.04 0.102 0
956 0.042 0.102 0
957 0.044 0.102 0
958 0.046 0.102 0
959 0.048 0.102 0
960 0.05 0.102 0
961 0.052 0.102 0
962 0.054 0.102 0
963 0.056 0.102 0
964 0.058 0.102 0
965 0.06 0.102 0
966 0.062 0.102 0
967 0.064 0.102 0
968 0.066 0.102 0
969 0.068 0.102 0
970 0.07000000000000001 0.102 0
971 0.07200000000000001 0.102 0
972 0.074 0.102 0
973 0.076 0.102 0
974 0.078 0.102 0
975 0.08 0.102 0
976 0.082 0.102 0
977 0.08400000000000001 0.102 0
978 0.08600000000000001 0.102 0
979 0.08799999999999999 0.102 0
980 0.09 0.102 0
981 0.092 0.102 0
982 0.094 0.102 0
983 0.096 0.102 0
984 0.098 0.102 0
985 0.1 0.102 0
986 0.102 0.102 0
987 0.104 0.102 0
988 0.106 0.102 0
989 0.108 0.102 0
990 0.11 0.102 0
991 0.112 0.102 0
992 0.114 0.102 0
993 0.116 0.102 0
994 0.118 0.102 0
995 0.12 0.102 0
996 0.122 0.102 0
997 0.124 0.102 0
998 0.126 0.102 0
999 0.128 0.102 0
1000 0 0.104 0
1001 0.002 0.104 0
1002 0.004 0.104 0
1003 0.006 0.104 0
1004 0.008 0.104 0
1005 0.01 0.104 0
1006 0.012 0.104 0
1007 0.014 0.104 0
1008 0.016 0.104 0
1009 0.018 0.104 0
1010 0.02 0.104 0
1011 0.022 0.104 0
1012 0.024 0.104 0
1013 0.026 0.104 0
1014 0.028 0.104 0
1015 0.03 0.104 0
1016 0.032 0.104 0
1017 0.034 0.104 0
1018 0.036 0.104 0
1019 0.038 0.104 0
1020 0.04 0.104 0
1021 0.042 0.104 0
1022 0.044 0.104 0
1023 0.046 0.104 0
1024 0.048 0.104 0
1025 0.05 0.104 0
1026 0.052 0.104 0
1027 0.054 0.104 0
1028 0.056 0.104 0
1029 0.058 0.104 0
1030 0.06 0.104 0
1031 0.062 0.104 0
1032 0.064 0.104 0
1033 0.066 0.104 0
1034 0.068 0.104 0
1035 0.07000000000000001 0.104 0
1036 0.07200000000000001 0.104 0
1037 0.074 0.104 0
1038 0.076 0.104 0
1039 0.078 0.104 0
1040 0.08 0.104 0
1041 0.082 0.104 0
1042 0.08400000000000001 0.104 0
1043 0.08600000000000001 0.104 0
1044 0.08799999999999999 0.104 0
1045 0.09 0.104 0
1046 0.092 0.104 0
1047 0.094 0.104 0
1048 0.096 0.104 0
1049 0.098 0.104 0
1050 0.1 0.104 0
1051 0.102 0.104 0
1052 0.104 0.104 0
1053 0.106 0.104 0
1054 0.108 0.104 0
1055 0.11 0.104 0
1056 0.112 0.104 0
1057 0.114 0.104 0
1058 0.116 0.104 0
1059 0.118 0.104 0
1060 0.12 0.104 0
1061 0.122 0.104 0
1062 0.124 0.104 0
1063 0.126 0.104 0
1064 0.128 0.104 0
1065 0 0.106 0
1066 0.002 0.106 0
1067 0.004 0.106 0
1068 0.006 0.106 0
1069 0.008 0.106 0
1070 0.01 0.106 0
1071 0.012 0.106 0
1072 0.014 0.106 0
1073 0.016 0.106 0
1074 0.018 0.106 0
1075 0.02 0.106 0
1076 0.022 0.106 0
1077 0.024 0.106 0
1078 0.026 0.106 0
1079 0.028 0.106 0
1080 0.03 0.106 0
1081 0.032 0.106 0
1082 0.034 0.106 0
1083 0.036 0.106 0
1084 0.038 0.106 0
1085 0.04 0.106 0
1086 0.042 0.106 0
1087 0.044 0.106 0
1088 0.046 0.106 0
1089 0.048 0.106 0
1090 0.05 0.106 0
1091 0.052 0.106 0
1092 0.054 0.106 0
1093 0.056 0.106 0
1094 0.058 0.106 0
1095 0.06 0.106 0
1096 0.062 0.106 0
1097 0.064 0.106 0
1098 0.066 0.106 0
1099 0.068 0.106 0
1100 0.07000000000000001 0.106 0
1101 0.07200000000000001 0.106 0
1102 0.074 0.106 0
1103 0.076 0.106 0
1104 0.078 0.106 0
1105 0.08 0.106 0
1106 0.082 0.106 0
1107 0.08400000000000001 0.106 0
1108 0.08600000000000001 0.106 0
1109 0.08799999999999999 0.106 0
1110 0.09 0.106 0
1111 0.092 0.106 0
1112 0.094 0.106 0
1113 0.096 0.106 0
1114 0.098 0.106 0
1115 0.1 0.106 0
1116 0.102 0.106 0
1117 0.104 0.106 0
1118 0.106 0.106 0
1119 0.108 0.106 0
1120 0.11 0.106 0
1121 0.112 0.106 0
1122 0.114 0.106 0
1123 0.116 0.106 0
1124 0.118 0.106 0
1125 0.12 0.106 0
1126 0.122 0.106 0
1127 0.124 0.106 0
1128 0.126 0.106 0
1129 0.128 0.106 0
1130 0 0.108 0
1131 0.002 0.108 0
1132 0.004 0.108 0
1133 0.006 0.108 0
1134 0.008 0.108 0
1135 0.01 0.108 0
1136 0.012 0.108 0
1137 0.014 0.108 0
1138 0.016 0.108 0
1139 0.018 0.108 0
1140 0.02 0.108 0
1141 0.022 0.108 0
1142 0.024 0.108 0
1143 0.026 0.108 0
1144 0.028 0.108 0
1145 0.03 0.108 0
1146 0.032 0.108 0
1147 0.034 0.108 0
1148 0.036 0.108 0
1149 0.038 0.108 0
1150 0.04 0.108 0
1151 0.042 0.108 0
1152 0.044 0.108 0
1153 0.046 0.108 0
1154 0.048 0.108 0
1155 0.05 0.108 0
1156 0.052 0.108 0
1157 0.054 0.108 0
1158 0.056 0.108 0
1159 0.058 0.108 0
1160 0.06 0.108 0
1161 0.062 0.108 0
1162 0.064 0.108 0
1163 0.066 0.108 0
1164 0.068 0.108 0
1165 0.07000000000000001 0.108 0
1166 0.07200000000000001 0.108 0
1167 0.074 0.108 0
1168 0.076 0.108 0
1169 0.078 0.108 0
1170 0.08 0.108 0
1171 0.082 0.108 0
1172 0.08400000000000001 0.108 0
1173 0.08600000000000001 0.108 0
1174 0.08799999999999999 0.108 0
1175 0.09 0.108 0
1176 0.092 0.108 0
1177 0.094 0.108 0
1178 0.096 0.108 0
1179 0.098 0.108 0
1180 0.1 0.108 0
1181 0.102 0.108 0
1182 0.104 0.108 0
1183 0.106 0.108 0
1184 0.108 0.108 0
1185 0.11 0.108 0
1186 0.112 0.108 0
1187 0.114 0.108 0
1188 0.116 0.108 0
1189 0.118 0.108 0
1190 0.12 0.108 0
1191 0.122 0.108 0
1192 0.124 0.108 0
1193 0.126 0.108 0
1194 0.128 0.108 0
1195 0 0.11 0
1196 0.002 0.11 0
1197 0.004 0.11 0
1198 0.006 0.11 0
1199 0.008 0.11 0
1200 0.01 0.11 0
1201 0.012 0.11 0
1202 0.014 0.11 0
1203 0.016 0.11 0
1204 0.018 0.11 0
1205 0.02 0.11 0
1206 0.022 0.11 0
1207 0.024 0.11 0
1208 0.026 0.11 0
1209 0.028 0.11 0
1210 0.03 0.11 0
1211 0.032 0.11 0
1212 0.034 0.11 0
1213 0.036 0.11 0
1214 0.038 0.11 0
1215 0.04 0.11 0
1216 0.042 0.11 0
1217 0.044 0.11 0
1218 0.046 0.11 0
1219 0.048 0.11 0
1220 0.05 0.11 0
1221 0.052 0.11 0
1222 0.054 0.11 0
1223 0.056 0.11 0
1224 0.058 0.11 0
1225 0.06 0.11 0
1226 0.062 0.11 0
1227 0.064 0.11 0
1228 0.066 0.11 0
1229 0.068 0.11 0
1230 0.07000000000000001 0.11 0
1231 0.07200000000000001 0.11 0
1232 0.074 0.11 0
1233 0.076 0.11 0
1234 0.078 0.11 0
1235 0.08 0.11 0
1236 0.082 0.11 0
1237 0.08400000000000001 0.11 0
1238 0.08600000000000001 0.11 0
1239 0.08799999999999999 0.11 0
1240 0.09 0.11 0
1241 0.092 0.11 0
1242 0.094 0.11 0
1243 0.096 0.11 0
1244 0.098 0.11 0
1245 0.1 0.11 0
1246 0.102 0.11 0
1247 0.104 0.11 0
1248 0.106 0.11 0
1249 0.108 0.11 0
1250 0.11 0.11 0
1251 0.112 0.11 0
1252 0.114 0.11 0
1253 0.116 0.11 0
1254 0.118 0.11 0
1255 0.12 0.11 0
1256 0.122 0.11 0
1257 0.124 0.11 0
1258 0.126 0.11 0
1259 0.128 0.11 0
$EndNodes
$Elements
2516
1 1 2 3 3 1 2
2 1 2 1 1 1 66
3 1 2 3 3 2 3
4 1 2 3 3 3 4
5 1 2 3 3 4 5
6 1 2 3 3 5 6
7 1 2 3 3 6 7
8 1 2 3 3 7 8
9 1 2 3 3 8 9
10 1 2 3 3 9 10
11 1 2 3 3 10 11
12 1 2 3 3 11 12
13 1 2 3 3 12 13
14 1 2 3 3 13 14
15 1 2 3 3 14 15
16 1 2 3 3 15 16
17 1 2 3 3 16 17
18 1 2 3 3 17 18
19 1 2 3 3 18 19
20 1 2 3 3 19 20
21 1 2 3 3 20 21
22 1 2 3 3 21 22
23 1 2 3 3 22 23
24 1 2 3 3 23 24
25 1 2 3 3 24 25
26 1 2 3 3 25 26
27 1 2 3 3 26 27
28 1 2 3 3 27 28
29 1 2 3 3 28 29
30 1 2 3 3 29 30
31 1 2 3 3 30 31
32 1 2 3 3 31 32
33 1 2 3 3 32 33
34 1 2 3 3 33 34
35 1 2 3 3 34 35
36 1 2 3 3 35 36
37 1 2 3 3 36 37
38 1 2 3 3 37 38
39 1 2 3 3 38 39
40 1 2 3 3 39 40
41 1 2 3 3 40 41
42 1 2 3 3 41 42
43 1 2 3 3 42 43
44 1 2 3 3 43 44
45 1 2 3 3 44 45
46 1 2 3 3 45 46
47 1 2 3 3 46 47
48 1 2 3 3 47 48
49 1 2 3 3 48 49
50 1 2 3 3 49 50
51 1 2 3 3 50 51
52 1 2 3 3 51 52
53 1 2 3 3 52 53
54 1 2 3 3 53 54
55 1 2 3 3 54 55
56 1 2 3 3 55 56
57 1 2 3 3 56 57
58 1 2 3 3 57 58
59 1 2 3 3 58 59
60 1 2 3 3 59 60
61 1 2 3 3 60 61
62 1 2 3 3 61 62
63 1 2 3 3 62 63
64 1 2 3 3 63 64
65 1 2 3 3 64 65
66 1 2 2 2 65 130
67 1 2 1 1 66 131
68 1 2 2 2 130 195
69 1 2 1 1 131 196
70 1 2 2 2 195 260
71 1 2 1 1 196 261
72 1 2 2 2 260 325
73 1 2 1 1 261 326
74 1 2 2 2 325 390
75 1 2 3 3 391 392
76 1 2 1 1 326 391
77 1 2 3 3 392 393
78 1 2 3 3 393 394
79 1 2 3 3 394 395
80 1 2 3 3 395 396
81 1 2 3 3 396 397
82 1 2 3 3 397 398
83 1 2 3 3 398 399
84 1 2 3 3 399 400
85 1 2 3 3 400 401
86 1 2 3 3 401 402
87 1 2 3 3 402 403
88 1 2 3 3 403 404
89 1 2 3 3 404 405
90 1 2 3 3 405 406
91 1 2 3 3 406 407
92 1 2 3 3 407 408
93 1 2 3 3 408 409
94 1 2 3 3 409 410
95 1 2 3 3 410 411
96 1 2 3 3 411 412
97 1 2 3 3 412 413
98 1 2 3 3 413 414
99 1 2 3 3 421 422
100 1 2 3 3 422 423
101 1 2 3 3 423 424
102 1 2 3 3 424 425
103 1 2 3 3 425 426
104 1 2 3 3 426 427
105 1 2 3 3 427 428
106 1 2 3 3 428 429
107 1 2 3 3 429 430
108 1 2 3 3 430 431
109 1 2 3 3 431 432
110 1 2 3 3 432 433
111 1 2 3 3 433 434
112 1 2 3 3 434 435
113 1 2 3 3 435 436
114 1 2 3 3 436 437
115 1 2 3 3 437 438
116 1 2 3 3 438 439
117 1 2 3 3 439 440
118 1 2 3 3 440 441
119 1 2 3 3 441 442
120 1 2 3 3 442 443
121 1 2 3 3 443 444
122 1 2 3 3 444 445
123 1 2 3 3 445 446
124 1 2 3 3 446 447
125 1 2 3 3 447 448
126 1 2 3 3 448 449
127 1 2 3 3 449 450
128 1 2 3 3 450 451
129 1 2 3 3 451 452
130 1 2 3 3 452 453
131 1 2 3 3 453 454
132 1 2 2 2 390 455
133 1 2 3 3 454 455
134 1 2 3 3 456 457
135 1 2 3 3 414 456
136 1 2 3 3 421 463
137 1 2 3 3 457 465
138 1 2 3 3 463 464
139 1 2 3 3 464 472
140 1 2 3 3 474 475
141 1 2 3 3 465 474
142 1 2 3 3 472 473
143 1 2 3 3 473 482
144 1 2 3 3 483 484
145 1 2 3 3 475 483
146 1 2 3 3 482 490
147 1 2 3 3 492 493
148 1 2 3 3 484 492
149 1 2 3 3 490 491
150 1 2 3 3 491 499
151 1 2 3 3 493 501
152 1 2 3 3 499 500
153 1 2 3 3 500 508
154 1 2 3 3 510 511
155 1 2 3 3 501 510
156 1 2 3 3 508 509
157 1 2 3 3 509 518
158 1 2 3 3 519 520
159 1 2 3 3 511 519
160 1 2 3 3 518 526
161 1 2 3 3 520 528
162 1 2 3 3 526 527
163 1 2 3 3 527 535
164 1 2 3 3 549 550
165 1 2 3 3 528 549
166 1 2 3 3 535 536
167 1 2 3 3 536 537
168 1 2 3 3 537 538
169 1 2 3 3 538 539
170 1 2 3 3 539 540
171 1 2 3 3 540 541
172 1 2 3 3 541 542
173 1 2 3 3 542 543
174 1 2 3 3 543 544
175 1 2 3 3 544 545
176 1 2 3 3 545 546
177 1 2 3 3 546 547
178 1 2 3 3 547 548
179 1 2 3 3 548 569
180 1 2 3 3 571 572
181 1 2 3 3 550 571
182 1 2 3 3 569 570
183 1 2 3 3 570 591
184 1 2 3 3 592 593
185 1 2 3 3 572 592
186 1 2 3 3 591 611
187 1 2 3 3 593 612
188 1 2 3 3 611 630
189 1 2 3 3 632 633
190 1 2 3 3 612 632
191 1 2 3 3 630 631
192 1 2 3 3 631 651
193 1 2 3 3 652 653
194 1 2 3 3 633 652
195 1 2 3 3 653 654
196 1 2 3 3 654 655
197 1 2 3 3 655 656
198 1 2 3 3 656 657
199 1 2 3 3 657 658
200 1 2 3 3 658 659
201 1 2 3 3 659 660
202 1 2 3 3 660 661
203 1 2 3 3 661 662
204 1 2 3 3 662 663
205 1 2 3 3 663 664
206 1 2 3 3 651 670
207 1 2 3 3 664 671
208 1 2 3 3 670 677
209 1 2 3 3 671 678
210 1 2 3 3 677 684
211 1 2 3 3 686 687
212 1 2 3 3 678 686
213 1 2 3 3 684 685
214 1 2 3 3 685 693
215 1 2 3 3 687 694
216 1 2 3 3 693 700
217 1 2 3 3 694 701
218 1 2 3 3 700 707
219 1 2 3 3 708 709
220 1 2 3 3 701 708
221 1 2 3 3 707 714
222 1 2 3 3 709 716
223 1 2 3 3 714 715
224 1 2 3 3 715 722
225 1 2 3 3 716 723
226 1 2 3 3 722 729
227 1 2 3 3 723 730
228 1 2 3 3 729 736
229 1 2 3 3 738 739
230 1 2 3 3 730 738
231 1 2 3 3 736 737
232 1 2 3 3 737 745
233 1 2 3 3 739 746
234 1 2 3 3 745 752
235 1 2 3 3 746 753
236 1 2 3 3 752 759
237 1 2 3 3 760 761
238 1 2 3 3 753 760
239 1 2 3 3 759 766
240 1 2 3 3 761 768
241 1 2 3 3 766 767
242 1 2 3 3 767 774
243 1 2 3 3 768 775
244 1 2 3 3 774 781
245 1 2 3 3 775 782
246 1 2 3 3 781 788
247 1 2 3 3 790 791
248 1 2 3 3 782 790
249 1 2 3 3 788 789
250 1 2 3 3 789 797
251 1 2 3 3 791 798
252 1 2 3 3 797 804
253 1 2 3 3 798 855
254 1 2 3 3 804 861
255 1 2 3 3 805 806
256 1 2 1 1 805 870
257 1 2 3 3 806 807
258 1 2 3 3 807 808
259 1 2 3 3 808 809
260 1 2 3 3 809 810
261 1 2 3 3 810 811
262 1 2 3 3 811 812
263 1 2 3 3 812 813
264 1 2 3 3 813 814
265 1 2 3 3 814 815
266 1 2 3 3 815 816
267 1 2 3 3 816 817
268 1 2 3 3 817 818
269 1 2 3 3 818 819
270 1 2 3 3 819 820
271 1 2 3 3 820 821
272 1 2 3 3 821 822
273 1 2 3 3 822 823
274 1 2 3 3 823 824
275 1 2 3 3 824 825
276 1 2 3 3 825 826
277 1 2 3 3 826 827
278 1 2 3 3 827 828
279 1 2 3 3 828 829
280 1 2 3 3 829 830
281 1 2 3 3 830 831
282 1 2 3 3 831 832
283 1 2 3 3 832 833
284 1 2 3 3 833 834
285 1 2 3 3 834 835
286 1 2 3 3 835 836
287 1 2 3 3 836 837
288 1 2 3 3 837 838
289 1 2 3 3 838 839
290 1 2 3 3 839 840
291 1 2 3 3 840 841
292 1 2 3 3 841 842
293 1 2 3 3 842 843
294 1 2 3 3 843 844
295 1 2 3 3 844 845
296 1 2 3 3 845 846
297 1 2 3 3 846 847
298 1 2 3 3 847 848
299 1 2 3 3 848 849
300 1 2 3 3 849 850
301 1 2 3 3 850 851
302 1 2 3 3 851 852
303 1 2 3 3 852 853
304 1 2 3 3 853 854
305 1 2 3 3 854 855
306 1 2 3 3 861 862
307 1 2 3 3 862 863
308 1 2 3 3 863 864
309 1 2 3 3 864 865
310 1 2 3 3 865 866
311 1 2 3 3 866 867
312 1 2 3 3 867 868
313 1 2 3 3 868 869
314 1 2 2 2 869 934
315 1 2 1 1 870 935
316 1 2 2 2 934 999
317 1 2 1 1 935 1000
318 1 2 2 2 999 1064
319 1 2 1 1 1000 1065
320 1 2 2 2 1064 1129
321 1 2 1 1 1065 1130
322 1 2 2 2 1129 1194
323 1 2 3 3 1195 1196
324 1 2 1 1 1130 1195
325 1 2 3 3 1196 1197
326 1 2 3 3 1197 1198
327 1 2 3 3 1198 1199
328 1 2 3 3 1199 1200
329 1 2 3 3 1200 1201
330 1 2 3 3 1201 1202
331 1 2 3 3 1202 1203
332 1 2 3 3 1203 1204
333 1 2 3 3 1204 1205
334 1 2 3 3 1205 1206
335 1 2 3 3 1206 1207
336 1 2 3 3 1207 1208
337 1 2 3 3 1208 1209
338 1 2 3 3 1209 1210
339 1 2 3 3 1210 1211
340 1 2 3 3 1211 1212
341 1 2 3 3 1212 1213
342 1 2 3 3 1213 1214
343 1 2 3 3 1214 1215
344 1 2 3 3 1215 1216
345 1 2 3 3 1216 1217
346 1 2 3 3 1217 1218
347 1 2 3 3 1218 1219
348 1 2 3 3 1219 1220
349 1 2 3 3 1220 1221
350 1 2 3 3 1221 1222
351 1 2 3 3 1222 1223
352 1 2 3 3 1223 1224
353 1 2 3 3 1224 1225
354 1 2 3 3 1225 1226
355 1 2 3 3 1226 1227
356 1 2 3 3 1227 1228
357 1 2 3 3 1228 1229
358 1 2 3 3 1229 1230
359 1 2 3 3 1230 1231
360 1 2 3 3 1231 1232
361 1 2 3 3 1232 1233
362 1 2 3 3 1233 1234
363 1 2 3 3 1234 1235
364 1 2 3 3 1235 1236
365 1 2 3 3 1236 1237
366 1 2 3 3 1237 1238
367 1 2 3 3 1238 1239
368 1 2 3 3 1239 1240
369 1 2 3 3 1240 1241
370 1 2 3 3 1241 1242
371 1 2 3 3 1242 1243
372 1 2 3 3 1243 1244
373 1 2 3 3 1244 1245
374 1 2 3 3 1245 1246
375 1 2 3 3 1246 1247
376 1 2 3 3 1247 1248
377 1 2 3 3 1248 1249
378 1 2 3 3 1249 1250
379 1 2 3 3 1250 1251
380 1 2 3 3 1251 1252
381 1 2 3 3 1252 1253
382 1 2 3 3 1253 1254
383 1 2 3 3 1254 1255
384 1 2 3 3 1255 1256
385 1 2 3 3 1256 1257
386 1 2 3 3 1257 1258
387 1 2 2 2 1194 1259
388 1 2 3 3 1258 1259
389 2 2 10 10 1 2 67
390 2 2 10 10 1 67 66
391 2 2 10 10 2 3 68
392 2 2 10 10 2 68 67
393 2 2 10 10 3 4 69
394 2 2 10 10 3 69 68
395 2 2 10 10 4 5 70
396 2 2 10 10 4 70 69
397 2 2 10 10 5 6 71
398 2 2 10 10 5 71 70
399 2 2 10 10 6 7 72
400 2 2 10 10 6 72 71
401 2 2 10 10 7 8 73
402 2 2 10 10 7 73 72
403 2 2 10 10 8 9 74
404 2 2 10 10 8 74 73
405 2 2 10 10 9 10 75
406 2 2 10 10 9 75 74
407 2 2 10 10 10 11 76
408 2 2 10 10 10 76 75
409 2 2 10 10 11 12 77
410 2 2 10 10 11 77 76
411 2 2 10 10 12 13 78
412 2 2 10 10 12 78 77
413 2 2 10 10 13 14 79
414 2 2 10 10 13 79 78
415 2 2 10 10 14 15 80
416 2 2 10 10 14 80 79
417 2 2 10 10 15 16 81
418 2 2 10 10 15 81 80
419 2 2 10 10 16 17 82
420 2 2 10 10 16 82 81
421 2 2 10 10 17 18 83
422 2 2 10 10 17 83 82
423 2 2 10 10 18 19 84
424 2 2 10 10 18 84 83
425 2 2 10 10 19 20 85
426 2 2 10 10 19 85 84
427 2 2 10 10 20 21 86
428 2 2 10 10 20 86 85
429 2 2 10 10 21 22 87
430 2 2 10 10 21 87 86
431 2 2 10 10 22 23 88
432 2 2 10 10 22 88 87
433 2 2 10 10 23 24 89
434 2 2 10 10 23 89 88
435 2 2 10 10 24 25 90
436 2 2 10 10 24 90 89
437 2 2 10 10 25 26 91
438 2 2 10 10 25 91 90
439 2 2 10 10 26 27 92
440 2 2 10 10 26 92 91
441 2 2 10 10 27 28 93
442 2 2 10 10 27 93 92
443 2 2 10 10 28 29 94
444 2 2 10 10 28 94 93
445 2 2 10 10 29 30 95
446 2 2 10 10 29 95 94
447 2 2 10 10 30 31 96
448 2 2 10 10 30 96 95
449 2 2 10 10 31 32 97
450 2 2 10 10 31 97 96
451 2 2 10 10 32 33 98
452 2 2 10 10 32 98 97
453 2 2 10 10 33 34 99
454 2 2 10 10 33 99 98
455 2 2 10 10 34 35 100
456 2 2 10 10 34 100 99
457 2 2 10 10 35 36 101
458 2 2 10 10 35 101 100
459 2 2 10 10 36 37 102
460 2 2 10 10 36 102 101
461 2 2 10 10 37 38 103
462 2 2 10 10 37 103 102
463 2 2 10 10 38 39 104
464 2 2 10 10 38 104 103
465 2 2 10 10 39 40 105
466 2 2 10 10 39 105 104
467 2 2 10 10 40 41 106
468 2 2 10 10 40 106 105
469 2 2 10 10 41 42 107
470 2 2 10 10 41 107 106
471 2 2 10 10 42 43 108
472 2 2 10 10 42 108 107
473 2 2 10 10 43 44 109
474 2 2 10 10 43 109 108
475 2 2 10 10 44 45 110
476 2 2 10 10 44 110 109
477 2 2 10 10 45 46 111
478 2 2 10 10 45 111 110
479 2 2 10 10 46 47 112
480 2 2 10 10 46 112 111
481 2 2 10 10 47 48 113
482 2 2 10 10 47 113 112
483 2 2 10 10 48 49 114
484 2 2 10 10 48 114 113
485 2 2 10 10 49 50 115
486 2 2 10 10 49 115 114
487 2 2 10 10 50 51 116
488 2 2 10 10 50 116 115
489 2 2 10 10 51 52 117
490 2 2 10 10 51 117 116
491 2 2 10 10 52 53 118
492 2 2 10 10 52 118 117
493 2 2 10 10 53 54 119
494 2 2 10 10 53 119 118
495 2 2 10 10 54 55 120
496 2 2 10 10 54 120 119
497 2 2 10 10 55 56 121
498 2 2 10 10 55 121 120
499 2 2 10 10 56 57 122
500 2 2 10 10 56 122 121
501 2 2 10 10 57 58 123
502 2 2 10 10 57 123 122
503 2 2 10 10 58 59 124
504 2 2 10 10 58 124 123
505 2 2 10 10 59 60 125
506 2 2 10 10 59 125 124
507 2 2 10 10 60 61 126
508 2 2 10 10 60 126 125
509 2 2 10 10 61 62 127
510 2 2 10 10 61 127 126
511 2 2 10 10 62 63 128
512 2 2 10 10 62 128 127
513 2 2 10 10 63 64 129
514 2 2 10 10 63 129 128
515 2 2 10 10 64 65 130
516 2 2 10 10 64 130 129
517 2 2 10 10 66 67 132
518 2 2 10 10 66 132 131
519 2 2 10 10 67 68 133
520 2 2 10 10 67 133 132
521 2 2 10 10 68 69 134
522 2 2 10 10 68 134 133
523 2 2 10 10 69 70 135
524 2 2 10 10 69 135 134
525 2 2 10 10 70 71 136
526 2 2 10 10 70 136 135
527 2 2 10 10 71 72 137
528 2 2 10 10 71 137 136
529 2 2 10 10 72 73 138
530 2 2 10 10 72 138 137
531 2 2 10 10 73 74 139
532 2 2 10 10 73 139 138
533 2 2 10 10 74 75 140
534 2 2 10 10 74 140 139
535 2 2 10 10 75 76 141
536 2 2 10 10 75 141 140
537 2 2 10 10 76 77 142
538 2 2 10 10 76 142 141
539 2 2 10 10 77 78 143
540 2 2 10 10 77 143 142
541 2 2 10 10 78 79 144
542 2 2 10 10 78 144 143
543 2 2 10 10 79 80 145
544 2 2 10 10 79 145 144
545 2 2 10 10 80 81 146
546 2 2 10 10 80 146 145
547 2 2 10 10 81 82 147
548 2 2 10 10 81 147 146
549 2 2 10 10 82 83 148
550 2 2 10 10 82 148 147
551 2 2 10 10 83 84 149
552 2 2 10 10 83 149 148
553 2 2 10 10 84 85 150
554 2 2 10 10 84 150 149
555 2 2 10 10 85 86 151
556 2 2 10 10 85 151 150
557 2 2 10 10 86 87 152
558 2 2 10 10 86 152 151
559 2 2 10 10 87 88 153
560 2 2 10 10 87 153 152
561 2 2 10 10 88 89 154
562 2 2 10 10 88 154 153
563 2 2 10 10 89 90 155
564 2 2 10 10 89 155 154
565 2 2 10 10 90 91 156
566 2 2 10 10 90 156 155
567 2 2 10 10 91 92 157
568 2 2 10 10 91 157 156
569 2 2 10 10 92 93 158
570 2 2 10 10 92 158 157
571 2 2 10 10 93 94 159
572 2 2 10 10 93 159 158
573 2 2 10 10 94 95 160
574 2 2 10 10 94 160 159
575 2 2 10 10 95 96 161
576 2 2 10 10 95 161 160
577 2 2 10 10 96 97 162
578 2 2 10 10 96 162 161
579 2 2 10 10 97 98 163
580 2 2 10 10 97 163 162
581 2 2 10 10 98 99 164
582 2 2 10 10 98 164 163
583 2 2 10 10 99 100 165
584 2 2 10 10 99 165 164
585 2 2 10 10 100 101 166
586 2 2 10 10 100 166 165
587 2 2 10 10 101 102 167
588 2 2 10 10 101 167 166
589 2 2 10 10 102 103 168
590 2 2 10 10 102 168 167
591 2 2 10 10 103 104 169
592 2 2 10 10 103 169 168
593 2 2 10 10 104 105 170
594 2 2 10 10 104 170 169
595 2 2 10 10 105 106 171
596 2 2 10 10 105 171 170
597 2 2 10 10 106 107 172
598 2 2 10 10 106 172 171
599 2 2 10 10 107 108 173
600 2 2 10 10 107 173 172
601 2 2 10 10 108 109 174
602 2 2 10 10 108 174 173
603 2 2 10 10 109 110 175
604 2 2 10 10 109 175 174
605 2 2 10 10 110 111 176
606 2 2 10 10 110 176 175
607 2 2 10 10 111 112 177
608 2 2 10 10 111 177 176
609 2 2 10 10 112 113 178
610 2 2 10 10 112 178 177
611 2 2 10 10 113 114 179
612 2 2 10 10 113 179 178
613 2 2 10 10 114 115 180
614 2 2 10 10 114 180 179
615 2 2 10 10 115 116 181
616 2 2 10 10 115 181 180
617 2 2 10 10 116 117 182
618 2 2 10 10 116 182 181
619 2 2 10 10 117 118 183
620 2 2 10 10 117 183 182
621 2 2 10 10 118 119 184
622 2 2 10 10 118 184 183
623 2 2 10 10 119 120 185
624 2 2 10 10 119 185 184
625 2 2 10 10 120 121 186
626 2 2 10 10 120 186 185
627 2 2 10 10 121 122 187
628 2 2 10 10 121 187 186
629 2 2 10 10 122 123 188
630 2 2 10 10 122 188 187
631 2 2 10 10 123 124 189
632 2 2 10 10 123 189 188
633 2 2 10 10 124 125 190
634 2 2 10 10 124 190 189
635 2 2 10 10 125 126 191
636 2 2 10 10 125 191 190
637 2 2 10 10 126 127 192
638 2 2 10 10 126 192 191
639 2 2 10 10 127 128 193
640 2 2 10 10 127 193 192
641 2 2 10 10 128 129 194
642 2 2 10 10 128 194 193
643 2 2 10 10 129 130 195
644 2 2 10 10 129 195 194
645 2 2 10 10 131 132 197
646 2 2 10 10 131 197 196
647 2 2 10 10 132 133 198
648 2 2 10 10 132 198 197
649 2 2 10 10 133 134 199
650 2 2 10 10 133 199 198
651 2 2 10 10 134 135 200
652 2 2 10 10 134 200 199
653 2 2 10 10 135 136 201
654 2 2 10 10 135 201 200
655 2 2 10 10 136 137 202
656 2 2 10 10 136 202 201
657 2 2 10 10 137 138 203
658 2 2 10 10 137 203 202
659 2 2 10 10 138 139 204
660 2 2 10 10 138 204 203
661 2 2 10 10 139 140 205
662 2 2 10 10 139 205 204
663 2 2 10 10 140 141 206
664 2 2 10 10 140 206 205
665 2 2 10 10 141 142 207
666 2 2 10 10 141 207 206
667 2 2 10 10 142 143 208
668 2 2 10 10 142 208 207
669 2 2 10 10 143 144 209
670 2 2 10 10 143 209 208
671 2 2 10 10 144 145 210
672 2 2 10 10 144 210 209
673 2 2 10 10 145 146 211
674 2 2 10 10 145 211 210
675 2 2 10 10 146 147 212
676 2 2 10 10 146 212 211
677 2 2 10 10 147 148 213
678 2 2 10 10 147 213 212
679 2 2 10 10 148 149 214
680 2 2 10 10 148 214 213
681 2 2 10 10 149 150 215
682 2 2 10 10 149 215 214
683 2 2 10 10 150 151 216
684 2 2 10 10 150 216 215
685 2 2 10 10 151 152 217
686 2 2 10 10 151 217 216
687 2 2 10 10 152 153 218
688 2 2 10 10 152 218 217
689 2 2 10 10 153 154 219
690 2 2 10 10 153 219 218
691 2 2 10 10 154 155 220
692 2 2 10 10 154 220 219
693 2 2 10 10 155 156 221
694 2 2 10 10 155 221 220
695 2 2 10 10 156 157 222
696 2 2 10 10 156 222 221
697 2 2 10 10 157 158 223
698 2 2 10 10 157 223 222
699 2 2 10 10 158 159 224
700 2 2 10 10 158 224 223
701 2 2 10 10 159 160 225
702 2 2 10 10 159 225 224
703 2 2 10 10 160 161 226
704 2 2 10 10 160 226 225
705 2 2 10 10 161 162 227
706 2 2 10 10 161 227 226
707 2 2 10 10 162 163 228
708 2 2 10 10 162 228 227
709 2 2 10 10 163 164 229
710 2 2 10 10 163 229 228
711 2 2 10 10 164 165 230
712 2 2 10 10 164 230 229
713 2 2 10 10 165 166 231
714 2 2 10 10 165 231 230
715 2 2 10 10 166 167 232
716 2 2 10 10 166 232 231
717 2 2 10 10 167 168 233
718 2 2 10 10 167 233 232
719 2 2 10 10 168 169 234
720 2 2 10 10 168 234 233
721 2 2 10 10 169 170 235
722 2 2 10 10 169 235 234
723 2 2 10 10 170 171 236
724 2 2 10 10 170 236 235
725 2 2 10 10 171 172 237
726 2 2 10 10 171 237 236
727 2 2 10 10 172 173 238
728 2 2 10 10 172 238 237
729 2 2 10 10 173 174 239
730 2 2 10 10 173 239 238
731 2 2 10 10 174 175 240
732 2 2 10 10 174 240 239
733 2 2 10 10 175 176 241
734 2 2 10 10 175 241 240
735 2 2 10 10 176 177 242
736 2 2 10 10 176 242 241
737 2 2 10 10 177 178 243
738 2 2 10 10 177 243 242
739 2 2 10 10 178 179 244
740 2 2 10 10 178 244 243
741 2 2 10 10 179 180 245
742 2 2 10 10 179 245 244
743 2 2 10 10 180 181 246
744 2 2 10 10 180 246 245
745 2 2 10 10 181 182 247
746 2 2 10 10 181 247 246
747 2 2 10 10 182 183 248
748 2 2 10 10 182 248 247
749 2 2 10 10 183 184 249
750 2 2 10 10 183 249 248
751 2 2 10 10 184 185 250
752 2 2 10 10 184 250 249
753 2 2 10 10 185 186 251
754 2 2 10 10 185 251 250
755 2 2 10 10 186 187 252
756 2 2 10 10 186 252 251
757 2 2 10 10 187 188 253
758 2 2 10 10 187 253 252
759 2 2 10 10 188 189 254
760 2 2 10 10 188 254 253
761 2 2 10 10 189 190 255
762 2 2 10 10 189 255 254
763 2 2 10 10 190 191 256
764 2 2 10 10 190 256 255
765 2 2 10 10 191 192 257
766 2 2 10 10 191 257 256
767 2 2 10 10 192 193 258
768 2 2 10 10 192 258 257
769 2 2 10 10 193 194 259
770 2 2 10 10 193 259 258
771 2 2 10 10 194 195 260
772 2 2 10 10 194 260 259
773 2 2 10 10 196 197 262
774 2 2 10 10 196 262 261
775 2 2 10 10 197 198 263
776 2 2 10 10 197 263 262
777 2 2 10 10 198 199 264
778 2 2 10 10 198 264 263
779 2 2 10 10 199 200 265
780 2 2 10 10 199 265 264
781 2 2 10 10 200 201 266
782 2 2 10 10 200 266 265
783 2 2 10 10 201 202 267
784 2 2 10 10 201 267 266
785 2 2 10 10 202 203 268
786 2 2 10 10 202 268 267
787 2 2 10 10 203 204 269
788 2 2 10 10 203 269 268
789 2 2 10 10 204 205 270
790 2 2 10 10 204 270 269
791 2 2 10 10 205 206 271
792 2 2 10 10 205 271 270
793 2 2 10 10 206 207 272
794 2 2 10 10 206 272 271
795 2 2 10 10 207 208 273
796 2 2 10 10 207 273 272
797 2 2 10 10 208 209 274
798 2 2 10 10 208 274 273
799 2 2 10 10 209 210 275
800 2 2 10 10 209 275 274
801 2 2 10 10 210 211 276
802 2 2 10 10 210 276 275
803 2 2 10 10 211 212 277
804 2 2 10 10 211 277 276
805 2 2 10 10 212 213 278
806 2 2 10 10 212 278 277
807 2 2 10 10 213 214 279
808 2 2 10 10 213 279 278
809 2 2 10 10 214 215 280
810 2 2 10 10 214 280 279
811 2 2 10 10 215 216 281
812 2 2 10 10 215 281 280
813 2 2 10 10 216 217 282
814 2 2 10 10 216 282 281
815 2 2 10 10 217 218 283
816 2 2 10 10 217 283 282
817 2 2 10 10 218 219 284
818 2 2 10 10 218 284 283
819 2 2 10 10 219 220 285
820 2 2 10 10 219 285 284
821 2 2 10 10 220 221 286
822 2 2 10 10 220 286 285
823 2 2 10 10 221 222 287
824 2 2 10 10 221 287 286
825 2 2 10 10 222 223 288
826 2 2 10 10 222 288 287
827 2 2 10 10 223 224 289
828 2 2 10 10 223 289 288
829 2 2 10 10 224 225 290
830 2 2 10 10 224 290 289
831 2 2 10 10 225 226 291
832 2 2 10 10 225 291 290
833 2 2 10 10 226 227 292
834 2 2 10 10 226 292 291
835 2 2 10 10 227 228 293
836 2 2 10 10 227 293 292
837 2 2 10 10 228 229 294
838 2 2 10 10 228 294 293
839 2 2 10 10 229 230 295
840 2 2 10 10 229 295 294
841 2 2 10 10 230 231 296
842 2 2 10 10 230 296 295
843 2 2 10 10 231 232 297
844 2 2 10 10 231 297 296
845 2 2 10 10 232 233 298
846 2 2 10 10 232 298 297
847 2 2 10 10 233 234 299
848 2 2 10 10 233 299 298
849 2 2 10 10 234 235 300
850 2 2 10 10 234 300 299
851 2 2 10 10 235 236 301
852 2 2 10 10 235 301 300
853 2 2 10 10 236 237 302
854 2 2 10 10 236 302 301
855 2 2 10 10 237 238 303
856 2 2 10 10 237 303 302
857 2 2 10 10 238 239 304
858 2 2 10 10 238 304 303
859 2 2 10 10 239 240 305
860 2 2 10 10 239 305 304
861 2 2 10 10 240 241 306
862 2 2 10 10 240 306 305
863 2 2 10 10 241 242 307
864 2 2 10 10 241 307 306
865 2 2 10 10 242 243 308
866 2 2 10 10 242 308 307
867 2 2 10 10 243 244 309
868 2 2 10 10 243 309 308
869 2 2 10 10 244 245 310
870 2 2 10 10 244 310 309
871 2 2 10 10 245 246 311
872 2 2 10 10 245 311 310
873 2 2 10 10 246 247 312
874 2 2 10 10 246 312 311
875 2 2 10 10 247 248 313
876 2 2 10 10 247 313 312
877 2 2 10 10 248 249 314
878 2 2 10 10 248 314 313
879 2 2 10 10 249 250 315
880 2 2 10 10 249 315 314
881 2 2 10 10 250 251 316
882 2 2 10 10 250 316 315
883 2 2 10 10 251 252 317
884 2 2 10 10 251 317 316
885 2 2 10 10 252 253 318
886 2 2 10 10 252 318 317
887 2 2 10 10 253 254 319
888 2 2 10 10 253 319 318
889 2 2 10 10 254 255 320
890 2 2 10 10 254 320 319
891 2 2 10 10 255 256 321
892 2 2 10 10 255 321 320
893 2 2 10 10 256 257 322
894 2 2 10 10 256 322 321
895 2 2 10 10 257 258 323
896 2 2 10 10 257 323 322
897 2 2 10 10 258 259 324
898 2 2 10 10 258 324 323
899 2 2 10 10 259 260 325
900 2 2 10 10 259 325 324
901 2 2 10 10 261 262 327
902 2 2 10 10 261 327 326
903 2 2 10 10 262 263 328
904 2 2 10 10 262 328 327
905 2 2 10 10 263 264 329
906 2 2 10 10 263 329 328
907 2 2 10 10 264 265 330
908 2 2 10 10 264 330 329
909 2 2 10 10 265 266 331
910 2 2 10 10 265 331 330
911 2 2 10 10 266 267 332
912 2 2 10 10 266 332 331
913 2 2 10 10 267 268 333
914 2 2 10 10 267 333 332
915 2 2 10 10 268 269 334
916 2 2 10 10 268 334 333
917 2 2 10 10 269 270 335
918 2 2 10 10 269 335 334
919 2 2 10 10 270 271 336
920 2 2 10 10 270 336 335
921 2 2 10 10 271 272 337
922 2 2 10 10 271 337 336
923 2 2 10 10 272 273 338
924 2 2 10 10 272 338 337
925 2 2 10 10 273 274 339
926 2 2 10 10 273 339 338
927 2 2 10 10 274 275 340
928 2 2 10 10 274 340 339
929 2 2 10 10 275 276 341
930 2 2 10 10 275 341 340
931 2 2 10 10 276 277 342
932 2 2 10 10 276 342 341
933 2 2 10 10 277 278 343
934 2 2 10 10 277 343 342
935 2 2 10 10 278 279 344
936 2 2 10 10 278 344 343
937 2 2 10 10 279 280 345
938 2 2 10 10 279 345 344
939 2 2 10 10 280 281 346
940 2 2 10 10 280 346 345
941 2 2 10 10 281 282 347
942 2 2 10 10 281 347 346
943 2 2 10 10 282 283 348
944 2 2 10 10 282 348 347
945 2 2 10 10 283 284 349
946 2 2 10 10 283 349 348
947 2 2 10 10 284 285 350
948 2 2 10 10 284 350 349
949 2 2 10 10 285 286 351
950 2 2 10 10 285 351 350
951 2 2 10 10 286 287 352
952 2 2 10 10 286 352 351
953 2 2 10 10 287 288 353
954 2 2 10 10 287 353 352
955 2 2 10 10 288 289 354
956 2 2 10 10 288 354 353
957 2 2 10 10 289 290 355
958 2 2 10 10 289 355 354
959 2 2 10 10 290 291 356
960 2 2 10 10 290 356 355
961 2 2 10 10 291 292 357
962 2 2 10 10 291 357 356
963 2 2 10 10 292 293 358
964 2 2 10 10 292 358 357
965 2 2 10 10 293 294 359
966 2 2 10 10 293 359 358
967 2 2 10 10 294 295 360
968 2 2 10 10 294 360 359
969 2 2 10 10 295 296 361
970 2 2 10 10 295 361 360
971 2 2 10 10 296 297 362
972 2 2 10 10 296 362 361
973 2 2 10 10 297 298 363
974 2 2 10 10 297 363 362
975 2 2 10 10 298 299 364
976 2 2 10 10 298 364 363
977 2 2 10 10 299 300 365
978 2 2 10 10 299 365 364
979 2 2 10 10 300 301 366
980 2 2 10 10 300 366 365
981 2 2 10 10 301 302 367
982 2 2 10 10 301 367 366
983 2 2 10 10 302 303 368
984 2 2 10 10 302 368 367
985 2 2 10 10 303 304 369
986 2 2 10 10 303 369 368
987 2 2 10 10 304 305 370
988 2 2 10 10 304 370 369
989 2 2 10 10 305 306 371
990 2 2 10 10 305 371 370
991 2 2 10 10 306 307 372
992 2 2 10 10 306 372 371
993 2 2 10 10 307 308 373
994 2 2 10 10 307 373 372
995 2 2 10 10 308 309 374
996 2 2 10 10 308 374 373
997 2 2 10 10 309 310 375
998 2 2 10 10 309 375 374
999 2 2 10 10 310 311 376
1000 2 2 10 10 310 376 375
1001 2 2 10 10 311 312 377
1002 2 2 10 10 311 377 376
1003 2 2 10 10 312 313 378
1004 2 2 10 10 312 378 377
1005 2 2 10 10 313 314 379
1006 2 2 10 10 313 379 378
1007 2 2 10 10 314 315 380
1008 2 2 10 10 314 380 379
1009 2 2 10 10 315 316 381
1010 2 2 10 10 315 381 380
1011 2 2 10 10 316 317 382
1012 2 2 10 10 316 382 381
1013 2 2 10 10 317 318 383
1014 2 2 10 10 317 383 382
1015 2 2 10 10 318 319 384
1016 2 2 10 10 318 384 383
1017 2 2 10 10 319 320 385
1018 2 2 10 10 319 385 384
1019 2 2 10 10 320 321 386
1020 2 2 10 10 320 386 385
1021 2 2 10 10 321 322 387
1022 2 2 10 10 321 387 386
1023 2 2 10 10 322 323 388
1024 2 2 10 10 322 388 387
1025 2 2 10 10 323 324 389
1026 2 2 10 10 323 389 388
1027 2 2 10 10 324 325 390
1028 2 2 10 10 324 390 389
1029 2 2 10 10 326 327 392
1030 2 2 10 10 326 392 391
1031 2 2 10 10 327 328 393
1032 2 2 10 10 327 393 392
1033 2 2 10 10 328 329 394
1034 2 2 10 10 328 394 393
1035 2 2 10 10 329 330 395
1036 2 2 10 10 329 395 394
1037 2 2 10 10 330 331 396
1038 2 2 10 10 330 396 395
1039 2 2 10 10 331 332 397
1040 2 2 10 10 331 397 396
1041 2 2 10 10 332 333 398
1042 2 2 10 10 332 398 397
1043 2 2 10 10 333 334 399
1044 2 2 10 10 333 399 398
1045 2 2 10 10 334 335 400
1046 2 2 10 10 334 400 399
1047 2 2 10 10 335 336 401
1048 2 2 10 10 335 401 400
1049 2 2 10 10 336 337 402
1050 2 2 10 10 336 402 401
1051 2 2 10 10 337 338 403
1052 2 2 10 10 337 403 402
1053 2 2 10 10 338 339 404
1054 2 2 10 10 338 404 403
1055 2 2 10 10 339 340 405
1056 2 2 10 10 339 405 404
1057 2 2 10 10 340 341 406
1058 2 2 10 10 340 406 405
1059 2 2 10 10 341 342 407
1060 2 2 10 10 341 407 406
1061 2 2 10 10 342 343 408
1062 2 2 10 10 342 408 407
1063 2 2 10 10 343 344 409
1064 2 2 10 10 343 409 408
1065 2 2 10 10 344 345 410
1066 2 2 10 10 344 410 409
1067 2 2 10 10 345 346 411
1068 2 2 10 10 345 411 410
1069 2 2 10 10 346 347 412
1070 2 2 10 10 346 412 411
1071 2 2 10 10 347 348 413
1072 2 2 10 10 347 413 412
1073 2 2 10 10 348 349 414
1074 2 2 10 10 348 414 413
1075 2 2 10 10 349 350 415
1076 2 2 10 10 349 415 414
1077 2 2 10 10 350 351 416
1078 2 2 10 10 350 416 415
1079 2 2 10 10 351 352 417
1080 2 2 10 10 351 417 416
1081 2 2 10 10 352 353 418
1082 2 2 10 10 352 418 417
1083 2 2 10 10 353 354 419
1084 2 2 10 10 353 419 418
1085 2 2 10 10 354 355 420
1086 2 2 10 10 354 420 419
1087 2 2 10 10 355 356 421
1088 2 2 10 10 355 421 420
1089 2 2 10 10 356 357 422
1090 2 2 10 10 356 422 421
1091 2 2 10 10 357 358 423
1092 2 2 10 10 357 423 422
1093 2 2 10 10 358 359 424
1094 2 2 10 10 358 424 423
1095 2 2 10 10 359 360 425
1096 2 2 10 10 359 425 424
1097 2 2 10 10 360 361 426
1098 2 2 10 10 360 426 425
1099 2 2 10 10 361 362 427
1100 2 2 10 10 361 427 426
1101 2 2 10 10 362 363 428
1102 2 2 10 10 362 428 427
1103 2 2 10 10 363 364 429
1104 2 2 10 10 363 429 428
1105 2 2 10 10 364 365 430
1106 2 2 10 10 364 430 429
1107 2 2 10 10 365 366 431
1108 2 2 10 10 365 431 430
1109 2 2 10 10 366 367 432
1110 2 2 10 10 366 432 431
1111 2 2 10 10 367 368 433
1112 2 2 10 10 367 433 432
1113 2 2 10 10 368 369 434
1114 2 2 10 10 368 434 433
1115 2 2 10 10 369 370 435
1116 2 2 10 10 369 435 434
1117 2 2 10 10 370 371 436
1118 2 2 10 10 370 436 435
1119 2 2 10 10 371 372 437
1120 2 2 10 10 371 437 436
1121 2 2 10 10 372 373 438
1122 2 2 10 10 372 438 437
1123 2 2 10 10 373 374 439
1124 2 2 10 10 373 439 438
1125 2 2 10 10 374 375 440
1126 2 2 10 10 374 440 439
1127 2 2 10 10 375 376 441
1128 2 2 10 10 375 441 440
1129 2 2 10 10 376 377 442
1130 2 2 10 10 376 442 441
1131 2 2 10 10 377 378 443
1132 2 2 10 10 377 443 442
1133 2 2 10 10 378 379 444
1134 2 2 10 10 378 444 443
1135 2 2 10 10 379 380 445
1136 2 2 10 10 379 445 444
1137 2 2 10 10 380 381 446
1138 2 2 10 10 380 446 445
1139 2 2 10 10 381 382 447
1140 2 2 10 10 381 447 446
1141 2 2 10 10 382 383 448
1142 2 2 10 10 382 448 447
1143 2 2 10 10 383 384 449
1144 2 2 10 10 383 449 448
1145 2 2 10 10 384 385 450
1146 2 2 10 10 384 450 449
1147 2 2 10 10 385 386 451
1148 2 2 10 10 385 451 450
1149 2 2 10 10 386 387 452
1150 2 2 10 10 386 452 451
1151 2 2 10 10 387 388 453
1152 2 2 10 10 387 453 452
1153 2 2 10 10 388 389 454
1154 2 2 10 10 388 454 453
1155 2 2 10 10 389 390 455
1156 2 2 10 10 389 455 454
1157 2 2 10 10 414 415 457
1158 2 2 10 10 414 457 456
1159 2 2 10 10 415 416 458
1160 2 2 10 10 415 458 457
1161 2 2 10 10 416 417 459
1162 2 2 10 10 416 459 458
1163 2 2 10 10 417 418 460
1164 2 2 10 10 417 460 459
1165 2 2 10 10 418 419 461
1166 2 2 10 10 418 461 460
1167 2 2 10 10 419 420 462
1168 2 2 10 10 419 462 461
1169 2 2 10 10 420 421 463
1170 2 2 10 10 420 463 462
1171 2 2 10 10 457 458 466
1172 2 2 10 10 457 466 465
1173 2 2 10 10 458 459 467
1174 2 2 10 10 458 467 466
1175 2 2 10 10 459 460 468
1176 2 2 10 10 459 468 467
1177 2 2 10 10 460 461 469
1178 2 2 10 10 460 469 468
1179 2 2 10 10 461 462 470
1180 2 2 10 10 461 470 469
1181 2 2 10 10 462 463 471
1182 2 2 10 10 462 471 470
1183 2 2 10 10 463 464 472
1184 2 2 10 10 463 472 471
1185 2 2 10 10 465 466 475
1186 2 2 10 10 465 475 474
1187 2 2 10 10 466 467 476
1188 2 2 10 10 466 476 475
1189 2 2 10 10 467 468 477
1190 2 2 10 10 467 477 476
1191 2 2 10 10 468 469 478
1192 2 2 10 10 468 478 477
1193 2 2 10 10 469 470 479
1194 2 2 10 10 469 479 478
1195 2 2 10 10 470 471 480
1196 2 2 10 10 470 480 479
1197 2 2 10 10 471 472 481
1198 2 2 10 10 471 481 480
1199 2 2 10 10 472 473 482
1200 2 2 10 10 472 482 481
1201 2 2 10 10 475 476 484
1202 2 2 10 10 475 484 483
1203 2 2 10 10 476 477 485
1204 2 2 10 10 476 485 484
1205 2 2 10 10 477 478 486
1206 2 2 10 10 477 486 485
1207 2 2 10 10 478 479 487
1208 2 2 10 10 478 487 486
1209 2 2 10 10 479 480 488
1210 2 2 10 10 479 488 487
1211 2 2 10 10 480 481 489
1212 2 2 10 10 480 489 488
1213 2 2 10 10 481 482 490
1214 2 2 10 10 481 490 489
1215 2 2 10 10 484 485 493
1216 2 2 10 10 484 493 492
1217 2 2 10 10 485 486 494
1218 2 2 10 10 485 494 493
1219 2 2 10 10 486 487 495
1220 2 2 10 10 486 495 494
1221 2 2 10 10 487 488 496
1222 2 2 10 10 487 496 495
1223 2 2 10 10 488 489 497
1224 2 2 10 10 488 497 496
1225 2 2 10 10 489 490 498
1226 2 2 10 10 489 498 497
1227 2 2 10 10 490 491 499
1228 2 2 10 10 490 499 498
1229 2 2 10 10 493 494 502
1230 2 2 10 10 493 502 501
1231 2 2 10 10 494 495 503
1232 2 2 10 10 494 503 502
1233 2 2 10 10 495 496 504
1234 2 2 10 10 495 504 503
1235 2 2 10 10 496 497 505
1236 2 2 10 10 496 505 504
1237 2 2 10 10 497 498 506
1238 2 2 10 10 497 506 505
1239 2 2 10 10 498 499 507
1240 2 2 10 10 498 507 506
1241 2 2 10 10 499 500 508
1242 2 2 10 10 499 508 507
1243 2 2 10 10 501 502 511
1244 2 2 10 10 501 511 510
1245 2 2 10 10 502 503 512
1246 2 2 10 10 502 512 511
1247 2 2 10 10 503 504 513
1248 2 2 10 10 503 513 512
1249 2 2 10 10 504 505 514
1250 2 2 10 10 504 514 513
1251 2 2 10 10 505 506 515
1252 2 2 10 10 505 515 514
1253 2 2 10 10 506 507 516
1254 2 2 10 10 506 516 515
1255 2 2 10 10 507 508 517
1256 2 2 10 10 507 517 516
1257 2 2 10 10 508 509 518
1258 2 2 10 10 508 518 517
1259 2 2 10 10 511 512 520
1260 2 2 10 10 511 520 519
1261 2 2 10 10 512 513 521
1262 2 2 10 10 512 521 520
1263 2 2 10 10 513 514 522
1264 2 2 10 10 513 522 521
1265 2 2 10 10 514 515 523
1266 2 2 10 10 514 523 522
1267 2 2 10 10 515 516 524
1268 2 2 10 10 515 524 523
1269 2 2 10 10 516 517 525
1270 2 2 10 10 516 525 524
1271 2 2 10 10 517 518 526
1272 2 2 10 10 517 526 525
1273 2 2 10 10 520 521 529
1274 2 2 10 10 520 529 528
1275 2 2 10 10 521 522 530
1276 2 2 10 10 521 530 529
1277 2 2 10 10 522 523 531
1278 2 2 10 10 522 531 530
1279 2 2 10 10 523 524 532
1280 2 2 10 10 523 532 531
1281 2 2 10 10 524 525 533
1282 2 2 10 10 524 533 532
1283 2 2 10 10 525 526 534
1284 2 2 10 10 525 534 533
1285 2 2 10 10 526 527 535
1286 2 2 10 10 526 535 534
1287 2 2 10 10 528 529 550
1288 2 2 10 10 528 550 549
1289 2 2 10 10 529 530 551
1290 2 2 10 10 529 551 550
1291 2 2 10 10 530 531 552
1292 2 2 10 10 530 552 551
1293 2 2 10 10 531 532 553
1294 2 2 10 10 531 553 552
1295 2 2 10 10 532 533 554
1296 2 2 10 10 532 554 553
1297 2 2 10 10 533 534 555
1298 2 2 10 10 533 555 554
1299 2 2 10 10 534 535 556
1300 2 2 10 10 534 556 555
1301 2 2 10 10 535 536 557
1302 2 2 10 10 535 557 556
1303 2 2 10 10 536 537 558
1304 2 2 10 10 536 558 557
1305 2 2 10 10 537 538 559
1306 2 2 10 10 537 559 558
1307 2 2 10 10 538 539 560
1308 2 2 10 10 538 560 559
1309 2 2 10 10 539 540 561
1310 2 2 10 10 539 561 560
1311 2 2 10 10 540 541 562
1312 2 2 10 10 540 562 561
1313 2 2 10 10 541 542 563
1314 2 2 10 10 541 563 562
1315 2 2 10 10 542 543 564
1316 2 2 10 10 542 564 563
1317 2 2 10 10 543 544 565
1318 2 2 10 10 543 565 564
1319 2 2 10 10 544 545 566
1320 2 2 10 10 544 566 565
1321 2 2 10 10 545 546 567
1322 2 2 10 10 545 567 566
1323 2 2 10 10 546 547 568
1324 2 2 10 10 546 568 567
1325 2 2 10 10 547 548 569
1326 2 2 10 10 547 569 568
1327 2 2 10 10 550 551 572
1328 2 2 10 10 550 572 571
1329 2 2 10 10 551 552 573
1330 2 2 10 10 551 573 572
1331 2 2 10 10 552 553 574
1332 2 2 10 10 552 574 573
1333 2 2 10 10 553 554 575
1334 2 2 10 10 553 575 574
1335 2 2 10 10 554 555 576
1336 2 2 10 10 554 576 575
1337 2 2 10 10 555 556 577
1338 2 2 10 10 555 577 576
1339 2 2 10 10 556 557 578
1340 2 2 10 10 556 578 577
1341 2 2 10 10 557 558 579
1342 2 2 10 10 557 579 578
1343 2 2 10 10 558 559 580
1344 2 2 10 10 558 580 579
1345 2 2 10 10 559 560 581
1346 2 2 10 10 559 581 580
1347 2 2 10 10 560 561 582
1348 2 2 10 10 560 582 581
1349 2 2 10 10 561 562 583
1350 2 2 10 10 561 583 582
1351 2 2 10 10 562 563 584
1352 2 2 10 10 562 584 583
1353 2 2 10 10 563 564 585
1354 2 2 10 10 563 585 584
1355 2 2 10 10 564 565 586
1356 2 2 10 10 564 586 585
1357 2 2 10 10 565 566 587
1358 2 2 10 10 565 587 586
1359 2 2 10 10 566 567 588
1360 2 2 10 10 566 588 587
1361 2 2 10 10 567 568 589
1362 2 2 10 10 567 589 588
1363 2 2 10 10 568 569 590
1364 2 2 10 10 568 590 589
1365 2 2 10 10 569 570 591
1366 2 2 10 10 569 591 590
1367 2 2 10 10 572 573 593
1368 2 2 10 10 572 593 592
1369 2 2 10 10 573 574 594
1370 2 2 10 10 573 594 593
1371 2 2 10 10 574 575 595
1372 2 2 10 10 574 595 594
1373 2 2 10 10 575 576 596
1374 2 2 10 10 575 596 595
1375 2 2 10 10 576 577 597
1376 2 2 10 10 576 597 596
1377 2 2 10 10 577 578 598
1378 2 2 10 10 577 598 597
1379 2 2 10 10 578 579 599
1380 2 2 10 10 578 599 598
1381 2 2 10 10 579 580 600
1382 2 2 10 10 579 600 599
1383 2 2 10 10 580 581 601
1384 2 2 10 10 580 601 600
1385 2 2 10 10 581 582 602
1386 2 2 10 10 581 602 601
1387 2 2 10 10 582 583 603
1388 2 2 10 10 582 603 602
1389 2 2 10 10 583 584 604
1390 2 2 10 10 583 604 603
1391 2 2 10 10 584 585 605
1392 2 2 10 10 584 605 604
1393 2 2 10 10 585 586 606
1394 2 2 10 10 585 606 605
1395 2 2 10 10 586 587 607
1396 2 2 10 10 586 607 606
1397 2 2 10 10 587 588 608
1398 2 2 10 10 587 608 607
1399 2 2 10 10 588 589 609
1400 2 2 10 10 588 609 608
1401 2 2 10 10 589 590 610
1402 2 2 10 10 589 610 609
1403 2 2 10 10 590 591 611
1404 2 2 10 10 590 611 610
1405 2 2 10 10 593 594 613
1406 2 2 10 10 593 613 612
1407 2 2 10 10 594 595 614
1408 2 2 10 10 594 614 613
1409 2 2 10 10 595 596 615
1410 2 2 10 10 595 615 614
1411 2 2 10 10 596 597 616
1412 2 2 10 10 596 616 615
1413 2 2 10 10 597 598 617
1414 2 2 10 10 597 617 616
1415 2 2 10 10 598 599 618
1416 2 2 10 10 598 618 617
1417 2 2 10 10 599 600 619
1418 2 2 10 10 599 619 618
1419 2 2 10 10 600 601 620
1420 2 2 10 10 600 620 619
1421 2 2 10 10 601 602 621
1422 2 2 10 10 601 621 620
1423 2 2 10 10 602 603 622
1424 2 2 10 10 602 622 621
1425 2 2 10 10 603 604 623
1426 2 2 10 10 603 623 622
1427 2 2 10 10 604 605 624
1428 2 2 10 10 604 624 623
1429 2 2 10 10 605 606 625
1430 2 2 10 10 605 625 624
1431 2 2 10 10 606 607 626
1432 2 2 10 10 606 626 625
1433 2 2 10 10 607 608 627
1434 2 2 10 10 607 627 626
1435 2 2 10 10 608 609 628
1436 2 2 10 10 608 628 627
1437 2 2 10 10 609 610 629
1438 2 2 10 10 609 629 628
1439 2 2 10 10 610 611 630
1440 2 2 10 10 610 630 629
1441 2 2 10 10 612 613 633
1442 2 2 10 10 612 633 632
1443 2 2 10 10 613 614 634
1444 2 2 10 10 613 634 633
1445 2 2 10 10 614 615 635
1446 2 2 10 10 614 635 634
1447 2 2 10 10 615 616 636
1448 2 2 10 10 615 636 635
1449 2 2 10 10 616 617 637
1450 2 2 10 10 616 637 636
1451 2 2 10 10 617 618 638
1452 2 2 10 10 617 638 637
1453 2 2 10 10 618 619 639
1454 2 2 10 10 618 639 638
1455 2 2 10 10 619 620 640
1456 2 2 10 10 619 640 639
1457 2 2 10 10 620 621 641
1458 2 2 10 10 620 641 640
1459 2 2 10 10 621 622 642
1460 2 2 10 10 621 642 641
1461 2 2 10 10 622 623 643
1462 2 2 10 10 622 643 642
1463 2 2 10 10 623 624 644
1464 2 2 10 10 623 644 643
1465 2 2 10 10 624 625 645
1466 2 2 10 10 624 645 644
1467 2 2 10 10 625 626 646
1468 2 2 10 10 625 646 645
1469 2 2 10 10 626 627 647
1470 2 2 10 10 626 647 646
1471 2 2 10 10 627 628 648
1472 2 2 10 10 627 648 647
1473 2 2 10 10 628 629 649
1474 2 2 10 10 628 649 648
1475 2 2 10 10 629 630 650
1476 2 2 10 10 629 650 649
1477 2 2 10 10 630 631 651
1478 2 2 10 10 630 651 650
1479 2 2 10 10 633 634 653
1480 2 2 10 10 633 653 652
1481 2 2 10 10 634 635 654
1482 2 2 10 10 634 654 653
1483 2 2 10 10 635 636 655
1484 2 2 10 10 635 655 654
1485 2 2 10 10 636 637 656
1486 2 2 10 10 636 656 655
1487 2 2 10 10 637 638 657
1488 2 2 10 10 637 657 656
1489 2 2 10 10 638 639 658
1490 2 2 10 10 638 658 657
1491 2 2 10 10 639 640 659
1492 2 2 10 10 639 659 658
1493 2 2 10 10 640 641 660
1494 2 2 10 10 640 660 659
1495 2 2 10 10 641 642 661
1496 2 2 10 10 641 661 660
1497 2 2 10 10 642 643 662
1498 2 2 10 10 642 662 661
1499 2 2 10 10 643 644 663
1500 2 2 10 10 643 663 662
1501 2 2 10 10 644 645 664
1502 2 2 10 10 644 664 663
1503 2 2 10 10 645 646 665
1504 2 2 10 10 645 665 664
1505 2 2 10 10 646 647 666
1506 2 2 10 10 646 666 665
1507 2 2 10 10 647 648 667
1508 2 2 10 10 647 667 666
1509 2 2 10 10 648 649 668
1510 2 2 10 10 648 668 667
1511 2 2 10 10 649 650 669
1512 2 2 10 10 649 669 668
1513 2 2 10 10 650 651 670
1514 2 2 10 10 650 670 669
1515 2 2 10 10 664 665 672
1516 2 2 10 10 664 672 671
1517 2 2 10 10 665 666 673
1518 2 2 10 10 665 673 672
1519 2 2 10 10 666 667 674
1520 2 2 10 10 666 674 673
1521 2 2 10 10 667 668 675
1522 2 2 10 10 667 675 674
1523 2 2 10 10 668 669 676
1524 2 2 10 10 668 676 675
1525 2 2 10 10 669 670 677
1526 2 2 10 10 669 677 676
1527 2 2 10 10 671 672 679
1528 2 2 10 10 671 679 678
1529 2 2 10 10 672 673 680
1530 2 2 10 10 672 680 679
1531 2 2 10 10 673 674 681
1532 2 2 10 10 673 681 680
1533 2 2 10 10 674 675 682
1534 2 2 10 10 674 682 681
1535 2 2 10 10 675 676 683
1536 2 2 10 10 675 683 682
1537 2 2 10 10 676 677 684
1538 2 2 10 10 676 684 683
1539 2 2 10 10 678 679 687
1540 2 2 10 10 678 687 686
1541 2 2 10 10 679 680 688
1542 2 2 10 10 679 688 687
1543 2 2 10 10 680 681 689
1544 2 2 10 10 680 689 688
1545 2 2 10 10 681 682 690
1546 2 2 10 10 681 690 689
1547 2 2 10 10 682 683 691
1548 2 2 10 10 682 691 690
1549 2 2 10 10 683 684 692
1550 2 2 10 10 683 692 691
1551 2 2 10 10 684 685 693
1552 2 2 10 10 684 693 692
1553 2 2 10 10 687 688 695
1554 2 2 10 10 687 695 694
1555 2 2 10 10 688 689 696
1556 2 2 10 10 688 696 695
1557 2 2 10 10 689 690 697
1558 2 2 10 10 689 697 696
1559 2 2 10 10 690 691 698
1560 2 2 10 10 690 698 697
1561 2 2 10 10 691 692 699
1562 2 2 10 10 691 699 698
1563 2 2 10 10 692 693 700
1564 2 2 10 10 692 700 699
1565 2 2 10 10 694 695 702
1566 2 2 10 10 694 702 701
1567 2 2 10 10 695 696 703
1568 2 2 10 10 695 703 702
1569 2 2 10 10 696 697 704
1570 2 2 10 10 696 704 703
1571 2 2 10 10 697 698 705
1572 2 2 10 10 697 705 704
1573 2 2 10 10 698 699 706
1574 2 2 10 10 698 706 705
1575 2 2 10 10 699 700 707
1576 2 2 10 10 699 707 706
1577 2 2 10 10 701 702 709
1578 2 2 10 10 701 709 708
1579 2 2 10 10 702 703 710
1580 2 2 10 10 702 710 709
1581 2 2 10 10 703 704 711
1582 2 2 10 10 703 711 710
1583 2 2 10 10 704 705 712
1584 2 2 10 10 704 712 711
1585 2 2 10 10 705 706 713
1586 2 2 10 10 705 713 712
1587 2 2 10 10 706 707 714
1588 2 2 10 10 706 714 713
1589 2 2 10 10 709 710 717
1590 2 2 10 10 709 717 716
1591 2 2 10 10 710 711 718
1592 2 2 10 10 710 718 717
1593 2 2 10 10 711 712 719
1594 2 2 10 10 711 719 718
1595 2 2 10 10 712 713 720
1596 2 2 10 10 712 720 719
1597 2 2 10 10 713 714 721
1598 2 2 10 10 713 721 720
1599 2 2 10 10 714 715 722
1600 2 2 10 10 714 722 721
1601 2 2 10 10 716 717 724
1602 2 2 10 10 716 724 723
1603 2 2 10 10 717 718 725
1604 2 2 10 10 717 725 724
1605 2 2 10 10 718 719 726
1606 2 2 10 10 718 726 725
1607 2 2 10 10 719 720 727
1608 2 2 10 10 719 727 726
1609 2 2 10 10 720 721 728
1610 2 2 10 10 720 728 727
1611 2 2 10 10 721 722 729
1612 2 2 10 10 721 729 728
1613 2 2 10 10 723 724 731
1614 2 2 10 10 723 731 730
1615 2 2 10 10 724 725 732
1616 2 2 10 10 724 732 731
1617 2 2 10 10 725 726 733
1618 2 2 10 10 725 733 732
1619 2 2 10 10 726 727 734
1620 2 2 10 10 726 734 733
1621 2 2 10 10 727 728 735
1622 2 2 10 10 727 735 734
1623 2 2 10 10 728 729 736
1624 2 2 10 10 728 736 735
1625 2 2 10 10 730 731 739
1626 2 2 10 10 730 739 738
1627 2 2 10 10 731 732 740
1628 2 2 10 10 731 740 739
1629 2 2 10 10 732 733 741
1630 2 2 10 10 732 741 740
1631 2 2 10 10 733 734 742
1632 2 2 10 10 733 742 741
1633 2 2 10 10 734 735 743
1634 2 2 10 10 734 743 742
1635 2 2 10 10 735 736 744
1636 2 2 10 10 735 744 743
1637 2 2 10 10 736 737 745
1638 2 2 10 10 736 745 744
1639 2 2 10 10 739 740 747
1640 2 2 10 10 739 747 746
1641 2 2 10 10 740 741 748
1642 2 2 10 10 740 748 747
1643 2 2 10 10 741 742 749
1644 2 2 10 10 741 749 748
1645 2 2 10 10 742 743 750
1646 2 2 10 10 742 750 749
1647 2 2 10 10 743 744 751
1648 2 2 10 10 743 751 750
1649 2 2 10 10 744 745 752
1650 2 2 10 10 744 752 751
1651 2 2 10 10 746 747 754
1652 2 2 10 10 746 754 753
1653 2 2 10 10 747 748 755
1654 2 2 10 10 747 755 754
1655 2 2 10 10 748 749 756
1656 2 2 10 10 748 756 755
1657 2 2 10 10 749 750 757
1658 2 2 10 10 749 757 756
1659 2 2 10 10 750 751 758
1660 2 2 10 10 750 758 757
1661 2 2 10 10 751 752 759
1662 2 2 10 10 751 759 758
1663 2 2 10 10 753 754 761
1664 2 2 10 10 753 761 760
1665 2 2 10 10 754 755 762
1666 2 2 10 10 754 762 761
1667 2 2 10 10 755 756 763
1668 2 2 10 10 755 763 762
1669 2 2 10 10 756 757 764
1670 2 2 10 10 756 764 763
1671 2 2 10 10 757 758 765
1672 2 2 10 10 757 765 764
1673 2 2 10 10 758 759 766
1674 2 2 10 10 758 766 765
1675 2 2 10 10 761 762 769
1676 2 2 10 10 761 769 768
1677 2 2 10 10 762 763 770
1678 2 2 10 10 762 770 769
1679 2 2 10 10 763 764 771
1680 2 2 10 10 763 771 770
1681 2 2 10 10 764 765 772
1682 2 2 10 10 764 772 771
1683 2 2 10 10 765 766 773
1684 2 2 10 10 765 773 772
1685 2 2 10 10 766 767 774
1686 2 2 10 10 766 774 773
1687 2 2 10 10 768 769 776
1688 2 2 10 10 768 776 775
1689 2 2 10 10 769 770 777
1690 2 2 10 10 769 777 776
1691 2 2 10 10 770 771 778
1692 2 2 10 10 770 778 777
1693 2 2 10 10 771 772 779
1694 2 2 10 10 771 779 778
1695 2 2 10 10 772 773 780
1696 2 2 10 10 772 780 779
1697 2 2 10 10 773 774 781
1698 2 2 10 10 773 781 780
1699 2 2 10 10 775 776 783
1700 2 2 10 10 775 783 782
1701 2 2 10 10 776 777 784
1702 2 2 10 10 776 784 783
1703 2 2 10 10 777 778 785
1704 2 2 10 10 777 785 784
1705 2 2 10 10 778 779 786
1706 2 2 10 10 778 786 785
1707 2 2 10 10 779 780 787
1708 2 2 10 10 779 787 786
1709 2 2 10 10 780 781 788
1710 2 2 10 10 780 788 787
1711 2 2 10 10 782 783 791
1712 2 2 10 10 782 791 790
1713 2 2 10 10 783 784 792
1714 2 2 10 10 783 792 791
1715 2 2 10 10 784 785 793
1716 2 2 10 10 784 793 792
1717 2 2 10 10 785 786 794
1718 2 2 10 10 785 794 793
1719 2 2 10 10 786 787 795
1720 2 2 10 10 786 795 794
1721 2 2 10 10 787 788 796
1722 2 2 10 10 787 796 795
1723 2 2 10 10 788 789 797
1724 2 2 10 10 788 797 796
1725 2 2 10 10 791 792 799
1726 2 2 10 10 791 799 798
1727 2 2 10 10 792 793 800
1728 2 2 10 10 792 800 799
1729 2 2 10 10 793 794 801
1730 2 2 10 10 793 801 800
1731 2 2 10 10 794 795 802
1732 2 2 10 10 794 802 801
1733 2 2 10 10 795 796 803
1734 2 2 10 10 795 803 802
1735 2 2 10 10 796 797 804
1736 2 2 10 10 796 804 803
1737 2 2 10 10 798 799 856
1738 2 2 10 10 798 856 855
1739 2 2 10 10 799 800 857
1740 2 2 10 10 799 857 856
1741 2 2 10 10 800 801 858
1742 2 2 10 10 800 858 857
1743 2 2 10 10 801 802 859
1744 2 2 10 10 801 859 858
1745 2 2 10 10 802 803 860
1746 2 2 10 10 802 860 859
1747 2 2 10 10 803 804 861
1748 2 2 10 10 803 861 860
1749 2 2 10 10 805 806 871
1750 2 2 10 10 805 871 870
1751 2 2 10 10 806 807 872
1752 2 2 10 10 806 872 871
1753 2 2 10 10 807 808 873
1754 2 2 10 10 807 873 872
1755 2 2 10 10 808 809 874
1756 2 2 10 10 808 874 873
1757 2 2 10 10 809 810 875
1758 2 2 10 10 809 875 874
1759 2 2 10 10 810 811 876
1760 2 2 10 10 810 876 875
1761 2 2 10 10 811 812 877
1762 2 2 10 10 811 877 876
1763 2 2 10 10 812 813 878
1764 2 2 10 10 812 878 877
1765 2 2 10 10 813 814 879
1766 2 2 10 10 813 879 878
1767 2 2 10 10 814 815 880
1768 2 2 10 10 814 880 879
1769 2 2 10 10 815 816 881
1770 2 2 10 10 815 881 880
1771 2 2 10 10 816 817 882
1772 2 2 10 10 816 882 881
1773 2 2 10 10 817 818 883
1774 2 2 10 10 817 883 882
1775 2 2 10 10 818 819 884
1776 2 2 10 10 818 884 883
1777 2 2 10 10 819 820 885
1778 2 2 10 10 819 885 884
1779 2 2 10 10 820 821 886
1780 2 2 10 10 820 886 885
1781 2 2 10 10 821 822 887
1782 2 2 10 10 821 887 886
1783 2 2 10 10 822 823 888
1784 2 2 10 10 822 888 887
1785 2 2 10 10 823 824 889
1786 2 2 10 10 823 889 888
1787 2 2 10 10 824 825 890
1788 2 2 10 10 824 890 889
1789 2 2 10 10 825 826 891
1790 2 2 10 10 825 891 890
1791 2 2 10 10 826 827 892
1792 2 2 10 10 826 892 891
1793 2 2 10 10 827 828 893
1794 2 2 10 10 827 893 892
1795 2 2 10 10 828 829 894
1796 2 2 10 10 828 894 893
1797 2 2 10 10 829 830 895
1798 2 2 10 10 829 895 894
1799 2 2 10 10 830 831 896
1800 2 2 10 10 830 896 895
1801 2 2 10 10 831 832 897
1802 2 2 10 10 831 897 896
1803 2 2 10 10 832 833 898
1804 2 2 10 10 832 898 897
1805 2 2 10 10 833 834 899
1806 2 2 10 10 833 899 898
1807 2 2 10 10 834 835 900
1808 2 2 10 10 834 900 899
1809 2 2 10 10 835 836 901
1810 2 2 10 10 835 901 900
1811 2 2 10 10 836 837 902
1812 2 2 10 10 836 902 901
1813 2 2 10 10 837 838 903
1814 2 2 10 10 837 903 902
1815 2 2 10 10 838 839 904
1816 2 2 10 10 838 904 903
1817 2 2 10 10 839 840 905
1818 2 2 10 10 839 905 904
1819 2 2 10 10 840 841 906
1820 2 2 10 10 840 906 905
1821 2 2 10 10 841 842 907
1822 2 2 10 10 841 907 906
1823 2 2 10 10 842 843 908
1824 2 2 10 10 842 908 907
1825 2 2 10 10 843 844 909
1826 2 2 10 10 843 909 908
1827 2 2 10 10 844 845 910
1828 2 2 10 10 844 910 909
1829 2 2 10 10 845 846 911
1830 2 2 10 10 845 911 910
1831 2 2 10 10 846 847 912
1832 2 2 10 10 846 912 911
1833 2 2 10 10 847 848 913
1834 2 2 10 10 847 913 912
1835 2 2 10 10 848 849 914
1836 2 2 10 10 848 914 913
1837 2 2 10 10 849 850 915
1838 2 2 10 10 849 915 914
1839 2 2 10 10 850 851 916
1840 2 2 10 10 850 916 915
1841 2 2 10 10 851 852 917
1842 2 2 10 10 851 917 916
1843 2 2 10 10 852 853 918
1844 2 2 10 10 852 918 917
1845 2 2 10 10 853 854 919
1846 2 2 10 10 853 919 918
1847 2 2 10 10 854 855 920
1848 2 2 10 10 854 920 919
1849 2 2 10 10 855 856 921
1850 2 2 10 10 855 921 920
1851 2 2 10 10 856 857 922
1852 2 2 10 10 856 922 921
1853 2 2 10 10 857 858 923
1854 2 2 10 10 857 923 922
1855 2 2 10 10 858 859 924
1856 2 2 10 10 858 924 923
1857 2 2 10 10 859 860 925
1858 2 2 10 10 859 925 924
1859 2 2 10 10 860 861 926
1860 2 2 10 10 860 926 925
1861 2 2 10 10 861 862 927
1862 2 2 10 10 861 927 926
1863 2 2 10 10 862 863 928
1864 2 2 10 10 862 928 927
1865 2 2 10 10 863 864 929
1866 2 2 10 10 863 929 928
1867 2 2 10 10 864 865 930
1868 2 2 10 10 864 930 929
1869 2 2 10 10 865 866 931
1870 2 2 10 10 865 931 930
1871 2 2 10 10 866 867 932
1872 2 2 10 10 866 932 931
1873 2 2 10 10 867 868 933
1874 2 2 10 10 867 933 932
1875 2 2 10 10 868 869 934
1876 2 2 10 10 868 934 933
1877 2 2 10 10 870 871 936
1878 2 2 10 10 870 936 935
1879 2 2 10 10 871 872 937
1880 2 2 10 10 871 937 936
1881 2 2 10 10 872 873 938
1882 2 2 10 10 872 938 937
1883 2 2 10 10 873 874 939
1884 2 2 10 10 873 939 938
1885 2 2 10 10 874 875 940
1886 2 2 10 10 874 940 939
1887 2 2 10 10 875 876 941
1888 2 2 10 10 875 941 940
1889 2 2 10 10 876 877 942
1890 2 2 10 10 876 942 941
1891 2 2 10 10 877 878 943
1892 2 2 10 10 877 943 942
1893 2 2 10 10 878 879 944
1894 2 2 10 10 878 944 943
1895 2 2 10 10 879 880 945
1896 2 2 10 10 879 945 944
1897 2 2 10 10 880 881 946
1898 2 2 10 10 880 946 945
1899 2 2 10 10 881 882 947
1900 2 2 10 10 881 947 946
1901 2 2 10 10 882 883 948
1902 2 2 10 10 882 948 947
1903 2 2 10 10 883 884 949
1904 2 2 10 10 883 949 948
1905 2 2 10 10 884 885 950
1906 2 2 10 10 884 950 949
1907 2 2 10 10 885 886 951
1908 2 2 10 10 885 951 950
1909 2 2 10 10 886 887 952
1910 2 2 10 10 886 952 951
1911 2 2 10 10 887 888 953
1912 2 2 10 10 887 953 952
1913 2 2 10 10 888 889 954
1914 2 2 10 10 888 954 953
1915 2 2 10 10 889 890 955
1916 2 2 10 10 889 955 954
1917 2 2 10 10 890 891 956
1918 2 2 10 10 890 956 955
1919 2 2 10 10 891 892 957
1920 2 2 10 10 891 957 956
1921 2 2 10 10 892 893 958
1922 2 2 10 10 892 958 957
1923 2 2 10 10 893 894 959
1924 2 2 10 10 893 959 958
1925 2 2 10 10 894 895 960
1926 2 2 10 10 894 960 959
1927 2 2 10 10 895 896 961
1928 2 2 10 10 895 961 960
1929 2 2 10 10 896 897 962
1930 2 2 10 10 896 962 961
1931 2 2 10 10 897 898 963
1932 2 2 10 10 897 963 962
1933 2 2 10 10 898 899 964
1934 2 2 10 10 898 964 963
1935 2 2 10 10 899 900 965
1936 2 2 10 10 899 965 964
1937 2 2 10 10 900 901 966
1938 2 2 10 10 900 966 965
1939 2 2 10 10 901 902 967
1940 2 2 10 10 901 967 966
1941 2 2 10 10 902 903 968
1942 2 2 10 10 902 968 967
1943 2 2 10 10 903 904 969
1944 2 2 10 10 903 969 968
1945 2 2 10 10 904 905 970
1946 2 2 10 10 904 970 969
1947 2 2 10 10 905 906 971
1948 2 2 10 10 905 971 970
1949 2 2 10 10 906 907 972
1950 2 2 10 10 906 972 971
1951 2 2 10 10 907 908 973
1952 2 2 10 10 907 973 972
1953 2 2 10 10 908 909 974
1954 2 2 10 10 908 974 973
1955 2 2 10 10 909 910 975
1956 2 2 10 10 909 975 974
1957 2 2 10 10 910 911 976
1958 2 2 10 10 910 976 975
1959 2 2 10 10 911 912 977
1960 2 2 10 10 911 977 976
1961 2 2 10 10 912 913 978
1962 2 2 10 10 912 978 977
1963 2 2 10 10 913 914 979
1964 2 2 10 10 913 979 978
1965 2 2 10 10 914 915 980
1966 2 2 10 10 914 980 979
1967 2 2 10 10 915 916 981
1968 2 2 10 10 915 981 980
1969 2 2 10 10 916 917 982
1970 2 2 10 10 916 982 981
1971 2 2 10 10 917 918 983
1972 2 2 10 10 917 983 982
1973 2 2 10 10 918 919 984
1974 2 2 10 10 918 984 983
1975 2 2 10 10 919 920 985
1976 2 2 10 10 919 985 984
1977 2 2 10 10 920 921 986
1978 2 2 10 10 920 986 985
1979 2 2 10 10 921 922 987
1980 2 2 10 10 921 987 986
1981 2 2 10 10 922 923 988
1982 2 2 10 10 922 988 987
1983 2 2 10 10 923 924 989
1984 2 2 10 10 923 989 988
1985 2 2 10 10 924 925 990
1986 2 2 10 10 924 990 989
1987 2 2 10 10 925 926 991
1988 2 2 10 10 925 991 990
1989 2 2 10 10 926 927 992
1990 2 2 10 10 926 992 991
1991 2 2 10 10 927 928 993
1992 2 2 10 10 927 993 992
1993 2 2 10 10 928 929 994
1994 2 2 10 10 928 994 993
1995 2 2 10 10 929 930 995
1996 2 2 10 10 929 995 994
1997 2 2 10 10 930 931 996
1998 2 2 10 10 930 996 995
1999 2 2 10 10 931 932 997
2000 2 2 10 10 931 997 996
2001 2 2 10 10 932 933 998
2002 2 2 10 10 932 998 997
2003 2 2 10 10 933 934 999
2004 2 2 10 10 933 999 998
2005 2 2 10 10 935 936 1001
2006 2 2 10 10 935 1001 1000
2007 2 2 10 10 936 937 1002
2008 2 2 10 10 936 1002 1001
2009 2 2 10 10 937 938 1003
2010 2 2 10 10 937 1003 1002
2011 2 2 10 10 938 939 1004
2012 2 2 10 10 938 1004 1003
2013 2 2 10 10 939 940 1005
2014 2 2 10 10 939 1005 1004
2015 2 2 10 10 940 941 1006
2016 2 2 10 10 940 1006 1005
2017 2 2 10 10 941 942 1007
2018 2 2 10 10 941 1007 1006
2019 2 2 10 10 942 943 1008
2020 2 2 10 10 942 1008 1007
2021 2 2 10 10 943 944 1009
2022 2 2 10 10 943 1009 1008
2023 2 2 10 10 944 945 1010
2024 2 2 10 10 944 1010 1009
2025 2 2 10 10 945 946 1011
2026 2 2 10 10 945 1011 1010
2027 2 2 10 10 946 947 1012
2028 2 2 10 10 946 1012 1011
2029 2 2 10 10 947 948 1013
2030 2 2 10 10 947 1013 1012
2031 2 2 10 10 948 949 1014
2032 2 2 10 10 948 1014 1013
2033 2 2 10 10 949 950 1015
2034 2 2 10 10 949 1015 1014
2035 2 2 10 10 950 951 1016
2036 2 2 10 10 950 1016 1015
2037 2 2 10 10 951 952 1017
2038 2 2 10 10 951 1017 1016
2039 2 2 10 10 952 953 1018
2040 2 2 10 10 952 1018 1017
2041 2 2 10 10 953 954 1019
2042 2 2 10 10 953 1019 1018
2043 2 2 10 10 954 955 1020
2044 2 2 10 10 954 1020 1019
2045 2 2 10 10 955 956 1021
2046 2 2 10 10 955 1021 1020
2047 2 2 10 10 956 957 1022
2048 2 2 10 10 956 1022 1021
2049 2 2 10 10 957 958 1023
2050 2 2 10 10 957 1023 1022
2051 2 2 10 10 958 959 1024
2052 2 2 10 10 958 1024 1023
2053 2 2 10 10 959 960 1025
2054 2 2 10 10 959 1025 1024
2055 2 2 10 10 960 961 1026
2056 2 2 10 10 960 1026 1025
2057 2 2 10 10 961 962 1027
2058 2 2 10 10 961 1027 1026
2059 2 2 10 10 962 963 1028
2060 2 2 10 10 962 1028 1027
2061 2 2 10 10 963 964 1029
2062 2 2 10 10 963 1029 1028
2063 2 2 10 10 964 965 1030
2064 2 2 10 10 964 1030 1029
2065 2 2 10 10 965 966 1031
2066 2 2 10 10 965 1031 1030
2067 2 2 10 10 966 967 1032
2068 2 2 10 10 966 1032 1031
2069 2 2 10 10 967 968 1033
2070 2 2 10 10 967 1033 1032
2071 2 2 10 10 968 969 1034
2072 2 2 10 10 968 1034 1033
2073 2 2 10 10 969 970 1035
2074 2 2 10 10 969 1035 1034
2075 2 2 10 10 970 971 1036
2076 2 2 10 10 970 1036 1035
2077 2 2 10 10 971 972 1037
2078 2 2 10 10 971 1037 1036
2079 2 2 10 10 972 973 1038
2080 2 2 10 10 972 1038 1037
2081 2 2 10 10 973 974 1039
2082 2 2 10 10 973 1039 1038
2083 2 2 10 10 974 975 1040
2084 2 2 10 10 974 1040 1039
2085 2 2 10 10 975 976 1041
2086 2 2 10 10 975 1041 1040
2087 2 2 10 10 976 977 1042
2088 2 2 10 10 976 1042 1041
2089 2 2 10 10 977 978 1043
2090 2 2 10 10 977 1043 1042
2091 2 2 10 10 978 979 1044
2092 2 2 10 10 978 1044 1043
2093 2 2 10 10 979 980 1045
2094 2 2 10 10 979 1045 1044
2095 2 2 10 10 980 981 1046
2096 2 2 10 10 980 1046 1045
2097 2 2 10 10 981 982 1047
2098 2 2 10 10 981 1047 1046
2099 2 2 10 10 982 983 1048
2100 2 2 10 10 982 1048 1047
2101 2 2 10 10 983 984 1049
2102 2 2 10 10 983 1049 1048
2103 2 2 10 10 984 985 1050
2104 2 2 10 10 984 1050 1049
2105 2 2 10 10 985 986 1051
2106 2 2 10 10 985 1051 1050
2107 2 2 10 10 986 987 1052
2108 2 2 10 10 986 1052 1051
2109 2 2 10 10 987 988 1053
2110 2 2 10 10 987 1053 1052
2111 2 2 10 10 988 989 1054
2112 2 2 10 10 988 1054 1053
2113 2 2 10 10 989 990 1055
2114 2 2 10 10 989 1055 1054
2115 2 2 10 10 990 991 1056
2116 2 2 10 10 990 1056 1055
2117 2 2 10 10 991 992 1057
2118 2 2 10 10 991 1057 1056
2119 2 2 10 10 992 993 1058
2120 2 2 10 10 992 1058 1057
2121 2 2 10 10 993 994 1059
2122 2 2 10 10 993 1059 1058
2123 2 2 10 10 994 995 1060
2124 2 2 10 10 994 1060 1059
2125 2 2 10 10 995 996 1061
2126 2 2 10 10 995 1061 1060
2127 2 2 10 10 996 997 1062
2128 2 2 10 10 996 1062 1061
2129 2 2 10 10 997 998 1063
2130 2 2 10 10 997 1063 1062
2131 2 2 10 10 998 999 1064
2132 2 2 10 10 998 1064 1063
2133 2 2 10 10 1000 1001 1066
2134 2 2 10 10 1000 1066 1065
2135 2 2 10 10 1001 1002 1067
2136 2 2 10 10 1001 1067 1066
2137 2 2 10 10 1002 1003 1068
2138 2 2 10 10 1002 1068 1067
2139 2 2 10 10 1003 1004 1069
2140 2 2 10 10 1003 1069 1068
2141 2 2 10 10 1004 1005 1070
2142 2 2 10 10 1004 1070 1069
2143 2 2 10 10 1005 1006 1071
2144 2 2 10 10 1005 1071 1070
2145 2 2 10 10 1006 1007 1072
2146 2 2 10 10 1006 1072 1071
2147 2 2 10 10 1007 1008 1073
2148 2 2 10 10 1007 1073 1072
2149 2 2 10 10 1008 1009 1074
2150 2 2 10 10 1008 1074 1073
2151 2 2 10 10 1009 1010 1075
2152 2 2 10 10 1009 1075 1074
2153 2 2 10 10 1010 1011 1076
2154 2 2 10 10 1010 1076 1075
2155 2 2 10 10 1011 1012 1077
2156 2 2 10 10 1011 1077 1076
2157 2 2 10 10 1012 1013 1078
2158 2 2 10 10 1012 1078 1077
2159 2 2 10 10 1013 1014 1079
2160 2 2 10 10 1013 1079 1078
2161 2 2 10 10 1014 1015 1080
2162 2 2 10 10 1014 1080 1079
2163 2 2 10 10 1015 1016 1081
2164 2 2 10 10 1015 1081 1080
2165 2 2 10 10 1016 1017 1082
2166 2 2 10 10 1016 1082 1081
2167 2 2 10 10 1017 1018 1083
2168 2 2 10 10 1017 1083 1082
2169 2 2 10 10 1018 1019 1084
2170 2 2 10 10 1018 1084 1083
2171 2 2 10 10 1019 1020 1085
2172 2 2 10 10 1019 1085 1084
2173 2 2 10 10 1020 1021 1086
2174 2 2 10 10 1020 1086 1085
2175 2 2 10 10 1021 1022 1087
2176 2 2 10 10 1021 1087 1086
2177 2 2 10 10 1022 1023 1088
2178 2 2 10 10 1022 1088 1087
2179 2 2 10 10 1023 1024 1089
2180 2 2 10 10 1023 1089 1088
2181 2 2 10 10 1024 1025 1090
2182 2 2 10 10 1024 1090 1089
2183 2 2 10 10 1025 1026 1091
2184 2 2 10 10 1025 1091 1090
2185 2 2 10 10 1026 1027 1092
2186 2 2 10 10 1026 1092 1091
2187 2 2 10 10 1027 1028 1093
2188 2 2 10 10 1027 1093 1092
2189 2 2 10 10 1028 1029 1094
2190 2 2 10 10 1028 1094 1093
2191 2 2 10 10 1029 1030 1095
2192 2 2 10 10 1029 1095 1094
2193 2 2 10 10 1030 1031 1096
2194 2 2 10 10 1030 1096 1095
2195 2 2 10 10 1031 1032 1097
2196 2 2 10 10 1031 1097 1096
2197 2 2 10 10 1032 1033 1098
2198 2 2 10 10 1032 1098 1097
2199 2 2 10 10 1033 1034 1099
2200 2 2 10 10 1033 1099 1098
2201 2 2 10 10 1034 1035 1100
2202 2 2 10 10 1034 1100 1099
2203 2 2 10 10 1035 1036 1101
2204 2 2 10 10 1035 1101 1100
2205 2 2 10 10 1036 1037 1102
2206 2 2 10 10 1036 1102 1101
2207 2 2 10 10 1037 1038 1103
2208 2 2 10 10 1037 1103 1102
2209 2 2 10 10 1038 1039 1104
2210 2 2 10 10 1038 1104 1103
2211 2 2 10 10 1039 1040 1105
2212 2 2 10 10 1039 1105 1104
2213 2 2 10 10 1040 1041 1106
2214 2 2 10 10 1040 1106 1105
2215 2 2 10 10 1041 1042 1107
2216 2 2 10 10 1041 1107 1106
2217 2 2 10 10 1042 1043 1108
2218 2 2 10 10 1042 1108 1107
2219 2 2 10 10 1043 1044 1109
2220 2 2 10 10 1043 1109 1108
2221 2 2 10 10 1044 1045 1110
2222 2 2 10 10 1044 1110 1109
2223 2 2 10 10 1045 1046 1111
2224 2 2 10 10 1045 1111 1110
2225 2 2 10 10 1046 1047 1112
2226 2 2 10 10 1046 1112 1111
2227 2 2 10 10 1047 1048 1113
2228 2 2 10 10 1047 1113 1112
2229 2 2 10 10 1048 1049 1114
2230 2 2 10 10 1048 1114 1113
2231 2 2 10 10 1049 1050 1115
2232 2 2 10 10 1049 1115 1114
2233 2 2 10 10 1050 1051 1116
2234 2 2 10 10 1050 1116 1115
2235 2 2 10 10 1051 1052 1117
2236 2 2 10 10 1051 1117 1116
2237 2 2 10 10 1052 1053 1118
2238 2 2 10 10 1052 1118 1117
2239 2 2 10 10 1053 1054 1119
2240 2 2 10 10 1053 1119 1118
2241 2 2 10 10 1054 1055 1120
2242 2 2 10 10 1054 1120 1119
2243 2 2 10 10 1055 1056 1121
2244 2 2 10 10 1055 1121 1120
2245 2 2 10 10 1056 1057 1122
2246 2 2 10 10 1056 1122 1121
2247 2 2 10 10 1057 1058 1123
2248 2 2 10 10 1057 1123 1122
2249 2 2 10 10 1058 1059 1124
2250 2 2 10 10 1058 1124 1123
2251 2 2 10 10 1059 1060 1125
2252 2 2 10 10 1059 1125 1124
2253 2 2 10 10 1060 1061 1126
2254 2 2 10 10 1060 1126 1125
2255 2 2 10 10 1061 1062 1127
2256 2 2 10 10 1061 1127 1126
2257 2 2 10 10 1062 1063 1128
2258 2 2 10 10 1062 1128 1127
2259 2 2 10 10 1063 1064 1129
2260 2 2 10 10 1063 1129 1128
2261 2 2 10 10 1065 1066 1131
2262 2 2 10 10 1065 1131 1130
2263 2 2 10 10 1066 1067 1132
2264 2 2 10 10 1066 1132 1131
2265 2 2 10 10 1067 1068 1133
2266 2 2 10 10 1067 1133 1132
2267 2 2 10 10 1068 1069 1134
2268 2 2 10 10 1068 1134 1133
2269 2 2 10 10 1069 1070 1135
2270 2 2 10 10 1069 1135 1134
2271 2 2 10 10 1070 1071 1136
2272 2 2 10 10 1070 1136 1135
2273 2 2 10 10 1071 1072 1137
2274 2 2 10 10 1071 1137 1136
2275 2 2 10 10 1072 1073 1138
2276 2 2 10 10 1072 1138 1137
2277 2 2 10 10 1073 1074 1139
2278 2 2 10 10 1073 1139 1138
2279 2 2 10 10 1074 1075 1140
2280 2 2 10 10 1074 1140 1139
2281 2 2 10 10 1075 1076 1141
2282 2 2 10 10 1075 1141 1140
2283 2 2 10 10 1076 1077 1142
2284 2 2 10 10 1076 1142 1141
2285 2 2 10 10 1077 1078 1143
2286 2 2 10 10 1077 1143 1142
2287 2 2 10 10 1078 1079 1144
2288 2 2 10 10 1078 1144 1143
2289 2 2 10 10 1079 1080 1145
2290 2 2 10 10 1079 1145 1144
2291 2 2 10 10 1080 1081 1146
2292 2 2 10 10 1080 1146 1145
2293 2 2 10 10 1081 1082 1147
2294 2 2 10 10 1081 1147 1146
2295 2 2 10 10 1082 1083 1148
2296 2 2 10 10 1082 1148 1147
2297 2 2 10 10 1083 1084 1149
2298 2 2 10 10 1083 1149 1148
2299 2 2 10 10 1084 1085 1150
2300 2 2 10 10 1084 1150 1149
2301 2 2 10 10 1085 1086 1151
2302 2 2 10 10 1085 1151 1150
2303 2 2 10 10 1086 1087 1152
2304 2 2 10 10 1086 1152 1151
2305 2 2 10 10 1087 1088 1153
2306 2 2 10 10 1087 1153 1152
2307 2 2 10 10 1088 1089 1154
2308 2 2 10 10 1088 1154 1153
2309 2 2 10 10 1089 1090 1155
2310 2 2 10 10 1089 1155 1154
2311 2 2 10 10 1090 1091 1156
2312 2 2 10 10 1090 1156 1155
2313 2 2 10 10 1091 1092 1157
2314 2 2 10 10 1091 1157 1156
2315 2 2 10 10 1092 1093 1158
2316 2 2 10 10 1092 1158 1157
2317 2 2 10 10 1093 1094 1159
2318 2 2 10 10 1093 1159 1158
2319 2 2 10 10 1094 1095 1160
2320 2 2 10 10 1094 1160 1159
2321 2 2 10 10 1095 1096 1161
2322 2 2 10 10 1095 1161 1160
2323 2 2 10 10 1096 1097 1162
2324 2 2 10 10 1096 1162 1161
2325 2 2 10 10 1097 1098 1163
2326 2 2 10 10 1097 1163 1162
2327 2 2 10 10 1098 1099 1164
2328 2 2 10 10 1098 1164 1163
2329 2 2 10 10 1099 1100 1165
2330 2 2 10 10 1099 1165 1164
2331 2 2 10 10 1100 1101 1166
2332 2 2 10 10 1100 1166 1165
2333 2 2 10 10 1101 1102 1167
2334 2 2 10 10 1101 1167 1166
2335 2 2 10 10 1102 1103 1168
2336 2 2 10 10 1102 1168 1167
2337 2 2 10 10 1103 1104 1169
2338 2 2 10 10 1103 1169 1168
2339 2 2 10 10 1104 1105 1170
2340 2 2 10 10 1104 1170 1169
2341 2 2 10 10 1105 1106 1171
2342 2 2 10 10 1105 1171 1170
2343 2 2 10 10 1106 1107 1172
2344 2 2 10 10 1106 1172 1171
2345 2 2 10 10 1107 1108 1173
2346 2 2 10 10 1107 1173 1172
2347 2 2 10 10 1108 1109 1174
2348 2 2 10 10 1108 1174 1173
2349 2 2 10 10 1109 1110 1175
2350 2 2 10 10 1109 1175 1174
2351 2 2 10 10 1110 1111 1176
2352 2 2 10 10 1110 1176 1175
2353 2 2 10 10 1111 1112 1177
2354 2 2 10 10 1111 1177 1176
2355 2 2 10 10 1112 1113 1178
2356 2 2 10 10 1112 1178 1177
2357 2 2 10 10 1113 1114 1179
2358 2 2 10 10 1113 1179 1178
2359 2 2 10 10 1114 1115 1180
2360 2 2 10 10 1114 1180 1179
2361 2 2 10 10 1115 1116 1181
2362 2 2 10 10 1115 1181 1180
2363 2 2 10 10 1116 1117 1182
2364 2 2 10 10 1116 1182 1181
2365 2 2 10 10 1117 1118 1183
2366 2 2 10 10 1117 1183 1182
2367 2 2 10 10 1118 1119 1184
2368 2 2 10 10 1118 1184 1183
2369 2 2 10 10 1119 1120 1185
2370 2 2 10 10 1119 1185 1184
2371 2 2 10 10 1120 1121 1186
2372 2 2 10 10 1120 1186 1185
2373 2 2 10 10 1121 1122 1187
2374 2 2 10 10 1121 1187 1186
2375 2 2 10 10 1122 1123 1188
2376 2 2 10 10 1122 1188 1187
2377 2 2 10 10 1123 1124 1189
2378 2 2 10 10 1123 1189 1188
2379 2 2 10 10 1124 1125 1190
2380 2 2 10 10 1124 1190 1189
2381 2 2 10 10 1125 1126 1191
2382 2 2 10 10 1125 1191 1190
2383 2 2 10 10 1126 1127 1192
2384 2 2 10 10 1126 1192 1191
2385 2 2 10 10 1127 1128 1193
2386 2 2 10 10 1127 1193 1192
2387 2 2 10 10 1128 1129 1194
2388 2 2 10 10 1128 1194 1193
2389 2 2 10 10 1130 1131 1196
2390 2 2 10 10 1130 1196 1195
2391 2 2 10 10 1131 1132 1197
2392 2 2 10 10 1131 1197 1196
2393 2 2 10 10 1132 1133 1198
2394 2 2 10 10 1132 1198 1197
2395 2 2 10 10 1133 1134 1199
2396 2 2 10 10 1133 1199 1198
2397 2 2 10 10 1134 1135 1200
2398 2 2 10 10 1134 1200 1199
2399 2 2 10 10 1135 1136 1201
2400 2 2 10 10 1135 1201 1200
2401 2 2 10 10 1136 1137 1202
2402 2 2 10 10 1136 1202 1201
2403 2 2 10 10 1137 1138 1203
2404 2 2 10 10 1137 1203 1202
2405 2 2 10 10 1138 1139 1204
2406 2 2 10 10 1138 1204 1203
2407 2 2 10 10 1139 1140 1205
2408 2 2 10 10 1139 1205 1204
2409 2 2 10 10 1140 1141 1206
2410 2 2 10 10 1140 1206 1205
2411 2 2 10 10 1141 1142 1207
2412 2 2 10 10 1141 1207 1206
2413 2 2 10 10 1142 1143 1208
2414 2 2 10 10 1142 1208 1207
2415 2 2 10 10 1143 1144 1209
2416 2 2 10 10 1143 1209 1208
2417 2 2 10 10 1144 1145 1210
2418 2 2 10 10 1144 1210 1209
2419 2 2 10 10 1145 1146 1211
2420 2 2 10 10 1145 1211 1210
2421 2 2 10 10 1146 1147 1212
2422 2 2 10 10 1146 1212 1211
2423 2 2 10 10 1147 1148 1213
2424 2 2 10 10 1147 1213 1212
2425 2 2 10 10 1148 1149 1214
2426 2 2 10 10 1148 1214 1213
2427 2 2 10 10 1149 1150 1215
2428 2 2 10 10 1149 1215 1214
2429 2 2 10 10 1150 1151 1216
2430 2 2 10 10 1150 1216 1215
2431 2 2 10 10 1151 1152 1217
2432 2 2 10 10 1151 1217 1216
2433 2 2 10 10 1152 1153 1218
2434 2 2 10 10 1152 1218 1217
2435 2 2 10 10 1153 1154 1219
2436 2 2 10 10 1153 1219 1218
2437 2 2 10 10 1154 1155 1220
2438 2 2 10 10 1154 1220 1219
2439 2 2 10 10 1155 1156 1221
2440 2 2 10 10 1155 1221 1220
2441 2 2 10 10 1156 1157 1222
2442 2 2 10 10 1156 1222 1221
2443 2 2 10 10 1157 1158 1223
2444 2 2 10 10 1157 1223 1222
2445 2 2 10 10 1158 1159 1224
2446 2 2 10 10 1158 1224 1223
2447 2 2 10 10 1159 1160 1225
2448 2 2 10 10 1159 1225 1224
2449 2 2 10 10 1160 1161 1226
2450 2 2 10 10 1160 1226 1225
2451 2 2 10 10 1161 1162 1227
2452 2 2 10 10 1161 1227 1226
2453 2 2 10 10 1162 1163 1228
2454 2 2 10 10 1162 1228 1227
2455 2 2 10 10 1163 1164 1229
2456 2 2 10 10 1163 1229 1228
2457 2 2 10 10 1164 1165 1230
2458 2 2 10 10 1164 1230 1229
2459 2 2 10 10 1165 1166 1231
2460 2 2 10 10 1165 1231 1230
2461 2 2 10 10 1166 1167 1232
2462 2 2 10 10 1166 1232 1231
2463 2 2 10 10 1167 1168 1233
2464 2 2 10 10 1167 1233 1232
2465 2 2 10 10 1168 1169 1234
2466 2 2 10 10 1168 1234 1233
2467 2 2 10 10 1169 1170 1235
2468 2 2 10 10 1169 1235 1234
2469 2 2 10 10 1170 1171 1236
2470 2 2 10 10 1170 1236 1235
2471 2 2 10 10 1171 1172 1237
2472 2 2 10 10 1171 1237 1236
2473 2 2 10 10 1172 1173 1238
2474 2 2 10 10 1172 1238 1237
2475 2 2 10 10 1173 1174 1239
2476 2 2 10 10 1173 1239 1238
2477 2 2 10 10 1174 1175 1240
2478 2 2 10 10 1174 1240 1239
2479 2 2 10 10 1175 1176 1241
2480 2 2 10 10 1175 1241 1240
2481 2 2 10 10 1176 1177 1242
2482 2 2 10 10 1176 1242 1241
2483 2 2 10 10 1177 1178 1243
2484 2 2 10 10 1177 1243 1242
2485 2 2 10 10 1178 1179 1244
2486 2 2 10 10 1178 1244 1243
2487 2 2 10 10 1179 1180 1245
2488 2 2 10 10 1179 1245 1244
2489 2 2 10 10 1180 1181 1246
2490 2 2 10 10 1180 1246 1245
2491 2 2 10 10 1181 1182 1247
2492 2 2 10 10 1181 1247 1246
2493 2 2 10 10 1182 1183 1248
2494 2 2 10 10 1182 1248 1247
2495 2 2 10 10 1183 1184 1249
2496 2 2 10 10 1183 1249 1248
2497 2 2 10 10 1184 1185 1250
2498 2 2 10 10 1184 1250 1249
2499 2 2 10 10 1185 1186 1251
2500 2 2 10 10 1185 1251 1250
2501 2 2 10 10 1186 1187 1252
2502 2 2 10 10 1186 1252 1251
2503 2 2 10 10 1187 1188 1253
2504 2 2 10 10 1187 1253 1252
2505 2 2 10 10 1188 1189 1254
2506 2 2 10 10 1188 1254 1253
2507 2 2 10 10 1189 1190 1255
2508 2 2 10 10 1189 1255 1254
2509 2 2 10 10 1190 1191 1256
2510 2 2 10 10 1190 1256 1255
2511 2 2 10 10 1191 1192 1257
2512 2 2 10 10 1191 1257 1256
2513 2 2 10 10 1192 1193 1258
2514 2 2 10 10 1192 1258 1257
2515 2 2 10 10 1193 1194 1259
2516 2 2 10 10 1193 1259 1258
$EndElements
