$MeshFormat
2.2 0 8
$EndMeshFormat
$PhysicalNames
4
1 1 "inlet"
1 2 "outlet"
1 3 "walls"
2 10 "fluid"
$EndPhysicalNames
$Nodes
1096
1 0 0.018 0
2 0.002 0.018 0
3 0.004 0.018 0
4 0.006 0.018 0
5 0.008 0.018 0
6 0.01 0.018 0
7 0.012 0.018 0
8 0.014 0.018 0
9 0.016 0.018 0
10 0.018 0.018 0
11 0.02 0.018 0
12 0.022 0.018 0
13 0.024 0.018 0
14 0.026 0.018 0
15 0.028 0.018 0
16 0.03 0.018 0
17 0.032 0.018 0
18 0.034 0.018 0
19 0.036 0.018 0
20 0.038 0.018 0
21 0.04 0.018 0
22 0.094 0.018 0
23 0.096 0.018 0
24 0.098 0.018 0
25 0.1 0.018 0
26 0.102 0.018 0
27 0.104 0.018 0
28 0.106 0.018 0
29 0.108 0.018 0
30 0.11 0.018 0
31 0.112 0.018 0
32 0.114 0.018 0
33 0.116 0.018 0
34 0.118 0.018 0
35 0.12 0.018 0
36 0.122 0.018 0
37 0.124 0.018 0
38 0.126 0.018 0
39 0.128 0.018 0
40 0 0.02 0
41 0.002 0.02 0
42 0.004 0.02 0
43 0.006 0.02 0
44 0.008 0.02 0
45 0.01 0.02 0
46 0.012 0.02 0
47 0.014 0.02 0
48 0.016 0.02 0
49 0.018 0.02 0
50 0.02 0.02 0
51 0.022 0.02 0
52 0.024 0.02 0
53 0.026 0.02 0
54 0.028 0.02 0
55 0.03 0.02 0
56 0.032 0.02 0
57 0.034 0.02 0
58 0.036 0.02 0
59 0.038 0.02 0
60 0.04 0.02 0
61 0.042 0.02 0
62 0.092 0.02 0
63 0.094 0.02 0
64 0.096 0.02 0
65 0.098 0.02 0
66 0.1 0.02 0
67 0.102 0.02 0
68 0.104 0.02 0
69 0.106 0.02 0
70 0.108 0.02 0
71 0.11 0.02 0
72 0.112 0.02 0
73 0.114 0.02 0
74 0.116 0.02 0
75 0.118 0.02 0
76 0.12 0.02 0
77 0.122 0.02 0
78 0.124 0.02 0
79 0.126 0.02 0
80 0.128 0.02 0
81 0 0.022 0
82 0.002 0.022 0
83 0.004 0.022 0
84 0.006 0.022 0
85 0.008 0.022 0
86 0.01 0.022 0
87 0.012 0.022 0
88 0.014 0.022 0
89 0.016 0.022 0
90 0.018 0.022 0
91 0.02 0.022 0
92 0.022 0.022 0
93 0.024 0.022 0
94 0.026 0.022 0
95 0.028 0.022 0
96 0.03 0.022 0
97 0.032 0.022 0
98 0.034 0.022 0
99 0.036 0.022 0
100 0.038 0.022 0
101 0.04 0.022 0
102 0.042 0.022 0
103 0.092 0.022 0
104 0.094 0.022 0
105 0.096 0.022 0
106 0.098 0.022 0
107 0.1 0.022 0
108 0.102 0.022 0
109 0.104 0.022 0
110 0.106 0.022 0
111 0.108 0.022 0
112 0.11 0.022 0
113 0.112 0.022 0
114 0.114 0.022 0
115 0.116 0.022 0
116 0.118 0.022 0
117 0.12 0.022 0
118 0.122 0.022 0
119 0.124 0.022 0
120 0.126 0.022 0
121 0.128 0.022 0
122 0 0.024 0
123 0.002 0.024 0
124 0.004 0.024 0
125 0.006 0.024 0
126 0.008 0.024 0
127 0.01 0.024 0
128 0.012 0.024 0
129 0.014 0.024 0
130 0.016 0.024 0
131 0.018 0.024 0
132 0.02 0.024 0
133 0.022 0.024 0
134 0.024 0.024 0
135 0.026 0.024 0
136 0.028 0.024 0
137 0.03 0.024 0
138 0.032 0.024 0
139 0.034 0.024 0
140 0.036 0.024 0
141 0.038 0.024 0
142 0.04 0.024 0
143 0.042 0.024 0
144 0.044 0.024 0
145 0.09 0.024 0
146 0.092 0.024 0
147 0.094 0.024 0
148 0.096 0.024 0
149 0.098 0.024 0
150 0.1 0.024 0
151 0.102 0.024 0
152 0.104 0.024 0
153 0.106 0.024 0
154 0.108 0.024 0
155 0.11 0.024 0
156 0.112 0.024 0
157 0.114 0.024 0
158 0.116 0.024 0
159 0.118 0.024 0
160 0.12 0.024 0
161 0.122 0.024 0
162 0.124 0.024 0
163 0.126 0.024 0
164 0.128 0.024 0
165 0 0.026 0
166 0.002 0.026 0
167 0.004 0.026 0
168 0.006 0.026 0
169 0.008 0.026 0
170 0.01 0.026 0
171 0.012 0.026 0
172 0.014 0.026 0
173 0.016 0.026 0
174 0.018 0.026 0
175 0.02 0.026 0
176 0.022 0.026 0
177 0.024 0.026 0
178 0.026 0.026 0
179 0.028 0.026 0
180 0.03 0.026 0
181 0.032 0.026 0
182 0.034 0.026 0
183 0.036 0.026 0
184 0.038 0.026 0
185 0.04 0.026 0
186 0.042 0.026 0
187 0.044 0.026 0
188 0.046 0.026 0
189 0.08799999999999999 0.026 0
190 0.09 0.026 0
191 0.092 0.026 0
192 0.094 0.026 0
193 0.096 0.026 0
194 0.098 0.026 0
195 0.1 0.026 0
196 0.102 0.026 0
197 0.104 0.026 0
198 0.106 0.026 0
199 0.108 0.026 0
200 0.11 0.026 0
201 0.112 0.026 0
202 0.114 0.026 0
203 0.116 0.026 0
204 0.118 0.026 0
205 0.12 0.026 0
206 0.122 0.026 0
207 0.124 0.026 0
208 0.126 0.026 0
209 0.128 0.026 0
210 0 0.028 0
211 0.002 0.028 0
212 0.004 0.028 0
213 0.006 0.028 0
214 0.008 0.028 0
215 0.01 0.028 0
216 0.012 0.028 0
217 0.014 0.028 0
218 0.016 0.028 0
219 0.018 0.028 0
220 0.02 0.028 0
221 0.022 0.028 0
222 0.024 0.028 0
223 0.026 0.028 0
224 0.028 0.028 0
225 0.03 0.028 0
226 0.032 0.028 0
227 0.034 0.028 0
228 0.036 0.028 0
229 0.038 0.028 0
230 0.04 0.028 0
231 0.042 0.028 0
232 0.044 0.028 0
233 0.046 0.028 0
234 0.08799999999999999 0.028 0
235 0.09 0.028 0
236 0.092 0.028 0
237 0.094 0.028 0
238 0.096 0.028 0
239 0.098 0.028 0
240 0.1 0.028 0
241 0.102 0.028 0
242 0.104 0.028 0
243 0.106 0.028 0
244 0.108 0.028 0
245 0.11 0.028 0
246 0.112 0.028 0
247 0.114 0.028 0
248 0.116 0.028 0
249 0.118 0.028 0
250 0.12 0.028 0
251 0.122 0.028 0
252 0.124 0.028 0
253 0.126 0.028 0
254 0.128 0.028 0
255 0 0.03 0
256 0.002 0.03 0
257 0.004 0.03 0
258 0.006 0.03 0
259 0.008 0.03 0
260 0.01 0.03 0
261 0.012 0.03 0
262 0.014 0.03 0
263 0.016 0.03 0
264 0.018 0.03 0
265 0.02 0.03 0
266 0.022 0.03 0
267 0.024 0.03 0
268 0.026 0.03 0
269 0.028 0.03 0
270 0.03 0.03 0
271 0.032 0.03 0
272 0.034 0.03 0
273 0.036 0.03 0
274 0.038 0.03 0
275 0.04 0.03 0
276 0.042 0.03 0
277 0.044 0.03 0
278 0.046 0.03 0
279 0.048 0.03 0
280 0.08600000000000001 0.03 0
281 0.08799999999999999 0.03 0
282 0.09 0.03 0
283 0.092 0.03 0
284 0.094 0.03 0
285 0.096 0.03 0
286 0.098 0.03 0
287 0.1 0.03 0
288 0.102 0.03 0
289 0.104 0.03 0
290 0.106 0.03 0
291 0.108 0.03 0
292 0.11 0.03 0
293 0.112 0.03 0
294 0.114 0.03 0
295 0.116 0.03 0
296 0.118 0.03 0
297 0.12 0.03 0
298 0.122 0.03 0
299 0.124 0.03 0
300 0.126 0.03 0
301 0.128 0.03 0
302 0.034 0.032 0
303 0.036 0.032 0
304 0.038 0.032 0
305 0.04 0.032 0
306 0.042 0.032 0
307 0.044 0.032 0
308 0.046 0.032 0
309 0.048 0.032 0
310 0.05 0.032 0
311 0.08400000000000001 0.032 0
312 0.08600000000000001 0.032 0
313 0.08799999999999999 0.032 0
314 0.09 0.032 0
315 0.092 0.032 0
316 0.094 0.032 0
317 0.096 0.032 0
318 0.098 0.032 0
319 0.1 0.032 0
320 0.034 0.034 0
321 0.036 0.034 0
322 0.038 0.034 0
323 0.04 0.034 0
324 0.042 0.034 0
325 0.044 0.034 0
326 0.046 0.034 0
327 0.048 0.034 0
328 0.05 0.034 0
329 0.08400000000000001 0.034 0
330 0.08600000000000001 0.034 0
331 0.08799999999999999 0.034 0
332 0.09 0.034 0
333 0.092 0.034 0
334 0.094 0.034 0
335 0.096 0.034 0
336 0.098 0.034 0
337 0.1 0.034 0
338 0.036 0.036 0
339 0.038 0.036 0
340 0.04 0.036 0
341 0.042 0.036 0
342 0.044 0.036 0
343 0.046 0.036 0
344 0.048 0.036 0
345 0.05 0.036 0
346 0.052 0.036 0
347 0.082 0.036 0
348 0.08400000000000001 0.036 0
349 0.08600000000000001 0.036 0
350 0.08799999999999999 0.036 0
351 0.09 0.036 0
352 0.092 0.036 0
353 0.094 0.036 0
354 0.096 0.036 0
355 0.098 0.036 0
356 0.038 0.038 0
357 0.04 0.038 0
358 0.042 0.038 0
359 0.044 0.038 0
360 0.046 0.038 0
361 0.048 0.038 0
362 0.05 0.038 0
363 0.052 0.038 0
364 0.054 0.038 0
365 0.08 0.038 0
366 0.082 0.038 0
367 0.08400000000000001 0.038 0
368 0.08600000000000001 0.038 0
369 0.08799999999999999 0.038 0
370 0.09 0.038 0
371 0.092 0.038 0
372 0.094 0.038 0
373 0.096 0.038 0
374 0.038 0.04 0
375 0.04 0.04 0
376 0.042 0.04 0
377 0.044 0.04 0
378 0.046 0.04 0
379 0.048 0.04 0
380 0.05 0.04 0
381 0.052 0.04 0
382 0.054 0.04 0
383 0.08 0.04 0
384 0.082 0.04 0
385 0.08400000000000001 0.04 0
386 0.08600000000000001 0.04 0
387 0.08799999999999999 0.04 0
388 0.09 0.04 0
389 0.092 0.04 0
390 0.094 0.04 0
391 0.096 0.04 0
392 0.04 0.042 0
393 0.042 0.042 0
394 0.044 0.042 0
395 0.046 0.042 0
396 0.048 0.042 0
397 0.05 0.042 0
398 0.052 0.042 0
399 0.054 0.042 0
400 0.056 0.042 0
401 0.058 0.042 0
402 0.06 0.042 0
403 0.062 0.042 0
404 0.064 0.042 0
405 0.066 0.042 0
406 0.068 0.042 0
407 0.07000000000000001 0.042 0
408 0.07200000000000001 0.042 0
409 0.074 0.042 0
410 0.076 0.042 0
411 0.078 0.042 0
412 0.08 0.042 0
413 0.082 0.042 0
414 0.08400000000000001 0.042 0
415 0.08600000000000001 0.042 0
416 0.08799999999999999 0.042 0
417 0.09 0.042 0
418 0.092 0.042 0
419 0.094 0.042 0
420 0.042 0.044 0
421 0.044 0.044 0
422 0.046 0.044 0
423 0.048 0.044 0
424 0.05 0.044 0
425 0.052 0.044 0
426 0.054 0.044 0
427 0.056 0.044 0
428 0.058 0.044 0
429 0.06 0.044 0
430 0.062 0.044 0
431 0.064 0.044 0
432 0.066 0.044 0
433 0.068 0.044 0
434 0.07000000000000001 0.044 0
435 0.07200000000000001 0.044 0
436 0.074 0.044 0
437 0.076 0.044 0
438 0.078 0.044 0
439 0.08 0.044 0
440 0.082 0.044 0
441 0.08400000000000001 0.044 0
442 0.08600000000000001 0.044 0
443 0.08799999999999999 0.044 0
444 0.09 0.044 0
445 0.092 0.044 0
446 0.042 0.046 0
447 0.044 0.046 0
448 0.046 0.046 0
449 0.048 0.046 0
450 0.05 0.046 0
451 0.052 0.046 0
452 0.054 0.046 0
453 0.056 0.046 0
454 0.058 0.046 0
455 0.06 0.046 0
456 0.062 0.046 0
457 0.064 0.046 0
458 0.066 0.046 0
459 0.068 0.046 0
460 0.07000000000000001 0.046 0
461 0.07200000000000001 0.046 0
462 0.074 0.046 0
463 0.076 0.046 0
464 0.078 0.046 0
465 0.08 0.046 0
466 0.082 0.046 0
467 0.08400000000000001 0.046 0
468 0.08600000000000001 0.046 0
469 0.08799999999999999 0.046 0
470 0.09 0.046 0
471 0.092 0.046 0
472 0.044 0.048 0
473 0.046 0.048 0
474 0.048 0.048 0
475 0.05 0.048 0
476 0.052 0.048 0
477 0.054 0.048 0
478 0.056 0.048 0
479 0.058 0.048 0
480 0.06 0.048 0
481 0.062 0.048 0
482 0.064 0.048 0
483 0.066 0.048 0
484 0.068 0.048 0
485 0.07000000000000001 0.048 0
486 0.07200000000000001 0.048 0
487 0.074 0.048 0
488 0.076 0.048 0
489 0.078 0.048 0
490 0.08 0.048 0
491 0.082 0.048 0
492 0.08400000000000001 0.048 0
493 0.08600000000000001 0.048 0
494 0.08799999999999999 0.048 0
495 0.09 0.048 0
496 0.046 0.05 0
497 0.048 0.05 0
498 0.05 0.05 0
499 0.052 0.05 0
500 0.054 0.05 0
501 0.056 0.05 0
502 0.058 0.05 0
503 0.06 0.05 0
504 0.062 0.05 0
505 0.064 0.05 0
506 0.066 0.05 0
507 0.068 0.05 0
508 0.07000000000000001 0.05 0
509 0.07200000000000001 0.05 0
510 0.074 0.05 0
511 0.076 0.05 0
512 0.078 0.05 0
513 0.08 0.05 0
514 0.082 0.05 0
515 0.08400000000000001 0.05 0
516 0.08600000000000001 0.05 0
517 0.08799999999999999 0.05 0
518 0.046 0.052 0
519 0.048 0.052 0
520 0.05 0.052 0
521 0.052 0.052 0
522 0.054 0.052 0
523 0.056 0.052 0
524 0.058 0.052 0
525 0.06 0.052 0
526 0.062 0.052 0
527 0.064 0.052 0
528 0.066 0.052 0
529 0.068 0.052 0
530 0.07000000000000001 0.052 0
531 0.07200000000000001 0.052 0
532 0.074 0.052 0
533 0.076 0.052 0
534 0.078 0.052 0
535 0.08 0.052 0
536 0.082 0.052 0
537 0.08400000000000001 0.052 0
538 0.08600000000000001 0.052 0
539 0.08799999999999999 0.052 0
540 0.048 0.054 0
541 0.05 0.054 0
542 0.052 0.054 0
543 0.054 0.054 0
544 0.056 0.054 0
545 0.058 0.054 0
546 0.06 0.054 0
547 0.062 0.054 0
548 0.064 0.054 0
549 0.066 0.054 0
550 0.068 0.054 0
551 0.07000000000000001 0.054 0
552 0.07200000000000001 0.054 0
553 0.074 0.054 0
554 0.076 0.054 0
555 0.078 0.054 0
556 0.08 0.054 0
557 0.082 0.054 0
558 0.08400000000000001 0.054 0
559 0.08600000000000001 0.054 0
560 0.046 0.076 0
561 0.048 0.076 0
562 0.05 0.076 0
563 0.052 0.076 0
564 0.054 0.076 0
565 0.056 0.076 0
566 0.058 0.076 0
567 0.06 0.076 0
568 0.062 0.076 0
569 0.064 0.076 0
570 0.066 0.076 0
571 0.068 0.076 0
572 0.07000000000000001 0.076 0
573 0.07200000000000001 0.076 0
574 0.074 0.076 0
575 0.076 0.076 0
576 0.078 0.076 0
577 0.08 0.076 0
578 0.082 0.076 0
579 0.08400000000000001 0.076 0
580 0.08600000000000001 0.076 0
581 0.08799999999999999 0.076 0
582 0.09 0.076 0
583 0.044 0.078 0
584 0.046 0.078 0
585 0.048 0.078 0
586 0.05 0.078 0
587 0.052 0.078 0
588 0.054 0.078 0
589 0.056 0.078 0
590 0.058 0.078 0
591 0.06 0.078 0
592 0.062 0.078 0
593 0.064 0.078 0
594 0.066 0.078 0
595 0.068 0.078 0
596 0.07000000000000001 0.078 0
597 0.07200000000000001 0.078 0
598 0.074 0.078 0
599 0.076 0.078 0
600 0.078 0.078 0
601 0.08 0.078 0
602 0.082 0.078 0
603 0.08400000000000001 0.078 0
604 0.08600000000000001 0.078 0
605 0.08799999999999999 0.078 0
606 0.09 0.078 0
607 0.092 0.078 0
608 0.042 0.08 0
609 0.044 0.08 0
610 0.046 0.08 0
611 0.048 0.08 0
612 0.05 0.08 0
613 0.052 0.08 0
614 0.054 0.08 0
615 0.056 0.08 0
616 0.058 0.08 0
617 0.06 0.08 0
618 0.062 0.08 0
619 0.064 0.08 0
620 0.066 0.08 0
621 0.068 0.08 0
622 0.07000000000000001 0.08 0
623 0.07200000000000001 0.08 0
624 0.074 0.08 0
625 0.076 0.08 0
626 0.078 0.08 0
627 0.08 0.08 0
628 0.082 0.08 0
629 0.08400000000000001 0.08 0
630 0.08600000000000001 0.08 0
631 0.08799999999999999 0.08 0
632 0.09 0.08 0
633 0.092 0.08 0
634 0.094 0.08 0
635 0.04 0.082 0
636 0.042 0.082 0
637 0.044 0.082 0
638 0.046 0.082 0
639 0.048 0.082 0
640 0.05 0.082 0
641 0.052 0.082 0
642 0.054 0.082 0
643 0.056 0.082 0
644 0.058 0.082 0
645 0.06 0.082 0
646 0.062 0.082 0
647 0.064 0.082 0
648 0.066 0.082 0
649 0.068 0.082 0
650 0.07000000000000001 0.082 0
651 0.07200000000000001 0.082 0
652 0.074 0.082 0
653 0.076 0.082 0
654 0.078 0.082 0
655 0.08 0.082 0
656 0.082 0.082 0
657 0.08400000000000001 0.082 0
658 0.08600000000000001 0.082 0
659 0.08799999999999999 0.082 0
660 0.09 0.082 0
661 0.092 0.082 0
662 0.094 0.082 0
663 0.096 0.082 0
664 0.04 0.08400000000000001 0
665 0.042 0.08400000000000001 0
666 0.044 0.08400000000000001 0
667 0.046 0.08400000000000001 0
668 0.048 0.08400000000000001 0
669 0.05 0.08400000000000001 0
670 0.052 0.08400000000000001 0
671 0.054 0.08400000000000001 0
672 0.056 0.08400000000000001 0
673 0.058 0.08400000000000001 0
674 0.06 0.08400000000000001 0
675 0.062 0.08400000000000001 0
676 0.064 0.08400000000000001 0
677 0.066 0.08400000000000001 0
678 0.068 0.08400000000000001 0
679 0.07000000000000001 0.08400000000000001 0
680 0.07200000000000001 0.08400000000000001 0
681 0.074 0.08400000000000001 0
682 0.076 0.08400000000000001 0
683 0.078 0.08400000000000001 0
684 0.08 0.08400000000000001 0
685 0.082 0.08400000000000001 0
686 0.08400000000000001 0.08400000000000001 0
687 0.08600000000000001 0.08400000000000001 0
688 0.08799999999999999 0.08400000000000001 0
689 0.09 0.08400000000000001 0
690 0.092 0.08400000000000001 0
691 0.094 0.08400000000000001 0
692 0.096 0.08400000000000001 0
693 0.038 0.08600000000000001 0
694 0.04 0.08600000000000001 0
695 0.042 0.08600000000000001 0
696 0.044 0.08600000000000001 0
697 0.046 0.08600000000000001 0
698 0.048 0.08600000000000001 0
699 0.05 0.08600000000000001 0
700 0.052 0.08600000000000001 0
701 0.054 0.08600000000000001 0
702 0.056 0.08600000000000001 0
703 0.058 0.08600000000000001 0
704 0.06 0.08600000000000001 0
705 0.062 0.08600000000000001 0
706 0.064 0.08600000000000001 0
707 0.066 0.08600000000000001 0
708 0.068 0.08600000000000001 0
709 0.07000000000000001 0.08600000000000001 0
710 0.07200000000000001 0.08600000000000001 0
711 0.074 0.08600000000000001 0
712 0.076 0.08600000000000001 0
713 0.078 0.08600000000000001 0
714 0.08 0.08600000000000001 0
715 0.082 0.08600000000000001 0
716 0.08400000000000001 0.08600000000000001 0
717 0.08600000000000001 0.08600000000000001 0
718 0.08799999999999999 0.08600000000000001 0
719 0.09 0.08600000000000001 0
720 0.092 0.08600000000000001 0
721 0.094 0.08600000000000001 0
722 0.096 0.08600000000000001 0
723 0.098 0.08600000000000001 0
724 0.036 0.08799999999999999 0
725 0.038 0.08799999999999999 0
726 0.04 0.08799999999999999 0
727 0.042 0.08799999999999999 0
728 0.044 0.08799999999999999 0
729 0.046 0.08799999999999999 0
730 0.048 0.08799999999999999 0
731 0.05 0.08799999999999999 0
732 0.052 0.08799999999999999 0
733 0.054 0.08799999999999999 0
734 0.056 0.08799999999999999 0
735 0.058 0.08799999999999999 0
736 0.06 0.08799999999999999 0
737 0.062 0.08799999999999999 0
738 0.064 0.08799999999999999 0
739 0.066 0.08799999999999999 0
740 0.068 0.08799999999999999 0
741 0.07000000000000001 0.08799999999999999 0
742 0.07200000000000001 0.08799999999999999 0
743 0.074 0.08799999999999999 0
744 0.076 0.08799999999999999 0
745 0.078 0.08799999999999999 0
746 0.08 0.08799999999999999 0
747 0.082 0.08799999999999999 0
748 0.08400000000000001 0.08799999999999999 0
749 0.08600000000000001 0.08799999999999999 0
750 0.08799999999999999 0.08799999999999999 0
751 0.09 0.08799999999999999 0
752 0.092 0.08799999999999999 0
753 0.094 0.08799999999999999 0
754 0.096 0.08799999999999999 0
755 0.098 0.08799999999999999 0
756 0.1 0.08799999999999999 0
757 0.034 0.09 0
758 0.036 0.09 0
759 0.038 0.09 0
760 0.04 0.09 0
761 0.042 0.09 0
762 0.044 0.09 0
763 0.046 0.09 0
764 0.048 0.09 0
765 0.05 0.09 0
766 0.052 0.09 0
767 0.08400000000000001 0.09 0
768 0.08600000000000001 0.09 0
769 0.08799999999999999 0.09 0
770 0.09 0.09 0
771 0.092 0.09 0
772 0.094 0.09 0
773 0.096 0.09 0
774 0.098 0.09 0
775 0.1 0.09 0
776 0.102 0.09 0
777 0.032 0.092 0
778 0.034 0.092 0
779 0.036 0.092 0
780 0.038 0.092 0
781 0.04 0.092 0
782 0.042 0.092 0
783 0.044 0.092 0
784 0.046 0.092 0
785 0.048 0.092 0
786 0.05 0.092 0
787 0.08600000000000001 0.092 0
788 0.08799999999999999 0.092 0
789 0.09 0.092 0
790 0.092 0.092 0
791 0.094 0.092 0
792 0.096 0.092 0
793 0.098 0.092 0
794 0.1 0.092 0
795 0.102 0.092 0
796 0.104 0.092 0
797 0.03 0.094 0
798 0.032 0.094 0
799 0.034 0.094 0
800 0.036 0.094 0
801 0.038 0.094 0
802 0.04 0.094 0
803 0.042 0.094 0
804 0.044 0.094 0
805 0.046 0.094 0
806 0.048 0.094 0
807 0.08799999999999999 0.094 0
808 0.09 0.094 0
809 0.092 0.094 0
810 0.094 0.094 0
811 0.096 0.094 0
812 0.098 0.094 0
813 0.1 0.094 0
814 0.102 0.094 0
815 0.104 0.094 0
816 0.106 0.094 0
817 0.028 0.096 0
818 0.03 0.096 0
819 0.032 0.096 0
820 0.034 0.096 0
821 0.036 0.096 0
822 0.038 0.096 0
823 0.04 0.096 0
824 0.042 0.096 0
825 0.044 0.096 0
826 0.046 0.096 0
827 0.09 0.096 0
828 0.092 0.096 0
829 0.094 0.096 0
830 0.096 0.096 0
831 0.098 0.096 0
832 0.1 0.096 0
833 0.102 0.096 0
834 0.104 0.096 0
835 0.106 0.096 0
836 0.108 0.096 0
837 0 0.098 0
838 0.002 0.098 0
839 0.004 0.098 0
840 0.006 0.098 0
841 0.008 0.098 0
842 0.01 0.098 0
843 0.012 0.098 0
844 0.014 0.098 0
845 0.016 0.098 0
846 0.018 0.098 0
847 0.02 0.098 0
848 0.022 0.098 0
849 0.024 0.098 0
850 0.026 0.098 0
851 0.028 0.098 0
852 0.03 0.098 0
853 0.032 0.098 0
854 0.034 0.098 0
855 0.036 0.098 0
856 0.038 0.098 0
857 0.04 0.098 0
858 0.042 0.098 0
859 0.044 0.098 0
860 0.092 0.098 0
861 0.094 0.098 0
862 0.096 0.098 0
863 0.098 0.098 0
864 0.1 0.098 0
865 0.102 0.098 0
866 0.104 0.098 0
867 0.106 0.098 0
868 0.108 0.098 0
869 0.11 0.098 0
870 0.112 0.098 0
871 0.114 0.098 0
872 0.116 0.098 0
873 0.118 0.098 0
874 0.12 0.098 0
875 0.122 0.098 0
876 0.124 0.098 0
877 0.126 0.098 0
878 0.128 0.098 0
879 0 0.1 0
880 0.002 0.1 0
881 0.004 0.1 0
882 0.006 0.1 0
883 0.008 0.1 0
884 0.01 0.1 0
885 0.012 0.1 0
886 0.014 0.1 0
887 0.016 0.1 0
888 0.018 0.1 0
889 0.02 0.1 0
890 0.022 0.1 0
891 0.024 0.1 0
892 0.026 0.1 0
893 0.028 0.1 0
894 0.03 0.1 0
895 0.032 0.1 0
896 0.034 0.1 0
897 0.036 0.1 0
898 0.038 0.1 0
899 0.04 0.1 0
900 0.042 0.1 0
901 0.094 0.1 0
902 0.096 0.1 0
903 0.098 0.1 0
904 0.1 0.1 0
905 0.102 0.1 0
906 0.104 0.1 0
907 0.106 0.1 0
908 0.108 0.1 0
909 0.11 0.1 0
910 0.112 0.1 0
911 0.114 0.1 0
912 0.116 0.1 0
913 0.118 0.1 0
914 0.12 0.1 0
915 0.122 0.1 0
916 0.124 0.1 0
917 0.126 0.1 0
918 0.128 0.1 0
919 0 0.102 0
920 0.002 0.102 0
921 0.004 0.102 0
922 0.006 0.102 0
923 0.008 0.102 0
924 0.01 0.102 0
925 0.012 0.102 0
926 0.014 0.102 0
927 0.016 0.102 0
928 0.018 0.102 0
929 0.02 0.102 0
930 0.022 0.102 0
931 0.024 0.102 0
932 0.026 0.102 0
933 0.028 0.102 0
934 0.03 0.102 0
935 0.032 0.102 0
936 0.034 0.102 0
937 0.036 0.102 0
938 0.038 0.102 0
939 0.04 0.102 0
940 0.096 0.102 0
941 0.098 0.102 0
942 0.1 0.102 0
943 0.102 0.102 0
944 0.104 0.102 0
945 0.106 0.102 0
946 0.108 0.102 0
947 0.11 0.102 0
948 0.112 0.102 0
949 0.114 0.102 0
950 0.116 0.102 0
951 0.118 0.102 0
952 0.12 0.102 0
953 0.122 0.102 0
954 0.124 0.102 0
955 0.126 0.102 0
956 0.128 0.102 0
957 0 0.104 0
958 0.002 0.104 0
959 0.004 0.104 0
960 0.006 0.104 0
961 0.008 0.104 0
962 0.01 0.104 0
963 0.012 0.104 0
964 0.014 0.104 0
965 0.016 0.104 0
966 0.018 0.104 0
967 0.02 0.104 0
968 0.022 0.104 0
969 0.024 0.104 0
970 0.026 0.104 0
971 0.028 0.104 0
972 0.03 0.104 0
973 0.032 0.104 0
974 0.034 0.104 0
975 0.036 0.104 0
976 0.038 0.104 0
977 0.04 0.104 0
978 0.096 0.104 0
979 0.098 0.104 0
980 0.1 0.104 0
981 0.102 0.104 0
982 0.104 0.104 0
983 0.106 0.104 0
984 0.108 0.104 0
985 0.11 0.104 0
986 0.112 0.104 0
987 0.114 0.104 0
988 0.116 0.104 0
989 0.118 0.104 0
990 0.12 0.104 0
991 0.122 0.104 0
992 0.124 0.104 0
993 0.126 0.104 0
994 0.128 0.104 0
995 0 0.106 0
996 0.002 0.106 0
997 0.004 0.106 0
998 0.006 0.106 0
999 0.008 0.106 0
1000 0.01 0.106 0
1001 0.012 0.106 0
1002 0.014 0.106 0
1003 0.016 0.106 0
1004 0.018 0.106 0
1005 0.02 0.106 0
1006 0.022 0.106 0
1007 0.024 0.106 0
1008 0.026 0.106 0
1009 0.028 0.106 0
1010 0.03 0.106 0
1011 0.032 0.106 0
1012 0.034 0.106 0
1013 0.036 0.106 0
1014 0.038 0.106 0
1015 0.098 0.106 0
1016 0.1 0.106 0
1017 0.102 0.106 0
1018 0.104 0.106 0
1019 0.106 0.106 0
1020 0.108 0.106 0
1021 0.11 0.106 0
1022 0.112 0.106 0
1023 0.114 0.106 0
1024 0.116 0.106 0
1025 0.118 0.106 0
1026 0.12 0.106 0
1027 0.122 0.106 0
1028 0.124 0.106 0
1029 0.126 0.106 0
1030 0.128 0.106 0
1031 0 0.108 0
1032 0.002 0.108 0
1033 0.004 0.108 0
1034 0.006 0.108 0
1035 0.008 0.108 0
1036 0.01 0.108 0
1037 0.012 0.108 0
1038 0.014 0.108 0
1039 0.016 0.108 0
1040 0.018 0.108 0
1041 0.02 0.108 0
1042 0.022 0.108 0
1043 0.024 0.108 0
1044 0.026 0.108 0
1045 0.028 0.108 0
1046 0.03 0.108 0
1047 0.032 0.108 0
1048 0.034 0.108 0
1049 0.036 0.108 0
1050 0.1 0.108 0
1051 0.102 0.108 0
1052 0.104 0.108 0
1053 0.106 0.108 0
1054 0.108 0.108 0
1055 0.11 0.108 0
1056 0.112 0.108 0
1057 0.114 0.108 0
1058 0.116 0.108 0
1059 0.118 0.108 0
1060 0.12 0.108 0
1061 0.122 0.108 0
1062 0.124 0.108 0
1063 0.126 0.108 0
1064 0.128 0.108 0
1065 0 0.11 0
1066 0.002 0.11 0
1067 0.004 0.11 0
1068 0.006 0.11 0
1069 0.008 0.11 0
1070 0.01 0.11 0
1071 0.012 0.11 0
1072 0.014 0.11 0
1073 0.016 0.11 0
1074 0.018 0.11 0
1075 0.02 0.11 0
1076 0.022 0.11 0
1077 0.024 0.11 0
1078 0.026 0.11 0
1079 0.028 0.11 0
1080 0.03 0.11 0
1081 0.032 0.11 0
1082 0.034 0.11 0
1083 0.102 0.11 0
1084 0.104 0.11 0
1085 0.106 0.11 0
1086 0.108 0.11 0
1087 0.11 0.11 0
1088 0.112 0.11 0
1089 0.114 0.11 0
1090 0.116 0.11 0
1091 0.118 0.11 0
1092 0.12 0.11 0
1093 0.122 0.11 0
1094 0.124 0.11 0
1095 0.126 0.11 0
1096 0.128 0.11 0
$EndNodes
$Elements
2188
1 1 2 3 3 1 2
2 1 2 1 1 1 40
3 1 2 3 3 2 3
4 1 2 3 3 3 4
5 1 2 3 3 4 5
6 1 2 3 3 5 6
7 1 2 3 3 6 7
8 1 2 3 3 7 8
9 1 2 3 3 8 9
10 1 2 3 3 9 10
11 1 2 3 3 10 11
12 1 2 3 3 11 12
13 1 2 3 3 12 13
14 1 2 3 3 13 14
15 1 2 3 3 14 15
16 1 2 3 3 15 16
17 1 2 3 3 16 17
18 1 2 3 3 17 18
19 1 2 3 3 18 19
20 1 2 3 3 19 20
21 1 2 3 3 20 21
22 1 2 3 3 21 60
23 1 2 3 3 22 23
24 1 2 3 3 22 63
25 1 2 3 3 23 24
26 1 2 3 3 24 25
27 1 2 3 3 25 26
28 1 2 3 3 26 27
29 1 2 3 3 27 28
30 1 2 3 3 28 29
31 1 2 3 3 29 30
32 1 2 3 3 30 31
33 1 2 3 3 31 32
34 1 2 3 3 32 33
35 1 2 3 3 33 34
36 1 2 3 3 34 35
37 1 2 3 3 35 36
38 1 2 3 3 36 37
39 1 2 3 3 37 38
40 1 2 3 3 38 39
41 1 2 2 2 39 80
42 1 2 1 1 40 81
43 1 2 3 3 60 61
44 1 2 3 3 61 102
45 1 2 3 3 62 63
46 1 2 3 3 62 103
47 1 2 2 2 80 121
48 1 2 1 1 81 122
49 1 2 3 3 102 143
50 1 2 3 3 103 146
51 1 2 2 2 121 164
52 1 2 1 1 122 165
53 1 2 3 3 143 144
54 1 2 3 3 144 187
55 1 2 3 3 145 146
56 1 2 3 3 145 190
57 1 2 2 2 164 209
58 1 2 1 1 165 210
59 1 2 3 3 187 188
60 1 2 3 3 188 233
61 1 2 3 3 189 190
62 1 2 3 3 189 234
63 1 2 2 2 209 254
64 1 2 3 3 255 256
65 1 2 1 1 210 255
66 1 2 3 3 256 257
67 1 2 3 3 257 258
68 1 2 3 3 258 259
69 1 2 3 3 259 260
70 1 2 3 3 260 261
71 1 2 3 3 261 262
72 1 2 3 3 262 263
73 1 2 3 3 263 264
74 1 2 3 3 264 265
75 1 2 3 3 265 266
76 1 2 3 3 266 267
77 1 2 3 3 267 268
78 1 2 3 3 268 269
79 1 2 3 3 269 270
80 1 2 3 3 270 271
81 1 2 3 3 271 272
82 1 2 3 3 233 278
83 1 2 3 3 234 281
84 1 2 3 3 287 288
85 1 2 3 3 288 289
86 1 2 3 3 289 290
87 1 2 3 3 290 291
88 1 2 3 3 291 292
89 1 2 3 3 292 293
90 1 2 3 3 293 294
91 1 2 3 3 294 295
92 1 2 3 3 295 296
93 1 2 3 3 296 297
94 1 2 3 3 297 298
95 1 2 3 3 298 299
96 1 2 3 3 299 300
97 1 2 2 2 254 301
98 1 2 3 3 300 301
99 1 2 3 3 272 302
100 1 2 3 3 278 279
101 1 2 3 3 279 309
102 1 2 3 3 280 281
103 1 2 3 3 280 312
104 1 2 3 3 287 319
105 1 2 3 3 320 321
106 1 2 3 3 302 320
107 1 2 3 3 309 310
108 1 2 3 3 310 328
109 1 2 3 3 311 312
110 1 2 3 3 311 329
111 1 2 3 3 319 337
112 1 2 3 3 336 337
113 1 2 3 3 338 339
114 1 2 3 3 321 338
115 1 2 3 3 328 345
116 1 2 3 3 329 348
117 1 2 3 3 336 355
118 1 2 3 3 354 355
119 1 2 3 3 339 356
120 1 2 3 3 345 346
121 1 2 3 3 346 363
122 1 2 3 3 347 348
123 1 2 3 3 347 366
124 1 2 3 3 354 373
125 1 2 3 3 374 375
126 1 2 3 3 356 374
127 1 2 3 3 363 364
128 1 2 3 3 364 382
129 1 2 3 3 365 366
130 1 2 3 3 365 383
131 1 2 3 3 373 391
132 1 2 3 3 390 391
133 1 2 3 3 392 393
134 1 2 3 3 375 392
135 1 2 3 3 382 399
136 1 2 3 3 383 412
137 1 2 3 3 390 419
138 1 2 3 3 418 419
139 1 2 3 3 393 420
140 1 2 3 3 399 400
141 1 2 3 3 400 401
142 1 2 3 3 401 402
143 1 2 3 3 402 403
144 1 2 3 3 403 404
145 1 2 3 3 404 405
146 1 2 3 3 405 406
147 1 2 3 3 406 407
148 1 2 3 3 407 408
149 1 2 3 3 408 409
150 1 2 3 3 409 410
151 1 2 3 3 410 411
152 1 2 3 3 411 412
153 1 2 3 3 418 445
154 1 2 3 3 446 447
155 1 2 3 3 420 446
156 1 2 3 3 445 471
157 1 2 3 3 470 471
158 1 2 3 3 472 473
159 1 2 3 3 447 472
160 1 2 3 3 470 495
161 1 2 3 3 494 495
162 1 2 3 3 473 496
163 1 2 3 3 494 517
164 1 2 3 3 518 519
165 1 2 3 3 496 518
166 1 2 3 3 517 539
167 1 2 3 3 538 539
168 1 2 3 3 540 541
169 1 2 3 3 519 540
170 1 2 3 3 541 542
171 1 2 3 3 542 543
172 1 2 3 3 543 544
173 1 2 3 3 544 545
174 1 2 3 3 545 546
175 1 2 3 3 546 547
176 1 2 3 3 547 548
177 1 2 3 3 548 549
178 1 2 3 3 549 550
179 1 2 3 3 550 551
180 1 2 3 3 551 552
181 1 2 3 3 552 553
182 1 2 3 3 553 554
183 1 2 3 3 554 555
184 1 2 3 3 555 556
185 1 2 3 3 556 557
186 1 2 3 3 557 558
187 1 2 3 3 538 559
188 1 2 3 3 558 559
189 1 2 3 3 560 561
190 1 2 3 3 560 584
191 1 2 3 3 561 562
192 1 2 3 3 562 563
193 1 2 3 3 563 564
194 1 2 3 3 564 565
195 1 2 3 3 565 566
196 1 2 3 3 566 567
197 1 2 3 3 567 568
198 1 2 3 3 568 569
199 1 2 3 3 569 570
200 1 2 3 3 570 571
201 1 2 3 3 571 572
202 1 2 3 3 572 573
203 1 2 3 3 573 574
204 1 2 3 3 574 575
205 1 2 3 3 575 576
206 1 2 3 3 576 577
207 1 2 3 3 577 578
208 1 2 3 3 578 579
209 1 2 3 3 579 580
210 1 2 3 3 580 581
211 1 2 3 3 581 582
212 1 2 3 3 582 606
213 1 2 3 3 583 584
214 1 2 3 3 583 609
215 1 2 3 3 606 607
216 1 2 3 3 607 633
217 1 2 3 3 608 609
218 1 2 3 3 608 636
219 1 2 3 3 633 634
220 1 2 3 3 634 662
221 1 2 3 3 635 636
222 1 2 3 3 635 664
223 1 2 3 3 662 663
224 1 2 3 3 663 692
225 1 2 3 3 664 694
226 1 2 3 3 692 722
227 1 2 3 3 693 694
228 1 2 3 3 693 725
229 1 2 3 3 732 733
230 1 2 3 3 733 734
231 1 2 3 3 734 735
232 1 2 3 3 735 736
233 1 2 3 3 736 737
234 1 2 3 3 737 738
235 1 2 3 3 738 739
236 1 2 3 3 739 740
237 1 2 3 3 740 741
238 1 2 3 3 741 742
239 1 2 3 3 742 743
240 1 2 3 3 743 744
241 1 2 3 3 744 745
242 1 2 3 3 745 746
243 1 2 3 3 746 747
244 1 2 3 3 747 748
245 1 2 3 3 722 723
246 1 2 3 3 723 755
247 1 2 3 3 724 725
248 1 2 3 3 724 758
249 1 2 3 3 732 766
250 1 2 3 3 765 766
251 1 2 3 3 767 768
252 1 2 3 3 748 767
253 1 2 3 3 755 756
254 1 2 3 3 756 775
255 1 2 3 3 757 758
256 1 2 3 3 757 778
257 1 2 3 3 765 786
258 1 2 3 3 785 786
259 1 2 3 3 787 788
260 1 2 3 3 768 787
261 1 2 3 3 775 776
262 1 2 3 3 776 795
263 1 2 3 3 777 778
264 1 2 3 3 777 798
265 1 2 3 3 785 806
266 1 2 3 3 805 806
267 1 2 3 3 807 808
268 1 2 3 3 788 807
269 1 2 3 3 795 796
270 1 2 3 3 796 815
271 1 2 3 3 797 798
272 1 2 3 3 797 818
273 1 2 3 3 805 826
274 1 2 3 3 825 826
275 1 2 3 3 827 828
276 1 2 3 3 808 827
277 1 2 3 3 815 816
278 1 2 3 3 816 835
279 1 2 3 3 817 818
280 1 2 3 3 817 851
281 1 2 3 3 825 859
282 1 2 3 3 858 859
283 1 2 3 3 860 861
284 1 2 3 3 828 860
285 1 2 3 3 835 836
286 1 2 3 3 836 868
287 1 2 3 3 837 838
288 1 2 1 1 837 879
289 1 2 3 3 838 839
290 1 2 3 3 839 840
291 1 2 3 3 840 841
292 1 2 3 3 841 842
293 1 2 3 3 842 843
294 1 2 3 3 843 844
295 1 2 3 3 844 845
296 1 2 3 3 845 846
297 1 2 3 3 846 847
298 1 2 3 3 847 848
299 1 2 3 3 848 849
300 1 2 3 3 849 850
301 1 2 3 3 850 851
302 1 2 3 3 858 900
303 1 2 3 3 899 900
304 1 2 3 3 901 902
305 1 2 3 3 861 901
306 1 2 3 3 868 869
307 1 2 3 3 869 870
308 1 2 3 3 870 871
309 1 2 3 3 871 872
310 1 2 3 3 872 873
311 1 2 3 3 873 874
312 1 2 3 3 874 875
313 1 2 3 3 875 876
314 1 2 3 3 876 877
315 1 2 3 3 877 878
316 1 2 2 2 878 918
317 1 2 1 1 879 919
318 1 2 3 3 899 939
319 1 2 3 3 902 940
320 1 2 2 2 918 956
321 1 2 1 1 919 957
322 1 2 3 3 939 977
323 1 2 3 3 976 977
324 1 2 3 3 978 979
325 1 2 3 3 940 978
326 1 2 2 2 956 994
327 1 2 1 1 957 995
328 1 2 3 3 976 1014
329 1 2 3 3 1013 1014
330 1 2 3 3 1015 1016
331 1 2 3 3 979 1015
332 1 2 2 2 994 1030
333 1 2 1 1 995 1031
334 1 2 3 3 1013 1049
335 1 2 3 3 1048 1049
336 1 2 3 3 1050 1051
337 1 2 3 3 1016 1050
338 1 2 2 2 1030 1064
339 1 2 3 3 1065 1066
340 1 2 1 1 1031 1065
341 1 2 3 3 1066 1067
342 1 2 3 3 1067 1068
343 1 2 3 3 1068 1069
344 1 2 3 3 1069 1070
345 1 2 3 3 1070 1071
346 1 2 3 3 1071 1072
347 1 2 3 3 1072 1073
348 1 2 3 3 1073 1074
349 1 2 3 3 1074 1075
350 1 2 3 3 1075 1076
351 1 2 3 3 1076 1077
352 1 2 3 3 1077 1078
353 1 2 3 3 1078 1079
354 1 2 3 3 1079 1080
355 1 2 3 3 1080 1081
356 1 2 3 3 1048 1082
357 1 2 3 3 1081 1082
358 1 2 3 3 1083 1084
359 1 2 3 3 1051 1083
360 1 2 3 3 1084 1085
361 1 2 3 3 1085 1086
362 1 2 3 3 1086 1087
363 1 2 3 3 1087 1088
364 1 2 3 3 1088 1089
365 1 2 3 3 1089 1090
366 1 2 3 3 1090 1091
367 1 2 3 3 1091 1092
368 1 2 3 3 1092 1093
369 1 2 3 3 1093 1094
370 1 2 3 3 1094 1095
371 1 2 2 2 1064 1096
372 1 2 3 3 1095 1096
373 2 2 10 10 1 2 41
374 2 2 10 10 1 41 40
375 2 2 10 10 2 3 42
376 2 2 10 10 2 42 41
377 2 2 10 10 3 4 43
378 2 2 10 10 3 43 42
379 2 2 10 10 4 5 44
380 2 2 10 10 4 44 43
381 2 2 10 10 5 6 45
382 2 2 10 10 5 45 44
383 2 2 10 10 6 7 46
384 2 2 10 10 6 46 45
385 2 2 10 10 7 8 47
386 2 2 10 10 7 47 46
387 2 2 10 10 8 9 48
388 2 2 10 10 8 48 47
389 2 2 10 10 9 10 49
390 2 2 10 10 9 49 48
391 2 2 10 10 10 11 50
392 2 2 10 10 10 50 49
393 2 2 10 10 11 12 51
394 2 2 10 10 11 51 50
395 2 2 10 10 12 13 52
396 2 2 10 10 12 52 51
397 2 2 10 10 13 14 53
398 2 2 10 10 13 53 52
399 2 2 10 10 14 15 54
400 2 2 10 10 14 54 53
401 2 2 10 10 15 16 55
402 2 2 10 10 15 55 54
403 2 2 10 10 16 17 56
404 2 2 10 10 16 56 55
405 2 2 10 10 17 18 57
406 2 2 10 10 17 57 56
407 2 2 10 10 18 19 58
408 2 2 10 10 18 58 57
409 2 2 10 10 19 20 59
410 2 2 10 10 19 59 58
411 2 2 10 10 20 21 60
412 2 2 10 10 20 60 59
413 2 2 10 10 22 23 64
414 2 2 10 10 22 64 63
415 2 2 10 10 23 24 65
416 2 2 10 10 23 65 64
417 2 2 10 10 24 25 66
418 2 2 10 10 24 66 65
419 2 2 10 10 25 26 67
420 2 2 10 10 25 67 66
421 2 2 10 10 26 27 68
422 2 2 10 10 26 68 67
423 2 2 10 10 27 28 69
424 2 2 10 10 27 69 68
425 2 2 10 10 28 29 70
426 2 2 10 10 28 70 69
427 2 2 10 10 29 30 71
428 2 2 10 10 29 71 70
429 2 2 10 10 30 31 72
430 2 2 10 10 30 72 71
431 2 2 10 10 31 32 73
432 2 2 10 10 31 73 72
433 2 2 10 10 32 33 74
434 2 2 10 10 32 74 73
435 2 2 10 10 33 34 75
436 2 2 10 10 33 75 74
437 2 2 10 10 34 35 76
438 2 2 10 10 34 76 75
439 2 2 10 10 35 36 77
440 2 2 10 10 35 77 76
441 2 2 10 10 36 37 78
442 2 2 10 10 36 78 77
443 2 2 10 10 37 38 79
444 2 2 10 10 37 79 78
445 2 2 10 10 38 39 80
446 2 2 10 10 38 80 79
447 2 2 10 10 40 41 82
448 2 2 10 10 40 82 81
449 2 2 10 10 41 42 83
450 2 2 10 10 41 83 82
451 2 2 10 10 42 43 84
452 2 2 10 10 42 84 83
453 2 2 10 10 43 44 85
454 2 2 10 10 43 85 84
455 2 2 10 10 44 45 86
456 2 2 10 10 44 86 85
457 2 2 10 10 45 46 87
458 2 2 10 10 45 87 86
459 2 2 10 10 46 47 88
460 2 2 10 10 46 88 87
461 2 2 10 10 47 48 89
462 2 2 10 10 47 89 88
463 2 2 10 10 48 49 90
464 2 2 10 10 48 90 89
465 2 2 10 10 49 50 91
466 2 2 10 10 49 91 90
467 2 2 10 10 50 51 92
468 2 2 10 10 50 92 91
469 2 2 10 10 51 52 93
470 2 2 10 10 51 93 92
471 2 2 10 10 52 53 94
472 2 2 10 10 52 94 93
473 2 2 10 10 53 54 95
474 2 2 10 10 53 95 94
475 2 2 10 10 54 55 96
476 2 2 10 10 54 96 95
477 2 2 10 10 55 56 97
478 2 2 10 10 55 97 96
479 2 2 10 10 56 57 98
480 2 2 10 10 56 98 97
481 2 2 10 10 57 58 99
482 2 2 10 10 57 99 98
483 2 2 10 10 58 59 100
484 2 2 10 10 58 100 99
485 2 2 10 10 59 60 101
486 2 2 10 10 59 101 100
487 2 2 10 10 60 61 102
488 2 2 10 10 60 102 101
489 2 2 10 10 62 63 104
490 2 2 10 10 62 104 103
491 2 2 10 10 63 64 105
492 2 2 10 10 63 105 104
493 2 2 10 10 64 65 106
494 2 2 10 10 64 106 105
495 2 2 10 10 65 66 107
496 2 2 10 10 65 107 106
497 2 2 10 10 66 67 108
498 2 2 10 10 66 108 107
499 2 2 10 10 67 68 109
500 2 2 10 10 67 109 108
501 2 2 10 10 68 69 110
502 2 2 10 10 68 110 109
503 2 2 10 10 69 70 111
504 2 2 10 10 69 111 110
505 2 2 10 10 70 71 112
506 2 2 10 10 70 112 111
507 2 2 10 10 71 72 113
508 2 2 10 10 71 113 112
509 2 2 10 10 72 73 114
510 2 2 10 10 72 114 113
511 2 2 10 10 73 74 115
512 2 2 10 10 73 115 114
513 2 2 10 10 74 75 116
514 2 2 10 10 74 116 115
515 2 2 10 10 75 76 117
516 2 2 10 10 75 117 116
517 2 2 10 10 76 77 118
518 2 2 10 10 76 118 117
519 2 2 10 10 77 78 119
520 2 2 10 10 77 119 118
521 2 2 10 10 78 79 120
522 2 2 10 10 78 120 119
523 2 2 10 10 79 80 121
524 2 2 10 10 79 121 120
525 2 2 10 10 81 82 123
526 2 2 10 10 81 123 122
527 2 2 10 10 82 83 124
528 2 2 10 10 82 124 123
529 2 2 10 10 83 84 125
530 2 2 10 10 83 125 124
531 2 2 10 10 84 85 126
532 2 2 10 10 84 126 125
533 2 2 10 10 85 86 127
534 2 2 10 10 85 127 126
535 2 2 10 10 86 87 128
536 2 2 10 10 86 128 127
537 2 2 10 10 87 88 129
538 2 2 10 10 87 129 128
539 2 2 10 10 88 89 130
540 2 2 10 10 88 130 129
541 2 2 10 10 89 90 131
542 2 2 10 10 89 131 130
543 2 2 10 10 90 91 132
544 2 2 10 10 90 132 131
545 2 2 10 10 91 92 133
546 2 2 10 10 91 133 132
547 2 2 10 10 92 93 134
548 2 2 10 10 92 134 133
549 2 2 10 10 93 94 135
550 2 2 10 10 93 135 134
551 2 2 10 10 94 95 136
552 2 2 10 10 94 136 135
553 2 2 10 10 95 96 137
554 2 2 10 10 95 137 136
555 2 2 10 10 96 97 138
556 2 2 10 10 96 138 137
557 2 2 10 10 97 98 139
558 2 2 10 10 97 139 138
559 2 2 10 10 98 99 140
560 2 2 10 10 98 140 139
561 2 2 10 10 99 100 141
562 2 2 10 10 99 141 140
563 2 2 10 10 100 101 142
564 2 2 10 10 100 142 141
565 2 2 10 10 101 102 143
566 2 2 10 10 101 143 142
567 2 2 10 10 103 104 147
568 2 2 10 10 103 147 146
569 2 2 10 10 104 105 148
570 2 2 10 10 104 148 147
571 2 2 10 10 105 106 149
572 2 2 10 10 105 149 148
573 2 2 10 10 106 107 150
574 2 2 10 10 106 150 149
575 2 2 10 10 107 108 151
576 2 2 10 10 107 151 150
577 2 2 10 10 108 109 152
578 2 2 10 10 108 152 151
579 2 2 10 10 109 110 153
580 2 2 10 10 109 153 152
581 2 2 10 10 110 111 154
582 2 2 10 10 110 154 153
583 2 2 10 10 111 112 155
584 2 2 10 10 111 155 154
585 2 2 10 10 112 113 156
586 2 2 10 10 112 156 155
587 2 2 10 10 113 114 157
588 2 2 10 10 113 157 156
589 2 2 10 10 114 115 158
590 2 2 10 10 114 158 157
591 2 2 10 10 115 116 159
592 2 2 10 10 115 159 158
593 2 2 10 10 116 117 160
594 2 2 10 10 116 160 159
595 2 2 10 10 117 118 161
596 2 2 10 10 117 161 160
597 2 2 10 10 118 119 162
598 2 2 10 10 118 162 161
599 2 2 10 10 119 120 163
600 2 2 10 10 119 163 162
601 2 2 10 10 120 121 164
602 2 2 10 10 120 164 163
603 2 2 10 10 122 123 166
604 2 2 10 10 122 166 165
605 2 2 10 10 123 124 167
606 2 2 10 10 123 167 166
607 2 2 10 10 124 125 168
608 2 2 10 10 124 168 167
609 2 2 10 10 125 126 169
610 2 2 10 10 125 169 168
611 2 2 10 10 126 127 170
612 2 2 10 10 126 170 169
613 2 2 10 10 127 128 171
614 2 2 10 10 127 171 170
615 2 2 10 10 128 129 172
616 2 2 10 10 128 172 171
617 2 2 10 10 129 130 173
618 2 2 10 10 129 173 172
619 2 2 10 10 130 131 174
620 2 2 10 10 130 174 173
621 2 2 10 10 131 132 175
622 2 2 10 10 131 175 174
623 2 2 10 10 132 133 176
624 2 2 10 10 132 176 175
625 2 2 10 10 133 134 177
626 2 2 10 10 133 177 176
627 2 2 10 10 134 135 178
628 2 2 10 10 134 178 177
629 2 2 10 10 135 136 179
630 2 2 10 10 135 179 178
631 2 2 10 10 136 137 180
632 2 2 10 10 136 180 179
633 2 2 10 10 137 138 181
634 2 2 10 10 137 181 180
635 2 2 10 10 138 139 182
636 2 2 10 10 138 182 181
637 2 2 10 10 139 140 183
638 2 2 10 10 139 183 182
639 2 2 10 10 140 141 184
640 2 2 10 10 140 184 183
641 2 2 10 10 141 142 185
642 2 2 10 10 141 185 184
643 2 2 10 10 142 143 186
644 2 2 10 10 142 186 185
645 2 2 10 10 143 144 187
646 2 2 10 10 143 187 186
647 2 2 10 10 145 146 191
648 2 2 10 10 145 191 190
649 2 2 10 10 146 147 192
650 2 2 10 10 146 192 191
651 2 2 10 10 147 148 193
652 2 2 10 10 147 193 192
653 2 2 10 10 148 149 194
654 2 2 10 10 148 194 193
655 2 2 10 10 149 150 195
656 2 2 10 10 149 195 194
657 2 2 10 10 150 151 196
658 2 2 10 10 150 196 195
659 2 2 10 10 151 152 197
660 2 2 10 10 151 197 196
661 2 2 10 10 152 153 198
662 2 2 10 10 152 198 197
663 2 2 10 10 153 154 199
664 2 2 10 10 153 199 198
665 2 2 10 10 154 155 200
666 2 2 10 10 154 200 199
667 2 2 10 10 155 156 201
668 2 2 10 10 155 201 200
669 2 2 10 10 156 157 202
670 2 2 10 10 156 202 201
671 2 2 10 10 157 158 203
672 2 2 10 10 157 203 202
673 2 2 10 10 158 159 204
674 2 2 10 10 158 204 203
675 2 2 10 10 159 160 205
676 2 2 10 10 159 205 204
677 2 2 10 10 160 161 206
678 2 2 10 10 160 206 205
679 2 2 10 10 161 162 207
680 2 2 10 10 161 207 206
681 2 2 10 10 162 163 208
682 2 2 10 10 162 208 207
683 2 2 10 10 163 164 209
684 2 2 10 10 163 209 208
685 2 2 10 10 165 166 211
686 2 2 10 10 165 211 210
687 2 2 10 10 166 167 212
688 2 2 10 10 166 212 211
689 2 2 10 10 167 168 213
690 2 2 10 10 167 213 212
691 2 2 10 10 168 169 214
692 2 2 10 10 168 214 213
693 2 2 10 10 169 170 215
694 2 2 10 10 169 215 214
695 2 2 10 10 170 171 216
696 2 2 10 10 170 216 215
697 2 2 10 10 171 172 217
698 2 2 10 10 171 217 216
699 2 2 10 10 172 173 218
700 2 2 10 10 172 218 217
701 2 2 10 10 173 174 219
702 2 2 10 10 173 219 218
703 2 2 10 10 174 175 220
704 2 2 10 10 174 220 219
705 2 2 10 10 175 176 221
706 2 2 10 10 175 221 220
707 2 2 10 10 176 177 222
708 2 2 10 10 176 222 221
709 2 2 10 10 177 178 223
710 2 2 10 10 177 223 222
711 2 2 10 10 178 179 224
712 2 2 10 10 178 224 223
713 2 2 10 10 179 180 225
714 2 2 10 10 179 225 224
715 2 2 10 10 180 181 226
716 2 2 10 10 180 226 225
717 2 2 10 10 181 182 227
718 2 2 10 10 181 227 226
719 2 2 10 10 182 183 228
720 2 2 10 10 182 228 227
721 2 2 10 10 183 184 229
722 2 2 10 10 183 229 228
723 2 2 10 10 184 185 230
724 2 2 10 10 184 230 229
725 2 2 10 10 185 186 231
726 2 2 10 10 185 231 230
727 2 2 10 10 186 187 232
728 2 2 10 10 186 232 231
729 2 2 10 10 187 188 233
730 2 2 10 10 187 233 232
731 2 2 10 10 189 190 235
732 2 2 10 10 189 235 234
733 2 2 10 10 190 191 236
734 2 2 10 10 190 236 235
735 2 2 10 10 191 192 237
736 2 2 10 10 191 237 236
737 2 2 10 10 192 193 238
738 2 2 10 10 192 238 237
739 2 2 10 10 193 194 239
740 2 2 10 10 193 239 238
741 2 2 10 10 194 195 240
742 2 2 10 10 194 240 239
743 2 2 10 10 195 196 241
744 2 2 10 10 195 241 240
745 2 2 10 10 196 197 242
746 2 2 10 10 196 242 241
747 2 2 10 10 197 198 243
748 2 2 10 10 197 243 242
749 2 2 10 10 198 199 244
750 2 2 10 10 198 244 243
751 2 2 10 10 199 200 245
752 2 2 10 10 199 245 244
753 2 2 10 10 200 201 246
754 2 2 10 10 200 246 245
755 2 2 10 10 201 202 247
756 2 2 10 10 201 247 246
757 2 2 10 10 202 203 248
758 2 2 10 10 202 248 247
759 2 2 10 10 203 204 249
760 2 2 10 10 203 249 248
761 2 2 10 10 204 205 250
762 2 2 10 10 204 250 249
763 2 2 10 10 205 206 251
764 2 2 10 10 205 251 250
765 2 2 10 10 206 207 252
766 2 2 10 10 206 252 251
767 2 2 10 10 207 208 253
768 2 2 10 10 207 253 252
769 2 2 10 10 208 209 254
770 2 2 10 10 208 254 253
771 2 2 10 10 210 211 256
772 2 2 10 10 210 256 255
773 2 2 10 10 211 212 257
774 2 2 10 10 211 257 256
775 2 2 10 10 212 213 258
776 2 2 10 10 212 258 257
777 2 2 10 10 213 214 259
778 2 2 10 10 213 259 258
779 2 2 10 10 214 215 260
780 2 2 10 10 214 260 259
781 2 2 10 10 215 216 261
782 2 2 10 10 215 261 260
783 2 2 10 10 216 217 262
784 2 2 10 10 216 262 261
785 2 2 10 10 217 218 263
786 2 2 10 10 217 263 262
787 2 2 10 10 218 219 264
788 2 2 10 10 218 264 263
789 2 2 10 10 219 220 265
790 2 2 10 10 219 265 264
791 2 2 10 10 220 221 266
792 2 2 10 10 220 266 265
793 2 2 10 10 221 222 267
794 2 2 10 10 221 267 266
795 2 2 10 10 222 223 268
796 2 2 10 10 222 268 267
797 2 2 10 10 223 224 269
798 2 2 10 10 223 269 268
799 2 2 10 10 224 225 270
800 2 2 10 10 224 270 269
801 2 2 10 10 225 226 271
802 2 2 10 10 225 271 270
803 2 2 10 10 226 227 272
804 2 2 10 10 226 272 271
805 2 2 10 10 227 228 273
806 2 2 10 10 227 273 272
807 2 2 10 10 228 229 274
808 2 2 10 10 228 274 273
809 2 2 10 10 229 230 275
810 2 2 10 10 229 275 274
811 2 2 10 10 230 231 276
812 2 2 10 10 230 276 275
813 2 2 10 10 231 232 277
814 2 2 10 10 231 277 276
815 2 2 10 10 232 233 278
816 2 2 10 10 232 278 277
817 2 2 10 10 234 235 282
818 2 2 10 10 234 282 281
819 2 2 10 10 235 236 283
820 2 2 10 10 235 283 282
821 2 2 10 10 236 237 284
822 2 2 10 10 236 284 283
823 2 2 10 10 237 238 285
824 2 2 10 10 237 285 284
825 2 2 10 10 238 239 286
826 2 2 10 10 238 286 285
827 2 2 10 10 239 240 287
828 2 2 10 10 239 287 286
829 2 2 10 10 240 241 288
830 2 2 10 10 240 288 287
831 2 2 10 10 241 242 289
832 2 2 10 10 241 289 288
833 2 2 10 10 242 243 290
834 2 2 10 10 242 290 289
835 2 2 10 10 243 244 291
836 2 2 10 10 243 291 290
837 2 2 10 10 244 245 292
838 2 2 10 10 244 292 291
839 2 2 10 10 245 246 293
840 2 2 10 10 245 293 292
841 2 2 10 10 246 247 294
842 2 2 10 10 246 294 293
843 2 2 10 10 247 248 295
844 2 2 10 10 247 295 294
845 2 2 10 10 248 249 296
846 2 2 10 10 248 296 295
847 2 2 10 10 249 250 297
848 2 2 10 10 249 297 296
849 2 2 10 10 250 251 298
850 2 2 10 10 250 298 297
851 2 2 10 10 251 252 299
852 2 2 10 10 251 299 298
853 2 2 10 10 252 253 300
854 2 2 10 10 252 300 299
855 2 2 10 10 253 254 301
856 2 2 10 10 253 301 300
857 2 2 10 10 272 273 303
858 2 2 10 10 272 303 302
859 2 2 10 10 273 274 304
860 2 2 10 10 273 304 303
861 2 2 10 10 274 275 305
862 2 2 10 10 274 305 304
863 2 2 10 10 275 276 306
864 2 2 10 10 275 306 305
865 2 2 10 10 276 277 307
866 2 2 10 10 276 307 306
867 2 2 10 10 277 278 308
868 2 2 10 10 277 308 307
869 2 2 10 10 278 279 309
870 2 2 10 10 278 309 308
871 2 2 10 10 280 281 313
872 2 2 10 10 280 313 312
873 2 2 10 10 281 282 314
874 2 2 10 10 281 314 313
875 2 2 10 10 282 283 315
876 2 2 10 10 282 315 314
877 2 2 10 10 283 284 316
878 2 2 10 10 283 316 315
879 2 2 10 10 284 285 317
880 2 2 10 10 284 317 316
881 2 2 10 10 285 286 318
882 2 2 10 10 285 318 317
883 2 2 10 10 286 287 319
884 2 2 10 10 286 319 318
885 2 2 10 10 302 303 321
886 2 2 10 10 302 321 320
887 2 2 10 10 303 304 322
888 2 2 10 10 303 322 321
889 2 2 10 10 304 305 323
890 2 2 10 10 304 323 322
891 2 2 10 10 305 306 324
892 2 2 10 10 305 324 323
893 2 2 10 10 306 307 325
894 2 2 10 10 306 325 324
895 2 2 10 10 307 308 326
896 2 2 10 10 307 326 325
897 2 2 10 10 308 309 327
898 2 2 10 10 308 327 326
899 2 2 10 10 309 310 328
900 2 2 10 10 309 328 327
901 2 2 10 10 311 312 330
902 2 2 10 10 311 330 329
903 2 2 10 10 312 313 331
904 2 2 10 10 312 331 330
905 2 2 10 10 313 314 332
906 2 2 10 10 313 332 331
907 2 2 10 10 314 315 333
908 2 2 10 10 314 333 332
909 2 2 10 10 315 316 334
910 2 2 10 10 315 334 333
911 2 2 10 10 316 317 335
912 2 2 10 10 316 335 334
913 2 2 10 10 317 318 336
914 2 2 10 10 317 336 335
915 2 2 10 10 318 319 337
916 2 2 10 10 318 337 336
917 2 2 10 10 321 322 339
918 2 2 10 10 321 339 338
919 2 2 10 10 322 323 340
920 2 2 10 10 322 340 339
921 2 2 10 10 323 324 341
922 2 2 10 10 323 341 340
923 2 2 10 10 324 325 342
924 2 2 10 10 324 342 341
925 2 2 10 10 325 326 343
926 2 2 10 10 325 343 342
927 2 2 10 10 326 327 344
928 2 2 10 10 326 344 343
929 2 2 10 10 327 328 345
930 2 2 10 10 327 345 344
931 2 2 10 10 329 330 349
932 2 2 10 10 329 349 348
933 2 2 10 10 330 331 350
934 2 2 10 10 330 350 349
935 2 2 10 10 331 332 351
936 2 2 10 10 331 351 350
937 2 2 10 10 332 333 352
938 2 2 10 10 332 352 351
939 2 2 10 10 333 334 353
940 2 2 10 10 333 353 352
941 2 2 10 10 334 335 354
942 2 2 10 10 334 354 353
943 2 2 10 10 335 336 355
944 2 2 10 10 335 355 354
945 2 2 10 10 339 340 357
946 2 2 10 10 339 357 356
947 2 2 10 10 340 341 358
948 2 2 10 10 340 358 357
949 2 2 10 10 341 342 359
950 2 2 10 10 341 359 358
951 2 2 10 10 342 343 360
952 2 2 10 10 342 360 359
953 2 2 10 10 343 344 361
954 2 2 10 10 343 361 360
955 2 2 10 10 344 345 362
956 2 2 10 10 344 362 361
957 2 2 10 10 345 346 363
958 2 2 10 10 345 363 362
959 2 2 10 10 347 348 367
960 2 2 10 10 347 367 366
961 2 2 10 10 348 349 368
962 2 2 10 10 348 368 367
963 2 2 10 10 349 350 369
964 2 2 10 10 349 369 368
965 2 2 10 10 350 351 370
966 2 2 10 10 350 370 369
967 2 2 10 10 351 352 371
968 2 2 10 10 351 371 370
969 2 2 10 10 352 353 372
970 2 2 10 10 352 372 371
971 2 2 10 10 353 354 373
972 2 2 10 10 353 373 372
973 2 2 10 10 356 357 375
974 2 2 10 10 356 375 374
975 2 2 10 10 357 358 376
976 2 2 10 10 357 376 375
977 2 2 10 10 358 359 377
978 2 2 10 10 358 377 376
979 2 2 10 10 359 360 378
980 2 2 10 10 359 378 377
981 2 2 10 10 360 361 379
982 2 2 10 10 360 379 378
983 2 2 10 10 361 362 380
984 2 2 10 10 361 380 379
985 2 2 10 10 362 363 381
986 2 2 10 10 362 381 380
987 2 2 10 10 363 364 382
988 2 2 10 10 363 382 381
989 2 2 10 10 365 366 384
990 2 2 10 10 365 384 383
991 2 2 10 10 366 367 385
992 2 2 10 10 366 385 384
993 2 2 10 10 367 368 386
994 2 2 10 10 367 386 385
995 2 2 10 10 368 369 387
996 2 2 10 10 368 387 386
997 2 2 10 10 369 370 388
998 2 2 10 10 369 388 387
999 2 2 10 10 370 371 389
1000 2 2 10 10 370 389 388
1001 2 2 10 10 371 372 390
1002 2 2 10 10 371 390 389
1003 2 2 10 10 372 373 391
1004 2 2 10 10 372 391 390
1005 2 2 10 10 375 376 393
1006 2 2 10 10 375 393 392
1007 2 2 10 10 376 377 394
1008 2 2 10 10 376 394 393
1009 2 2 10 10 377 378 395
1010 2 2 10 10 377 395 394
1011 2 2 10 10 378 379 396
1012 2 2 10 10 378 396 395
1013 2 2 10 10 379 380 397
1014 2 2 10 10 379 397 396
1015 2 2 10 10 380 381 398
1016 2 2 10 10 380 398 397
1017 2 2 10 10 381 382 399
1018 2 2 10 10 381 399 398
1019 2 2 10 10 383 384 413
1020 2 2 10 10 383 413 412
1021 2 2 10 10 384 385 414
1022 2 2 10 10 384 414 413
1023 2 2 10 10 385 386 415
1024 2 2 10 10 385 415 414
1025 2 2 10 10 386 387 416
1026 2 2 10 10 386 416 415
1027 2 2 10 10 387 388 417
1028 2 2 10 10 387 417 416
1029 2 2 10 10 388 389 418
1030 2 2 10 10 388 418 417
1031 2 2 10 10 389 390 419
1032 2 2 10 10 389 419 418
1033 2 2 10 10 393 394 421
1034 2 2 10 10 393 421 420
1035 2 2 10 10 394 395 422
1036 2 2 10 10 394 422 421
1037 2 2 10 10 395 396 423
1038 2 2 10 10 395 423 422
1039 2 2 10 10 396 397 424
1040 2 2 10 10 396 424 423
1041 2 2 10 10 397 398 425
1042 2 2 10 10 397 425 424
1043 2 2 10 10 398 399 426
1044 2 2 10 10 398 426 425
1045 2 2 10 10 399 400 427
1046 2 2 10 10 399 427 426
1047 2 2 10 10 400 401 428
1048 2 2 10 10 400 428 427
1049 2 2 10 10 401 402 429
1050 2 2 10 10 401 429 428
1051 2 2 10 10 402 403 430
1052 2 2 10 10 402 430 429
1053 2 2 10 10 403 404 431
1054 2 2 10 10 403 431 430
1055 2 2 10 10 404 405 432
1056 2 2 10 10 404 432 431
1057 2 2 10 10 405 406 433
1058 2 2 10 10 405 433 432
1059 2 2 10 10 406 407 434
1060 2 2 10 10 406 434 433
1061 2 2 10 10 407 408 435
1062 2 2 10 10 407 435 434
1063 2 2 10 10 408 409 436
1064 2 2 10 10 408 436 435
1065 2 2 10 10 409 410 437
1066 2 2 10 10 409 437 436
1067 2 2 10 10 410 411 438
1068 2 2 10 10 410 438 437
1069 2 2 10 10 411 412 439
1070 2 2 10 10 411 439 438
1071 2 2 10 10 412 413 440
1072 2 2 10 10 412 440 439
1073 2 2 10 10 413 414 441
1074 2 2 10 10 413 441 440
1075 2 2 10 10 414 415 442
1076 2 2 10 10 414 442 441
1077 2 2 10 10 415 416 443
1078 2 2 10 10 415 443 442
1079 2 2 10 10 416 417 444
1080 2 2 10 10 416 444 443
1081 2 2 10 10 417 418 445
1082 2 2 10 10 417 445 444
1083 2 2 10 10 420 421 447
1084 2 2 10 10 420 447 446
1085 2 2 10 10 421 422 448
1086 2 2 10 10 421 448 447
1087 2 2 10 10 422 423 449
1088 2 2 10 10 422 449 448
1089 2 2 10 10 423 424 450
1090 2 2 10 10 423 450 449
1091 2 2 10 10 424 425 451
1092 2 2 10 10 424 451 450
1093 2 2 10 10 425 426 452
1094 2 2 10 10 425 452 451
1095 2 2 10 10 426 427 453
1096 2 2 10 10 426 453 452
1097 2 2 10 10 427 428 454
1098 2 2 10 10 427 454 453
1099 2 2 10 10 428 429 455
1100 2 2 10 10 428 455 454
1101 2 2 10 10 429 430 456
1102 2 2 10 10 429 456 455
1103 2 2 10 10 430 431 457
1104 2 2 10 10 430 457 456
1105 2 2 10 10 431 432 458
1106 2 2 10 10 431 458 457
1107 2 2 10 10 432 433 459
1108 2 2 10 10 432 459 458
1109 2 2 10 10 433 434 460
1110 2 2 10 10 433 460 459
1111 2 2 10 10 434 435 461
1112 2 2 10 10 434 461 460
1113 2 2 10 10 435 436 462
1114 2 2 10 10 435 462 461
1115 2 2 10 10 436 437 463
1116 2 2 10 10 436 463 462
1117 2 2 10 10 437 438 464
1118 2 2 10 10 437 464 463
1119 2 2 10 10 438 439 465
1120 2 2 10 10 438 465 464
1121 2 2 10 10 439 440 466
1122 2 2 10 10 439 466 465
1123 2 2 10 10 440 441 467
1124 2 2 10 10 440 467 466
1125 2 2 10 10 441 442 468
1126 2 2 10 10 441 468 467
1127 2 2 10 10 442 443 469
1128 2 2 10 10 442 469 468
1129 2 2 10 10 443 444 470
1130 2 2 10 10 443 470 469
1131 2 2 10 10 444 445 471
1132 2 2 10 10 444 471 470
1133 2 2 10 10 447 448 473
1134 2 2 10 10 447 473 472
1135 2 2 10 10 448 449 474
1136 2 2 10 10 448 474 473
1137 2 2 10 10 449 450 475
1138 2 2 10 10 449 475 474
1139 2 2 10 10 450 451 476
1140 2 2 10 10 450 476 475
1141 2 2 10 10 451 452 477
1142 2 2 10 10 451 477 476
1143 2 2 10 10 452 453 478
1144 2 2 10 10 452 478 477
1145 2 2 10 10 453 454 479
1146 2 2 10 10 453 479 478
1147 2 2 10 10 454 455 480
1148 2 2 10 10 454 480 479
1149 2 2 10 10 455 456 481
1150 2 2 10 10 455 481 480
1151 2 2 10 10 456 457 482
1152 2 2 10 10 456 482 481
1153 2 2 10 10 457 458 483
1154 2 2 10 10 457 483 482
1155 2 2 10 10 458 459 484
1156 2 2 10 10 458 484 483
1157 2 2 10 10 459 460 485
1158 2 2 10 10 459 485 484
1159 2 2 10 10 460 461 486
1160 2 2 10 10 460 486 485
1161 2 2 10 10 461 462 487
1162 2 2 10 10 461 487 486
1163 2 2 10 10 462 463 488
1164 2 2 10 10 462 488 487
1165 2 2 10 10 463 464 489
1166 2 2 10 10 463 489 488
1167 2 2 10 10 464 465 490
1168 2 2 10 10 464 490 489
1169 2 2 10 10 465 466 491
1170 2 2 10 10 465 491 490
1171 2 2 10 10 466 467 492
1172 2 2 10 10 466 492 491
1173 2 2 10 10 467 468 493
1174 2 2 10 10 467 493 492
1175 2 2 10 10 468 469 494
1176 2 2 10 10 468 494 493
1177 2 2 10 10 469 470 495
1178 2 2 10 10 469 495 494
1179 2 2 10 10 473 474 497
1180 2 2 10 10 473 497 496
1181 2 2 10 10 474 475 498
1182 2 2 10 10 474 498 497
1183 2 2 10 10 475 476 499
1184 2 2 10 10 475 499 498
1185 2 2 10 10 476 477 500
1186 2 2 10 10 476 500 499
1187 2 2 10 10 477 478 501
1188 2 2 10 10 477 501 500
1189 2 2 10 10 478 479 502
1190 2 2 10 10 478 502 501
1191 2 2 10 10 479 480 503
1192 2 2 10 10 479 503 502
1193 2 2 10 10 480 481 504
1194 2 2 10 10 480 504 503
1195 2 2 10 10 481 482 505
1196 2 2 10 10 481 505 504
1197 2 2 10 10 482 483 506
1198 2 2 10 10 482 506 505
1199 2 2 10 10 483 484 507
1200 2 2 10 10 483 507 506
1201 2 2 10 10 484 485 508
1202 2 2 10 10 484 508 507
1203 2 2 10 10 485 486 509
1204 2 2 10 10 485 509 508
1205 2 2 10 10 486 487 510
1206 2 2 10 10 486 510 509
1207 2 2 10 10 487 488 511
1208 2 2 10 10 487 511 510
1209 2 2 10 10 488 489 512
1210 2 2 10 10 488 512 511
1211 2 2 10 10 489 490 513
1212 2 2 10 10 489 513 512
1213 2 2 10 10 490 491 514
1214 2 2 10 10 490 514 513
1215 2 2 10 10 491 492 515
1216 2 2 10 10 491 515 514
1217 2 2 10 10 492 493 516
1218 2 2 10 10 492 516 515
1219 2 2 10 10 493 494 517
1220 2 2 10 10 493 517 516
1221 2 2 10 10 496 497 519
1222 2 2 10 10 496 519 518
1223 2 2 10 10 497 498 520
1224 2 2 10 10 497 520 519
1225 2 2 10 10 498 499 521
1226 2 2 10 10 498 521 520
1227 2 2 10 10 499 500 522
1228 2 2 10 10 499 522 521
1229 2 2 10 10 500 501 523
1230 2 2 10 10 500 523 522
1231 2 2 10 10 501 502 524
1232 2 2 10 10 501 524 523
1233 2 2 10 10 502 503 525
1234 2 2 10 10 502 525 524
1235 2 2 10 10 503 504 526
1236 2 2 10 10 503 526 525
1237 2 2 10 10 504 505 527
1238 2 2 10 10 504 527 526
1239 2 2 10 10 505 506 528
1240 2 2 10 10 505 528 527
1241 2 2 10 10 506 507 529
1242 2 2 10 10 506 529 528
1243 2 2 10 10 507 508 530
1244 2 2 10 10 507 530 529
1245 2 2 10 10 508 509 531
1246 2 2 10 10 508 531 530
1247 2 2 10 10 509 510 532
1248 2 2 10 10 509 532 531
1249 2 2 10 10 510 511 533
1250 2 2 10 10 510 533 532
1251 2 2 10 10 511 512 534
1252 2 2 10 10 511 534 533
1253 2 2 10 10 512 513 535
1254 2 2 10 10 512 535 534
1255 2 2 10 10 513 514 536
1256 2 2 10 10 513 536 535
1257 2 2 10 10 514 515 537
1258 2 2 10 10 514 537 536
1259 2 2 10 10 515 516 538
1260 2 2 10 10 515 538 537
1261 2 2 10 10 516 517 539
1262 2 2 10 10 516 539 538
1263 2 2 10 10 519 520 541
1264 2 2 10 10 519 541 540
1265 2 2 10 10 520 521 542
1266 2 2 10 10 520 542 541
1267 2 2 10 10 521 522 543
1268 2 2 10 10 521 543 542
1269 2 2 10 10 522 523 544
1270 2 2 10 10 522 544 543
1271 2 2 10 10 523 524 545
1272 2 2 10 10 523 545 544
1273 2 2 10 10 524 525 546
1274 2 2 10 10 524 546 545
1275 2 2 10 10 525 526 547
1276 2 2 10 10 525 547 546
1277 2 2 10 10 526 527 548
1278 2 2 10 10 526 548 547
1279 2 2 10 10 527 528 549
1280 2 2 10 10 527 549 548
1281 2 2 10 10 528 529 550
1282 2 2 10 10 528 550 549
1283 2 2 10 10 529 530 551
1284 2 2 10 10 529 551 550
1285 2 2 10 10 530 531 552
1286 2 2 10 10 530 552 551
1287 2 2 10 10 531 532 553
1288 2 2 10 10 531 553 552
1289 2 2 10 10 532 533 554
1290 2 2 10 10 532 554 553
1291 2 2 10 10 533 534 555
1292 2 2 10 10 533 555 554
1293 2 2 10 10 534 535 556
1294 2 2 10 10 534 556 555
1295 2 2 10 10 535 536 557
1296 2 2 10 10 535 557 556
1297 2 2 10 10 536 537 558
1298 2 2 10 10 536 558 557
1299 2 2 10 10 537 538 559
1300 2 2 10 10 537 559 558
1301 2 2 10 10 560 561 585
1302 2 2 10 10 560 585 584
1303 2 2 10 10 561 562 586
1304 2 2 10 10 561 586 585
1305 2 2 10 10 562 563 587
1306 2 2 10 10 562 587 586
1307 2 2 10 10 563 564 588
1308 2 2 10 10 563 588 587
1309 2 2 10 10 564 565 589
1310 2 2 10 10 564 589 588
1311 2 2 10 10 565 566 590
1312 2 2 10 10 565 590 589
1313 2 2 10 10 566 567 591
1314 2 2 10 10 566 591 590
1315 2 2 10 10 567 568 592
1316 2 2 10 10 567 592 591
1317 2 2 10 10 568 569 593
1318 2 2 10 10 568 593 592
1319 2 2 10 10 569 570 594
1320 2 2 10 10 569 594 593
1321 2 2 10 10 570 571 595
1322 2 2 10 10 570 595 594
1323 2 2 10 10 571 572 596
1324 2 2 10 10 571 596 595
1325 2 2 10 10 572 573 597
1326 2 2 10 10 572 597 596
1327 2 2 10 10 573 574 598
1328 2 2 10 10 573 598 597
1329 2 2 10 10 574 575 599
1330 2 2 10 10 574 599 598
1331 2 2 10 10 575 576 600
1332 2 2 10 10 575 600 599
1333 2 2 10 10 576 577 601
1334 2 2 10 10 576 601 600
1335 2 2 10 10 577 578 602
1336 2 2 10 10 577 602 601
1337 2 2 10 10 578 579 603
1338 2 2 10 10 578 603 602
1339 2 2 10 10 579 580 604
1340 2 2 10 10 579 604 603
1341 2 2 10 10 580 581 605
1342 2 2 10 10 580 605 604
1343 2 2 10 10 581 582 606
1344 2 2 10 10 581 606 605
1345 2 2 10 10 583 584 610
1346 2 2 10 10 583 610 609
1347 2 2 10 10 584 585 611
1348 2 2 10 10 584 611 610
1349 2 2 10 10 585 586 612
1350 2 2 10 10 585 612 611
1351 2 2 10 10 586 587 613
1352 2 2 10 10 586 613 612
1353 2 2 10 10 587 588 614
1354 2 2 10 10 587 614 613
1355 2 2 10 10 588 589 615
1356 2 2 10 10 588 615 614
1357 2 2 10 10 589 590 616
1358 2 2 10 10 589 616 615
1359 2 2 10 10 590 591 617
1360 2 2 10 10 590 617 616
1361 2 2 10 10 591 592 618
1362 2 2 10 10 591 618 617
1363 2 2 10 10 592 593 619
1364 2 2 10 10 592 619 618
1365 2 2 10 10 593 594 620
1366 2 2 10 10 593 620 619
1367 2 2 10 10 594 595 621
1368 2 2 10 10 594 621 620
1369 2 2 10 10 595 596 622
1370 2 2 10 10 595 622 621
1371 2 2 10 10 596 597 623
1372 2 2 10 10 596 623 622
1373 2 2 10 10 597 598 624
1374 2 2 10 10 597 624 623
1375 2 2 10 10 598 599 625
1376 2 2 10 10 598 625 624
1377 2 2 10 10 599 600 626
1378 2 2 10 10 599 626 625
1379 2 2 10 10 600 601 627
1380 2 2 10 10 600 627 626
1381 2 2 10 10 601 602 628
1382 2 2 10 10 601 628 627
1383 2 2 10 10 602 603 629
1384 2 2 10 10 602 629 628
1385 2 2 10 10 603 604 630
1386 2 2 10 10 603 630 629
1387 2 2 10 10 604 605 631
1388 2 2 10 10 604 631 630
1389 2 2 10 10 605 606 632
1390 2 2 10 10 605 632 631
1391 2 2 10 10 606 607 633
1392 2 2 10 10 606 633 632
1393 2 2 10 10 608 609 637
1394 2 2 10 10 608 637 636
1395 2 2 10 10 609 610 638
1396 2 2 10 10 609 638 637
1397 2 2 10 10 610 611 639
1398 2 2 10 10 610 639 638
1399 2 2 10 10 611 612 640
1400 2 2 10 10 611 640 639
1401 2 2 10 10 612 613 641
1402 2 2 10 10 612 641 640
1403 2 2 10 10 613 614 642
1404 2 2 10 10 613 642 641
1405 2 2 10 10 614 615 643
1406 2 2 10 10 614 643 642
1407 2 2 10 10 615 616 644
1408 2 2 10 10 615 644 643
1409 2 2 10 10 616 617 645
1410 2 2 10 10 616 645 644
1411 2 2 10 10 617 618 646
1412 2 2 10 10 617 646 645
1413 2 2 10 10 618 619 647
1414 2 2 10 10 618 647 646
1415 2 2 10 10 619 620 648
1416 2 2 10 10 619 648 647
1417 2 2 10 10 620 621 649
1418 2 2 10 10 620 649 648
1419 2 2 10 10 621 622 650
1420 2 2 10 10 621 650 649
1421 2 2 10 10 622 623 651
1422 2 2 10 10 622 651 650
1423 2 2 10 10 623 624 652
1424 2 2 10 10 623 652 651
1425 2 2 10 10 624 625 653
1426 2 2 10 10 624 653 652
1427 2 2 10 10 625 626 654
1428 2 2 10 10 625 654 653
1429 2 2 10 10 626 627 655
1430 2 2 10 10 626 655 654
1431 2 2 10 10 627 628 656
1432 2 2 10 10 627 656 655
1433 2 2 10 10 628 629 657
1434 2 2 10 10 628 657 656
1435 2 2 10 10 629 630 658
1436 2 2 10 10 629 658 657
1437 2 2 10 10 630 631 659
1438 2 2 10 10 630 659 658
1439 2 2 10 10 631 632 660
1440 2 2 10 10 631 660 659
1441 2 2 10 10 632 633 661
1442 2 2 10 10 632 661 660
1443 2 2 10 10 633 634 662
1444 2 2 10 10 633 662 661
1445 2 2 10 10 635 636 665
1446 2 2 10 10 635 665 664
1447 2 2 10 10 636 637 666
1448 2 2 10 10 636 666 665
1449 2 2 10 10 637 638 667
1450 2 2 10 10 637 667 666
1451 2 2 10 10 638 639 668
1452 2 2 10 10 638 668 667
1453 2 2 10 10 639 640 669
1454 2 2 10 10 639 669 668
1455 2 2 10 10 640 641 670
1456 2 2 10 10 640 670 669
1457 2 2 10 10 641 642 671
1458 2 2 10 10 641 671 670
1459 2 2 10 10 642 643 672
1460 2 2 10 10 642 672 671
1461 2 2 10 10 643 644 673
1462 2 2 10 10 643 673 672
1463 2 2 10 10 644 645 674
1464 2 2 10 10 644 674 673
1465 2 2 10 10 645 646 675
1466 2 2 10 10 645 675 674
1467 2 2 10 10 646 647 676
1468 2 2 10 10 646 676 675
1469 2 2 10 10 647 648 677
1470 2 2 10 10 647 677 676
1471 2 2 10 10 648 649 678
1472 2 2 10 10 648 678 677
1473 2 2 10 10 649 650 679
1474 2 2 10 10 649 679 678
1475 2 2 10 10 650 651 680
1476 2 2 10 10 650 680 679
1477 2 2 10 10 651 652 681
1478 2 2 10 10 651 681 680
1479 2 2 10 10 652 653 682
1480 2 2 10 10 652 682 681
1481 2 2 10 10 653 654 683
1482 2 2 10 10 653 683 682
1483 2 2 10 10 654 655 684
1484 2 2 10 10 654 684 683
1485 2 2 10 10 655 656 685
1486 2 2 10 10 655 685 684
1487 2 2 10 10 656 657 686
1488 2 2 10 10 656 686 685
1489 2 2 10 10 657 658 687
1490 2 2 10 10 657 687 686
1491 2 2 10 10 658 659 688
1492 2 2 10 10 658 688 687
1493 2 2 10 10 659 660 689
1494 2 2 10 10 659 689 688
1495 2 2 10 10 660 661 690
1496 2 2 10 10 660 690 689
1497 2 2 10 10 661 662 691
1498 2 2 10 10 661 691 690
1499 2 2 10 10 662 663 692
1500 2 2 10 10 662 692 691
1501 2 2 10 10 664 665 695
1502 2 2 10 10 664 695 694
1503 2 2 10 10 665 666 696
1504 2 2 10 10 665 696 695
1505 2 2 10 10 666 667 697
1506 2 2 10 10 666 697 696
1507 2 2 10 10 667 668 698
1508 2 2 10 10 667 698 697
1509 2 2 10 10 668 669 699
1510 2 2 10 10 668 699 698
1511 2 2 10 10 669 670 700
1512 2 2 10 10 669 700 699
1513 2 2 10 10 670 671 701
1514 2 2 10 10 670 701 700
1515 2 2 10 10 671 672 702
1516 2 2 10 10 671 702 701
1517 2 2 10 10 672 673 703
1518 2 2 10 10 672 703 702
1519 2 2 10 10 673 674 704
1520 2 2 10 10 673 704 703
1521 2 2 10 10 674 675 705
1522 2 2 10 10 674 705 704
1523 2 2 10 10 675 676 706
1524 2 2 10 10 675 706 705
1525 2 2 10 10 676 677 707
1526 2 2 10 10 676 707 706
1527 2 2 10 10 677 678 708
1528 2 2 10 10 677 708 707
1529 2 2 10 10 678 679 709
1530 2 2 10 10 678 709 708
1531 2 2 10 10 679 680 710
1532 2 2 10 10 679 710 709
1533 2 2 10 10 680 681 711
1534 2 2 10 10 680 711 710
1535 2 2 10 10 681 682 712
1536 2 2 10 10 681 712 711
1537 2 2 10 10 682 683 713
1538 2 2 10 10 682 713 712
1539 2 2 10 10 683 684 714
1540 2 2 10 10 683 714 713
1541 2 2 10 10 684 685 715
1542 2 2 10 10 684 715 714
1543 2 2 10 10 685 686 716
1544 2 2 10 10 685 716 715
1545 2 2 10 10 686 687 717
1546 2 2 10 10 686 717 716
1547 2 2 10 10 687 688 718
1548 2 2 10 10 687 718 717
1549 2 2 10 10 688 689 719
1550 2 2 10 10 688 719 718
1551 2 2 10 10 689 690 720
1552 2 2 10 10 689 720 719
1553 2 2 10 10 690 691 721
1554 2 2 10 10 690 721 720
1555 2 2 10 10 691 692 722
1556 2 2 10 10 691 722 721
1557 2 2 10 10 693 694 726
1558 2 2 10 10 693 726 725
1559 2 2 10 10 694 695 727
1560 2 2 10 10 694 727 726
1561 2 2 10 10 695 696 728
1562 2 2 10 10 695 728 727
1563 2 2 10 10 696 697 729
1564 2 2 10 10 696 729 728
1565 2 2 10 10 697 698 730
1566 2 2 10 10 697 730 729
1567 2 2 10 10 698 699 731
1568 2 2 10 10 698 731 730
1569 2 2 10 10 699 700 732
1570 2 2 10 10 699 732 731
1571 2 2 10 10 700 701 733
1572 2 2 10 10 700 733 732
1573 2 2 10 10 701 702 734
1574 2 2 10 10 701 734 733
1575 2 2 10 10 702 703 735
1576 2 2 10 10 702 735 734
1577 2 2 10 10 703 704 736
1578 2 2 10 10 703 736 735
1579 2 2 10 10 704 705 737
1580 2 2 10 10 704 737 736
1581 2 2 10 10 705 706 738
1582 2 2 10 10 705 738 737
1583 2 2 10 10 706 707 739
1584 2 2 10 10 706 739 738
1585 2 2 10 10 707 708 740
1586 2 2 10 10 707 740 739
1587 2 2 10 10 708 709 741
1588 2 2 10 10 708 741 740
1589 2 2 10 10 709 710 742
1590 2 2 10 10 709 742 741
1591 2 2 10 10 710 711 743
1592 2 2 10 10 710 743 742
1593 2 2 10 10 711 712 744
1594 2 2 10 10 711 744 743
1595 2 2 10 10 712 713 745
1596 2 2 10 10 712 745 744
1597 2 2 10 10 713 714 746
1598 2 2 10 10 713 746 745
1599 2 2 10 10 714 715 747
1600 2 2 10 10 714 747 746
1601 2 2 10 10 715 716 748
1602 2 2 10 10 715 748 747
1603 2 2 10 10 716 717 749
1604 2 2 10 10 716 749 748
1605 2 2 10 10 717 718 750
1606 2 2 10 10 717 750 749
1607 2 2 10 10 718 719 751
1608 2 2 10 10 718 751 750
1609 2 2 10 10 719 720 752
1610 2 2 10 10 719 752 751
1611 2 2 10 10 720 721 753
1612 2 2 10 10 720 753 752
1613 2 2 10 10 721 722 754
1614 2 2 10 10 721 754 753
1615 2 2 10 10 722 723 755
1616 2 2 10 10 722 755 754
1617 2 2 10 10 724 725 759
1618 2 2 10 10 724 759 758
1619 2 2 10 10 725 726 760
1620 2 2 10 10 725 760 759
1621 2 2 10 10 726 727 761
1622 2 2 10 10 726 761 760
1623 2 2 10 10 727 728 762
1624 2 2 10 10 727 762 761
1625 2 2 10 10 728 729 763
1626 2 2 10 10 728 763 762
1627 2 2 10 10 729 730 764
1628 2 2 10 10 729 764 763
1629 2 2 10 10 730 731 765
1630 2 2 10 10 730 765 764
1631 2 2 10 10 731 732 766
1632 2 2 10 10 731 766 765
1633 2 2 10 10 748 749 768
1634 2 2 10 10 748 768 767
1635 2 2 10 10 749 750 769
1636 2 2 10 10 749 769 768
1637 2 2 10 10 750 751 770
1638 2 2 10 10 750 770 769
1639 2 2 10 10 751 752 771
1640 2 2 10 10 751 771 770
1641 2 2 10 10 752 753 772
1642 2 2 10 10 752 772 771
1643 2 2 10 10 753 754 773
1644 2 2 10 10 753 773 772
1645 2 2 10 10 754 755 774
1646 2 2 10 10 754 774 773
1647 2 2 10 10 755 756 775
1648 2 2 10 10 755 775 774
1649 2 2 10 10 757 758 779
1650 2 2 10 10 757 779 778
1651 2 2 10 10 758 759 780
1652 2 2 10 10 758 780 779
1653 2 2 10 10 759 760 781
1654 2 2 10 10 759 781 780
1655 2 2 10 10 760 761 782
1656 2 2 10 10 760 782 781
1657 2 2 10 10 761 762 783
1658 2 2 10 10 761 783 782
1659 2 2 10 10 762 763 784
1660 2 2 10 10 762 784 783
1661 2 2 10 10 763 764 785
1662 2 2 10 10 763 785 784
1663 2 2 10 10 764 765 786
1664 2 2 10 10 764 786 785
1665 2 2 10 10 768 769 788
1666 2 2 10 10 768 788 787
1667 2 2 10 10 769 770 789
1668 2 2 10 10 769 789 788
1669 2 2 10 10 770 771 790
1670 2 2 10 10 770 790 789
1671 2 2 10 10 771 772 791
1672 2 2 10 10 771 791 790
1673 2 2 10 10 772 773 792
1674 2 2 10 10 772 792 791
1675 2 2 10 10 773 774 793
1676 2 2 10 10 773 793 792
1677 2 2 10 10 774 775 794
1678 2 2 10 10 774 794 793
1679 2 2 10 10 775 776 795
1680 2 2 10 10 775 795 794
1681 2 2 10 10 777 778 799
1682 2 2 10 10 777 799 798
1683 2 2 10 10 778 779 800
1684 2 2 10 10 778 800 799
1685 2 2 10 10 779 780 801
1686 2 2 10 10 779 801 800
1687 2 2 10 10 780 781 802
1688 2 2 10 10 780 802 801
1689 2 2 10 10 781 782 803
1690 2 2 10 10 781 803 802
1691 2 2 10 10 782 783 804
1692 2 2 10 10 782 804 803
1693 2 2 10 10 783 784 805
1694 2 2 10 10 783 805 804
1695 2 2 10 10 784 785 806
1696 2 2 10 10 784 806 805
1697 2 2 10 10 788 789 808
1698 2 2 10 10 788 808 807
1699 2 2 10 10 789 790 809
1700 2 2 10 10 789 809 808
1701 2 2 10 10 790 791 810
1702 2 2 10 10 790 810 809
1703 2 2 10 10 791 792 811
1704 2 2 10 10 791 811 810
1705 2 2 10 10 792 793 812
1706 2 2 10 10 792 812 811
1707 2 2 10 10 793 794 813
1708 2 2 10 10 793 813 812
1709 2 2 10 10 794 795 814
1710 2 2 10 10 794 814 813
1711 2 2 10 10 795 796 815
1712 2 2 10 10 795 815 814
1713 2 2 10 10 797 798 819
1714 2 2 10 10 797 819 818
1715 2 2 10 10 798 799 820
1716 2 2 10 10 798 820 819
1717 2 2 10 10 799 800 821
1718 2 2 10 10 799 821 820
1719 2 2 10 10 800 801 822
1720 2 2 10 10 800 822 821
1721 2 2 10 10 801 802 823
1722 2 2 10 10 801 823 822
1723 2 2 10 10 802 803 824
1724 2 2 10 10 802 824 823
1725 2 2 10 10 803 804 825
1726 2 2 10 10 803 825 824
1727 2 2 10 10 804 805 826
1728 2 2 10 10 804 826 825
1729 2 2 10 10 808 809 828
1730 2 2 10 10 808 828 827
1731 2 2 10 10 809 810 829
1732 2 2 10 10 809 829 828
1733 2 2 10 10 810 811 830
1734 2 2 10 10 810 830 829
1735 2 2 10 10 811 812 831
1736 2 2 10 10 811 831 830
1737 2 2 10 10 812 813 832
1738 2 2 10 10 812 832 831
1739 2 2 10 10 813 814 833
1740 2 2 10 10 813 833 832
1741 2 2 10 10 814 815 834
1742 2 2 10 10 814 834 833
1743 2 2 10 10 815 816 835
1744 2 2 10 10 815 835 834
1745 2 2 10 10 817 818 852
1746 2 2 10 10 817 852 851
1747 2 2 10 10 818 819 853
1748 2 2 10 10 818 853 852
1749 2 2 10 10 819 820 854
1750 2 2 10 10 819 854 853
1751 2 2 10 10 820 821 855
1752 2 2 10 10 820 855 854
1753 2 2 10 10 821 822 856
1754 2 2 10 10 821 856 855
1755 2 2 10 10 822 823 857
1756 2 2 10 10 822 857 856
1757 2 2 10 10 823 824 858
1758 2 2 10 10 823 858 857
1759 2 2 10 10 824 825 859
1760 2 2 10 10 824 859 858
1761 2 2 10 10 828 829 861
1762 2 2 10 10 828 861 860
1763 2 2 10 10 829 830 862
1764 2 2 10 10 829 862 861
1765 2 2 10 10 830 831 863
1766 2 2 10 10 830 863 862
1767 2 2 10 10 831 832 864
1768 2 2 10 10 831 864 863
1769 2 2 10 10 832 833 865
1770 2 2 10 10 832 865 864
1771 2 2 10 10 833 834 866
1772 2 2 10 10 833 866 865
1773 2 2 10 10 834 835 867
1774 2 2 10 10 834 867 866
1775 2 2 10 10 835 836 868
1776 2 2 10 10 835 868 867
1777 2 2 10 10 837 838 880
1778 2 2 10 10 837 880 879
1779 2 2 10 10 838 839 881
1780 2 2 10 10 838 881 880
1781 2 2 10 10 839 840 882
1782 2 2 10 10 839 882 881
1783 2 2 10 10 840 841 883
1784 2 2 10 10 840 883 882
1785 2 2 10 10 841 842 884
1786 2 2 10 10 841 884 883
1787 2 2 10 10 842 843 885
1788 2 2 10 10 842 885 884
1789 2 2 10 10 843 844 886
1790 2 2 10 10 843 886 885
1791 2 2 10 10 844 845 887
1792 2 2 10 10 844 887 886
1793 2 2 10 10 845 846 888
1794 2 2 10 10 845 888 887
1795 2 2 10 10 846 847 889
1796 2 2 10 10 846 889 888
1797 2 2 10 10 847 848 890
1798 2 2 10 10 847 890 889
1799 2 2 10 10 848 849 891
1800 2 2 10 10 848 891 890
1801 2 2 10 10 849 850 892
1802 2 2 10 10 849 892 891
1803 2 2 10 10 850 851 893
1804 2 2 10 10 850 893 892
1805 2 2 10 10 851 852 894
1806 2 2 10 10 851 894 893
1807 2 2 10 10 852 853 895
1808 2 2 10 10 852 895 894
1809 2 2 10 10 853 854 896
1810 2 2 10 10 853 896 895
1811 2 2 10 10 854 855 897
1812 2 2 10 10 854 897 896
1813 2 2 10 10 855 856 898
1814 2 2 10 10 855 898 897
1815 2 2 10 10 856 857 899
1816 2 2 10 10 856 899 898
1817 2 2 10 10 857 858 900
1818 2 2 10 10 857 900 899
1819 2 2 10 10 861 862 902
1820 2 2 10 10 861 902 901
1821 2 2 10 10 862 863 903
1822 2 2 10 10 862 903 902
1823 2 2 10 10 863 864 904
1824 2 2 10 10 863 904 903
1825 2 2 10 10 864 865 905
1826 2 2 10 10 864 905 904
1827 2 2 10 10 865 866 906
1828 2 2 10 10 865 906 905
1829 2 2 10 10 866 867 907
1830 2 2 10 10 866 907 906
1831 2 2 10 10 867 868 908
1832 2 2 10 10 867 908 907
1833 2 2 10 10 868 869 909
1834 2 2 10 10 868 909 908
1835 2 2 10 10 869 870 910
1836 2 2 10 10 869 910 909
1837 2 2 10 10 870 871 911
1838 2 2 10 10 870 911 910
1839 2 2 10 10 871 872 912
1840 2 2 10 10 871 912 911
1841 2 2 10 10 872 873 913
1842 2 2 10 10 872 913 912
1843 2 2 10 10 873 874 914
1844 2 2 10 10 873 914 913
1845 2 2 10 10 874 875 915
1846 2 2 10 10 874 915 914
1847 2 2 10 10 875 876 916
1848 2 2 10 10 875 916 915
1849 2 2 10 10 876 877 917
1850 2 2 10 10 876 917 916
1851 2 2 10 10 877 878 918
1852 2 2 10 10 877 918 917
1853 2 2 10 10 879 880 920
1854 2 2 10 10 879 920 919
1855 2 2 10 10 880 881 921
1856 2 2 10 10 880 921 920
1857 2 2 10 10 881 882 922
1858 2 2 10 10 881 922 921
1859 2 2 10 10 882 883 923
1860 2 2 10 10 882 923 922
1861 2 2 10 10 883 884 924
1862 2 2 10 10 883 924 923
1863 2 2 10 10 884 885 925
1864 2 2 10 10 884 925 924
1865 2 2 10 10 885 886 926
1866 2 2 10 10 885 926 925
1867 2 2 10 10 886 887 927
1868 2 2 10 10 886 927 926
1869 2 2 10 10 887 888 928
1870 2 2 10 10 887 928 927
1871 2 2 10 10 888 889 929
1872 2 2 10 10 888 929 928
1873 2 2 10 10 889 890 930
1874 2 2 10 10 889 930 929
1875 2 2 10 10 890 891 931
1876 2 2 10 10 890 931 930
1877 2 2 10 10 891 892 932
1878 2 2 10 10 891 932 931
1879 2 2 10 10 892 893 933
1880 2 2 10 10 892 933 932
1881 2 2 10 10 893 894 934
1882 2 2 10 10 893 934 933
1883 2 2 10 10 894 895 935
1884 2 2 10 10 894 935 934
1885 2 2 10 10 895 896 936
1886 2 2 10 10 895 936 935
1887 2 2 10 10 896 897 937
1888 2 2 10 10 896 937 936
1889 2 2 10 10 897 898 938
1890 2 2 10 10 897 938 937
1891 2 2 10 10 898 899 939
1892 2 2 10 10 898 939 938
1893 2 2 10 10 902 903 941
1894 2 2 10 10 902 941 940
1895 2 2 10 10 903 904 942
1896 2 2 10 10 903 942 941
1897 2 2 10 10 904 905 943
1898 2 2 10 10 904 943 942
1899 2 2 10 10 905 906 944
1900 2 2 10 10 905 944 943
1901 2 2 10 10 906 907 945
1902 2 2 10 10 906 945 944
1903 2 2 10 10 907 908 946
1904 2 2 10 10 907 946 945
1905 2 2 10 10 908 909 947
1906 2 2 10 10 908 947 946
1907 2 2 10 10 909 910 948
1908 2 2 10 10 909 948 947
1909 2 2 10 10 910 911 949
1910 2 2 10 10 910 949 948
1911 2 2 10 10 911 912 950
1912 2 2 10 10 911 950 949
1913 2 2 10 10 912 913 951
1914 2 2 10 10 912 951 950
1915 2 2 10 10 913 914 952
1916 2 2 10 10 913 952 951
1917 2 2 10 10 914 915 953
1918 2 2 10 10 914 953 952
1919 2 2 10 10 915 916 954
1920 2 2 10 10 915 954 953
1921 2 2 10 10 916 917 955
1922 2 2 10 10 916 955 954
1923 2 2 10 10 917 918 956
1924 2 2 10 10 917 956 955
1925 2 2 10 10 919 920 958
1926 2 2 10 10 919 958 957
1927 2 2 10 10 920 921 959
1928 2 2 10 10 920 959 958
1929 2 2 10 10 921 922 960
1930 2 2 10 10 921 960 959
1931 2 2 10 10 922 923 961
1932 2 2 10 10 922 961 960
1933 2 2 10 10 923 924 962
1934 2 2 10 10 923 962 961
1935 2 2 10 10 924 925 963
1936 2 2 10 10 924 963 962
1937 2 2 10 10 925 926 964
1938 2 2 10 10 925 964 963
1939 2 2 10 10 926 927 965
1940 2 2 10 10 926 965 964
1941 2 2 10 10 927 928 966
1942 2 2 10 10 927 966 965
1943 2 2 10 10 928 929 967
1944 2 2 10 10 928 967 966
1945 2 2 10 10 929 930 968
1946 2 2 10 10 929 968 967
1947 2 2 10 10 930 931 969
1948 2 2 10 10 930 969 968
1949 2 2 10 10 931 932 970
1950 2 2 10 10 931 970 969
1951 2 2 10 10 932 933 971
1952 2 2 10 10 932 971 970
1953 2 2 10 10 933 934 972
1954 2 2 10 10 933 972 971
1955 2 2 10 10 934 935 973
1956 2 2 10 10 934 973 972
1957 2 2 10 10 935 936 974
1958 2 2 10 10 935 974 973
1959 2 2 10 10 936 937 975
1960 2 2 10 10 936 975 974
1961 2 2 10 10 937 938 976
1962 2 2 10 10 937 976 975
1963 2 2 10 10 938 939 977
1964 2 2 10 10 938 977 976
1965 2 2 10 10 940 941 979
1966 2 2 10 10 940 979 978
1967 2 2 10 10 941 942 980
1968 2 2 10 10 941 980 979
1969 2 2 10 10 942 943 981
1970 2 2 10 10 942 981 980
1971 2 2 10 10 943 944 982
1972 2 2 10 10 943 982 981
1973 2 2 10 10 944 945 983
1974 2 2 10 10 944 983 982
1975 2 2 10 10 945 946 984
1976 2 2 10 10 945 984 983
1977 2 2 10 10 946 947 985
1978 2 2 10 10 946 985 984
1979 2 2 10 10 947 948 986
1980 2 2 10 10 947 986 985
1981 2 2 10 10 948 949 987
1982 2 2 10 10 948 987 986
1983 2 2 10 10 949 950 988
1984 2 2 10 10 949 988 987
1985 2 2 10 10 950 951 989
1986 2 2 10 10 950 989 988
1987 2 2 10 10 951 952 990
1988 2 2 10 10 951 990 989
1989 2 2 10 10 952 953 991
1990 2 2 10 10 952 991 990
1991 2 2 10 10 953 954 992
1992 2 2 10 10 953 992 991
1993 2 2 10 10 954 955 993
1994 2 2 10 10 954 993 992
1995 2 2 10 10 955 956 994
1996 2 2 10 10 955 994 993
1997 2 2 10 10 957 958 996
1998 2 2 10 10 957 996 995
1999 2 2 10 10 958 959 997
2000 2 2 10 10 958 997 996
2001 2 2 10 10 959 960 998
2002 2 2 10 10 959 998 997
2003 2 2 10 10 960 961 999
2004 2 2 10 10 960 999 998
2005 2 2 10 10 961 962 1000
2006 2 2 10 10 961 1000 999
2007 2 2 10 10 962 963 1001
2008 2 2 10 10 962 1001 1000
2009 2 2 10 10 963 964 1002
2010 2 2 10 10 963 1002 1001
2011 2 2 10 10 964 965 1003
2012 2 2 10 10 964 1003 1002
2013 2 2 10 10 965 966 1004
2014 2 2 10 10 965 1004 1003
2015 2 2 10 10 966 967 1005
2016 2 2 10 10 966 1005 1004
2017 2 2 10 10 967 968 1006
2018 2 2 10 10 967 1006 1005
2019 2 2 10 10 968 969 1007
2020 2 2 10 10 968 1007 1006
2021 2 2 10 10 969 970 1008
2022 2 2 10 10 969 1008 1007
2023 2 2 10 10 970 971 1009
2024 2 2 10 10 970 1009 1008
2025 2 2 10 10 971 972 1010
2026 2 2 10 10 971 1010 1009
2027 2 2 10 10 972 973 1011
2028 2 2 10 10 972 1011 1010
2029 2 2 10 10 973 974 1012
2030 2 2 10 10 973 1012 1011
2031 2 2 10 10 974 975 1013
2032 2 2 10 10 974 1013 1012
2033 2 2 10 10 975 976 1014
2034 2 2 10 10 975 1014 1013
2035 2 2 10 10 979 980 1016
2036 2 2 10 10 979 1016 1015
2037 2 2 10 10 980 981 1017
2038 2 2 10 10 980 1017 1016
2039 2 2 10 10 981 982 1018
2040 2 2 10 10 981 1018 1017
2041 2 2 10 10 982 983 1019
2042 2 2 10 10 982 1019 1018
2043 2 2 10 10 983 984 1020
2044 2 2 10 10 983 1020 1019
2045 2 2 10 10 984 985 1021
2046 2 2 10 10 984 1021 1020
2047 2 2 10 10 985 986 1022
2048 2 2 10 10 985 1022 1021
2049 2 2 10 10 986 987 1023
2050 2 2 10 10 986 1023 1022
2051 2 2 10 10 987 988 1024
2052 2 2 10 10 987 1024 1023
2053 2 2 10 10 988 989 1025
2054 2 2 10 10 988 1025 1024
2055 2 2 10 10 989 990 1026
2056 2 2 10 10 989 1026 1025
2057 2 2 10 10 990 991 1027
2058 2 2 10 10 990 1027 1026
2059 2 2 10 10 991 992 1028
2060 2 2 10 10 991 1028 1027
2061 2 2 10 10 992 993 1029
2062 2 2 10 10 992 1029 1028
2063 2 2 10 10 993 994 1030
2064 2 2 10 10 993 1030 1029
2065 2 2 10 10 995 996 1032
2066 2 2 10 10 995 1032 1031
2067 2 2 10 10 996 997 1033
2068 2 2 10 10 996 1033 1032
2069 2 2 10 10 997 998 1034
2070 2 2 10 10 997 1034 1033
2071 2 2 10 10 998 999 1035
2072 2 2 10 10 998 1035 1034
2073 2 2 10 10 999 1000 1036
2074 2 2 10 10 999 1036 1035
2075 2 2 10 10 1000 1001 1037
2076 2 2 10 10 1000 1037 1036
2077 2 2 10 10 1001 1002 1038
2078 2 2 10 10 1001 1038 1037
2079 2 2 10 10 1002 1003 1039
2080 2 2 10 10 1002 1039 1038
2081 2 2 10 10 1003 1004 1040
2082 2 2 10 10 1003 1040 1039
2083 2 2 10 10 1004 1005 1041
2084 2 2 10 10 1004 1041 1040
2085 2 2 10 10 1005 1006 1042
2086 2 2 10 10 1005 1042 1041
2087 2 2 10 10 1006 1007 1043
2088 2 2 10 10 1006 1043 1042
2089 2 2 10 10 1007 1008 1044
2090 2 2 10 10 1007 1044 1043
2091 2 2 10 10 1008 1009 1045
2092 2 2 10 10 1008 1045 1044
2093 2 2 10 10 1009 1010 1046
2094 2 2 10 10 1009 1046 1045
2095 2 2 10 10 1010 1011 1047
2096 2 2 10 10 1010 1047 1046
2097 2 2 10 10 1011 1012 1048
2098 2 2 10 10 1011 1048 1047
2099 2 2 10 10 1012 1013 1049
2100 2 2 10 10 1012 1049 1048
2101 2 2 10 10 1016 1017 1051
2102 2 2 10 10 1016 1051 1050
2103 2 2 10 10 1017 1018 1052
2104 2 2 10 10 1017 1052 1051
2105 2 2 10 10 1018 1019 1053
2106 2 2 10 10 1018 1053 1052
2107 2 2 10 10 1019 1020 1054
2108 2 2 10 10 1019 1054 1053
2109 2 2 10 10 1020 1021 1055
2110 2 2 10 10 1020 1055 1054
2111 2 2 10 10 1021 1022 1056
2112 2 2 10 10 1021 1056 1055
2113 2 2 10 10 1022 1023 1057
2114 2 2 10 10 1022 1057 1056
2115 2 2 10 10 1023 1024 1058
2116 2 2 10 10 1023 1058 1057
2117 2 2 10 10 1024 1025 1059
2118 2 2 10 10 1024 1059 1058
2119 2 2 10 10 1025 1026 1060
2120 2 2 10 10 1025 1060 1059
2121 2 2 10 10 1026 1027 1061
2122 2 2 10 10 1026 1061 1060
2123 2 2 10 10 1027 1028 1062
2124 2 2 10 10 1027 1062 1061
2125 2 2 10 10 1028 1029 1063
2126 2 2 10 10 1028 1063 1062
2127 2 2 10 10 1029 1030 1064
2128 2 2 10 10 1029 1064 1063
2129 2 2 10 10 1031 1032 1066
2130 2 2 10 10 1031 1066 1065
2131 2 2 10 10 1032 1033 1067
2132 2 2 10 10 1032 1067 1066
2133 2 2 10 10 1033 1034 1068
2134 2 2 10 10 1033 1068 1067
2135 2 2 10 10 1034 1035 1069
2136 2 2 10 10 1034 1069 1068
2137 2 2 10 10 1035 1036 1070
2138 2 2 10 10 1035 1070 1069
2139 2 2 10 10 1036 1037 1071
2140 2 2 10 10 1036 1071 1070
2141 2 2 10 10 1037 1038 1072
2142 2 2 10 10 1037 1072 1071
2143 2 2 10 10 1038 1039 1073
2144 2 2 10 10 1038 1073 1072
2145 2 2 10 10 1039 1040 1074
2146 2 2 10 10 1039 1074 1073
2147 2 2 10 10 1040 1041 1075
2148 2 2 10 10 1040 1075 1074
2149 2 2 10 10 1041 1042 1076
2150 2 2 10 10 1041 1076 1075
2151 2 2 10 10 1042 1043 1077
2152 2 2 10 10 1042 1077 1076
2153 2 2 10 10 1043 1044 1078
2154 2 2 10 10 1043 1078 1077
2155 2 2 10 10 1044 1045 1079
2156 2 2 10 10 1044 1079 1078
2157 2 2 10 10 1045 1046 1080
2158 2 2 10 10 1045 1080 1079
2159 2 2 10 10 1046 1047 1081
2160 2 2 10 10 1046 1081 1080
2161 2 2 10 10 1047 1048 1082
2162 2 2 10 10 1047 1082 1081
2163 2 2 10 10 1051 1052 1084
2164 2 2 10 10 1051 1084 1083
2165 2 2 10 10 1052 1053 1085
2166 2 2 10 10 1052 1085 1084
2167 2 2 10 10 1053 1054 1086
2168 2 2 10 10 1053 1086 1085
2169 2 2 10 10 1054 1055 1087
2170 2 2 10 10 1054 1087 1086
2171 2 2 10 10 1055 1056 1088
2172 2 2 10 10 1055 1088 1087
2173 2 2 10 10 1056 1057 1089
2174 2 2 10 10 1056 1089 1088
2175 2 2 10 10 1057 1058 1090
2176 2 2 10 10 1057 1090 1089
2177 2 2 10 10 1058 1059 1091
2178 2 2 10 10 1058 1091 1090
2179 2 2 10 10 1059 1060 1092
2180 2 2 10 10 1059 1092 1091
2181 2 2 10 10 1060 1061 1093
2182 2 2 10 10 1060 1093 1092
2183 2 2 10 10 1061 1062 1094
2184 2 2 10 10 1061 1094 1093
2185 2 2 10 10 1062 1063 1095
2186 2 2 10 10 1062 1095 1094
2187 2 2 10 10 1063 1064 1096
2188 2 2 10 10 1063 1096 1095
$EndElements
