$MeshFormat
2.2 0 8
$EndMeshFormat
$PhysicalNames
4
1 1 "inlet"
1 2 "outlet"
1 3 "walls"
2 10 "fluid"
$EndPhysicalNames
$Nodes
1332
1 0 0.016 0
2 0.002 0.016 0
3 0.004 0.016 0
4 0.006 0.016 0
5 0.008 0.016 0
6 0.01 0.016 0
7 0.012 0.016 0
8 0.014 0.016 0
9 0.016 0.016 0
10 0.018 0.016 0
11 0.02 0.016 0
12 0.022 0.016 0
13 0.024 0.016 0
14 0.026 0.016 0
15 0.028 0.016 0
16 0.03 0.016 0
17 0.032 0.016 0
18 0.034 0.016 0
19 0.036 0.016 0
20 0.038 0.016 0
21 0.04 0.016 0
22 0.042 0.016 0
23 0.044 0.016 0
24 0.108 0.016 0
25 0.11 0.016 0
26 0.112 0.016 0
27 0.114 0.016 0
28 0.116 0.016 0
29 0.118 0.016 0
30 0.12 0.016 0
31 0.122 0.016 0
32 0.124 0.016 0
33 0.126 0.016 0
34 0.128 0.016 0
35 0 0.018 0
36 0.002 0.018 0
37 0.004 0.018 0
38 0.006 0.018 0
39 0.008 0.018 0
40 0.01 0.018 0
41 0.012 0.018 0
42 0.014 0.018 0
43 0.016 0.018 0
44 0.018 0.018 0
45 0.02 0.018 0
46 0.022 0.018 0
47 0.024 0.018 0
48 0.026 0.018 0
49 0.028 0.018 0
50 0.03 0.018 0
51 0.032 0.018 0
52 0.034 0.018 0
53 0.036 0.018 0
54 0.038 0.018 0
55 0.04 0.018 0
56 0.042 0.018 0
57 0.044 0.018 0
58 0.046 0.018 0
59 0.048 0.018 0
60 0.104 0.018 0
61 0.106 0.018 0
62 0.108 0.018 0
63 0.11 0.018 0
64 0.112 0.018 0
65 0.114 0.018 0
66 0.116 0.018 0
67 0.118 0.018 0
68 0.12 0.018 0
69 0.122 0.018 0
70 0.124 0.018 0
71 0.126 0.018 0
72 0.128 0.018 0
73 0 0.02 0
74 0.002 0.02 0
75 0.004 0.02 0
76 0.006 0.02 0
77 0.008 0.02 0
78 0.01 0.02 0
79 0.012 0.02 0
80 0.014 0.02 0
81 0.016 0.02 0
82 0.018 0.02 0
83 0.02 0.02 0
84 0.022 0.02 0
85 0.024 0.02 0
86 0.026 0.02 0
87 0.028 0.02 0
88 0.03 0.02 0
89 0.032 0.02 0
90 0.034 0.02 0
91 0.036 0.02 0
92 0.038 0.02 0
93 0.04 0.02 0
94 0.042 0.02 0
95 0.044 0.02 0
96 0.046 0.02 0
97 0.048 0.02 0
98 0.05 0.02 0
99 0.102 0.02 0
100 0.104 0.02 0
101 0.106 0.02 0
102 0.108 0.02 0
103 0.11 0.02 0
104 0.112 0.02 0
105 0.114 0.02 0
106 0.116 0.02 0
107 0.118 0.02 0
108 0.12 0.02 0
109 0.122 0.02 0
110 0.124 0.02 0
111 0.126 0.02 0
112 0.128 0.02 0
113 0 0.022 0
114 0.002 0.022 0
115 0.004 0.022 0
116 0.006 0.022 0
117 0.008 0.022 0
118 0.01 0.022 0
119 0.012 0.022 0
120 0.014 0.022 0
121 0.016 0.022 0
122 0.018 0.022 0
123 0.02 0.022 0
124 0.022 0.022 0
125 0.024 0.022 0
126 0.026 0.022 0
127 0.028 0.022 0
128 0.03 0.022 0
129 0.032 0.022 0
130 0.034 0.022 0
131 0.036 0.022 0
132 0.038 0.022 0
133 0.04 0.022 0
134 0.042 0.022 0
135 0.044 0.022 0
136 0.046 0.022 0
137 0.048 0.022 0
138 0.05 0.022 0
139 0.052 0.022 0
140 0.1 0.022 0
141 0.102 0.022 0
142 0.104 0.022 0
143 0.106 0.022 0
144 0.108 0.022 0
145 0.11 0.022 0
146 0.112 0.022 0
147 0.114 0.022 0
148 0.116 0.022 0
149 0.118 0.022 0
150 0.12 0.022 0
151 0.122 0.022 0
152 0.124 0.022 0
153 0.126 0.022 0
154 0.128 0.022 0
155 0 0.024 0
156 0.002 0.024 0
157 0.004 0.024 0
158 0.006 0.024 0
159 0.008 0.024 0
160 0.01 0.024 0
161 0.012 0.024 0
162 0.014 0.024 0
163 0.016 0.024 0
164 0.018 0.024 0
165 0.02 0.024 0
166 0.022 0.024 0
167 0.024 0.024 0
168 0.026 0.024 0
169 0.028 0.024 0
170 0.03 0.024 0
171 0.032 0.024 0
172 0.034 0.024 0
173 0.036 0.024 0
174 0.038 0.024 0
175 0.04 0.024 0
176 0.042 0.024 0
177 0.044 0.024 0
178 0.046 0.024 0
179 0.048 0.024 0
180 0.05 0.024 0
181 0.052 0.024 0
182 0.1 0.024 0
183 0.102 0.024 0
184 0.104 0.024 0
185 0.106 0.024 0
186 0.108 0.024 0
187 0.11 0.024 0
188 0.112 0.024 0
189 0.114 0.024 0
190 0.116 0.024 0
191 0.118 0.024 0
192 0.12 0.024 0
193 0.122 0.024 0
194 0.124 0.024 0
195 0.126 0.024 0
196 0.128 0.024 0
197 0 0.026 0
198 0.002 0.026 0
199 0.004 0.026 0
200 0.006 0.026 0
201 0.008 0.026 0
202 0.01 0.026 0
203 0.012 0.026 0
204 0.014 0.026 0
205 0.016 0.026 0
206 0.018 0.026 0
207 0.02 0.026 0
208 0.022 0.026 0
209 0.024 0.026 0
210 0.026 0.026 0
211 0.028 0.026 0
212 0.03 0.026 0
213 0.032 0.026 0
214 0.034 0.026 0
215 0.036 0.026 0
216 0.038 0.026 0
217 0.04 0.026 0
218 0.042 0.026 0
219 0.044 0.026 0
220 0.046 0.026 0
221 0.048 0.026 0
222 0.05 0.026 0
223 0.052 0.026 0
224 0.098 0.026 0
225 0.1 0.026 0
226 0.102 0.026 0
227 0.104 0.026 0
228 0.106 0.026 0
229 0.108 0.026 0
230 0.11 0.026 0
231 0.112 0.026 0
232 0.114 0.026 0
233 0.116 0.026 0
234 0.118 0.026 0
235 0.12 0.026 0
236 0.122 0.026 0
237 0.124 0.026 0
238 0.126 0.026 0
239 0.128 0.026 0
240 0 0.028 0
241 0.002 0.028 0
242 0.004 0.028 0
243 0.006 0.028 0
244 0.008 0.028 0
245 0.01 0.028 0
246 0.012 0.028 0
247 0.014 0.028 0
248 0.016 0.028 0
249 0.018 0.028 0
250 0.02 0.028 0
251 0.022 0.028 0
252 0.024 0.028 0
253 0.026 0.028 0
254 0.028 0.028 0
255 0.03 0.028 0
256 0.032 0.028 0
257 0.034 0.028 0
258 0.036 0.028 0
259 0.038 0.028 0
260 0.04 0.028 0
261 0.042 0.028 0
262 0.044 0.028 0
263 0.046 0.028 0
264 0.048 0.028 0
265 0.05 0.028 0
266 0.052 0.028 0
267 0.054 0.028 0
268 0.098 0.028 0
269 0.1 0.028 0
270 0.102 0.028 0
271 0.104 0.028 0
272 0.106 0.028 0
273 0.108 0.028 0
274 0.11 0.028 0
275 0.112 0.028 0
276 0.114 0.028 0
277 0.116 0.028 0
278 0.118 0.028 0
279 0.12 0.028 0
280 0.122 0.028 0
281 0.124 0.028 0
282 0.126 0.028 0
283 0.128 0.028 0
284 0 0.03 0
285 0.002 0.03 0
286 0.004 0.03 0
287 0.006 0.03 0
288 0.008 0.03 0
289 0.01 0.03 0
290 0.012 0.03 0
291 0.014 0.03 0
292 0.016 0.03 0
293 0.018 0.03 0
294 0.02 0.03 0
295 0.022 0.03 0
296 0.024 0.03 0
297 0.026 0.03 0
298 0.028 0.03 0
299 0.03 0.03 0
300 0.032 0.03 0
301 0.034 0.03 0
302 0.036 0.03 0
303 0.038 0.03 0
304 0.04 0.03 0
305 0.042 0.03 0
306 0.044 0.03 0
307 0.046 0.03 0
308 0.048 0.03 0
309 0.05 0.03 0
310 0.052 0.03 0
311 0.054 0.03 0
312 0.098 0.03 0
313 0.1 0.03 0
314 0.102 0.03 0
315 0.104 0.03 0
316 0.106 0.03 0
317 0.108 0.03 0
318 0.11 0.03 0
319 0.112 0.03 0
320 0.114 0.03 0
321 0.116 0.03 0
322 0.118 0.03 0
323 0.12 0.03 0
324 0.122 0.03 0
325 0.124 0.03 0
326 0.126 0.03 0
327 0.128 0.03 0
328 0 0.032 0
329 0.002 0.032 0
330 0.004 0.032 0
331 0.006 0.032 0
332 0.008 0.032 0
333 0.01 0.032 0
334 0.012 0.032 0
335 0.014 0.032 0
336 0.016 0.032 0
337 0.018 0.032 0
338 0.02 0.032 0
339 0.022 0.032 0
340 0.024 0.032 0
341 0.026 0.032 0
342 0.028 0.032 0
343 0.03 0.032 0
344 0.032 0.032 0
345 0.034 0.032 0
346 0.036 0.032 0
347 0.038 0.032 0
348 0.04 0.032 0
349 0.042 0.032 0
350 0.044 0.032 0
351 0.046 0.032 0
352 0.048 0.032 0
353 0.05 0.032 0
354 0.052 0.032 0
355 0.054 0.032 0
356 0.096 0.032 0
357 0.098 0.032 0
358 0.1 0.032 0
359 0.102 0.032 0
360 0.104 0.032 0
361 0.106 0.032 0
362 0.108 0.032 0
363 0.11 0.032 0
364 0.112 0.032 0
365 0.114 0.032 0
366 0.116 0.032 0
367 0.118 0.032 0
368 0.12 0.032 0
369 0.122 0.032 0
370 0.124 0.032 0
371 0.126 0.032 0
372 0.128 0.032 0
373 0.04 0.034 0
374 0.042 0.034 0
375 0.044 0.034 0
376 0.046 0.034 0
377 0.048 0.034 0
378 0.05 0.034 0
379 0.052 0.034 0
380 0.054 0.034 0
381 0.056 0.034 0
382 0.096 0.034 0
383 0.098 0.034 0
384 0.1 0.034 0
385 0.102 0.034 0
386 0.104 0.034 0
387 0.106 0.034 0
388 0.108 0.034 0
389 0.11 0.034 0
390 0.112 0.034 0
391 0.04 0.036 0
392 0.042 0.036 0
393 0.044 0.036 0
394 0.046 0.036 0
395 0.048 0.036 0
396 0.05 0.036 0
397 0.052 0.036 0
398 0.054 0.036 0
399 0.056 0.036 0
400 0.094 0.036 0
401 0.096 0.036 0
402 0.098 0.036 0
403 0.1 0.036 0
404 0.102 0.036 0
405 0.104 0.036 0
406 0.106 0.036 0
407 0.108 0.036 0
408 0.11 0.036 0
409 0.042 0.038 0
410 0.044 0.038 0
411 0.046 0.038 0
412 0.048 0.038 0
413 0.05 0.038 0
414 0.052 0.038 0
415 0.054 0.038 0
416 0.056 0.038 0
417 0.094 0.038 0
418 0.096 0.038 0
419 0.098 0.038 0
420 0.1 0.038 0
421 0.102 0.038 0
422 0.104 0.038 0
423 0.106 0.038 0
424 0.108 0.038 0
425 0.11 0.038 0
426 0.042 0.04 0
427 0.044 0.04 0
428 0.046 0.04 0
429 0.048 0.04 0
430 0.05 0.04 0
431 0.052 0.04 0
432 0.054 0.04 0
433 0.056 0.04 0
434 0.058 0.04 0
435 0.092 0.04 0
436 0.094 0.04 0
437 0.096 0.04 0
438 0.098 0.04 0
439 0.1 0.04 0
440 0.102 0.04 0
441 0.104 0.04 0
442 0.106 0.04 0
443 0.108 0.04 0
444 0.042 0.042 0
445 0.044 0.042 0
446 0.046 0.042 0
447 0.048 0.042 0
448 0.05 0.042 0
449 0.052 0.042 0
450 0.054 0.042 0
451 0.056 0.042 0
452 0.058 0.042 0
453 0.092 0.042 0
454 0.094 0.042 0
455 0.096 0.042 0
456 0.098 0.042 0
457 0.1 0.042 0
458 0.102 0.042 0
459 0.104 0.042 0
460 0.106 0.042 0
461 0.108 0.042 0
462 0.044 0.044 0
463 0.046 0.044 0
464 0.048 0.044 0
465 0.05 0.044 0
466 0.052 0.044 0
467 0.054 0.044 0
468 0.056 0.044 0
469 0.058 0.044 0
470 0.09 0.044 0
471 0.092 0.044 0
472 0.094 0.044 0
473 0.096 0.044 0
474 0.098 0.044 0
475 0.1 0.044 0
476 0.102 0.044 0
477 0.104 0.044 0
478 0.106 0.044 0
479 0.108 0.044 0
480 0.044 0.046 0
481 0.046 0.046 0
482 0.048 0.046 0
483 0.05 0.046 0
484 0.052 0.046 0
485 0.054 0.046 0
486 0.056 0.046 0
487 0.058 0.046 0
488 0.06 0.046 0
489 0.09 0.046 0
490 0.092 0.046 0
491 0.094 0.046 0
492 0.096 0.046 0
493 0.098 0.046 0
494 0.1 0.046 0
495 0.102 0.046 0
496 0.104 0.046 0
497 0.106 0.046 0
498 0.044 0.048 0
499 0.046 0.048 0
500 0.048 0.048 0
501 0.05 0.048 0
502 0.052 0.048 0
503 0.054 0.048 0
504 0.056 0.048 0
505 0.058 0.048 0
506 0.06 0.048 0
507 0.09 0.048 0
508 0.092 0.048 0
509 0.094 0.048 0
510 0.096 0.048 0
511 0.098 0.048 0
512 0.1 0.048 0
513 0.102 0.048 0
514 0.104 0.048 0
515 0.106 0.048 0
516 0.046 0.05 0
517 0.048 0.05 0
518 0.05 0.05 0
519 0.052 0.05 0
520 0.054 0.05 0
521 0.056 0.05 0
522 0.058 0.05 0
523 0.06 0.05 0
524 0.08799999999999999 0.05 0
525 0.09 0.05 0
526 0.092 0.05 0
527 0.094 0.05 0
528 0.096 0.05 0
529 0.098 0.05 0
530 0.1 0.05 0
531 0.102 0.05 0
532 0.104 0.05 0
533 0.046 0.052 0
534 0.048 0.052 0
535 0.05 0.052 0
536 0.052 0.052 0
537 0.054 0.052 0
538 0.056 0.052 0
539 0.058 0.052 0
540 0.06 0.052 0
541 0.062 0.052 0
542 0.08799999999999999 0.052 0
543 0.09 0.052 0
544 0.092 0.052 0
545 0.094 0.052 0
546 0.096 0.052 0
547 0.098 0.052 0
548 0.1 0.052 0
549 0.102 0.052 0
550 0.104 0.052 0
551 0.046 0.054 0
552 0.048 0.054 0
553 0.05 0.054 0
554 0.052 0.054 0
555 0.054 0.054 0
556 0.056 0.054 0
557 0.058 0.054 0
558 0.06 0.054 0
559 0.062 0.054 0
560 0.08600000000000001 0.054 0
561 0.08799999999999999 0.054 0
562 0.09 0.054 0
563 0.092 0.054 0
564 0.094 0.054 0
565 0.096 0.054 0
566 0.098 0.054 0
567 0.1 0.054 0
568 0.102 0.054 0
569 0.048 0.056 0
570 0.05 0.056 0
571 0.052 0.056 0
572 0.054 0.056 0
573 0.056 0.056 0
574 0.058 0.056 0
575 0.06 0.056 0
576 0.062 0.056 0
577 0.064 0.056 0
578 0.066 0.056 0
579 0.068 0.056 0
580 0.07000000000000001 0.056 0
581 0.07200000000000001 0.056 0
582 0.074 0.056 0
583 0.076 0.056 0
584 0.078 0.056 0
585 0.08 0.056 0
586 0.082 0.056 0
587 0.08400000000000001 0.056 0
588 0.08600000000000001 0.056 0
589 0.08799999999999999 0.056 0
590 0.09 0.056 0
591 0.092 0.056 0
592 0.094 0.056 0
593 0.096 0.056 0
594 0.098 0.056 0
595 0.1 0.056 0
596 0.102 0.056 0
597 0.048 0.058 0
598 0.05 0.058 0
599 0.052 0.058 0
600 0.054 0.058 0
601 0.056 0.058 0
602 0.058 0.058 0
603 0.06 0.058 0
604 0.062 0.058 0
605 0.064 0.058 0
606 0.066 0.058 0
607 0.068 0.058 0
608 0.07000000000000001 0.058 0
609 0.07200000000000001 0.058 0
610 0.074 0.058 0
611 0.076 0.058 0
612 0.078 0.058 0
613 0.08 0.058 0
614 0.082 0.058 0
615 0.08400000000000001 0.058 0
616 0.08600000000000001 0.058 0
617 0.08799999999999999 0.058 0
618 0.09 0.058 0
619 0.092 0.058 0
620 0.094 0.058 0
621 0.096 0.058 0
622 0.098 0.058 0
623 0.1 0.058 0
624 0.048 0.06 0
625 0.05 0.06 0
626 0.052 0.06 0
627 0.054 0.06 0
628 0.056 0.06 0
629 0.058 0.06 0
630 0.06 0.06 0
631 0.062 0.06 0
632 0.064 0.06 0
633 0.066 0.06 0
634 0.068 0.06 0
635 0.07000000000000001 0.06 0
636 0.07200000000000001 0.06 0
637 0.074 0.06 0
638 0.076 0.06 0
639 0.078 0.06 0
640 0.08 0.06 0
641 0.082 0.06 0
642 0.08400000000000001 0.06 0
643 0.08600000000000001 0.06 0
644 0.08799999999999999 0.06 0
645 0.09 0.06 0
646 0.092 0.06 0
647 0.094 0.06 0
648 0.096 0.06 0
649 0.098 0.06 0
650 0.1 0.06 0
651 0.05 0.062 0
652 0.052 0.062 0
653 0.054 0.062 0
654 0.056 0.062 0
655 0.058 0.062 0
656 0.06 0.062 0
657 0.062 0.062 0
658 0.064 0.062 0
659 0.066 0.062 0
660 0.068 0.062 0
661 0.07000000000000001 0.062 0
662 0.07200000000000001 0.062 0
663 0.074 0.062 0
664 0.076 0.062 0
665 0.078 0.062 0
666 0.08 0.062 0
667 0.082 0.062 0
668 0.08400000000000001 0.062 0
669 0.08600000000000001 0.062 0
670 0.08799999999999999 0.062 0
671 0.09 0.062 0
672 0.092 0.062 0
673 0.094 0.062 0
674 0.096 0.062 0
675 0.098 0.062 0
676 0.1 0.062 0
677 0.05 0.064 0
678 0.052 0.064 0
679 0.054 0.064 0
680 0.056 0.064 0
681 0.058 0.064 0
682 0.06 0.064 0
683 0.062 0.064 0
684 0.064 0.064 0
685 0.066 0.064 0
686 0.068 0.064 0
687 0.07000000000000001 0.064 0
688 0.07200000000000001 0.064 0
689 0.074 0.064 0
690 0.076 0.064 0
691 0.078 0.064 0
692 0.08 0.064 0
693 0.082 0.064 0
694 0.08400000000000001 0.064 0
695 0.08600000000000001 0.064 0
696 0.08799999999999999 0.064 0
697 0.09 0.064 0
698 0.092 0.064 0
699 0.094 0.064 0
700 0.096 0.064 0
701 0.098 0.064 0
702 0.05 0.066 0
703 0.052 0.066 0
704 0.054 0.066 0
705 0.056 0.066 0
706 0.058 0.066 0
707 0.06 0.066 0
708 0.062 0.066 0
709 0.064 0.066 0
710 0.066 0.066 0
711 0.068 0.066 0
712 0.07000000000000001 0.066 0
713 0.07200000000000001 0.066 0
714 0.074 0.066 0
715 0.076 0.066 0
716 0.078 0.066 0
717 0.08 0.066 0
718 0.082 0.066 0
719 0.08400000000000001 0.066 0
720 0.08600000000000001 0.066 0
721 0.08799999999999999 0.066 0
722 0.09 0.066 0
723 0.092 0.066 0
724 0.094 0.066 0
725 0.096 0.066 0
726 0.098 0.066 0
727 0.1 0.066 0
728 0.048 0.068 0
729 0.05 0.068 0
730 0.052 0.068 0
731 0.054 0.068 0
732 0.056 0.068 0
733 0.058 0.068 0
734 0.06 0.068 0
735 0.062 0.068 0
736 0.064 0.068 0
737 0.066 0.068 0
738 0.068 0.068 0
739 0.07000000000000001 0.068 0
740 0.07200000000000001 0.068 0
741 0.074 0.068 0
742 0.076 0.068 0
743 0.078 0.068 0
744 0.08 0.068 0
745 0.082 0.068 0
746 0.08400000000000001 0.068 0
747 0.08600000000000001 0.068 0
748 0.08799999999999999 0.068 0
749 0.09 0.068 0
750 0.092 0.068 0
751 0.094 0.068 0
752 0.096 0.068 0
753 0.098 0.068 0
754 0.1 0.068 0
755 0.048 0.07000000000000001 0
756 0.05 0.07000000000000001 0
757 0.052 0.07000000000000001 0
758 0.054 0.07000000000000001 0
759 0.056 0.07000000000000001 0
760 0.058 0.07000000000000001 0
761 0.06 0.07000000000000001 0
762 0.062 0.07000000000000001 0
763 0.064 0.07000000000000001 0
764 0.066 0.07000000000000001 0
765 0.068 0.07000000000000001 0
766 0.07000000000000001 0.07000000000000001 0
767 0.07200000000000001 0.07000000000000001 0
768 0.074 0.07000000000000001 0
769 0.076 0.07000000000000001 0
770 0.078 0.07000000000000001 0
771 0.08 0.07000000000000001 0
772 0.082 0.07000000000000001 0
773 0.08400000000000001 0.07000000000000001 0
774 0.08600000000000001 0.07000000000000001 0
775 0.08799999999999999 0.07000000000000001 0
776 0.09 0.07000000000000001 0
777 0.092 0.07000000000000001 0
778 0.094 0.07000000000000001 0
779 0.096 0.07000000000000001 0
780 0.098 0.07000000000000001 0
781 0.1 0.07000000000000001 0
782 0.048 0.07200000000000001 0
783 0.05 0.07200000000000001 0
784 0.052 0.07200000000000001 0
785 0.054 0.07200000000000001 0
786 0.056 0.07200000000000001 0
787 0.058 0.07200000000000001 0
788 0.06 0.07200000000000001 0
789 0.062 0.07200000000000001 0
790 0.08600000000000001 0.07200000000000001 0
791 0.08799999999999999 0.07200000000000001 0
792 0.09 0.07200000000000001 0
793 0.092 0.07200000000000001 0
794 0.094 0.07200000000000001 0
795 0.096 0.07200000000000001 0
796 0.098 0.07200000000000001 0
797 0.1 0.07200000000000001 0
798 0.102 0.07200000000000001 0
799 0.046 0.074 0
800 0.048 0.074 0
801 0.05 0.074 0
802 0.052 0.074 0
803 0.054 0.074 0
804 0.056 0.074 0
805 0.058 0.074 0
806 0.06 0.074 0
807 0.062 0.074 0
808 0.08600000000000001 0.074 0
809 0.08799999999999999 0.074 0
810 0.09 0.074 0
811 0.092 0.074 0
812 0.094 0.074 0
813 0.096 0.074 0
814 0.098 0.074 0
815 0.1 0.074 0
816 0.102 0.074 0
817 0.046 0.076 0
818 0.048 0.076 0
819 0.05 0.076 0
820 0.052 0.076 0
821 0.054 0.076 0
822 0.056 0.076 0
823 0.058 0.076 0
824 0.06 0.076 0
825 0.062 0.076 0
826 0.08799999999999999 0.076 0
827 0.09 0.076 0
828 0.092 0.076 0
829 0.094 0.076 0
830 0.096 0.076 0
831 0.098 0.076 0
832 0.1 0.076 0
833 0.102 0.076 0
834 0.104 0.076 0
835 0.046 0.078 0
836 0.048 0.078 0
837 0.05 0.078 0
838 0.052 0.078 0
839 0.054 0.078 0
840 0.056 0.078 0
841 0.058 0.078 0
842 0.06 0.078 0
843 0.08799999999999999 0.078 0
844 0.09 0.078 0
845 0.092 0.078 0
846 0.094 0.078 0
847 0.096 0.078 0
848 0.098 0.078 0
849 0.1 0.078 0
850 0.102 0.078 0
851 0.104 0.078 0
852 0.044 0.08 0
853 0.046 0.08 0
854 0.048 0.08 0
855 0.05 0.08 0
856 0.052 0.08 0
857 0.054 0.08 0
858 0.056 0.08 0
859 0.058 0.08 0
860 0.06 0.08 0
861 0.09 0.08 0
862 0.092 0.08 0
863 0.094 0.08 0
864 0.096 0.08 0
865 0.098 0.08 0
866 0.1 0.08 0
867 0.102 0.08 0
868 0.104 0.08 0
869 0.106 0.08 0
870 0.044 0.082 0
871 0.046 0.082 0
872 0.048 0.082 0
873 0.05 0.082 0
874 0.052 0.082 0
875 0.054 0.082 0
876 0.056 0.082 0
877 0.058 0.082 0
878 0.06 0.082 0
879 0.09 0.082 0
880 0.092 0.082 0
881 0.094 0.082 0
882 0.096 0.082 0
883 0.098 0.082 0
884 0.1 0.082 0
885 0.102 0.082 0
886 0.104 0.082 0
887 0.106 0.082 0
888 0.044 0.08400000000000001 0
889 0.046 0.08400000000000001 0
890 0.048 0.08400000000000001 0
891 0.05 0.08400000000000001 0
892 0.052 0.08400000000000001 0
893 0.054 0.08400000000000001 0
894 0.056 0.08400000000000001 0
895 0.058 0.08400000000000001 0
896 0.09 0.08400000000000001 0
897 0.092 0.08400000000000001 0
898 0.094 0.08400000000000001 0
899 0.096 0.08400000000000001 0
900 0.098 0.08400000000000001 0
901 0.1 0.08400000000000001 0
902 0.102 0.08400000000000001 0
903 0.104 0.08400000000000001 0
904 0.106 0.08400000000000001 0
905 0.108 0.08400000000000001 0
906 0.042 0.08600000000000001 0
907 0.044 0.08600000000000001 0
908 0.046 0.08600000000000001 0
909 0.048 0.08600000000000001 0
910 0.05 0.08600000000000001 0
911 0.052 0.08600000000000001 0
912 0.054 0.08600000000000001 0
913 0.056 0.08600000000000001 0
914 0.058 0.08600000000000001 0
915 0.092 0.08600000000000001 0
916 0.094 0.08600000000000001 0
917 0.096 0.08600000000000001 0
918 0.098 0.08600000000000001 0
919 0.1 0.08600000000000001 0
920 0.102 0.08600000000000001 0
921 0.104 0.08600000000000001 0
922 0.106 0.08600000000000001 0
923 0.108 0.08600000000000001 0
924 0.042 0.08799999999999999 0
925 0.044 0.08799999999999999 0
926 0.046 0.08799999999999999 0
927 0.048 0.08799999999999999 0
928 0.05 0.08799999999999999 0
929 0.052 0.08799999999999999 0
930 0.054 0.08799999999999999 0
931 0.056 0.08799999999999999 0
932 0.058 0.08799999999999999 0
933 0.092 0.08799999999999999 0
934 0.094 0.08799999999999999 0
935 0.096 0.08799999999999999 0
936 0.098 0.08799999999999999 0
937 0.1 0.08799999999999999 0
938 0.102 0.08799999999999999 0
939 0.104 0.08799999999999999 0
940 0.106 0.08799999999999999 0
941 0.108 0.08799999999999999 0
942 0.042 0.09 0
943 0.044 0.09 0
944 0.046 0.09 0
945 0.048 0.09 0
946 0.05 0.09 0
947 0.052 0.09 0
948 0.054 0.09 0
949 0.056 0.09 0
950 0.094 0.09 0
951 0.096 0.09 0
952 0.098 0.09 0
953 0.1 0.09 0
954 0.102 0.09 0
955 0.104 0.09 0
956 0.106 0.09 0
957 0.108 0.09 0
958 0.11 0.09 0
959 0.04 0.092 0
960 0.042 0.092 0
961 0.044 0.092 0
962 0.046 0.092 0
963 0.048 0.092 0
964 0.05 0.092 0
965 0.052 0.092 0
966 0.054 0.092 0
967 0.056 0.092 0
968 0.094 0.092 0
969 0.096 0.092 0
970 0.098 0.092 0
971 0.1 0.092 0
972 0.102 0.092 0
973 0.104 0.092 0
974 0.106 0.092 0
975 0.108 0.092 0
976 0.11 0.092 0
977 0.04 0.094 0
978 0.042 0.094 0
979 0.044 0.094 0
980 0.046 0.094 0
981 0.048 0.094 0
982 0.05 0.094 0
983 0.052 0.094 0
984 0.054 0.094 0
985 0.056 0.094 0
986 0.096 0.094 0
987 0.098 0.094 0
988 0.1 0.094 0
989 0.102 0.094 0
990 0.104 0.094 0
991 0.106 0.094 0
992 0.108 0.094 0
993 0.11 0.094 0
994 0.112 0.094 0
995 0 0.096 0
996 0.002 0.096 0
997 0.004 0.096 0
998 0.006 0.096 0
999 0.008 0.096 0
1000 0.01 0.096 0
1001 0.012 0.096 0
1002 0.014 0.096 0
1003 0.016 0.096 0
1004 0.018 0.096 0
1005 0.02 0.096 0
1006 0.022 0.096 0
1007 0.024 0.096 0
1008 0.026 0.096 0
1009 0.028 0.096 0
1010 0.03 0.096 0
1011 0.032 0.096 0
1012 0.034 0.096 0
1013 0.036 0.096 0
1014 0.038 0.096 0
1015 0.04 0.096 0
1016 0.042 0.096 0
1017 0.044 0.096 0
1018 0.046 0.096 0
1019 0.048 0.096 0
1020 0.05 0.096 0
1021 0.052 0.096 0
1022 0.054 0.096 0
1023 0.096 0.096 0
1024 0.098 0.096 0
1025 0.1 0.096 0
1026 0.102 0.096 0
1027 0.104 0.096 0
1028 0.106 0.096 0
1029 0.108 0.096 0
1030 0.11 0.096 0
1031 0.112 0.096 0
1032 0.114 0.096 0
1033 0.116 0.096 0
1034 0.118 0.096 0
1035 0.12 0.096 0
1036 0.122 0.096 0
1037 0.124 0.096 0
1038 0.126 0.096 0
1039 0.128 0.096 0
1040 0 0.098 0
1041 0.002 0.098 0
1042 0.004 0.098 0
1043 0.006 0.098 0
1044 0.008 0.098 0
1045 0.01 0.098 0
1046 0.012 0.098 0
1047 0.014 0.098 0
1048 0.016 0.098 0
1049 0.018 0.098 0
1050 0.02 0.098 0
1051 0.022 0.098 0
1052 0.024 0.098 0
1053 0.026 0.098 0
1054 0.028 0.098 0
1055 0.03 0.098 0
1056 0.032 0.098 0
1057 0.034 0.098 0
1058 0.036 0.098 0
1059 0.038 0.098 0
1060 0.04 0.098 0
1061 0.042 0.098 0
1062 0.044 0.098 0
1063 0.046 0.098 0
1064 0.048 0.098 0
1065 0.05 0.098 0
1066 0.052 0.098 0
1067 0.054 0.098 0
1068 0.098 0.098 0
1069 0.1 0.098 0
1070 0.102 0.098 0
1071 0.104 0.098 0
1072 0.106 0.098 0
1073 0.108 0.098 0
1074 0.11 0.098 0
1075 0.112 0.098 0
1076 0.114 0.098 0
1077 0.116 0.098 0
1078 0.118 0.098 0
1079 0.12 0.098 0
1080 0.122 0.098 0
1081 0.124 0.098 0
1082 0.126 0.098 0
1083 0.128 0.098 0
1084 0 0.1 0
1085 0.002 0.1 0
1086 0.004 0.1 0
1087 0.006 0.1 0
1088 0.008 0.1 0
1089 0.01 0.1 0
1090 0.012 0.1 0
1091 0.014 0.1 0
1092 0.016 0.1 0
1093 0.018 0.1 0
1094 0.02 0.1 0
1095 0.022 0.1 0
1096 0.024 0.1 0
1097 0.026 0.1 0
1098 0.028 0.1 0
1099 0.03 0.1 0
1100 0.032 0.1 0
1101 0.034 0.1 0
1102 0.036 0.1 0
1103 0.038 0.1 0
1104 0.04 0.1 0
1105 0.042 0.1 0
1106 0.044 0.1 0
1107 0.046 0.1 0
1108 0.048 0.1 0
1109 0.05 0.1 0
1110 0.052 0.1 0
1111 0.054 0.1 0
1112 0.098 0.1 0
1113 0.1 0.1 0
1114 0.102 0.1 0
1115 0.104 0.1 0
1116 0.106 0.1 0
1117 0.108 0.1 0
1118 0.11 0.1 0
1119 0.112 0.1 0
1120 0.114 0.1 0
1121 0.116 0.1 0
1122 0.118 0.1 0
1123 0.12 0.1 0
1124 0.122 0.1 0
1125 0.124 0.1 0
1126 0.126 0.1 0
1127 0.128 0.1 0
1128 0 0.102 0
1129 0.002 0.102 0
1130 0.004 0.102 0
1131 0.006 0.102 0
1132 0.008 0.102 0
1133 0.01 0.102 0
1134 0.012 0.102 0
1135 0.014 0.102 0
1136 0.016 0.102 0
1137 0.018 0.102 0
1138 0.02 0.102 0
1139 0.022 0.102 0
1140 0.024 0.102 0
1141 0.026 0.102 0
1142 0.028 0.102 0
1143 0.03 0.102 0
1144 0.032 0.102 0
1145 0.034 0.102 0
1146 0.036 0.102 0
1147 0.038 0.102 0
1148 0.04 0.102 0
1149 0.042 0.102 0
1150 0.044 0.102 0
1151 0.046 0.102 0
1152 0.048 0.102 0
1153 0.05 0.102 0
1154 0.052 0.102 0
1155 0.098 0.102 0
1156 0.1 0.102 0
1157 0.102 0.102 0
1158 0.104 0.102 0
1159 0.106 0.102 0
1160 0.108 0.102 0
1161 0.11 0.102 0
1162 0.112 0.102 0
1163 0.114 0.102 0
1164 0.116 0.102 0
1165 0.118 0.102 0
1166 0.12 0.102 0
1167 0.122 0.102 0
1168 0.124 0.102 0
1169 0.126 0.102 0
1170 0.128 0.102 0
1171 0 0.104 0
1172 0.002 0.104 0
1173 0.004 0.104 0
1174 0.006 0.104 0
1175 0.008 0.104 0
1176 0.01 0.104 0
1177 0.012 0.104 0
1178 0.014 0.104 0
1179 0.016 0.104 0
1180 0.018 0.104 0
1181 0.02 0.104 0
1182 0.022 0.104 0
1183 0.024 0.104 0
1184 0.026 0.104 0
1185 0.028 0.104 0
1186 0.03 0.104 0
1187 0.032 0.104 0
1188 0.034 0.104 0
1189 0.036 0.104 0
1190 0.038 0.104 0
1191 0.04 0.104 0
1192 0.042 0.104 0
1193 0.044 0.104 0
1194 0.046 0.104 0
1195 0.048 0.104 0
1196 0.05 0.104 0
1197 0.052 0.104 0
1198 0.1 0.104 0
1199 0.102 0.104 0
1200 0.104 0.104 0
1201 0.106 0.104 0
1202 0.108 0.104 0
1203 0.11 0.104 0
1204 0.112 0.104 0
1205 0.114 0.104 0
1206 0.116 0.104 0
1207 0.118 0.104 0
1208 0.12 0.104 0
1209 0.122 0.104 0
1210 0.124 0.104 0
1211 0.126 0.104 0
1212 0.128 0.104 0
1213 0 0.106 0
1214 0.002 0.106 0
1215 0.004 0.106 0
1216 0.006 0.106 0
1217 0.008 0.106 0
1218 0.01 0.106 0
1219 0.012 0.106 0
1220 0.014 0.106 0
1221 0.016 0.106 0
1222 0.018 0.106 0
1223 0.02 0.106 0
1224 0.022 0.106 0
1225 0.024 0.106 0
1226 0.026 0.106 0
1227 0.028 0.106 0
1228 0.03 0.106 0
1229 0.032 0.106 0
1230 0.034 0.106 0
1231 0.036 0.106 0
1232 0.038 0.106 0
1233 0.04 0.106 0
1234 0.042 0.106 0
1235 0.044 0.106 0
1236 0.046 0.106 0
1237 0.048 0.106 0
1238 0.05 0.106 0
1239 0.052 0.106 0
1240 0.1 0.106 0
1241 0.102 0.106 0
1242 0.104 0.106 0
1243 0.106 0.106 0
1244 0.108 0.106 0
1245 0.11 0.106 0
1246 0.112 0.106 0
1247 0.114 0.106 0
1248 0.116 0.106 0
1249 0.118 0.106 0
1250 0.12 0.106 0
1251 0.122 0.106 0
1252 0.124 0.106 0
1253 0.126 0.106 0
1254 0.128 0.106 0
1255 0 0.108 0
1256 0.002 0.108 0
1257 0.004 0.108 0
1258 0.006 0.108 0
1259 0.008 0.108 0
1260 0.01 0.108 0
1261 0.012 0.108 0
1262 0.014 0.108 0
1263 0.016 0.108 0
1264 0.018 0.108 0
1265 0.02 0.108 0
1266 0.022 0.108 0
1267 0.024 0.108 0
1268 0.026 0.108 0
1269 0.028 0.108 0
1270 0.03 0.108 0
1271 0.032 0.108 0
1272 0.034 0.108 0
1273 0.036 0.108 0
1274 0.038 0.108 0
1275 0.04 0.108 0
1276 0.042 0.108 0
1277 0.044 0.108 0
1278 0.046 0.108 0
1279 0.048 0.108 0
1280 0.05 0.108 0
1281 0.102 0.108 0
1282 0.104 0.108 0
1283 0.106 0.108 0
1284 0.108 0.108 0
1285 0.11 0.108 0
1286 0.112 0.108 0
1287 0.114 0.108 0
1288 0.116 0.108 0
1289 0.118 0.108 0
1290 0.12 0.108 0
1291 0.122 0.108 0
1292 0.124 0.108 0
1293 0.126 0.108 0
1294 0.128 0.108 0
1295 0 0.11 0
1296 0.002 0.11 0
1297 0.004 0.11 0
1298 0.006 0.11 0
1299 0.008 0.11 0
1300 0.01 0.11 0
1301 0.012 0.11 0
1302 0.014 0.11 0
1303 0.016 0.11 0
1304 0.018 0.11 0
1305 0.02 0.11 0
1306 0.022 0.11 0
1307 0.024 0.11 0
1308 0.026 0.11 0
1309 0.028 0.11 0
1310 0.03 0.11 0
1311 0.032 0.11 0
1312 0.034 0.11 0
1313 0.036 0.11 0
1314 0.038 0.11 0
1315 0.04 0.11 0
1316 0.042 0.11 0
1317 0.044 0.11 0
1318 0.046 0.11 0
1319 0.048 0.11 0
1320 0.104 0.11 0
1321 0.106 0.11 0
1322 0.108 0.11 0
1323 0.11 0.11 0
1324 0.112 0.11 0
1325 0.114 0.11 0
1326 0.116 0.11 0
1327 0.118 0.11 0
1328 0.12 0.11 0
1329 0.122 0.11 0
1330 0.124 0.11 0
1331 0.126 0.11 0
1332 0.128 0.11 0
$EndNodes
$Elements
2662
1 1 2 3 3 1 2
2 1 2 1 1 1 35
3 1 2 3 3 2 3
4 1 2 3 3 3 4
5 1 2 3 3 4 5
6 1 2 3 3 5 6
7 1 2 3 3 6 7
8 1 2 3 3 7 8
9 1 2 3 3 8 9
10 1 2 3 3 9 10
11 1 2 3 3 10 11
12 1 2 3 3 11 12
13 1 2 3 3 12 13
14 1 2 3 3 13 14
15 1 2 3 3 14 15
16 1 2 3 3 15 16
17 1 2 3 3 16 17
18 1 2 3 3 17 18
19 1 2 3 3 18 19
20 1 2 3 3 19 20
21 1 2 3 3 20 21
22 1 2 3 3 21 22
23 1 2 3 3 22 23
24 1 2 3 3 23 57
25 1 2 3 3 24 25
26 1 2 3 3 24 62
27 1 2 3 3 25 26
28 1 2 3 3 26 27
29 1 2 3 3 27 28
30 1 2 3 3 28 29
31 1 2 3 3 29 30
32 1 2 3 3 30 31
33 1 2 3 3 31 32
34 1 2 3 3 32 33
35 1 2 3 3 33 34
36 1 2 2 2 34 72
37 1 2 1 1 35 73
38 1 2 3 3 57 58
39 1 2 3 3 58 59
40 1 2 3 3 59 97
41 1 2 3 3 60 61
42 1 2 3 3 60 100
43 1 2 3 3 61 62
44 1 2 2 2 72 112
45 1 2 1 1 73 113
46 1 2 3 3 97 98
47 1 2 3 3 98 138
48 1 2 3 3 99 100
49 1 2 3 3 99 141
50 1 2 2 2 112 154
51 1 2 1 1 113 155
52 1 2 3 3 138 139
53 1 2 3 3 139 181
54 1 2 3 3 140 141
55 1 2 3 3 140 182
56 1 2 2 2 154 196
57 1 2 1 1 155 197
58 1 2 3 3 181 223
59 1 2 3 3 182 225
60 1 2 2 2 196 239
61 1 2 1 1 197 240
62 1 2 3 3 223 266
63 1 2 3 3 224 225
64 1 2 3 3 224 268
65 1 2 2 2 239 283
66 1 2 1 1 240 284
67 1 2 3 3 266 267
68 1 2 3 3 267 311
69 1 2 3 3 268 312
70 1 2 2 2 283 327
71 1 2 3 3 328 329
72 1 2 1 1 284 328
73 1 2 3 3 329 330
74 1 2 3 3 330 331
75 1 2 3 3 331 332
76 1 2 3 3 332 333
77 1 2 3 3 333 334
78 1 2 3 3 334 335
79 1 2 3 3 335 336
80 1 2 3 3 336 337
81 1 2 3 3 337 338
82 1 2 3 3 338 339
83 1 2 3 3 339 340
84 1 2 3 3 340 341
85 1 2 3 3 341 342
86 1 2 3 3 342 343
87 1 2 3 3 343 344
88 1 2 3 3 344 345
89 1 2 3 3 345 346
90 1 2 3 3 346 347
91 1 2 3 3 347 348
92 1 2 3 3 311 355
93 1 2 3 3 312 357
94 1 2 3 3 364 365
95 1 2 3 3 365 366
96 1 2 3 3 366 367
97 1 2 3 3 367 368
98 1 2 3 3 368 369
99 1 2 3 3 369 370
100 1 2 3 3 370 371
101 1 2 2 2 327 372
102 1 2 3 3 371 372
103 1 2 3 3 348 373
104 1 2 3 3 355 380
105 1 2 3 3 356 357
106 1 2 3 3 356 382
107 1 2 3 3 364 390
108 1 2 3 3 389 390
109 1 2 3 3 391 392
110 1 2 3 3 373 391
111 1 2 3 3 380 381
112 1 2 3 3 381 399
113 1 2 3 3 382 401
114 1 2 3 3 389 408
115 1 2 3 3 392 409
116 1 2 3 3 399 416
117 1 2 3 3 400 401
118 1 2 3 3 400 417
119 1 2 3 3 408 425
120 1 2 3 3 424 425
121 1 2 3 3 409 426
122 1 2 3 3 416 433
123 1 2 3 3 417 436
124 1 2 3 3 424 443
125 1 2 3 3 444 445
126 1 2 3 3 426 444
127 1 2 3 3 433 434
128 1 2 3 3 434 452
129 1 2 3 3 435 436
130 1 2 3 3 435 453
131 1 2 3 3 443 461
132 1 2 3 3 445 462
133 1 2 3 3 452 469
134 1 2 3 3 453 471
135 1 2 3 3 461 479
136 1 2 3 3 478 479
137 1 2 3 3 462 480
138 1 2 3 3 469 487
139 1 2 3 3 470 471
140 1 2 3 3 470 489
141 1 2 3 3 478 497
142 1 2 3 3 498 499
143 1 2 3 3 480 498
144 1 2 3 3 487 488
145 1 2 3 3 488 506
146 1 2 3 3 489 507
147 1 2 3 3 497 515
148 1 2 3 3 514 515
149 1 2 3 3 499 516
150 1 2 3 3 506 523
151 1 2 3 3 507 525
152 1 2 3 3 514 532
153 1 2 3 3 516 533
154 1 2 3 3 523 540
155 1 2 3 3 524 525
156 1 2 3 3 524 542
157 1 2 3 3 532 550
158 1 2 3 3 549 550
159 1 2 3 3 551 552
160 1 2 3 3 533 551
161 1 2 3 3 540 541
162 1 2 3 3 541 559
163 1 2 3 3 542 561
164 1 2 3 3 549 568
165 1 2 3 3 552 569
166 1 2 3 3 559 576
167 1 2 3 3 560 561
168 1 2 3 3 560 588
169 1 2 3 3 568 596
170 1 2 3 3 595 596
171 1 2 3 3 569 597
172 1 2 3 3 576 577
173 1 2 3 3 577 578
174 1 2 3 3 578 579
175 1 2 3 3 579 580
176 1 2 3 3 580 581
177 1 2 3 3 581 582
178 1 2 3 3 582 583
179 1 2 3 3 583 584
180 1 2 3 3 584 585
181 1 2 3 3 585 586
182 1 2 3 3 586 587
183 1 2 3 3 587 588
184 1 2 3 3 595 623
185 1 2 3 3 624 625
186 1 2 3 3 597 624
187 1 2 3 3 623 650
188 1 2 3 3 625 651
189 1 2 3 3 650 676
190 1 2 3 3 675 676
191 1 2 3 3 651 677
192 1 2 3 3 675 701
193 1 2 3 3 677 702
194 1 2 3 3 701 726
195 1 2 3 3 702 729
196 1 2 3 3 726 727
197 1 2 3 3 727 754
198 1 2 3 3 728 729
199 1 2 3 3 728 755
200 1 2 3 3 762 763
201 1 2 3 3 763 764
202 1 2 3 3 764 765
203 1 2 3 3 765 766
204 1 2 3 3 766 767
205 1 2 3 3 767 768
206 1 2 3 3 768 769
207 1 2 3 3 769 770
208 1 2 3 3 770 771
209 1 2 3 3 771 772
210 1 2 3 3 772 773
211 1 2 3 3 773 774
212 1 2 3 3 754 781
213 1 2 3 3 755 782
214 1 2 3 3 762 789
215 1 2 3 3 774 790
216 1 2 3 3 781 797
217 1 2 3 3 782 800
218 1 2 3 3 789 807
219 1 2 3 3 808 809
220 1 2 3 3 790 808
221 1 2 3 3 797 798
222 1 2 3 3 798 816
223 1 2 3 3 799 800
224 1 2 3 3 799 817
225 1 2 3 3 807 825
226 1 2 3 3 824 825
227 1 2 3 3 809 826
228 1 2 3 3 816 833
229 1 2 3 3 817 835
230 1 2 3 3 824 842
231 1 2 3 3 843 844
232 1 2 3 3 826 843
233 1 2 3 3 833 834
234 1 2 3 3 834 851
235 1 2 3 3 835 853
236 1 2 3 3 842 860
237 1 2 3 3 844 861
238 1 2 3 3 851 868
239 1 2 3 3 852 853
240 1 2 3 3 852 870
241 1 2 3 3 860 878
242 1 2 3 3 877 878
243 1 2 3 3 861 879
244 1 2 3 3 868 869
245 1 2 3 3 869 887
246 1 2 3 3 870 888
247 1 2 3 3 877 895
248 1 2 3 3 896 897
249 1 2 3 3 879 896
250 1 2 3 3 887 904
251 1 2 3 3 888 907
252 1 2 3 3 895 914
253 1 2 3 3 897 915
254 1 2 3 3 904 905
255 1 2 3 3 905 923
256 1 2 3 3 906 907
257 1 2 3 3 906 924
258 1 2 3 3 914 932
259 1 2 3 3 931 932
260 1 2 3 3 933 934
261 1 2 3 3 915 933
262 1 2 3 3 923 941
263 1 2 3 3 924 942
264 1 2 3 3 931 949
265 1 2 3 3 934 950
266 1 2 3 3 941 957
267 1 2 3 3 942 960
268 1 2 3 3 949 967
269 1 2 3 3 968 969
270 1 2 3 3 950 968
271 1 2 3 3 957 958
272 1 2 3 3 958 976
273 1 2 3 3 959 960
274 1 2 3 3 959 977
275 1 2 3 3 967 985
276 1 2 3 3 984 985
277 1 2 3 3 969 986
278 1 2 3 3 976 993
279 1 2 3 3 977 1015
280 1 2 3 3 984 1022
281 1 2 3 3 1023 1024
282 1 2 3 3 986 1023
283 1 2 3 3 993 994
284 1 2 3 3 994 1031
285 1 2 3 3 995 996
286 1 2 1 1 995 1040
287 1 2 3 3 996 997
288 1 2 3 3 997 998
289 1 2 3 3 998 999
290 1 2 3 3 999 1000
291 1 2 3 3 1000 1001
292 1 2 3 3 1001 1002
293 1 2 3 3 1002 1003
294 1 2 3 3 1003 1004
295 1 2 3 3 1004 1005
296 1 2 3 3 1005 1006
297 1 2 3 3 1006 1007
298 1 2 3 3 1007 1008
299 1 2 3 3 1008 1009
300 1 2 3 3 1009 1010
301 1 2 3 3 1010 1011
302 1 2 3 3 1011 1012
303 1 2 3 3 1012 1013
304 1 2 3 3 1013 1014
305 1 2 3 3 1014 1015
306 1 2 3 3 1022 1067
307 1 2 3 3 1024 1068
308 1 2 3 3 1031 1032
309 1 2 3 3 1032 1033
310 1 2 3 3 1033 1034
311 1 2 3 3 1034 1035
312 1 2 3 3 1035 1036
313 1 2 3 3 1036 1037
314 1 2 3 3 1037 1038
315 1 2 3 3 1038 1039
316 1 2 2 2 1039 1083
317 1 2 1 1 1040 1084
318 1 2 3 3 1067 1111
319 1 2 3 3 1110 1111
320 1 2 3 3 1068 1112
321 1 2 2 2 1083 1127
322 1 2 1 1 1084 1128
323 1 2 3 3 1110 1154
324 1 2 3 3 1155 1156
325 1 2 3 3 1112 1155
326 1 2 2 2 1127 1170
327 1 2 1 1 1128 1171
328 1 2 3 3 1154 1197
329 1 2 3 3 1156 1198
330 1 2 2 2 1170 1212
331 1 2 1 1 1171 1213
332 1 2 3 3 1197 1239
333 1 2 3 3 1238 1239
334 1 2 3 3 1240 1241
335 1 2 3 3 1198 1240
336 1 2 2 2 1212 1254
337 1 2 1 1 1213 1255
338 1 2 3 3 1238 1280
339 1 2 3 3 1279 1280
340 1 2 3 3 1281 1282
341 1 2 3 3 1241 1281
342 1 2 2 2 1254 1294
343 1 2 3 3 1295 1296
344 1 2 1 1 1255 1295
345 1 2 3 3 1296 1297
346 1 2 3 3 1297 1298
347 1 2 3 3 1298 1299
348 1 2 3 3 1299 1300
349 1 2 3 3 1300 1301
350 1 2 3 3 1301 1302
351 1 2 3 3 1302 1303
352 1 2 3 3 1303 1304
353 1 2 3 3 1304 1305
354 1 2 3 3 1305 1306
355 1 2 3 3 1306 1307
356 1 2 3 3 1307 1308
357 1 2 3 3 1308 1309
358 1 2 3 3 1309 1310
359 1 2 3 3 1310 1311
360 1 2 3 3 1311 1312
361 1 2 3 3 1312 1313
362 1 2 3 3 1313 1314
363 1 2 3 3 1314 1315
364 1 2 3 3 1315 1316
365 1 2 3 3 1316 1317
366 1 2 3 3 1317 1318
367 1 2 3 3 1279 1319
368 1 2 3 3 1318 1319
369 1 2 3 3 1320 1321
370 1 2 3 3 1282 1320
371 1 2 3 3 1321 1322
372 1 2 3 3 1322 1323
373 1 2 3 3 1323 1324
374 1 2 3 3 1324 1325
375 1 2 3 3 1325 1326
376 1 2 3 3 1326 1327
377 1 2 3 3 1327 1328
378 1 2 3 3 1328 1329
379 1 2 3 3 1329 1330
380 1 2 3 3 1330 1331
381 1 2 2 2 1294 1332
382 1 2 3 3 1331 1332
383 2 2 10 10 1 2 36
384 2 2 10 10 1 36 35
385 2 2 10 10 2 3 37
386 2 2 10 10 2 37 36
387 2 2 10 10 3 4 38
388 2 2 10 10 3 38 37
389 2 2 10 10 4 5 39
390 2 2 10 10 4 39 38
391 2 2 10 10 5 6 40
392 2 2 10 10 5 40 39
393 2 2 10 10 6 7 41
394 2 2 10 10 6 41 40
395 2 2 10 10 7 8 42
396 2 2 10 10 7 42 41
397 2 2 10 10 8 9 43
398 2 2 10 10 8 43 42
399 2 2 10 10 9 10 44
400 2 2 10 10 9 44 43
401 2 2 10 10 10 11 45
402 2 2 10 10 10 45 44
403 2 2 10 10 11 12 46
404 2 2 10 10 11 46 45
405 2 2 10 10 12 13 47
406 2 2 10 10 12 47 46
407 2 2 10 10 13 14 48
408 2 2 10 10 13 48 47
409 2 2 10 10 14 15 49
410 2 2 10 10 14 49 48
411 2 2 10 10 15 16 50
412 2 2 10 10 15 50 49
413 2 2 10 10 16 17 51
414 2 2 10 10 16 51 50
415 2 2 10 10 17 18 52
416 2 2 10 10 17 52 51
417 2 2 10 10 18 19 53
418 2 2 10 10 18 53 52
419 2 2 10 10 19 20 54
420 2 2 10 10 19 54 53
421 2 2 10 10 20 21 55
422 2 2 10 10 20 55 54
423 2 2 10 10 21 22 56
424 2 2 10 10 21 56 55
425 2 2 10 10 22 23 57
426 2 2 10 10 22 57 56
427 2 2 10 10 24 25 63
428 2 2 10 10 24 63 62
429 2 2 10 10 25 26 64
430 2 2 10 10 25 64 63
431 2 2 10 10 26 27 65
432 2 2 10 10 26 65 64
433 2 2 10 10 27 28 66
434 2 2 10 10 27 66 65
435 2 2 10 10 28 29 67
436 2 2 10 10 28 67 66
437 2 2 10 10 29 30 68
438 2 2 10 10 29 68 67
439 2 2 10 10 30 31 69
440 2 2 10 10 30 69 68
441 2 2 10 10 31 32 70
442 2 2 10 10 31 70 69
443 2 2 10 10 32 33 71
444 2 2 10 10 32 71 70
445 2 2 10 10 33 34 72
446 2 2 10 10 33 72 71
447 2 2 10 10 35 36 74
448 2 2 10 10 35 74 73
449 2 2 10 10 36 37 75
450 2 2 10 10 36 75 74
451 2 2 10 10 37 38 76
452 2 2 10 10 37 76 75
453 2 2 10 10 38 39 77
454 2 2 10 10 38 77 76
455 2 2 10 10 39 40 78
456 2 2 10 10 39 78 77
457 2 2 10 10 40 41 79
458 2 2 10 10 40 79 78
459 2 2 10 10 41 42 80
460 2 2 10 10 41 80 79
461 2 2 10 10 42 43 81
462 2 2 10 10 42 81 80
463 2 2 10 10 43 44 82
464 2 2 10 10 43 82 81
465 2 2 10 10 44 45 83
466 2 2 10 10 44 83 82
467 2 2 10 10 45 46 84
468 2 2 10 10 45 84 83
469 2 2 10 10 46 47 85
470 2 2 10 10 46 85 84
471 2 2 10 10 47 48 86
472 2 2 10 10 47 86 85
473 2 2 10 10 48 49 87
474 2 2 10 10 48 87 86
475 2 2 10 10 49 50 88
476 2 2 10 10 49 88 87
477 2 2 10 10 50 51 89
478 2 2 10 10 50 89 88
479 2 2 10 10 51 52 90
480 2 2 10 10 51 90 89
481 2 2 10 10 52 53 91
482 2 2 10 10 52 91 90
483 2 2 10 10 53 54 92
484 2 2 10 10 53 92 91
485 2 2 10 10 54 55 93
486 2 2 10 10 54 93 92
487 2 2 10 10 55 56 94
488 2 2 10 10 55 94 93
489 2 2 10 10 56 57 95
490 2 2 10 10 56 95 94
491 2 2 10 10 57 58 96
492 2 2 10 10 57 96 95
493 2 2 10 10 58 59 97
494 2 2 10 10 58 97 96
495 2 2 10 10 60 61 101
496 2 2 10 10 60 101 100
497 2 2 10 10 61 62 102
498 2 2 10 10 61 102 101
499 2 2 10 10 62 63 103
500 2 2 10 10 62 103 102
501 2 2 10 10 63 64 104
502 2 2 10 10 63 104 103
503 2 2 10 10 64 65 105
504 2 2 10 10 64 105 104
505 2 2 10 10 65 66 106
506 2 2 10 10 65 106 105
507 2 2 10 10 66 67 107
508 2 2 10 10 66 107 106
509 2 2 10 10 67 68 108
510 2 2 10 10 67 108 107
511 2 2 10 10 68 69 109
512 2 2 10 10 68 109 108
513 2 2 10 10 69 70 110
514 2 2 10 10 69 110 109
515 2 2 10 10 70 71 111
516 2 2 10 10 70 111 110
517 2 2 10 10 71 72 112
518 2 2 10 10 71 112 111
519 2 2 10 10 73 74 114
520 2 2 10 10 73 114 113
521 2 2 10 10 74 75 115
522 2 2 10 10 74 115 114
523 2 2 10 10 75 76 116
524 2 2 10 10 75 116 115
525 2 2 10 10 76 77 117
526 2 2 10 10 76 117 116
527 2 2 10 10 77 78 118
528 2 2 10 10 77 118 117
529 2 2 10 10 78 79 119
530 2 2 10 10 78 119 118
531 2 2 10 10 79 80 120
532 2 2 10 10 79 120 119
533 2 2 10 10 80 81 121
534 2 2 10 10 80 121 120
535 2 2 10 10 81 82 122
536 2 2 10 10 81 122 121
537 2 2 10 10 82 83 123
538 2 2 10 10 82 123 122
539 2 2 10 10 83 84 124
540 2 2 10 10 83 124 123
541 2 2 10 10 84 85 125
542 2 2 10 10 84 125 124
543 2 2 10 10 85 86 126
544 2 2 10 10 85 126 125
545 2 2 10 10 86 87 127
546 2 2 10 10 86 127 126
547 2 2 10 10 87 88 128
548 2 2 10 10 87 128 127
549 2 2 10 10 88 89 129
550 2 2 10 10 88 129 128
551 2 2 10 10 89 90 130
552 2 2 10 10 89 130 129
553 2 2 10 10 90 91 131
554 2 2 10 10 90 131 130
555 2 2 10 10 91 92 132
556 2 2 10 10 91 132 131
557 2 2 10 10 92 93 133
558 2 2 10 10 92 133 132
559 2 2 10 10 93 94 134
560 2 2 10 10 93 134 133
561 2 2 10 10 94 95 135
562 2 2 10 10 94 135 134
563 2 2 10 10 95 96 136
564 2 2 10 10 95 136 135
565 2 2 10 10 96 97 137
566 2 2 10 10 96 137 136
567 2 2 10 10 97 98 138
568 2 2 10 10 97 138 137
569 2 2 10 10 99 100 142
570 2 2 10 10 99 142 141
571 2 2 10 10 100 101 143
572 2 2 10 10 100 143 142
573 2 2 10 10 101 102 144
574 2 2 10 10 101 144 143
575 2 2 10 10 102 103 145
576 2 2 10 10 102 145 144
577 2 2 10 10 103 104 146
578 2 2 10 10 103 146 145
579 2 2 10 10 104 105 147
580 2 2 10 10 104 147 146
581 2 2 10 10 105 106 148
582 2 2 10 10 105 148 147
583 2 2 10 10 106 107 149
584 2 2 10 10 106 149 148
585 2 2 10 10 107 108 150
586 2 2 10 10 107 150 149
587 2 2 10 10 108 109 151
588 2 2 10 10 108 151 150
589 2 2 10 10 109 110 152
590 2 2 10 10 109 152 151
591 2 2 10 10 110 111 153
592 2 2 10 10 110 153 152
593 2 2 10 10 111 112 154
594 2 2 10 10 111 154 153
595 2 2 10 10 113 114 156
596 2 2 10 10 113 156 155
597 2 2 10 10 114 115 157
598 2 2 10 10 114 157 156
599 2 2 10 10 115 116 158
600 2 2 10 10 115 158 157
601 2 2 10 10 116 117 159
602 2 2 10 10 116 159 158
603 2 2 10 10 117 118 160
604 2 2 10 10 117 160 159
605 2 2 10 10 118 119 161
606 2 2 10 10 118 161 160
607 2 2 10 10 119 120 162
608 2 2 10 10 119 162 161
609 2 2 10 10 120 121 163
610 2 2 10 10 120 163 162
611 2 2 10 10 121 122 164
612 2 2 10 10 121 164 163
613 2 2 10 10 122 123 165
614 2 2 10 10 122 165 164
615 2 2 10 10 123 124 166
616 2 2 10 10 123 166 165
617 2 2 10 10 124 125 167
618 2 2 10 10 124 167 166
619 2 2 10 10 125 126 168
620 2 2 10 10 125 168 167
621 2 2 10 10 126 127 169
622 2 2 10 10 126 169 168
623 2 2 10 10 127 128 170
624 2 2 10 10 127 170 169
625 2 2 10 10 128 129 171
626 2 2 10 10 128 171 170
627 2 2 10 10 129 130 172
628 2 2 10 10 129 172 171
629 2 2 10 10 130 131 173
630 2 2 10 10 130 173 172
631 2 2 10 10 131 132 174
632 2 2 10 10 131 174 173
633 2 2 10 10 132 133 175
634 2 2 10 10 132 175 174
635 2 2 10 10 133 134 176
636 2 2 10 10 133 176 175
637 2 2 10 10 134 135 177
638 2 2 10 10 134 177 176
639 2 2 10 10 135 136 178
640 2 2 10 10 135 178 177
641 2 2 10 10 136 137 179
642 2 2 10 10 136 179 178
643 2 2 10 10 137 138 180
644 2 2 10 10 137 180 179
645 2 2 10 10 138 139 181
646 2 2 10 10 138 181 180
647 2 2 10 10 140 141 183
648 2 2 10 10 140 183 182
649 2 2 10 10 141 142 184
650 2 2 10 10 141 184 183
651 2 2 10 10 142 143 185
652 2 2 10 10 142 185 184
653 2 2 10 10 143 144 186
654 2 2 10 10 143 186 185
655 2 2 10 10 144 145 187
656 2 2 10 10 144 187 186
657 2 2 10 10 145 146 188
658 2 2 10 10 145 188 187
659 2 2 10 10 146 147 189
660 2 2 10 10 146 189 188
661 2 2 10 10 147 148 190
662 2 2 10 10 147 190 189
663 2 2 10 10 148 149 191
664 2 2 10 10 148 191 190
665 2 2 10 10 149 150 192
666 2 2 10 10 149 192 191
667 2 2 10 10 150 151 193
668 2 2 10 10 150 193 192
669 2 2 10 10 151 152 194
670 2 2 10 10 151 194 193
671 2 2 10 10 152 153 195
672 2 2 10 10 152 195 194
673 2 2 10 10 153 154 196
674 2 2 10 10 153 196 195
675 2 2 10 10 155 156 198
676 2 2 10 10 155 198 197
677 2 2 10 10 156 157 199
678 2 2 10 10 156 199 198
679 2 2 10 10 157 158 200
680 2 2 10 10 157 200 199
681 2 2 10 10 158 159 201
682 2 2 10 10 158 201 200
683 2 2 10 10 159 160 202
684 2 2 10 10 159 202 201
685 2 2 10 10 160 161 203
686 2 2 10 10 160 203 202
687 2 2 10 10 161 162 204
688 2 2 10 10 161 204 203
689 2 2 10 10 162 163 205
690 2 2 10 10 162 205 204
691 2 2 10 10 163 164 206
692 2 2 10 10 163 206 205
693 2 2 10 10 164 165 207
694 2 2 10 10 164 207 206
695 2 2 10 10 165 166 208
696 2 2 10 10 165 208 207
697 2 2 10 10 166 167 209
698 2 2 10 10 166 209 208
699 2 2 10 10 167 168 210
700 2 2 10 10 167 210 209
701 2 2 10 10 168 169 211
702 2 2 10 10 168 211 210
703 2 2 10 10 169 170 212
704 2 2 10 10 169 212 211
705 2 2 10 10 170 171 213
706 2 2 10 10 170 213 212
707 2 2 10 10 171 172 214
708 2 2 10 10 171 214 213
709 2 2 10 10 172 173 215
710 2 2 10 10 172 215 214
711 2 2 10 10 173 174 216
712 2 2 10 10 173 216 215
713 2 2 10 10 174 175 217
714 2 2 10 10 174 217 216
715 2 2 10 10 175 176 218
716 2 2 10 10 175 218 217
717 2 2 10 10 176 177 219
718 2 2 10 10 176 219 218
719 2 2 10 10 177 178 220
720 2 2 10 10 177 220 219
721 2 2 10 10 178 179 221
722 2 2 10 10 178 221 220
723 2 2 10 10 179 180 222
724 2 2 10 10 179 222 221
725 2 2 10 10 180 181 223
726 2 2 10 10 180 223 222
727 2 2 10 10 182 183 226
728 2 2 10 10 182 226 225
729 2 2 10 10 183 184 227
730 2 2 10 10 183 227 226
731 2 2 10 10 184 185 228
732 2 2 10 10 184 228 227
733 2 2 10 10 185 186 229
734 2 2 10 10 185 229 228
735 2 2 10 10 186 187 230
736 2 2 10 10 186 230 229
737 2 2 10 10 187 188 231
738 2 2 10 10 187 231 230
739 2 2 10 10 188 189 232
740 2 2 10 10 188 232 231
741 2 2 10 10 189 190 233
742 2 2 10 10 189 233 232
743 2 2 10 10 190 191 234
744 2 2 10 10 190 234 233
745 2 2 10 10 191 192 235
746 2 2 10 10 191 235 234
747 2 2 10 10 192 193 236
748 2 2 10 10 192 236 235
749 2 2 10 10 193 194 237
750 2 2 10 10 193 237 236
751 2 2 10 10 194 195 238
752 2 2 10 10 194 238 237
753 2 2 10 10 195 196 239
754 2 2 10 10 195 239 238
755 2 2 10 10 197 198 241
756 2 2 10 10 197 241 240
757 2 2 10 10 198 199 242
758 2 2 10 10 198 242 241
759 2 2 10 10 199 200 243
760 2 2 10 10 199 243 242
761 2 2 10 10 200 201 244
762 2 2 10 10 200 244 243
763 2 2 10 10 201 202 245
764 2 2 10 10 201 245 244
765 2 2 10 10 202 203 246
766 2 2 10 10 202 246 245
767 2 2 10 10 203 204 247
768 2 2 10 10 203 247 246
769 2 2 10 10 204 205 248
770 2 2 10 10 204 248 247
771 2 2 10 10 205 206 249
772 2 2 10 10 205 249 248
773 2 2 10 10 206 207 250
774 2 2 10 10 206 250 249
775 2 2 10 10 207 208 251
776 2 2 10 10 207 251 250
777 2 2 10 10 208 209 252
778 2 2 10 10 208 252 251
779 2 2 10 10 209 210 253
780 2 2 10 10 209 253 252
781 2 2 10 10 210 211 254
782 2 2 10 10 210 254 253
783 2 2 10 10 211 212 255
784 2 2 10 10 211 255 254
785 2 2 10 10 212 213 256
786 2 2 10 10 212 256 255
787 2 2 10 10 213 214 257
788 2 2 10 10 213 257 256
789 2 2 10 10 214 215 258
790 2 2 10 10 214 258 257
791 2 2 10 10 215 216 259
792 2 2 10 10 215 259 258
793 2 2 10 10 216 217 260
794 2 2 10 10 216 260 259
795 2 2 10 10 217 218 261
796 2 2 10 10 217 261 260
797 2 2 10 10 218 219 262
798 2 2 10 10 218 262 261
799 2 2 10 10 219 220 263
800 2 2 10 10 219 263 262
801 2 2 10 10 220 221 264
802 2 2 10 10 220 264 263
803 2 2 10 10 221 222 265
804 2 2 10 10 221 265 264
805 2 2 10 10 222 223 266
806 2 2 10 10 222 266 265
807 2 2 10 10 224 225 269
808 2 2 10 10 224 269 268
809 2 2 10 10 225 226 270
810 2 2 10 10 225 270 269
811 2 2 10 10 226 227 271
812 2 2 10 10 226 271 270
813 2 2 10 10 227 228 272
814 2 2 10 10 227 272 271
815 2 2 10 10 228 229 273
816 2 2 10 10 228 273 272
817 2 2 10 10 229 230 274
818 2 2 10 10 229 274 273
819 2 2 10 10 230 231 275
820 2 2 10 10 230 275 274
821 2 2 10 10 231 232 276
822 2 2 10 10 231 276 275
823 2 2 10 10 232 233 277
824 2 2 10 10 232 277 276
825 2 2 10 10 233 234 278
826 2 2 10 10 233 278 277
827 2 2 10 10 234 235 279
828 2 2 10 10 234 279 278
829 2 2 10 10 235 236 280
830 2 2 10 10 235 280 279
831 2 2 10 10 236 237 281
832 2 2 10 10 236 281 280
833 2 2 10 10 237 238 282
834 2 2 10 10 237 282 281
835 2 2 10 10 238 239 283
836 2 2 10 10 238 283 282
837 2 2 10 10 240 241 285
838 2 2 10 10 240 285 284
839 2 2 10 10 241 242 286
840 2 2 10 10 241 286 285
841 2 2 10 10 242 243 287
842 2 2 10 10 242 287 286
843 2 2 10 10 243 244 288
844 2 2 10 10 243 288 287
845 2 2 10 10 244 245 289
846 2 2 10 10 244 289 288
847 2 2 10 10 245 246 290
848 2 2 10 10 245 290 289
849 2 2 10 10 246 247 291
850 2 2 10 10 246 291 290
851 2 2 10 10 247 248 292
852 2 2 10 10 247 292 291
853 2 2 10 10 248 249 293
854 2 2 10 10 248 293 292
855 2 2 10 10 249 250 294
856 2 2 10 10 249 294 293
857 2 2 10 10 250 251 295
858 2 2 10 10 250 295 294
859 2 2 10 10 251 252 296
860 2 2 10 10 251 296 295
861 2 2 10 10 252 253 297
862 2 2 10 10 252 297 296
863 2 2 10 10 253 254 298
864 2 2 10 10 253 298 297
865 2 2 10 10 254 255 299
866 2 2 10 10 254 299 298
867 2 2 10 10 255 256 300
868 2 2 10 10 255 300 299
869 2 2 10 10 256 257 301
870 2 2 10 10 256 301 300
871 2 2 10 10 257 258 302
872 2 2 10 10 257 302 301
873 2 2 10 10 258 259 303
874 2 2 10 10 258 303 302
875 2 2 10 10 259 260 304
876 2 2 10 10 259 304 303
877 2 2 10 10 260 261 305
878 2 2 10 10 260 305 304
879 2 2 10 10 261 262 306
880 2 2 10 10 261 306 305
881 2 2 10 10 262 263 307
882 2 2 10 10 262 307 306
883 2 2 10 10 263 264 308
884 2 2 10 10 263 308 307
885 2 2 10 10 264 265 309
886 2 2 10 10 264 309 308
887 2 2 10 10 265 266 310
888 2 2 10 10 265 310 309
889 2 2 10 10 266 267 311
890 2 2 10 10 266 311 310
891 2 2 10 10 268 269 313
892 2 2 10 10 268 313 312
893 2 2 10 10 269 270 314
894 2 2 10 10 269 314 313
895 2 2 10 10 270 271 315
896 2 2 10 10 270 315 314
897 2 2 10 10 271 272 316
898 2 2 10 10 271 316 315
899 2 2 10 10 272 273 317
900 2 2 10 10 272 317 316
901 2 2 10 10 273 274 318
902 2 2 10 10 273 318 317
903 2 2 10 10 274 275 319
904 2 2 10 10 274 319 318
905 2 2 10 10 275 276 320
906 2 2 10 10 275 320 319
907 2 2 10 10 276 277 321
908 2 2 10 10 276 321 320
909 2 2 10 10 277 278 322
910 2 2 10 10 277 322 321
911 2 2 10 10 278 279 323
912 2 2 10 10 278 323 322
913 2 2 10 10 279 280 324
914 2 2 10 10 279 324 323
915 2 2 10 10 280 281 325
916 2 2 10 10 280 325 324
917 2 2 10 10 281 282 326
918 2 2 10 10 281 326 325
919 2 2 10 10 282 283 327
920 2 2 10 10 282 327 326
921 2 2 10 10 284 285 329
922 2 2 10 10 284 329 328
923 2 2 10 10 285 286 330
924 2 2 10 10 285 330 329
925 2 2 10 10 286 287 331
926 2 2 10 10 286 331 330
927 2 2 10 10 287 288 332
928 2 2 10 10 287 332 331
929 2 2 10 10 288 289 333
930 2 2 10 10 288 333 332
931 2 2 10 10 289 290 334
932 2 2 10 10 289 334 333
933 2 2 10 10 290 291 335
934 2 2 10 10 290 335 334
935 2 2 10 10 291 292 336
936 2 2 10 10 291 336 335
937 2 2 10 10 292 293 337
938 2 2 10 10 292 337 336
939 2 2 10 10 293 294 338
940 2 2 10 10 293 338 337
941 2 2 10 10 294 295 339
942 2 2 10 10 294 339 338
943 2 2 10 10 295 296 340
944 2 2 10 10 295 340 339
945 2 2 10 10 296 297 341
946 2 2 10 10 296 341 340
947 2 2 10 10 297 298 342
948 2 2 10 10 297 342 341
949 2 2 10 10 298 299 343
950 2 2 10 10 298 343 342
951 2 2 10 10 299 300 344
952 2 2 10 10 299 344 343
953 2 2 10 10 300 301 345
954 2 2 10 10 300 345 344
955 2 2 10 10 301 302 346
956 2 2 10 10 301 346 345
957 2 2 10 10 302 303 347
958 2 2 10 10 302 347 346
959 2 2 10 10 303 304 348
960 2 2 10 10 303 348 347
961 2 2 10 10 304 305 349
962 2 2 10 10 304 349 348
963 2 2 10 10 305 306 350
964 2 2 10 10 305 350 349
965 2 2 10 10 306 307 351
966 2 2 10 10 306 351 350
967 2 2 10 10 307 308 352
968 2 2 10 10 307 352 351
969 2 2 10 10 308 309 353
970 2 2 10 10 308 353 352
971 2 2 10 10 309 310 354
972 2 2 10 10 309 354 353
973 2 2 10 10 310 311 355
974 2 2 10 10 310 355 354
975 2 2 10 10 312 313 358
976 2 2 10 10 312 358 357
977 2 2 10 10 313 314 359
978 2 2 10 10 313 359 358
979 2 2 10 10 314 315 360
980 2 2 10 10 314 360 359
981 2 2 10 10 315 316 361
982 2 2 10 10 315 361 360
983 2 2 10 10 316 317 362
984 2 2 10 10 316 362 361
985 2 2 10 10 317 318 363
986 2 2 10 10 317 363 362
987 2 2 10 10 318 319 364
988 2 2 10 10 318 364 363
989 2 2 10 10 319 320 365
990 2 2 10 10 319 365 364
991 2 2 10 10 320 321 366
992 2 2 10 10 320 366 365
993 2 2 10 10 321 322 367
994 2 2 10 10 321 367 366
995 2 2 10 10 322 323 368
996 2 2 10 10 322 368 367
997 2 2 10 10 323 324 369
998 2 2 10 10 323 369 368
999 2 2 10 10 324 325 370
1000 2 2 10 10 324 370 369
1001 2 2 10 10 325 326 371
1002 2 2 10 10 325 371 370
1003 2 2 10 10 326 327 372
1004 2 2 10 10 326 372 371
1005 2 2 10 10 348 349 374
1006 2 2 10 10 348 374 373
1007 2 2 10 10 349 350 375
1008 2 2 10 10 349 375 374
1009 2 2 10 10 350 351 376
1010 2 2 10 10 350 376 375
1011 2 2 10 10 351 352 377
1012 2 2 10 10 351 377 376
1013 2 2 10 10 352 353 378
1014 2 2 10 10 352 378 377
1015 2 2 10 10 353 354 379
1016 2 2 10 10 353 379 378
1017 2 2 10 10 354 355 380
1018 2 2 10 10 354 380 379
1019 2 2 10 10 356 357 383
1020 2 2 10 10 356 383 382
1021 2 2 10 10 357 358 384
1022 2 2 10 10 357 384 383
1023 2 2 10 10 358 359 385
1024 2 2 10 10 358 385 384
1025 2 2 10 10 359 360 386
1026 2 2 10 10 359 386 385
1027 2 2 10 10 360 361 387
1028 2 2 10 10 360 387 386
1029 2 2 10 10 361 362 388
1030 2 2 10 10 361 388 387
1031 2 2 10 10 362 363 389
1032 2 2 10 10 362 389 388
1033 2 2 10 10 363 364 390
1034 2 2 10 10 363 390 389
1035 2 2 10 10 373 374 392
1036 2 2 10 10 373 392 391
1037 2 2 10 10 374 375 393
1038 2 2 10 10 374 393 392
1039 2 2 10 10 375 376 394
1040 2 2 10 10 375 394 393
1041 2 2 10 10 376 377 395
1042 2 2 10 10 376 395 394
1043 2 2 10 10 377 378 396
1044 2 2 10 10 377 396 395
1045 2 2 10 10 378 379 397
1046 2 2 10 10 378 397 396
1047 2 2 10 10 379 380 398
1048 2 2 10 10 379 398 397
1049 2 2 10 10 380 381 399
1050 2 2 10 10 380 399 398
1051 2 2 10 10 382 383 402
1052 2 2 10 10 382 402 401
1053 2 2 10 10 383 384 403
1054 2 2 10 10 383 403 402
1055 2 2 10 10 384 385 404
1056 2 2 10 10 384 404 403
1057 2 2 10 10 385 386 405
1058 2 2 10 10 385 405 404
1059 2 2 10 10 386 387 406
1060 2 2 10 10 386 406 405
1061 2 2 10 10 387 388 407
1062 2 2 10 10 387 407 406
1063 2 2 10 10 388 389 408
1064 2 2 10 10 388 408 407
1065 2 2 10 10 392 393 410
1066 2 2 10 10 392 410 409
1067 2 2 10 10 393 394 411
1068 2 2 10 10 393 411 410
1069 2 2 10 10 394 395 412
1070 2 2 10 10 394 412 411
1071 2 2 10 10 395 396 413
1072 2 2 10 10 395 413 412
1073 2 2 10 10 396 397 414
1074 2 2 10 10 396 414 413
1075 2 2 10 10 397 398 415
1076 2 2 10 10 397 415 414
1077 2 2 10 10 398 399 416
1078 2 2 10 10 398 416 415
1079 2 2 10 10 400 401 418
1080 2 2 10 10 400 418 417
1081 2 2 10 10 401 402 419
1082 2 2 10 10 401 419 418
1083 2 2 10 10 402 403 420
1084 2 2 10 10 402 420 419
1085 2 2 10 10 403 404 421
1086 2 2 10 10 403 421 420
1087 2 2 10 10 404 405 422
1088 2 2 10 10 404 422 421
1089 2 2 10 10 405 406 423
1090 2 2 10 10 405 423 422
1091 2 2 10 10 406 407 424
1092 2 2 10 10 406 424 423
1093 2 2 10 10 407 408 425
1094 2 2 10 10 407 425 424
1095 2 2 10 10 409 410 427
1096 2 2 10 10 409 427 426
1097 2 2 10 10 410 411 428
1098 2 2 10 10 410 428 427
1099 2 2 10 10 411 412 429
1100 2 2 10 10 411 429 428
1101 2 2 10 10 412 413 430
1102 2 2 10 10 412 430 429
1103 2 2 10 10 413 414 431
1104 2 2 10 10 413 431 430
1105 2 2 10 10 414 415 432
1106 2 2 10 10 414 432 431
1107 2 2 10 10 415 416 433
1108 2 2 10 10 415 433 432
1109 2 2 10 10 417 418 437
1110 2 2 10 10 417 437 436
1111 2 2 10 10 418 419 438
1112 2 2 10 10 418 438 437
1113 2 2 10 10 419 420 439
1114 2 2 10 10 419 439 438
1115 2 2 10 10 420 421 440
1116 2 2 10 10 420 440 439
1117 2 2 10 10 421 422 441
1118 2 2 10 10 421 441 440
1119 2 2 10 10 422 423 442
1120 2 2 10 10 422 442 441
1121 2 2 10 10 423 424 443
1122 2 2 10 10 423 443 442
1123 2 2 10 10 426 427 445
1124 2 2 10 10 426 445 444
1125 2 2 10 10 427 428 446
1126 2 2 10 10 427 446 445
1127 2 2 10 10 428 429 447
1128 2 2 10 10 428 447 446
1129 2 2 10 10 429 430 448
1130 2 2 10 10 429 448 447
1131 2 2 10 10 430 431 449
1132 2 2 10 10 430 449 448
1133 2 2 10 10 431 432 450
1134 2 2 10 10 431 450 449
1135 2 2 10 10 432 433 451
1136 2 2 10 10 432 451 450
1137 2 2 10 10 433 434 452
1138 2 2 10 10 433 452 451
1139 2 2 10 10 435 436 454
1140 2 2 10 10 435 454 453
1141 2 2 10 10 436 437 455
1142 2 2 10 10 436 455 454
1143 2 2 10 10 437 438 456
1144 2 2 10 10 437 456 455
1145 2 2 10 10 438 439 457
1146 2 2 10 10 438 457 456
1147 2 2 10 10 439 440 458
1148 2 2 10 10 439 458 457
1149 2 2 10 10 440 441 459
1150 2 2 10 10 440 459 458
1151 2 2 10 10 441 442 460
1152 2 2 10 10 441 460 459
1153 2 2 10 10 442 443 461
1154 2 2 10 10 442 461 460
1155 2 2 10 10 445 446 463
1156 2 2 10 10 445 463 462
1157 2 2 10 10 446 447 464
1158 2 2 10 10 446 464 463
1159 2 2 10 10 447 448 465
1160 2 2 10 10 447 465 464
1161 2 2 10 10 448 449 466
1162 2 2 10 10 448 466 465
1163 2 2 10 10 449 450 467
1164 2 2 10 10 449 467 466
1165 2 2 10 10 450 451 468
1166 2 2 10 10 450 468 467
1167 2 2 10 10 451 452 469
1168 2 2 10 10 451 469 468
1169 2 2 10 10 453 454 472
1170 2 2 10 10 453 472 471
1171 2 2 10 10 454 455 473
1172 2 2 10 10 454 473 472
1173 2 2 10 10 455 456 474
1174 2 2 10 10 455 474 473
1175 2 2 10 10 456 457 475
1176 2 2 10 10 456 475 474
1177 2 2 10 10 457 458 476
1178 2 2 10 10 457 476 475
1179 2 2 10 10 458 459 477
1180 2 2 10 10 458 477 476
1181 2 2 10 10 459 460 478
1182 2 2 10 10 459 478 477
1183 2 2 10 10 460 461 479
1184 2 2 10 10 460 479 478
1185 2 2 10 10 462 463 481
1186 2 2 10 10 462 481 480
1187 2 2 10 10 463 464 482
1188 2 2 10 10 463 482 481
1189 2 2 10 10 464 465 483
1190 2 2 10 10 464 483 482
1191 2 2 10 10 465 466 484
1192 2 2 10 10 465 484 483
1193 2 2 10 10 466 467 485
1194 2 2 10 10 466 485 484
1195 2 2 10 10 467 468 486
1196 2 2 10 10 467 486 485
1197 2 2 10 10 468 469 487
1198 2 2 10 10 468 487 486
1199 2 2 10 10 470 471 490
1200 2 2 10 10 470 490 489
1201 2 2 10 10 471 472 491
1202 2 2 10 10 471 491 490
1203 2 2 10 10 472 473 492
1204 2 2 10 10 472 492 491
1205 2 2 10 10 473 474 493
1206 2 2 10 10 473 493 492
1207 2 2 10 10 474 475 494
1208 2 2 10 10 474 494 493
1209 2 2 10 10 475 476 495
1210 2 2 10 10 475 495 494
1211 2 2 10 10 476 477 496
1212 2 2 10 10 476 496 495
1213 2 2 10 10 477 478 497
1214 2 2 10 10 477 497 496
1215 2 2 10 10 480 481 499
1216 2 2 10 10 480 499 498
1217 2 2 10 10 481 482 500
1218 2 2 10 10 481 500 499
1219 2 2 10 10 482 483 501
1220 2 2 10 10 482 501 500
1221 2 2 10 10 483 484 502
1222 2 2 10 10 483 502 501
1223 2 2 10 10 484 485 503
1224 2 2 10 10 484 503 502
1225 2 2 10 10 485 486 504
1226 2 2 10 10 485 504 503
1227 2 2 10 10 486 487 505
1228 2 2 10 10 486 505 504
1229 2 2 10 10 487 488 506
1230 2 2 10 10 487 506 505
1231 2 2 10 10 489 490 508
1232 2 2 10 10 489 508 507
1233 2 2 10 10 490 491 509
1234 2 2 10 10 490 509 508
1235 2 2 10 10 491 492 510
1236 2 2 10 10 491 510 509
1237 2 2 10 10 492 493 511
1238 2 2 10 10 492 511 510
1239 2 2 10 10 493 494 512
1240 2 2 10 10 493 512 511
1241 2 2 10 10 494 495 513
1242 2 2 10 10 494 513 512
1243 2 2 10 10 495 496 514
1244 2 2 10 10 495 514 513
1245 2 2 10 10 496 497 515
1246 2 2 10 10 496 515 514
1247 2 2 10 10 499 500 517
1248 2 2 10 10 499 517 516
1249 2 2 10 10 500 501 518
1250 2 2 10 10 500 518 517
1251 2 2 10 10 501 502 519
1252 2 2 10 10 501 519 518
1253 2 2 10 10 502 503 520
1254 2 2 10 10 502 520 519
1255 2 2 10 10 503 504 521
1256 2 2 10 10 503 521 520
1257 2 2 10 10 504 505 522
1258 2 2 10 10 504 522 521
1259 2 2 10 10 505 506 523
1260 2 2 10 10 505 523 522
1261 2 2 10 10 507 508 526
1262 2 2 10 10 507 526 525
1263 2 2 10 10 508 509 527
1264 2 2 10 10 508 527 526
1265 2 2 10 10 509 510 528
1266 2 2 10 10 509 528 527
1267 2 2 10 10 510 511 529
1268 2 2 10 10 510 529 528
1269 2 2 10 10 511 512 530
1270 2 2 10 10 511 530 529
1271 2 2 10 10 512 513 531
1272 2 2 10 10 512 531 530
1273 2 2 10 10 513 514 532
1274 2 2 10 10 513 532 531
1275 2 2 10 10 516 517 534
1276 2 2 10 10 516 534 533
1277 2 2 10 10 517 518 535
1278 2 2 10 10 517 535 534
1279 2 2 10 10 518 519 536
1280 2 2 10 10 518 536 535
1281 2 2 10 10 519 520 537
1282 2 2 10 10 519 537 536
1283 2 2 10 10 520 521 538
1284 2 2 10 10 520 538 537
1285 2 2 10 10 521 522 539
1286 2 2 10 10 521 539 538
1287 2 2 10 10 522 523 540
1288 2 2 10 10 522 540 539
1289 2 2 10 10 524 525 543
1290 2 2 10 10 524 543 542
1291 2 2 10 10 525 526 544
1292 2 2 10 10 525 544 543
1293 2 2 10 10 526 527 545
1294 2 2 10 10 526 545 544
1295 2 2 10 10 527 528 546
1296 2 2 10 10 527 546 545
1297 2 2 10 10 528 529 547
1298 2 2 10 10 528 547 546
1299 2 2 10 10 529 530 548
1300 2 2 10 10 529 548 547
1301 2 2 10 10 530 531 549
1302 2 2 10 10 530 549 548
1303 2 2 10 10 531 532 550
1304 2 2 10 10 531 550 549
1305 2 2 10 10 533 534 552
1306 2 2 10 10 533 552 551
1307 2 2 10 10 534 535 553
1308 2 2 10 10 534 553 552
1309 2 2 10 10 535 536 554
1310 2 2 10 10 535 554 553
1311 2 2 10 10 536 537 555
1312 2 2 10 10 536 555 554
1313 2 2 10 10 537 538 556
1314 2 2 10 10 537 556 555
1315 2 2 10 10 538 539 557
1316 2 2 10 10 538 557 556
1317 2 2 10 10 539 540 558
1318 2 2 10 10 539 558 557
1319 2 2 10 10 540 541 559
1320 2 2 10 10 540 559 558
1321 2 2 10 10 542 543 562
1322 2 2 10 10 542 562 561
1323 2 2 10 10 543 544 563
1324 2 2 10 10 543 563 562
1325 2 2 10 10 544 545 564
1326 2 2 10 10 544 564 563
1327 2 2 10 10 545 546 565
1328 2 2 10 10 545 565 564
1329 2 2 10 10 546 547 566
1330 2 2 10 10 546 566 565
1331 2 2 10 10 547 548 567
1332 2 2 10 10 547 567 566
1333 2 2 10 10 548 549 568
1334 2 2 10 10 548 568 567
1335 2 2 10 10 552 553 570
1336 2 2 10 10 552 570 569
1337 2 2 10 10 553 554 571
1338 2 2 10 10 553 571 570
1339 2 2 10 10 554 555 572
1340 2 2 10 10 554 572 571
1341 2 2 10 10 555 556 573
1342 2 2 10 10 555 573 572
1343 2 2 10 10 556 557 574
1344 2 2 10 10 556 574 573
1345 2 2 10 10 557 558 575
1346 2 2 10 10 557 575 574
1347 2 2 10 10 558 559 576
1348 2 2 10 10 558 576 575
1349 2 2 10 10 560 561 589
1350 2 2 10 10 560 589 588
1351 2 2 10 10 561 562 590
1352 2 2 10 10 561 590 589
1353 2 2 10 10 562 563 591
1354 2 2 10 10 562 591 590
1355 2 2 10 10 563 564 592
1356 2 2 10 10 563 592 591
1357 2 2 10 10 564 565 593
1358 2 2 10 10 564 593 592
1359 2 2 10 10 565 566 594
1360 2 2 10 10 565 594 593
1361 2 2 10 10 566 567 595
1362 2 2 10 10 566 595 594
1363 2 2 10 10 567 568 596
1364 2 2 10 10 567 596 595
1365 2 2 10 10 569 570 598
1366 2 2 10 10 569 598 597
1367 2 2 10 10 570 571 599
1368 2 2 10 10 570 599 598
1369 2 2 10 10 571 572 600
1370 2 2 10 10 571 600 599
1371 2 2 10 10 572 573 601
1372 2 2 10 10 572 601 600
1373 2 2 10 10 573 574 602
1374 2 2 10 10 573 602 601
1375 2 2 10 10 574 575 603
1376 2 2 10 10 574 603 602
1377 2 2 10 10 575 576 604
1378 2 2 10 10 575 604 603
1379 2 2 10 10 576 577 605
1380 2 2 10 10 576 605 604
1381 2 2 10 10 577 578 606
1382 2 2 10 10 577 606 605
1383 2 2 10 10 578 579 607
1384 2 2 10 10 578 607 606
1385 2 2 10 10 579 580 608
1386 2 2 10 10 579 608 607
1387 2 2 10 10 580 581 609
1388 2 2 10 10 580 609 608
1389 2 2 10 10 581 582 610
1390 2 2 10 10 581 610 609
1391 2 2 10 10 582 583 611
1392 2 2 10 10 582 611 610
1393 2 2 10 10 583 584 612
1394 2 2 10 10 583 612 611
1395 2 2 10 10 584 585 613
1396 2 2 10 10 584 613 612
1397 2 2 10 10 585 586 614
1398 2 2 10 10 585 614 613
1399 2 2 10 10 586 587 615
1400 2 2 10 10 586 615 614
1401 2 2 10 10 587 588 616
1402 2 2 10 10 587 616 615
1403 2 2 10 10 588 589 617
1404 2 2 10 10 588 617 616
1405 2 2 10 10 589 590 618
1406 2 2 10 10 589 618 617
1407 2 2 10 10 590 591 619
1408 2 2 10 10 590 619 618
1409 2 2 10 10 591 592 620
1410 2 2 10 10 591 620 619
1411 2 2 10 10 592 593 621
1412 2 2 10 10 592 621 620
1413 2 2 10 10 593 594 622
1414 2 2 10 10 593 622 621
1415 2 2 10 10 594 595 623
1416 2 2 10 10 594 623 622
1417 2 2 10 10 597 598 625
1418 2 2 10 10 597 625 624
1419 2 2 10 10 598 599 626
1420 2 2 10 10 598 626 625
1421 2 2 10 10 599 600 627
1422 2 2 10 10 599 627 626
1423 2 2 10 10 600 601 628
1424 2 2 10 10 600 628 627
1425 2 2 10 10 601 602 629
1426 2 2 10 10 601 629 628
1427 2 2 10 10 602 603 630
1428 2 2 10 10 602 630 629
1429 2 2 10 10 603 604 631
1430 2 2 10 10 603 631 630
1431 2 2 10 10 604 605 632
1432 2 2 10 10 604 632 631
1433 2 2 10 10 605 606 633
1434 2 2 10 10 605 633 632
1435 2 2 10 10 606 607 634
1436 2 2 10 10 606 634 633
1437 2 2 10 10 607 608 635
1438 2 2 10 10 607 635 634
1439 2 2 10 10 608 609 636
1440 2 2 10 10 608 636 635
1441 2 2 10 10 609 610 637
1442 2 2 10 10 609 637 636
1443 2 2 10 10 610 611 638
1444 2 2 10 10 610 638 637
1445 2 2 10 10 611 612 639
1446 2 2 10 10 611 639 638
1447 2 2 10 10 612 613 640
1448 2 2 10 10 612 640 639
1449 2 2 10 10 613 614 641
1450 2 2 10 10 613 641 640
1451 2 2 10 10 614 615 642
1452 2 2 10 10 614 642 641
1453 2 2 10 10 615 616 643
1454 2 2 10 10 615 643 642
1455 2 2 10 10 616 617 644
1456 2 2 10 10 616 644 643
1457 2 2 10 10 617 618 645
1458 2 2 10 10 617 645 644
1459 2 2 10 10 618 619 646
1460 2 2 10 10 618 646 645
1461 2 2 10 10 619 620 647
1462 2 2 10 10 619 647 646
1463 2 2 10 10 620 621 648
1464 2 2 10 10 620 648 647
1465 2 2 10 10 621 622 649
1466 2 2 10 10 621 649 648
1467 2 2 10 10 622 623 650
1468 2 2 10 10 622 650 649
1469 2 2 10 10 625 626 652
1470 2 2 10 10 625 652 651
1471 2 2 10 10 626 627 653
1472 2 2 10 10 626 653 652
1473 2 2 10 10 627 628 654
1474 2 2 10 10 627 654 653
1475 2 2 10 10 628 629 655
1476 2 2 10 10 628 655 654
1477 2 2 10 10 629 630 656
1478 2 2 10 10 629 656 655
1479 2 2 10 10 630 631 657
1480 2 2 10 10 630 657 656
1481 2 2 10 10 631 632 658
1482 2 2 10 10 631 658 657
1483 2 2 10 10 632 633 659
1484 2 2 10 10 632 659 658
1485 2 2 10 10 633 634 660
1486 2 2 10 10 633 660 659
1487 2 2 10 10 634 635 661
1488 2 2 10 10 634 661 660
1489 2 2 10 10 635 636 662
1490 2 2 10 10 635 662 661
1491 2 2 10 10 636 637 663
1492 2 2 10 10 636 663 662
1493 2 2 10 10 637 638 664
1494 2 2 10 10 637 664 663
1495 2 2 10 10 638 639 665
1496 2 2 10 10 638 665 664
1497 2 2 10 10 639 640 666
1498 2 2 10 10 639 666 665
1499 2 2 10 10 640 641 667
1500 2 2 10 10 640 667 666
1501 2 2 10 10 641 642 668
1502 2 2 10 10 641 668 667
1503 2 2 10 10 642 643 669
1504 2 2 10 10 642 669 668
1505 2 2 10 10 643 644 670
1506 2 2 10 10 643 670 669
1507 2 2 10 10 644 645 671
1508 2 2 10 10 644 671 670
1509 2 2 10 10 645 646 672
1510 2 2 10 10 645 672 671
1511 2 2 10 10 646 647 673
1512 2 2 10 10 646 673 672
1513 2 2 10 10 647 648 674
1514 2 2 10 10 647 674 673
1515 2 2 10 10 648 649 675
1516 2 2 10 10 648 675 674
1517 2 2 10 10 649 650 676
1518 2 2 10 10 649 676 675
1519 2 2 10 10 651 652 678
1520 2 2 10 10 651 678 677
1521 2 2 10 10 652 653 679
1522 2 2 10 10 652 679 678
1523 2 2 10 10 653 654 680
1524 2 2 10 10 653 680 679
1525 2 2 10 10 654 655 681
1526 2 2 10 10 654 681 680
1527 2 2 10 10 655 656 682
1528 2 2 10 10 655 682 681
1529 2 2 10 10 656 657 683
1530 2 2 10 10 656 683 682
1531 2 2 10 10 657 658 684
1532 2 2 10 10 657 684 683
1533 2 2 10 10 658 659 685
1534 2 2 10 10 658 685 684
1535 2 2 10 10 659 660 686
1536 2 2 10 10 659 686 685
1537 2 2 10 10 660 661 687
1538 2 2 10 10 660 687 686
1539 2 2 10 10 661 662 688
1540 2 2 10 10 661 688 687
1541 2 2 10 10 662 663 689
1542 2 2 10 10 662 689 688
1543 2 2 10 10 663 664 690
1544 2 2 10 10 663 690 689
1545 2 2 10 10 664 665 691
1546 2 2 10 10 664 691 690
1547 2 2 10 10 665 666 692
1548 2 2 10 10 665 692 691
1549 2 2 10 10 666 667 693
1550 2 2 10 10 666 693 692
1551 2 2 10 10 667 668 694
1552 2 2 10 10 667 694 693
1553 2 2 10 10 668 669 695
1554 2 2 10 10 668 695 694
1555 2 2 10 10 669 670 696
1556 2 2 10 10 669 696 695
1557 2 2 10 10 670 671 697
1558 2 2 10 10 670 697 696
1559 2 2 10 10 671 672 698
1560 2 2 10 10 671 698 697
1561 2 2 10 10 672 673 699
1562 2 2 10 10 672 699 698
1563 2 2 10 10 673 674 700
1564 2 2 10 10 673 700 699
1565 2 2 10 10 674 675 701
1566 2 2 10 10 674 701 700
1567 2 2 10 10 677 678 703
1568 2 2 10 10 677 703 702
1569 2 2 10 10 678 679 704
1570 2 2 10 10 678 704 703
1571 2 2 10 10 679 680 705
1572 2 2 10 10 679 705 704
1573 2 2 10 10 680 681 706
1574 2 2 10 10 680 706 705
1575 2 2 10 10 681 682 707
1576 2 2 10 10 681 707 706
1577 2 2 10 10 682 683 708
1578 2 2 10 10 682 708 707
1579 2 2 10 10 683 684 709
1580 2 2 10 10 683 709 708
1581 2 2 10 10 684 685 710
1582 2 2 10 10 684 710 709
1583 2 2 10 10 685 686 711
1584 2 2 10 10 685 711 710
1585 2 2 10 10 686 687 712
1586 2 2 10 10 686 712 711
1587 2 2 10 10 687 688 713
1588 2 2 10 10 687 713 712
1589 2 2 10 10 688 689 714
1590 2 2 10 10 688 714 713
1591 2 2 10 10 689 690 715
1592 2 2 10 10 689 715 714
1593 2 2 10 10 690 691 716
1594 2 2 10 10 690 716 715
1595 2 2 10 10 691 692 717
1596 2 2 10 10 691 717 716
1597 2 2 10 10 692 693 718
1598 2 2 10 10 692 718 717
1599 2 2 10 10 693 694 719
1600 2 2 10 10 693 719 718
1601 2 2 10 10 694 695 720
1602 2 2 10 10 694 720 719
1603 2 2 10 10 695 696 721
1604 2 2 10 10 695 721 720
1605 2 2 10 10 696 697 722
1606 2 2 10 10 696 722 721
1607 2 2 10 10 697 698 723
1608 2 2 10 10 697 723 722
1609 2 2 10 10 698 699 724
1610 2 2 10 10 698 724 723
1611 2 2 10 10 699 700 725
1612 2 2 10 10 699 725 724
1613 2 2 10 10 700 701 726
1614 2 2 10 10 700 726 725
1615 2 2 10 10 702 703 730
1616 2 2 10 10 702 730 729
1617 2 2 10 10 703 704 731
1618 2 2 10 10 703 731 730
1619 2 2 10 10 704 705 732
1620 2 2 10 10 704 732 731
1621 2 2 10 10 705 706 733
1622 2 2 10 10 705 733 732
1623 2 2 10 10 706 707 734
1624 2 2 10 10 706 734 733
1625 2 2 10 10 707 708 735
1626 2 2 10 10 707 735 734
1627 2 2 10 10 708 709 736
1628 2 2 10 10 708 736 735
1629 2 2 10 10 709 710 737
1630 2 2 10 10 709 737 736
1631 2 2 10 10 710 711 738
1632 2 2 10 10 710 738 737
1633 2 2 10 10 711 712 739
1634 2 2 10 10 711 739 738
1635 2 2 10 10 712 713 740
1636 2 2 10 10 712 740 739
1637 2 2 10 10 713 714 741
1638 2 2 10 10 713 741 740
1639 2 2 10 10 714 715 742
1640 2 2 10 10 714 742 741
1641 2 2 10 10 715 716 743
1642 2 2 10 10 715 743 742
1643 2 2 10 10 716 717 744
1644 2 2 10 10 716 744 743
1645 2 2 10 10 717 718 745
1646 2 2 10 10 717 745 744
1647 2 2 10 10 718 719 746
1648 2 2 10 10 718 746 745
1649 2 2 10 10 719 720 747
1650 2 2 10 10 719 747 746
1651 2 2 10 10 720 721 748
1652 2 2 10 10 720 748 747
1653 2 2 10 10 721 722 749
1654 2 2 10 10 721 749 748
1655 2 2 10 10 722 723 750
1656 2 2 10 10 722 750 749
1657 2 2 10 10 723 724 751
1658 2 2 10 10 723 751 750
1659 2 2 10 10 724 725 752
1660 2 2 10 10 724 752 751
1661 2 2 10 10 725 726 753
1662 2 2 10 10 725 753 752
1663 2 2 10 10 726 727 754
1664 2 2 10 10 726 754 753
1665 2 2 10 10 728 729 756
1666 2 2 10 10 728 756 755
1667 2 2 10 10 729 730 757
1668 2 2 10 10 729 757 756
1669 2 2 10 10 730 731 758
1670 2 2 10 10 730 758 757
1671 2 2 10 10 731 732 759
1672 2 2 10 10 731 759 758
1673 2 2 10 10 732 733 760
1674 2 2 10 10 732 760 759
1675 2 2 10 10 733 734 761
1676 2 2 10 10 733 761 760
1677 2 2 10 10 734 735 762
1678 2 2 10 10 734 762 761
1679 2 2 10 10 735 736 763
1680 2 2 10 10 735 763 762
1681 2 2 10 10 736 737 764
1682 2 2 10 10 736 764 763
1683 2 2 10 10 737 738 765
1684 2 2 10 10 737 765 764
1685 2 2 10 10 738 739 766
1686 2 2 10 10 738 766 765
1687 2 2 10 10 739 740 767
1688 2 2 10 10 739 767 766
1689 2 2 10 10 740 741 768
1690 2 2 10 10 740 768 767
1691 2 2 10 10 741 742 769
1692 2 2 10 10 741 769 768
1693 2 2 10 10 742 743 770
1694 2 2 10 10 742 770 769
1695 2 2 10 10 743 744 771
1696 2 2 10 10 743 771 770
1697 2 2 10 10 744 745 772
1698 2 2 10 10 744 772 771
1699 2 2 10 10 745 746 773
1700 2 2 10 10 745 773 772
1701 2 2 10 10 746 747 774
1702 2 2 10 10 746 774 773
1703 2 2 10 10 747 748 775
1704 2 2 10 10 747 775 774
1705 2 2 10 10 748 749 776
1706 2 2 10 10 748 776 775
1707 2 2 10 10 749 750 777
1708 2 2 10 10 749 777 776
1709 2 2 10 10 750 751 778
1710 2 2 10 10 750 778 777
1711 2 2 10 10 751 752 779
1712 2 2 10 10 751 779 778
1713 2 2 10 10 752 753 780
1714 2 2 10 10 752 780 779
1715 2 2 10 10 753 754 781
1716 2 2 10 10 753 781 780
1717 2 2 10 10 755 756 783
1718 2 2 10 10 755 783 782
1719 2 2 10 10 756 757 784
1720 2 2 10 10 756 784 783
1721 2 2 10 10 757 758 785
1722 2 2 10 10 757 785 784
1723 2 2 10 10 758 759 786
1724 2 2 10 10 758 786 785
1725 2 2 10 10 759 760 787
1726 2 2 10 10 759 787 786
1727 2 2 10 10 760 761 788
1728 2 2 10 10 760 788 787
1729 2 2 10 10 761 762 789
1730 2 2 10 10 761 789 788
1731 2 2 10 10 774 775 791
1732 2 2 10 10 774 791 790
1733 2 2 10 10 775 776 792
1734 2 2 10 10 775 792 791
1735 2 2 10 10 776 777 793
1736 2 2 10 10 776 793 792
1737 2 2 10 10 777 778 794
1738 2 2 10 10 777 794 793
1739 2 2 10 10 778 779 795
1740 2 2 10 10 778 795 794
1741 2 2 10 10 779 780 796
1742 2 2 10 10 779 796 795
1743 2 2 10 10 780 781 797
1744 2 2 10 10 780 797 796
1745 2 2 10 10 782 783 801
1746 2 2 10 10 782 801 800
1747 2 2 10 10 783 784 802
1748 2 2 10 10 783 802 801
1749 2 2 10 10 784 785 803
1750 2 2 10 10 784 803 802
1751 2 2 10 10 785 786 804
1752 2 2 10 10 785 804 803
1753 2 2 10 10 786 787 805
1754 2 2 10 10 786 805 804
1755 2 2 10 10 787 788 806
1756 2 2 10 10 787 806 805
1757 2 2 10 10 788 789 807
1758 2 2 10 10 788 807 806
1759 2 2 10 10 790 791 809
1760 2 2 10 10 790 809 808
1761 2 2 10 10 791 792 810
1762 2 2 10 10 791 810 809
1763 2 2 10 10 792 793 811
1764 2 2 10 10 792 811 810
1765 2 2 10 10 793 794 812
1766 2 2 10 10 793 812 811
1767 2 2 10 10 794 795 813
1768 2 2 10 10 794 813 812
1769 2 2 10 10 795 796 814
1770 2 2 10 10 795 814 813
1771 2 2 10 10 796 797 815
1772 2 2 10 10 796 815 814
1773 2 2 10 10 797 798 816
1774 2 2 10 10 797 816 815
1775 2 2 10 10 799 800 818
1776 2 2 10 10 799 818 817
1777 2 2 10 10 800 801 819
1778 2 2 10 10 800 819 818
1779 2 2 10 10 801 802 820
1780 2 2 10 10 801 820 819
1781 2 2 10 10 802 803 821
1782 2 2 10 10 802 821 820
1783 2 2 10 10 803 804 822
1784 2 2 10 10 803 822 821
1785 2 2 10 10 804 805 823
1786 2 2 10 10 804 823 822
1787 2 2 10 10 805 806 824
1788 2 2 10 10 805 824 823
1789 2 2 10 10 806 807 825
1790 2 2 10 10 806 825 824
1791 2 2 10 10 809 810 827
1792 2 2 10 10 809 827 826
1793 2 2 10 10 810 811 828
1794 2 2 10 10 810 828 827
1795 2 2 10 10 811 812 829
1796 2 2 10 10 811 829 828
1797 2 2 10 10 812 813 830
1798 2 2 10 10 812 830 829
1799 2 2 10 10 813 814 831
1800 2 2 10 10 813 831 830
1801 2 2 10 10 814 815 832
1802 2 2 10 10 814 832 831
1803 2 2 10 10 815 816 833
1804 2 2 10 10 815 833 832
1805 2 2 10 10 817 818 836
1806 2 2 10 10 817 836 835
1807 2 2 10 10 818 819 837
1808 2 2 10 10 818 837 836
1809 2 2 10 10 819 820 838
1810 2 2 10 10 819 838 837
1811 2 2 10 10 820 821 839
1812 2 2 10 10 820 839 838
1813 2 2 10 10 821 822 840
1814 2 2 10 10 821 840 839
1815 2 2 10 10 822 823 841
1816 2 2 10 10 822 841 840
1817 2 2 10 10 823 824 842
1818 2 2 10 10 823 842 841
1819 2 2 10 10 826 827 844
1820 2 2 10 10 826 844 843
1821 2 2 10 10 827 828 845
1822 2 2 10 10 827 845 844
1823 2 2 10 10 828 829 846
1824 2 2 10 10 828 846 845
1825 2 2 10 10 829 830 847
1826 2 2 10 10 829 847 846
1827 2 2 10 10 830 831 848
1828 2 2 10 10 830 848 847
1829 2 2 10 10 831 832 849
1830 2 2 10 10 831 849 848
1831 2 2 10 10 832 833 850
1832 2 2 10 10 832 850 849
1833 2 2 10 10 833 834 851
1834 2 2 10 10 833 851 850
1835 2 2 10 10 835 836 854
1836 2 2 10 10 835 854 853
1837 2 2 10 10 836 837 855
1838 2 2 10 10 836 855 854
1839 2 2 10 10 837 838 856
1840 2 2 10 10 837 856 855
1841 2 2 10 10 838 839 857
1842 2 2 10 10 838 857 856
1843 2 2 10 10 839 840 858
1844 2 2 10 10 839 858 857
1845 2 2 10 10 840 841 859
1846 2 2 10 10 840 859 858
1847 2 2 10 10 841 842 860
1848 2 2 10 10 841 860 859
1849 2 2 10 10 844 845 862
1850 2 2 10 10 844 862 861
1851 2 2 10 10 845 846 863
1852 2 2 10 10 845 863 862
1853 2 2 10 10 846 847 864
1854 2 2 10 10 846 864 863
1855 2 2 10 10 847 848 865
1856 2 2 10 10 847 865 864
1857 2 2 10 10 848 849 866
1858 2 2 10 10 848 866 865
1859 2 2 10 10 849 850 867
1860 2 2 10 10 849 867 866
1861 2 2 10 10 850 851 868
1862 2 2 10 10 850 868 867
1863 2 2 10 10 852 853 871
1864 2 2 10 10 852 871 870
1865 2 2 10 10 853 854 872
1866 2 2 10 10 853 872 871
1867 2 2 10 10 854 855 873
1868 2 2 10 10 854 873 872
1869 2 2 10 10 855 856 874
1870 2 2 10 10 855 874 873
1871 2 2 10 10 856 857 875
1872 2 2 10 10 856 875 874
1873 2 2 10 10 857 858 876
1874 2 2 10 10 857 876 875
1875 2 2 10 10 858 859 877
1876 2 2 10 10 858 877 876
1877 2 2 10 10 859 860 878
1878 2 2 10 10 859 878 877
1879 2 2 10 10 861 862 880
1880 2 2 10 10 861 880 879
1881 2 2 10 10 862 863 881
1882 2 2 10 10 862 881 880
1883 2 2 10 10 863 864 882
1884 2 2 10 10 863 882 881
1885 2 2 10 10 864 865 883
1886 2 2 10 10 864 883 882
1887 2 2 10 10 865 866 884
1888 2 2 10 10 865 884 883
1889 2 2 10 10 866 867 885
1890 2 2 10 10 866 885 884
1891 2 2 10 10 867 868 886
1892 2 2 10 10 867 886 885
1893 2 2 10 10 868 869 887
1894 2 2 10 10 868 887 886
1895 2 2 10 10 870 871 889
1896 2 2 10 10 870 889 888
1897 2 2 10 10 871 872 890
1898 2 2 10 10 871 890 889
1899 2 2 10 10 872 873 891
1900 2 2 10 10 872 891 890
1901 2 2 10 10 873 874 892
1902 2 2 10 10 873 892 891
1903 2 2 10 10 874 875 893
1904 2 2 10 10 874 893 892
1905 2 2 10 10 875 876 894
1906 2 2 10 10 875 894 893
1907 2 2 10 10 876 877 895
1908 2 2 10 10 876 895 894
1909 2 2 10 10 879 880 897
1910 2 2 10 10 879 897 896
1911 2 2 10 10 880 881 898
1912 2 2 10 10 880 898 897
1913 2 2 10 10 881 882 899
1914 2 2 10 10 881 899 898
1915 2 2 10 10 882 883 900
1916 2 2 10 10 882 900 899
1917 2 2 10 10 883 884 901
1918 2 2 10 10 883 901 900
1919 2 2 10 10 884 885 902
1920 2 2 10 10 884 902 901
1921 2 2 10 10 885 886 903
1922 2 2 10 10 885 903 902
1923 2 2 10 10 886 887 904
1924 2 2 10 10 886 904 903
1925 2 2 10 10 888 889 908
1926 2 2 10 10 888 908 907
1927 2 2 10 10 889 890 909
1928 2 2 10 10 889 909 908
1929 2 2 10 10 890 891 910
1930 2 2 10 10 890 910 909
1931 2 2 10 10 891 892 911
1932 2 2 10 10 891 911 910
1933 2 2 10 10 892 893 912
1934 2 2 10 10 892 912 911
1935 2 2 10 10 893 894 913
1936 2 2 10 10 893 913 912
1937 2 2 10 10 894 895 914
1938 2 2 10 10 894 914 913
1939 2 2 10 10 897 898 916
1940 2 2 10 10 897 916 915
1941 2 2 10 10 898 899 917
1942 2 2 10 10 898 917 916
1943 2 2 10 10 899 900 918
1944 2 2 10 10 899 918 917
1945 2 2 10 10 900 901 919
1946 2 2 10 10 900 919 918
1947 2 2 10 10 901 902 920
1948 2 2 10 10 901 920 919
1949 2 2 10 10 902 903 921
1950 2 2 10 10 902 921 920
1951 2 2 10 10 903 904 922
1952 2 2 10 10 903 922 921
1953 2 2 10 10 904 905 923
1954 2 2 10 10 904 923 922
1955 2 2 10 10 906 907 925
1956 2 2 10 10 906 925 924
1957 2 2 10 10 907 908 926
1958 2 2 10 10 907 926 925
1959 2 2 10 10 908 909 927
1960 2 2 10 10 908 927 926
1961 2 2 10 10 909 910 928
1962 2 2 10 10 909 928 927
1963 2 2 10 10 910 911 929
1964 2 2 10 10 910 929 928
1965 2 2 10 10 911 912 930
1966 2 2 10 10 911 930 929
1967 2 2 10 10 912 913 931
1968 2 2 10 10 912 931 930
1969 2 2 10 10 913 914 932
1970 2 2 10 10 913 932 931
1971 2 2 10 10 915 916 934
1972 2 2 10 10 915 934 933
1973 2 2 10 10 916 917 935
1974 2 2 10 10 916 935 934
1975 2 2 10 10 917 918 936
1976 2 2 10 10 917 936 935
1977 2 2 10 10 918 919 937
1978 2 2 10 10 918 937 936
1979 2 2 10 10 919 920 938
1980 2 2 10 10 919 938 937
1981 2 2 10 10 920 921 939
1982 2 2 10 10 920 939 938
1983 2 2 10 10 921 922 940
1984 2 2 10 10 921 940 939
1985 2 2 10 10 922 923 941
1986 2 2 10 10 922 941 940
1987 2 2 10 10 924 925 943
1988 2 2 10 10 924 943 942
1989 2 2 10 10 925 926 944
1990 2 2 10 10 925 944 943
1991 2 2 10 10 926 927 945
1992 2 2 10 10 926 945 944
1993 2 2 10 10 927 928 946
1994 2 2 10 10 927 946 945
1995 2 2 10 10 928 929 947
1996 2 2 10 10 928 947 946
1997 2 2 10 10 929 930 948
1998 2 2 10 10 929 948 947
1999 2 2 10 10 930 931 949
2000 2 2 10 10 930 949 948
2001 2 2 10 10 934 935 951
2002 2 2 10 10 934 951 950
2003 2 2 10 10 935 936 952
2004 2 2 10 10 935 952 951
2005 2 2 10 10 936 937 953
2006 2 2 10 10 936 953 952
2007 2 2 10 10 937 938 954
2008 2 2 10 10 937 954 953
2009 2 2 10 10 938 939 955
2010 2 2 10 10 938 955 954
2011 2 2 10 10 939 940 956
2012 2 2 10 10 939 956 955
2013 2 2 10 10 940 941 957
2014 2 2 10 10 940 957 956
2015 2 2 10 10 942 943 961
2016 2 2 10 10 942 961 960
2017 2 2 10 10 943 944 962
2018 2 2 10 10 943 962 961
2019 2 2 10 10 944 945 963
2020 2 2 10 10 944 963 962
2021 2 2 10 10 945 946 964
2022 2 2 10 10 945 964 963
2023 2 2 10 10 946 947 965
2024 2 2 10 10 946 965 964
2025 2 2 10 10 947 948 966
2026 2 2 10 10 947 966 965
2027 2 2 10 10 948 949 967
2028 2 2 10 10 948 967 966
2029 2 2 10 10 950 951 969
2030 2 2 10 10 950 969 968
2031 2 2 10 10 951 952 970
2032 2 2 10 10 951 970 969
2033 2 2 10 10 952 953 971
2034 2 2 10 10 952 971 970
2035 2 2 10 10 953 954 972
2036 2 2 10 10 953 972 971
2037 2 2 10 10 954 955 973
2038 2 2 10 10 954 973 972
2039 2 2 10 10 955 956 974
2040 2 2 10 10 955 974 973
2041 2 2 10 10 956 957 975
2042 2 2 10 10 956 975 974
2043 2 2 10 10 957 958 976
2044 2 2 10 10 957 976 975
2045 2 2 10 10 959 960 978
2046 2 2 10 10 959 978 977
2047 2 2 10 10 960 961 979
2048 2 2 10 10 960 979 978
2049 2 2 10 10 961 962 980
2050 2 2 10 10 961 980 979
2051 2 2 10 10 962 963 981
2052 2 2 10 10 962 981 980
2053 2 2 10 10 963 964 982
2054 2 2 10 10 963 982 981
2055 2 2 10 10 964 965 983
2056 2 2 10 10 964 983 982
2057 2 2 10 10 965 966 984
2058 2 2 10 10 965 984 983
2059 2 2 10 10 966 967 985
2060 2 2 10 10 966 985 984
2061 2 2 10 10 969 970 987
2062 2 2 10 10 969 987 986
2063 2 2 10 10 970 971 988
2064 2 2 10 10 970 988 987
2065 2 2 10 10 971 972 989
2066 2 2 10 10 971 989 988
2067 2 2 10 10 972 973 990
2068 2 2 10 10 972 990 989
2069 2 2 10 10 973 974 991
2070 2 2 10 10 973 991 990
2071 2 2 10 10 974 975 992
2072 2 2 10 10 974 992 991
2073 2 2 10 10 975 976 993
2074 2 2 10 10 975 993 992
2075 2 2 10 10 977 978 1016
2076 2 2 10 10 977 1016 1015
2077 2 2 10 10 978 979 1017
2078 2 2 10 10 978 1017 1016
2079 2 2 10 10 979 980 1018
2080 2 2 10 10 979 1018 1017
2081 2 2 10 10 980 981 1019
2082 2 2 10 10 980 1019 1018
2083 2 2 10 10 981 982 1020
2084 2 2 10 10 981 1020 1019
2085 2 2 10 10 982 983 1021
2086 2 2 10 10 982 1021 1020
2087 2 2 10 10 983 984 1022
2088 2 2 10 10 983 1022 1021
2089 2 2 10 10 986 987 1024
2090 2 2 10 10 986 1024 1023
2091 2 2 10 10 987 988 1025
2092 2 2 10 10 987 1025 1024
2093 2 2 10 10 988 989 1026
2094 2 2 10 10 988 1026 1025
2095 2 2 10 10 989 990 1027
2096 2 2 10 10 989 1027 1026
2097 2 2 10 10 990 991 1028
2098 2 2 10 10 990 1028 1027
2099 2 2 10 10 991 992 1029
2100 2 2 10 10 991 1029 1028
2101 2 2 10 10 992 993 1030
2102 2 2 10 10 992 1030 1029
2103 2 2 10 10 993 994 1031
2104 2 2 10 10 993 1031 1030
2105 2 2 10 10 995 996 1041
2106 2 2 10 10 995 1041 1040
2107 2 2 10 10 996 997 1042
2108 2 2 10 10 996 1042 1041
2109 2 2 10 10 997 998 1043
2110 2 2 10 10 997 1043 1042
2111 2 2 10 10 998 999 1044
2112 2 2 10 10 998 1044 1043
2113 2 2 10 10 999 1000 1045
2114 2 2 10 10 999 1045 1044
2115 2 2 10 10 1000 1001 1046
2116 2 2 10 10 1000 1046 1045
2117 2 2 10 10 1001 1002 1047
2118 2 2 10 10 1001 1047 1046
2119 2 2 10 10 1002 1003 1048
2120 2 2 10 10 1002 1048 1047
2121 2 2 10 10 1003 1004 1049
2122 2 2 10 10 1003 1049 1048
2123 2 2 10 10 1004 1005 1050
2124 2 2 10 10 1004 1050 1049
2125 2 2 10 10 1005 1006 1051
2126 2 2 10 10 1005 1051 1050
2127 2 2 10 10 1006 1007 1052
2128 2 2 10 10 1006 1052 1051
2129 2 2 10 10 1007 1008 1053
2130 2 2 10 10 1007 1053 1052
2131 2 2 10 10 1008 1009 1054
2132 2 2 10 10 1008 1054 1053
2133 2 2 10 10 1009 1010 1055
2134 2 2 10 10 1009 1055 1054
2135 2 2 10 10 1010 1011 1056
2136 2 2 10 10 1010 1056 1055
2137 2 2 10 10 1011 1012 1057
2138 2 2 10 10 1011 1057 1056
2139 2 2 10 10 1012 1013 1058
2140 2 2 10 10 1012 1058 1057
2141 2 2 10 10 1013 1014 1059
2142 2 2 10 10 1013 1059 1058
2143 2 2 10 10 1014 1015 1060
2144 2 2 10 10 1014 1060 1059
2145 2 2 10 10 1015 1016 1061
2146 2 2 10 10 1015 1061 1060
2147 2 2 10 10 1016 1017 1062
2148 2 2 10 10 1016 1062 1061
2149 2 2 10 10 1017 1018 1063
2150 2 2 10 10 1017 1063 1062
2151 2 2 10 10 1018 1019 1064
2152 2 2 10 10 1018 1064 1063
2153 2 2 10 10 1019 1020 1065
2154 2 2 10 10 1019 1065 1064
2155 2 2 10 10 1020 1021 1066
2156 2 2 10 10 1020 1066 1065
2157 2 2 10 10 1021 1022 1067
2158 2 2 10 10 1021 1067 1066
2159 2 2 10 10 1024 1025 1069
2160 2 2 10 10 1024 1069 1068
2161 2 2 10 10 1025 1026 1070
2162 2 2 10 10 1025 1070 1069
2163 2 2 10 10 1026 1027 1071
2164 2 2 10 10 1026 1071 1070
2165 2 2 10 10 1027 1028 1072
2166 2 2 10 10 1027 1072 1071
2167 2 2 10 10 1028 1029 1073
2168 2 2 10 10 1028 1073 1072
2169 2 2 10 10 1029 1030 1074
2170 2 2 10 10 1029 1074 1073
2171 2 2 10 10 1030 1031 1075
2172 2 2 10 10 1030 1075 1074
2173 2 2 10 10 1031 1032 1076
2174 2 2 10 10 1031 1076 1075
2175 2 2 10 10 1032 1033 1077
2176 2 2 10 10 1032 1077 1076
2177 2 2 10 10 1033 1034 1078
2178 2 2 10 10 1033 1078 1077
2179 2 2 10 10 1034 1035 1079
2180 2 2 10 10 1034 1079 1078
2181 2 2 10 10 1035 1036 1080
2182 2 2 10 10 1035 1080 1079
2183 2 2 10 10 1036 1037 1081
2184 2 2 10 10 1036 1081 1080
2185 2 2 10 10 1037 1038 1082
2186 2 2 10 10 1037 1082 1081
2187 2 2 10 10 1038 1039 1083
2188 2 2 10 10 1038 1083 1082
2189 2 2 10 10 1040 1041 1085
2190 2 2 10 10 1040 1085 1084
2191 2 2 10 10 1041 1042 1086
2192 2 2 10 10 1041 1086 1085
2193 2 2 10 10 1042 1043 1087
2194 2 2 10 10 1042 1087 1086
2195 2 2 10 10 1043 1044 1088
2196 2 2 10 10 1043 1088 1087
2197 2 2 10 10 1044 1045 1089
2198 2 2 10 10 1044 1089 1088
2199 2 2 10 10 1045 1046 1090
2200 2 2 10 10 1045 1090 1089
2201 2 2 10 10 1046 1047 1091
2202 2 2 10 10 1046 1091 1090
2203 2 2 10 10 1047 1048 1092
2204 2 2 10 10 1047 1092 1091
2205 2 2 10 10 1048 1049 1093
2206 2 2 10 10 1048 1093 1092
2207 2 2 10 10 1049 1050 1094
2208 2 2 10 10 1049 1094 1093
2209 2 2 10 10 1050 1051 1095
2210 2 2 10 10 1050 1095 1094
2211 2 2 10 10 1051 1052 1096
2212 2 2 10 10 1051 1096 1095
2213 2 2 10 10 1052 1053 1097
2214 2 2 10 10 1052 1097 1096
2215 2 2 10 10 1053 1054 1098
2216 2 2 10 10 1053 1098 1097
2217 2 2 10 10 1054 1055 1099
2218 2 2 10 10 1054 1099 1098
2219 2 2 10 10 1055 1056 1100
2220 2 2 10 10 1055 1100 1099
2221 2 2 10 10 1056 1057 1101
2222 2 2 10 10 1056 1101 1100
2223 2 2 10 10 1057 1058 1102
2224 2 2 10 10 1057 1102 1101
2225 2 2 10 10 1058 1059 1103
2226 2 2 10 10 1058 1103 1102
2227 2 2 10 10 1059 1060 1104
2228 2 2 10 10 1059 1104 1103
2229 2 2 10 10 1060 1061 1105
2230 2 2 10 10 1060 1105 1104
2231 2 2 10 10 1061 1062 1106
2232 2 2 10 10 1061 1106 1105
2233 2 2 10 10 1062 1063 1107
2234 2 2 10 10 1062 1107 1106
2235 2 2 10 10 1063 1064 1108
2236 2 2 10 10 1063 1108 1107
2237 2 2 10 10 1064 1065 1109
2238 2 2 10 10 1064 1109 1108
2239 2 2 10 10 1065 1066 1110
2240 2 2 10 10 1065 1110 1109
2241 2 2 10 10 1066 1067 1111
2242 2 2 10 10 1066 1111 1110
2243 2 2 10 10 1068 1069 1113
2244 2 2 10 10 1068 1113 1112
2245 2 2 10 10 1069 1070 1114
2246 2 2 10 10 1069 1114 1113
2247 2 2 10 10 1070 1071 1115
2248 2 2 10 10 1070 1115 1114
2249 2 2 10 10 1071 1072 1116
2250 2 2 10 10 1071 1116 1115
2251 2 2 10 10 1072 1073 1117
2252 2 2 10 10 1072 1117 1116
2253 2 2 10 10 1073 1074 1118
2254 2 2 10 10 1073 1118 1117
2255 2 2 10 10 1074 1075 1119
2256 2 2 10 10 1074 1119 1118
2257 2 2 10 10 1075 1076 1120
2258 2 2 10 10 1075 1120 1119
2259 2 2 10 10 1076 1077 1121
2260 2 2 10 10 1076 1121 1120
2261 2 2 10 10 1077 1078 1122
2262 2 2 10 10 1077 1122 1121
2263 2 2 10 10 1078 1079 1123
2264 2 2 10 10 1078 1123 1122
2265 2 2 10 10 1079 1080 1124
2266 2 2 10 10 1079 1124 1123
2267 2 2 10 10 1080 1081 1125
2268 2 2 10 10 1080 1125 1124
2269 2 2 10 10 1081 1082 1126
2270 2 2 10 10 1081 1126 1125
2271 2 2 10 10 1082 1083 1127
2272 2 2 10 10 1082 1127 1126
2273 2 2 10 10 1084 1085 1129
2274 2 2 10 10 1084 1129 1128
2275 2 2 10 10 1085 1086 1130
2276 2 2 10 10 1085 1130 1129
2277 2 2 10 10 1086 1087 1131
2278 2 2 10 10 1086 1131 1130
2279 2 2 10 10 1087 1088 1132
2280 2 2 10 10 1087 1132 1131
2281 2 2 10 10 1088 1089 1133
2282 2 2 10 10 1088 1133 1132
2283 2 2 10 10 1089 1090 1134
2284 2 2 10 10 1089 1134 1133
2285 2 2 10 10 1090 1091 1135
2286 2 2 10 10 1090 1135 1134
2287 2 2 10 10 1091 1092 1136
2288 2 2 10 10 1091 1136 1135
2289 2 2 10 10 1092 1093 1137
2290 2 2 10 10 1092 1137 1136
2291 2 2 10 10 1093 1094 1138
2292 2 2 10 10 1093 1138 1137
2293 2 2 10 10 1094 1095 1139
2294 2 2 10 10 1094 1139 1138
2295 2 2 10 10 1095 1096 1140
2296 2 2 10 10 1095 1140 1139
2297 2 2 10 10 1096 1097 1141
2298 2 2 10 10 1096 1141 1140
2299 2 2 10 10 1097 1098 1142
2300 2 2 10 10 1097 1142 1141
2301 2 2 10 10 1098 1099 1143
2302 2 2 10 10 1098 1143 1142
2303 2 2 10 10 1099 1100 1144
2304 2 2 10 10 1099 1144 1143
2305 2 2 10 10 1100 1101 1145
2306 2 2 10 10 1100 1145 1144
2307 2 2 10 10 1101 1102 1146
2308 2 2 10 10 1101 1146 1145
2309 2 2 10 10 1102 1103 1147
2310 2 2 10 10 1102 1147 1146
2311 2 2 10 10 1103 1104 1148
2312 2 2 10 10 1103 1148 1147
2313 2 2 10 10 1104 1105 1149
2314 2 2 10 10 1104 1149 1148
2315 2 2 10 10 1105 1106 1150
2316 2 2 10 10 1105 1150 1149
2317 2 2 10 10 1106 1107 1151
2318 2 2 10 10 1106 1151 1150
2319 2 2 10 10 1107 1108 1152
2320 2 2 10 10 1107 1152 1151
2321 2 2 10 10 1108 1109 1153
2322 2 2 10 10 1108 1153 1152
2323 2 2 10 10 1109 1110 1154
2324 2 2 10 10 1109 1154 1153
2325 2 2 10 10 1112 1113 1156
2326 2 2 10 10 1112 1156 1155
2327 2 2 10 10 1113 1114 1157
2328 2 2 10 10 1113 1157 1156
2329 2 2 10 10 1114 1115 1158
2330 2 2 10 10 1114 1158 1157
2331 2 2 10 10 1115 1116 1159
2332 2 2 10 10 1115 1159 1158
2333 2 2 10 10 1116 1117 1160
2334 2 2 10 10 1116 1160 1159
2335 2 2 10 10 1117 1118 1161
2336 2 2 10 10 1117 1161 1160
2337 2 2 10 10 1118 1119 1162
2338 2 2 10 10 1118 1162 1161
2339 2 2 10 10 1119 1120 1163
2340 2 2 10 10 1119 1163 1162
2341 2 2 10 10 1120 1121 1164
2342 2 2 10 10 1120 1164 1163
2343 2 2 10 10 1121 1122 1165
2344 2 2 10 10 1121 1165 1164
2345 2 2 10 10 1122 1123 1166
2346 2 2 10 10 1122 1166 1165
2347 2 2 10 10 1123 1124 1167
2348 2 2 10 10 1123 1167 1166
2349 2 2 10 10 1124 1125 1168
2350 2 2 10 10 1124 1168 1167
2351 2 2 10 10 1125 1126 1169
2352 2 2 10 10 1125 1169 1168
2353 2 2 10 10 1126 1127 1170
2354 2 2 10 10 1126 1170 1169
2355 2 2 10 10 1128 1129 1172
2356 2 2 10 10 1128 1172 1171
2357 2 2 10 10 1129 1130 1173
2358 2 2 10 10 1129 1173 1172
2359 2 2 10 10 1130 1131 1174
2360 2 2 10 10 1130 1174 1173
2361 2 2 10 10 1131 1132 1175
2362 2 2 10 10 1131 1175 1174
2363 2 2 10 10 1132 1133 1176
2364 2 2 10 10 1132 1176 1175
2365 2 2 10 10 1133 1134 1177
2366 2 2 10 10 1133 1177 1176
2367 2 2 10 10 1134 1135 1178
2368 2 2 10 10 1134 1178 1177
2369 2 2 10 10 1135 1136 1179
2370 2 2 10 10 1135 1179 1178
2371 2 2 10 10 1136 1137 1180
2372 2 2 10 10 1136 1180 1179
2373 2 2 10 10 1137 1138 1181
2374 2 2 10 10 1137 1181 1180
2375 2 2 10 10 1138 1139 1182
2376 2 2 10 10 1138 1182 1181
2377 2 2 10 10 1139 1140 1183
2378 2 2 10 10 1139 1183 1182
2379 2 2 10 10 1140 1141 1184
2380 2 2 10 10 1140 1184 1183
2381 2 2 10 10 1141 1142 1185
2382 2 2 10 10 1141 1185 1184
2383 2 2 10 10 1142 1143 1186
2384 2 2 10 10 1142 1186 1185
2385 2 2 10 10 1143 1144 1187
2386 2 2 10 10 1143 1187 1186
2387 2 2 10 10 1144 1145 1188
2388 2 2 10 10 1144 1188 1187
2389 2 2 10 10 1145 1146 1189
2390 2 2 10 10 1145 1189 1188
2391 2 2 10 10 1146 1147 1190
2392 2 2 10 10 1146 1190 1189
2393 2 2 10 10 1147 1148 1191
2394 2 2 10 10 1147 1191 1190
2395 2 2 10 10 1148 1149 1192
2396 2 2 10 10 1148 1192 1191
2397 2 2 10 10 1149 1150 1193
2398 2 2 10 10 1149 1193 1192
2399 2 2 10 10 1150 1151 1194
2400 2 2 10 10 1150 1194 1193
2401 2 2 10 10 1151 1152 1195
2402 2 2 10 10 1151 1195 1194
2403 2 2 10 10 1152 1153 1196
2404 2 2 10 10 1152 1196 1195
2405 2 2 10 10 1153 1154 1197
2406 2 2 10 10 1153 1197 1196
2407 2 2 10 10 1156 1157 1199
2408 2 2 10 10 1156 1199 1198
2409 2 2 10 10 1157 1158 1200
2410 2 2 10 10 1157 1200 1199
2411 2 2 10 10 1158 1159 1201
2412 2 2 10 10 1158 1201 1200
2413 2 2 10 10 1159 1160 1202
2414 2 2 10 10 1159 1202 1201
2415 2 2 10 10 1160 1161 1203
2416 2 2 10 10 1160 1203 1202
2417 2 2 10 10 1161 1162 1204
2418 2 2 10 10 1161 1204 1203
2419 2 2 10 10 1162 1163 1205
2420 2 2 10 10 1162 1205 1204
2421 2 2 10 10 1163 1164 1206
2422 2 2 10 10 1163 1206 1205
2423 2 2 10 10 1164 1165 1207
2424 2 2 10 10 1164 1207 1206
2425 2 2 10 10 1165 1166 1208
2426 2 2 10 10 1165 1208 1207
2427 2 2 10 10 1166 1167 1209
2428 2 2 10 10 1166 1209 1208
2429 2 2 10 10 1167 1168 1210
2430 2 2 10 10 1167 1210 1209
2431 2 2 10 10 1168 1169 1211
2432 2 2 10 10 1168 1211 1210
2433 2 2 10 10 1169 1170 1212
2434 2 2 10 10 1169 1212 1211
2435 2 2 10 10 1171 1172 1214
2436 2 2 10 10 1171 1214 1213
2437 2 2 10 10 1172 1173 1215
2438 2 2 10 10 1172 1215 1214
2439 2 2 10 10 1173 1174 1216
2440 2 2 10 10 1173 1216 1215
2441 2 2 10 10 1174 1175 1217
2442 2 2 10 10 1174 1217 1216
2443 2 2 10 10 1175 1176 1218
2444 2 2 10 10 1175 1218 1217
2445 2 2 10 10 1176 1177 1219
2446 2 2 10 10 1176 1219 1218
2447 2 2 10 10 1177 1178 1220
2448 2 2 10 10 1177 1220 1219
2449 2 2 10 10 1178 1179 1221
2450 2 2 10 10 1178 1221 1220
2451 2 2 10 10 1179 1180 1222
2452 2 2 10 10 1179 1222 1221
2453 2 2 10 10 1180 1181 1223
2454 2 2 10 10 1180 1223 1222
2455 2 2 10 10 1181 1182 1224
2456 2 2 10 10 1181 1224 1223
2457 2 2 10 10 1182 1183 1225
2458 2 2 10 10 1182 1225 1224
2459 2 2 10 10 1183 1184 1226
2460 2 2 10 10 1183 1226 1225
2461 2 2 10 10 1184 1185 1227
2462 2 2 10 10 1184 1227 1226
2463 2 2 10 10 1185 1186 1228
2464 2 2 10 10 1185 1228 1227
2465 2 2 10 10 1186 1187 1229
2466 2 2 10 10 1186 1229 1228
2467 2 2 10 10 1187 1188 1230
2468 2 2 10 10 1187 1230 1229
2469 2 2 10 10 1188 1189 1231
2470 2 2 10 10 1188 1231 1230
2471 2 2 10 10 1189 1190 1232
2472 2 2 10 10 1189 1232 1231
2473 2 2 10 10 1190 1191 1233
2474 2 2 10 10 1190 1233 1232
2475 2 2 10 10 1191 1192 1234
2476 2 2 10 10 1191 1234 1233
2477 2 2 10 10 1192 1193 1235
2478 2 2 10 10 1192 1235 1234
2479 2 2 10 10 1193 1194 1236
2480 2 2 10 10 1193 1236 1235
2481 2 2 10 10 1194 1195 1237
2482 2 2 10 10 1194 1237 1236
2483 2 2 10 10 1195 1196 1238
2484 2 2 10 10 1195 1238 1237
2485 2 2 10 10 1196 1197 1239
2486 2 2 10 10 1196 1239 1238
2487 2 2 10 10 1198 1199 1241
2488 2 2 10 10 1198 1241 1240
2489 2 2 10 10 1199 1200 1242
2490 2 2 10 10 1199 1242 1241
2491 2 2 10 10 1200 1201 1243
2492 2 2 10 10 1200 1243 1242
2493 2 2 10 10 1201 1202 1244
2494 2 2 10 10 1201 1244 1243
2495 2 2 10 10 1202 1203 1245
2496 2 2 10 10 1202 1245 1244
2497 2 2 10 10 1203 1204 1246
2498 2 2 10 10 1203 1246 1245
2499 2 2 10 10 1204 1205 1247
2500 2 2 10 10 1204 1247 1246
2501 2 2 10 10 1205 1206 1248
2502 2 2 10 10 1205 1248 1247
2503 2 2 10 10 1206 1207 1249
2504 2 2 10 10 1206 1249 1248
2505 2 2 10 10 1207 1208 1250
2506 2 2 10 10 1207 1250 1249
2507 2 2 10 10 1208 1209 1251
2508 2 2 10 10 1208 1251 1250
2509 2 2 10 10 1209 1210 1252
2510 2 2 10 10 1209 1252 1251
2511 2 2 10 10 1210 1211 1253
2512 2 2 10 10 1210 1253 1252
2513 2 2 10 10 1211 1212 1254
2514 2 2 10 10 1211 1254 1253
2515 2 2 10 10 1213 1214 1256
2516 2 2 10 10 1213 1256 1255
2517 2 2 10 10 1214 1215 1257
2518 2 2 10 10 1214 1257 1256
2519 2 2 10 10 1215 1216 1258
2520 2 2 10 10 1215 1258 1257
2521 2 2 10 10 1216 1217 1259
2522 2 2 10 10 1216 1259 1258
2523 2 2 10 10 1217 1218 1260
2524 2 2 10 10 1217 1260 1259
2525 2 2 10 10 1218 1219 1261
2526 2 2 10 10 1218 1261 1260
2527 2 2 10 10 1219 1220 1262
2528 2 2 10 10 1219 1262 1261
2529 2 2 10 10 1220 1221 1263
2530 2 2 10 10 1220 1263 1262
2531 2 2 10 10 1221 1222 1264
2532 2 2 10 10 1221 1264 1263
2533 2 2 10 10 1222 1223 1265
2534 2 2 10 10 1222 1265 1264
2535 2 2 10 10 1223 1224 1266
2536 2 2 10 10 1223 1266 1265
2537 2 2 10 10 1224 1225 1267
2538 2 2 10 10 1224 1267 1266
2539 2 2 10 10 1225 1226 1268
2540 2 2 10 10 1225 1268 1267
2541 2 2 10 10 1226 1227 1269
2542 2 2 10 10 1226 1269 1268
2543 2 2 10 10 1227 1228 1270
2544 2 2 10 10 1227 1270 1269
2545 2 2 10 10 1228 1229 1271
2546 2 2 10 10 1228 1271 1270
2547 2 2 10 10 1229 1230 1272
2548 2 2 10 10 1229 1272 1271
2549 2 2 10 10 1230 1231 1273
2550 2 2 10 10 1230 1273 1272
2551 2 2 10 10 1231 1232 1274
2552 2 2 10 10 1231 1274 1273
2553 2 2 10 10 1232 1233 1275
2554 2 2 10 10 1232 1275 1274
2555 2 2 10 10 1233 1234 1276
2556 2 2 10 10 1233 1276 1275
2557 2 2 10 10 1234 1235 1277
2558 2 2 10 10 1234 1277 1276
2559 2 2 10 10 1235 1236 1278
2560 2 2 10 10 1235 1278 1277
2561 2 2 10 10 1236 1237 1279
2562 2 2 10 10 1236 1279 1278
2563 2 2 10 10 1237 1238 1280
2564 2 2 10 10 1237 1280 1279
2565 2 2 10 10 1241 1242 1282
2566 2 2 10 10 1241 1282 1281
2567 2 2 10 10 1242 1243 1283
2568 2 2 10 10 1242 1283 1282
2569 2 2 10 10 1243 1244 1284
2570 2 2 10 10 1243 1284 1283
2571 2 2 10 10 1244 1245 1285
2572 2 2 10 10 1244 1285 1284
2573 2 2 10 10 1245 1246 1286
2574 2 2 10 10 1245 1286 1285
2575 2 2 10 10 1246 1247 1287
2576 2 2 10 10 1246 1287 1286
2577 2 2 10 10 1247 1248 1288
2578 2 2 10 10 1247 1288 1287
2579 2 2 10 10 1248 1249 1289
2580 2 2 10 10 1248 1289 1288
2581 2 2 10 10 1249 1250 1290
2582 2 2 10 10 1249 1290 1289
2583 2 2 10 10 1250 1251 1291
2584 2 2 10 10 1250 1291 1290
2585 2 2 10 10 1251 1252 1292
2586 2 2 10 10 1251 1292 1291
2587 2 2 10 10 1252 1253 1293
2588 2 2 10 10 1252 1293 1292
2589 2 2 10 10 1253 1254 1294
2590 2 2 10 10 1253 1294 1293
2591 2 2 10 10 1255 1256 1296
2592 2 2 10 10 1255 1296 1295
2593 2 2 10 10 1256 1257 1297
2594 2 2 10 10 1256 1297 1296
2595 2 2 10 10 1257 1258 1298
2596 2 2 10 10 1257 1298 1297
2597 2 2 10 10 1258 1259 1299
2598 2 2 10 10 1258 1299 1298
2599 2 2 10 10 1259 1260 1300
2600 2 2 10 10 1259 1300 1299
2601 2 2 10 10 1260 1261 1301
2602 2 2 10 10 1260 1301 1300
2603 2 2 10 10 1261 1262 1302
2604 2 2 10 10 1261 1302 1301
2605 2 2 10 10 1262 1263 1303
2606 2 2 10 10 1262 1303 1302
2607 2 2 10 10 1263 1264 1304
2608 2 2 10 10 1263 1304 1303
2609 2 2 10 10 1264 1265 1305
2610 2 2 10 10 1264 1305 1304
2611 2 2 10 10 1265 1266 1306
2612 2 2 10 10 1265 1306 1305
2613 2 2 10 10 1266 1267 1307
2614 2 2 10 10 1266 1307 1306
2615 2 2 10 10 1267 1268 1308
2616 2 2 10 10 1267 1308 1307
2617 2 2 10 10 1268 1269 1309
2618 2 2 10 10 1268 1309 1308
2619 2 2 10 10 1269 1270 1310
2620 2 2 10 10 1269 1310 1309
2621 2 2 10 10 1270 1271 1311
2622 2 2 10 10 1270 1311 1310
2623 2 2 10 10 1271 1272 1312
2624 2 2 10 10 1271 1312 1311
2625 2 2 10 10 1272 1273 1313
2626 2 2 10 10 1272 1313 1312
2627 2 2 10 10 1273 1274 1314
2628 2 2 10 10 1273 1314 1313
2629 2 2 10 10 1274 1275 1315
2630 2 2 10 10 1274 1315 1314
2631 2 2 10 10 1275 1276 1316
2632 2 2 10 10 1275 1316 1315
2633 2 2 10 10 1276 1277 1317
2634 2 2 10 10 1276 1317 1316
2635 2 2 10 10 1277 1278 1318
2636 2 2 10 10 1277 1318 1317
2637 2 2 10 10 1278 1279 1319
2638 2 2 10 10 1278 1319 1318
2639 2 2 10 10 1282 1283 1321
2640 2 2 10 10 1282 1321 1320
2641 2 2 10 10 1283 1284 1322
2642 2 2 10 10 1283 1322 1321
2643 2 2 10 10 1284 1285 1323
2644 2 2 10 10 1284 1323 1322
2645 2 2 10 10 1285 1286 1324
2646 2 2 10 10 1285 1324 1323
2647 2 2 10 10 1286 1287 1325
2648 2 2 10 10 1286 1325 1324
2649 2 2 10 10 1287 1288 1326
2650 2 2 10 10 1287 1326 1325
2651 2 2 10 10 1288 1289 1327
2652 2 2 10 10 1288 1327 1326
2653 2 2 10 10 1289 1290 1328
2654 2 2 10 10 1289 1328 1327
2655 2 2 10 10 1290 1291 1329
2656 2 2 10 10 1290 1329 1328
2657 2 2 10 10 1291 1292 1330
2658 2 2 10 10 1291 1330 1329
2659 2 2 10 10 1292 1293 1331
2660 2 2 10 10 1292 1331 1330
2661 2 2 10 10 1293 1294 1332
2662 2 2 10 10 1293 1332 1331
$EndElements
